<?xml version="1.0" encoding="UTF-8"?>
<svg xmlns="http://www.w3.org/2000/svg" xmlns:xlink="http://www.w3.org/1999/xlink" width="100%" height="100%" viewBox="0 0 1024 1024" version="1.1">
<defs>
<linearGradient id="linear0" gradientUnits="userSpaceOnUse" x1="16.0335" y1="5.4208" x2="16.0335" y2="27.5461" gradientTransform="matrix(32,0,0,32,0,0)">
<stop offset="0" style="stop-color:rgb(100%,96.862745%,76.862745%);stop-opacity:1;"/>
<stop offset="0.2318" style="stop-color:rgb(83.921569%,74.509804%,46.666667%);stop-opacity:1;"/>
<stop offset="0.3855" style="stop-color:rgb(100%,96.862745%,76.862745%);stop-opacity:1;"/>
<stop offset="0.6006" style="stop-color:rgb(64.705882%,57.647059%,36.078431%);stop-opacity:1;"/>
<stop offset="0.7402" style="stop-color:rgb(25.882353%,23.137255%,15.294118%);stop-opacity:1;"/>
<stop offset="0.7667" style="stop-color:rgb(28.235294%,25.098039%,16.470588%);stop-opacity:1;"/>
<stop offset="0.8025" style="stop-color:rgb(34.901961%,31.372549%,20%);stop-opacity:1;"/>
<stop offset="0.8435" style="stop-color:rgb(46.27451%,41.176471%,26.27451%);stop-opacity:1;"/>
<stop offset="0.8882" style="stop-color:rgb(61.568627%,54.901961%,34.509804%);stop-opacity:1;"/>
<stop offset="0.8966" style="stop-color:rgb(64.705882%,57.647059%,36.078431%);stop-opacity:1;"/>
<stop offset="1" style="stop-color:rgb(65.882353%,65.098039%,41.568627%);stop-opacity:1;"/>
</linearGradient>
<linearGradient id="linear1" gradientUnits="userSpaceOnUse" x1="16.6016" y1="13.4223" x2="16.8244" y2="8.3431" gradientTransform="matrix(32,0,0,-32,0,1088)">
<stop offset="0" style="stop-color:rgb(100%,96.862745%,76.862745%);stop-opacity:1;"/>
<stop offset="0.5223" style="stop-color:rgb(64.705882%,57.647059%,36.078431%);stop-opacity:1;"/>
<stop offset="1" style="stop-color:rgb(100%,96.862745%,76.862745%);stop-opacity:1;"/>
</linearGradient>
<filter id="alpha" filterUnits="objectBoundingBox" x="0%" y="0%" width="100%" height="100%">
  <feColorMatrix type="matrix" in="SourceGraphic" values="0 0 0 0 1 0 0 0 0 1 0 0 0 0 1 0 0 0 1 0"/>
</filter>
<mask id="mask0">
  <g filter="url(#alpha)">
<rect x="0" y="0" width="1024" height="1024" style="fill:rgb(0%,0%,0%);fill-opacity:0.768627;stroke:none;"/>
  </g>
</mask>
<linearGradient id="linear2" gradientUnits="userSpaceOnUse" x1="16.5495" y1="9.7871" x2="16.5495" y2="13.2217" gradientTransform="matrix(32,0,0,-32,0,1088)">
<stop offset="0" style="stop-color:rgb(23.137255%,20.392157%,12.941176%);stop-opacity:0;"/>
<stop offset="0.2211" style="stop-color:rgb(20.784314%,19.607843%,16.078431%);stop-opacity:0.301961;"/>
<stop offset="0.5223" style="stop-color:rgb(18.823529%,18.823529%,18.431373%);stop-opacity:0.709804;"/>
<stop offset="0.9709" style="stop-color:rgb(22.745098%,20.392157%,13.333333%);stop-opacity:0.0431373;"/>
<stop offset="1" style="stop-color:rgb(23.137255%,20.392157%,12.941176%);stop-opacity:0;"/>
</linearGradient>
<clipPath id="clip1">
  <rect x="0" y="0" width="1024" height="1024"/>
</clipPath>
<g id="surface5" clip-path="url(#clip1)">
<path style=" stroke:none;fill-rule:nonzero;fill:url(#linear2);" d="M 89.503906 663.425781 L 969.664062 663.425781 L 969.664062 775.902344 L 89.503906 775.902344 Z M 89.503906 663.425781 "/>
</g>
<linearGradient id="linear3" gradientUnits="userSpaceOnUse" x1="8.666" y1="12.0149" x2="8.666" y2="9.359" gradientTransform="matrix(32,0,0,-32,0,1088)">
<stop offset="0" style="stop-color:rgb(100%,96.862745%,76.862745%);stop-opacity:1;"/>
<stop offset="0.5223" style="stop-color:rgb(64.705882%,57.647059%,36.078431%);stop-opacity:1;"/>
<stop offset="1" style="stop-color:rgb(100%,96.862745%,76.862745%);stop-opacity:1;"/>
</linearGradient>
<linearGradient id="linear4" gradientUnits="userSpaceOnUse" x1="4.6815" y1="12.0149" x2="4.6815" y2="9.359" gradientTransform="matrix(32,0,0,-32,0,1088)">
<stop offset="0" style="stop-color:rgb(100%,96.862745%,76.862745%);stop-opacity:1;"/>
<stop offset="0.5223" style="stop-color:rgb(64.705882%,57.647059%,36.078431%);stop-opacity:1;"/>
<stop offset="1" style="stop-color:rgb(100%,96.862745%,76.862745%);stop-opacity:1;"/>
</linearGradient>
<linearGradient id="linear5" gradientUnits="userSpaceOnUse" x1="12.6932" y1="12.0149" x2="12.6932" y2="9.359" gradientTransform="matrix(32,0,0,-32,0,1088)">
<stop offset="0" style="stop-color:rgb(100%,96.862745%,76.862745%);stop-opacity:1;"/>
<stop offset="0.5223" style="stop-color:rgb(64.705882%,57.647059%,36.078431%);stop-opacity:1;"/>
<stop offset="1" style="stop-color:rgb(100%,96.862745%,76.862745%);stop-opacity:1;"/>
</linearGradient>
<linearGradient id="linear6" gradientUnits="userSpaceOnUse" x1="28.7335" y1="12.0149" x2="28.7335" y2="9.359" gradientTransform="matrix(32,0,0,-32,0,1088)">
<stop offset="0" style="stop-color:rgb(100%,96.862745%,76.862745%);stop-opacity:1;"/>
<stop offset="0.5223" style="stop-color:rgb(64.705882%,57.647059%,36.078431%);stop-opacity:1;"/>
<stop offset="1" style="stop-color:rgb(100%,96.862745%,76.862745%);stop-opacity:1;"/>
</linearGradient>
<linearGradient id="linear7" gradientUnits="userSpaceOnUse" x1="16.6395" y1="12.0149" x2="16.6395" y2="9.359" gradientTransform="matrix(32,0,0,-32,0,1088)">
<stop offset="0" style="stop-color:rgb(100%,96.862745%,76.862745%);stop-opacity:1;"/>
<stop offset="0.5223" style="stop-color:rgb(64.705882%,57.647059%,36.078431%);stop-opacity:1;"/>
<stop offset="1" style="stop-color:rgb(100%,96.862745%,76.862745%);stop-opacity:1;"/>
</linearGradient>
<linearGradient id="linear8" gradientUnits="userSpaceOnUse" x1="24.688" y1="12.0149" x2="24.688" y2="9.359" gradientTransform="matrix(32,0,0,-32,0,1088)">
<stop offset="0" style="stop-color:rgb(100%,96.862745%,76.862745%);stop-opacity:1;"/>
<stop offset="0.5223" style="stop-color:rgb(64.705882%,57.647059%,36.078431%);stop-opacity:1;"/>
<stop offset="1" style="stop-color:rgb(100%,96.862745%,76.862745%);stop-opacity:1;"/>
</linearGradient>
<linearGradient id="linear9" gradientUnits="userSpaceOnUse" x1="20.7125" y1="12.0149" x2="20.7125" y2="9.359" gradientTransform="matrix(32,0,0,-32,0,1088)">
<stop offset="0" style="stop-color:rgb(100%,96.862745%,76.862745%);stop-opacity:1;"/>
<stop offset="0.5223" style="stop-color:rgb(64.705882%,57.647059%,36.078431%);stop-opacity:1;"/>
<stop offset="1" style="stop-color:rgb(100%,96.862745%,76.862745%);stop-opacity:1;"/>
</linearGradient>
</defs>
<g id="surface1">
<path style=" stroke:none;fill-rule:nonzero;fill:rgb(18.823529%,18.823529%,18.431373%);fill-opacity:1;" d="M 1003.550781 444.03125 C 1002.398438 442.6875 1001.023438 441.535156 999.425781 440.609375 C 991.425781 435.96875 982.753906 433.472656 973.054688 432.960938 C 967.648438 418.910156 968.609375 401.214844 969.664062 382.304688 C 970.433594 368.863281 971.296875 353.632812 969.441406 338.910156 C 968.894531 335.007812 967.007812 331.457031 964 328.863281 C 953.054688 319.457031 939.839844 317.183594 927.808594 322.65625 C 922.71875 324.992188 918.398438 328.480469 914.785156 332.449219 C 914.113281 330.273438 913.535156 328.128906 912.992188 326.113281 C 924 323.167969 933.792969 317.566406 942.238281 309.472656 C 963.550781 288.960938 971.902344 255.457031 962.496094 227.96875 C 954.335938 204.257812 934.753906 188.191406 908.289062 183.007812 C 912.0625 178.878906 916.160156 173.472656 916.734375 166.078125 C 917.121094 161.535156 915.488281 157.023438 912.320312 153.761719 C 909.121094 150.433594 903.902344 148.414062 900.222656 148.863281 C 887.648438 149.3125 874.6875 153.792969 862.6875 161.664062 C 862.6875 161.28125 862.6875 160.929688 862.6875 160.542969 C 862.59375 147.648438 862.496094 134.335938 867.777344 124.351562 C 872.128906 110.71875 867.328125 103.328125 862.59375 99.585938 C 859.488281 97.121094 851.105469 92.257812 838.6875 99.550781 C 825.855469 107.199219 804.800781 130.976562 791.425781 159.710938 C 791.425781 159.585938 791.390625 159.425781 791.390625 159.265625 C 787.9375 143.328125 773.40625 139.839844 766.433594 138.144531 C 765.246094 137.855469 761.664062 136.992188 761.089844 136.671875 C 761.054688 136.609375 760.894531 136.289062 760.414062 134.367188 C 750.558594 107.585938 726.304688 108.863281 711.742188 109.632812 C 700.894531 110.046875 695.550781 109.855469 693.28125 107.167969 C 692.542969 106.273438 691.648438 105.472656 690.6875 104.769531 C 690.65625 104.320312 690.59375 103.902344 690.464844 103.425781 C 686.078125 82.6875 673.824219 65.023438 657.726562 56.257812 C 644.382812 48.894531 629.441406 48.03125 614.59375 53.695312 C 609.28125 55.710938 605.535156 60.351562 604.542969 65.726562 C 594.527344 62.945312 582.878906 62.304688 569.953125 64 C 565.632812 64.574219 561.695312 66.910156 559.199219 70.335938 C 557.089844 73.183594 555.96875 76.703125 556.03125 80.289062 C 551.457031 79.519531 546.847656 79.296875 542.207031 79.617188 C 536.800781 63.519531 523.230469 50.433594 506.367188 45.246094 C 490.71875 40.480469 474.558594 43.230469 463.585938 52.382812 C 456.894531 56.863281 453.023438 62.335938 450.6875 67.390625 C 448.609375 66.433594 446.273438 65.535156 443.648438 64.734375 C 420.320312 60.511719 408.574219 69.472656 402.878906 77.695312 C 400.480469 81.152344 399.070312 84.894531 398.207031 88.257812 C 395.648438 88.222656 392.222656 88.097656 387.902344 87.839844 C 373.214844 87.136719 351.871094 86.113281 340.769531 98.273438 C 339.007812 97.855469 337.28125 97.761719 335.457031 97.953125 C 313.886719 100.511719 293.246094 109.054688 274.816406 123.390625 C 274.304688 121.984375 273.601562 120.703125 272.734375 119.488281 C 254.65625 94.625 234.273438 99.777344 228.480469 101.953125 C 210.433594 108.769531 198.433594 131.039062 200.542969 153.726562 C 200.800781 156.609375 201.375 159.390625 202.238281 162.207031 C 187.230469 163.550781 175.359375 175.585938 172.769531 192.671875 C 171.070312 203.710938 173.984375 214.113281 180.480469 221.375 C 172.800781 230.238281 173.3125 238.785156 175.488281 244.894531 C 172.480469 247.839844 169.34375 251.039062 166.398438 254.464844 C 154.527344 249.695312 139.007812 256.03125 132.960938 268.160156 C 130.785156 272.511719 128.320312 280.542969 132.671875 290.464844 C 127.9375 292.734375 123.808594 296.289062 120.542969 300.992188 C 111.425781 314.078125 110.046875 333.566406 113.472656 346.496094 C 117.761719 359.039062 128.289062 364.0625 135.488281 366.527344 C 135.425781 366.527344 135.359375 366.527344 135.296875 366.527344 C 118.496094 366.527344 101.761719 382.175781 91.230469 397.695312 C 86.273438 405.023438 75.871094 422.785156 80.03125 438.59375 C 79.742188 439.039062 79.457031 439.488281 79.230469 440.03125 C 63.9375 472.289062 67.902344 502.625 71.457031 529.984375 C 71.617188 531.199219 71.777344 532.414062 71.9375 533.632812 C 68.894531 532.289062 65.664062 531.296875 62.207031 530.71875 C 44.320312 527.777344 26.335938 536.289062 17.441406 551.808594 C 8.769531 568.511719 9.566406 587.136719 19.585938 602.910156 C 30.910156 620.734375 51.519531 631.808594 73.34375 631.808594 L 75.742188 631.777344 C 86.113281 631.457031 95.136719 629.152344 102.785156 624.929688 C 104.863281 641.921875 112.609375 653.726562 124.832031 658.144531 C 123.679688 669.695312 130.558594 681.792969 135.070312 689.695312 L 136.289062 691.777344 C 136.960938 692.929688 137.601562 693.855469 137.441406 693.3125 C 138.6875 698.785156 141.34375 703.457031 145.214844 707.007812 C 141.121094 712.800781 138.71875 719.679688 138.496094 726.398438 C 138.273438 732.769531 140 754.304688 173.214844 762.816406 L 175.328125 762.847656 C 180.542969 762.847656 185.761719 761.855469 190.71875 759.902344 C 192.609375 763.617188 195.457031 766.878906 199.265625 769.695312 C 199.265625 769.726562 199.296875 769.726562 199.296875 769.726562 C 198.398438 779.296875 200.734375 788.289062 206.113281 796.480469 L 207.902344 800.992188 C 211.550781 810.335938 217.953125 826.816406 230.144531 833.246094 C 230.464844 835.648438 231.296875 837.984375 232.671875 840.0625 C 244.832031 858.464844 262.046875 873.214844 282.847656 883.039062 C 276.351562 890.6875 272.800781 901.214844 273.726562 911.648438 C 275.070312 926.433594 286.464844 942.976562 315.105469 945.152344 C 339.230469 944.734375 361.121094 924.671875 365.121094 898.398438 C 372.480469 914.273438 389.441406 926.59375 418.433594 937.152344 C 420.160156 937.792969 421.984375 938.078125 423.871094 938.078125 C 425.761719 938.078125 429.3125 937.40625 430.785156 936.929688 C 435.457031 935.359375 439.105469 931.742188 440.769531 927.199219 C 450.046875 933.984375 462.847656 934.753906 472.800781 935.359375 C 475.457031 935.519531 480.929688 935.839844 483.328125 936.480469 C 486.078125 937.152344 488.894531 937.152344 491.390625 936.511719 C 491.457031 936.480469 491.519531 936.480469 491.585938 936.449219 C 492.832031 940.289062 494.59375 943.839844 496.769531 946.847656 C 502.113281 954.175781 510.046875 958.527344 517.984375 958.527344 C 519.007812 958.527344 520 958.433594 519.710938 958.335938 C 534.335938 959.519531 547.550781 952.734375 555.488281 940.222656 C 562.785156 928.734375 564.0625 913.824219 559.136719 901.023438 C 559.359375 900.960938 559.585938 900.929688 559.808594 900.863281 C 571.007812 931.585938 597.824219 933.726562 626.144531 936.03125 L 634.207031 936.609375 C 645.183594 936.222656 650.945312 931.265625 653.886719 927.167969 C 660.351562 918.015625 657.441406 907.136719 655.007812 899.550781 C 656.511719 899.136719 657.953125 898.496094 659.296875 897.632812 C 658.976562 899.617188 658.847656 901.632812 658.910156 903.710938 C 659.457031 919.265625 670.398438 933.601562 684.382812 936.992188 C 686.816406 937.601562 689.601562 937.632812 691.585938 937.089844 C 723.96875 930.207031 731.199219 912.832031 732.640625 903.070312 C 735.007812 886.878906 724.863281 869.984375 706.65625 860 C 706.558594 859.96875 706.496094 859.902344 706.398438 859.871094 C 712.671875 856.640625 719.136719 853.214844 725.726562 849.441406 C 729.792969 851.328125 733.921875 851.871094 737.664062 851.488281 C 746.113281 851.105469 753.441406 846.847656 758.527344 839.585938 C 759.488281 840.03125 760.511719 840.414062 761.566406 840.769531 C 764.992188 841.886719 768.511719 841.824219 771.96875 840.574219 C 810.71875 826.496094 825.441406 815.742188 828.351562 799.488281 C 829.503906 792.894531 827.839844 787.230469 825.632812 782.753906 C 833.855469 774.816406 838.910156 763.742188 843.710938 752.863281 C 851.328125 763.199219 864.609375 766.878906 879.390625 762.59375 C 892 759.007812 902.71875 747.777344 906.6875 733.984375 C 910.367188 721.152344 907.679688 708.511719 899.359375 699.359375 C 898.015625 697.855469 896.351562 696.609375 894.367188 695.617188 L 890.753906 693.855469 C 893.089844 690.144531 895.328125 685.792969 896.414062 680.609375 C 896.511719 680.097656 896.574219 679.648438 896.609375 679.199219 C 917.28125 669.695312 932.351562 647.96875 942.59375 633.214844 C 946.433594 627.585938 946.304688 620.097656 942.238281 614.59375 C 941.472656 613.535156 940.640625 612.609375 939.839844 611.839844 C 952.128906 590.910156 950.238281 567.871094 948.609375 549.089844 C 951.871094 550.015625 955.007812 550.238281 957.441406 549.761719 C 972.992188 549.726562 985.792969 540.320312 990.847656 525.246094 C 992.734375 519.679688 993.375 513.761719 992.863281 507.808594 C 1001.726562 505.472656 1008.609375 499.296875 1012.128906 490.398438 C 1018.273438 474.753906 1012.609375 454.558594 1003.550781 444.03125 Z M 694.910156 696.609375 C 689.503906 690.910156 680.703125 689.953125 674.433594 694.238281 C 671.902344 695.9375 665.886719 699.871094 664.800781 707.808594 C 664.03125 713.632812 666.175781 717.855469 668.382812 720.929688 C 665.503906 722.847656 662.558594 724.609375 659.648438 726.433594 C 656.574219 728.289062 653.566406 730.144531 650.59375 732.097656 C 649.441406 732.832031 648.382812 733.792969 647.457031 734.847656 C 632.351562 733.023438 616.289062 741.214844 603.230469 748.0625 C 594.273438 752.734375 584.128906 758.046875 578.207031 758.144531 C 574.65625 752.414062 568.609375 745.121094 557.535156 746.558594 C 551.96875 747.519531 545.566406 751.679688 543.457031 760.449219 C 537.246094 761.40625 530.976562 762.273438 524.703125 763.007812 C 523.070312 763.199219 521.503906 763.679688 520 764.449219 C 509.089844 758.816406 491.519531 756.960938 463.105469 755.519531 L 460.671875 755.390625 C 456.894531 755.199219 452 754.945312 448.222656 754.6875 C 448 751.710938 447.230469 748.960938 445.855469 746.433594 C 444.0625 743.105469 439.648438 737.3125 430.335938 735.808594 C 424.128906 734.6875 417.953125 737.28125 414.304688 742.753906 C 414.207031 742.878906 414.113281 743.039062 414.015625 743.199219 C 409.566406 742.304688 405.441406 740.992188 401.726562 739.265625 C 401.855469 735.617188 400.734375 731.96875 398.496094 729.089844 C 388.703125 716.097656 372.863281 706.464844 356.800781 696.671875 C 349.441406 692.160156 342.398438 687.902344 336.992188 683.777344 C 337.28125 681.953125 337.246094 680.160156 336.894531 678.433594 C 334.6875 667.777344 327.136719 664.128906 323.457031 662.945312 C 335.457031 660.0625 344.191406 652.320312 347.679688 640.960938 C 352.097656 626.527344 346.078125 609.40625 333.664062 601.121094 C 327.199219 596.769531 319.839844 595.230469 312.542969 596.222656 C 327.679688 590.753906 333.152344 580.894531 335.105469 574.59375 C 339.265625 561.152344 333.566406 545.664062 320.863281 536.03125 C 311.519531 528.929688 300.382812 526.464844 289.855469 528.832031 C 288.414062 514.175781 288.128906 498.015625 288 489.535156 C 288 487.808594 287.96875 486.238281 287.9375 484.703125 C 312.03125 484.191406 323.007812 471.105469 325.441406 458.238281 C 326.6875 458.527344 328 458.753906 329.375 458.945312 C 346.304688 458.878906 359.808594 449.152344 364.574219 433.566406 C 370.207031 415.167969 363.230469 393.632812 348.320312 383.457031 C 345.28125 381.375 338.847656 377.855469 330.238281 377.761719 C 333.121094 374.273438 337.089844 370.878906 342.59375 368.128906 C 347.550781 373.632812 356.289062 374.976562 362.816406 371.039062 C 363.457031 370.65625 364.0625 370.238281 364.703125 369.761719 L 364.832031 369.886719 L 367.679688 367.359375 C 368.0625 367.007812 368.449219 366.6875 368.832031 366.335938 L 369.40625 365.824219 C 373.28125 367.070312 377.183594 367.679688 381.472656 367.679688 C 381.472656 367.679688 381.472656 367.679688 381.503906 367.679688 C 390.046875 367.390625 408.128906 361.921875 418.59375 351.359375 C 418.945312 351.457031 419.296875 351.550781 419.648438 351.648438 C 433.824219 354.625 449.886719 344.382812 457.3125 334.175781 C 465.921875 322.335938 462.113281 312.800781 460.097656 309.214844 C 457.28125 304.320312 452.960938 301.089844 447.425781 299.585938 C 454.144531 295.902344 461.054688 292.542969 468.097656 289.503906 C 474.464844 297.664062 483.808594 300.863281 492.382812 298.144531 C 493.695312 297.695312 494.945312 297.089844 496.128906 296.320312 C 498.238281 294.910156 500.03125 293.28125 501.441406 291.457031 C 512.351562 297.566406 523.839844 300.191406 535.742188 300.222656 C 525.152344 309.695312 516.960938 320.734375 512.449219 331.96875 C 508.191406 337.855469 508.542969 346.273438 513.28125 351.9375 C 516.160156 355.390625 520.542969 357.40625 524.382812 357.40625 C 524.449219 357.40625 524.542969 357.40625 524.609375 357.40625 L 528.703125 357.246094 C 532.542969 356.671875 536.097656 355.007812 539.328125 353.472656 C 547.359375 349.664062 562.910156 342.59375 578.65625 343.648438 C 574.753906 347.265625 571.457031 351.007812 568.832031 354.816406 C 559.230469 368.609375 555.808594 383.9375 558.816406 399.105469 C 559.96875 404.800781 564.097656 409.441406 569.726562 411.265625 C 575.296875 412.894531 581.375 411.550781 585.535156 407.550781 C 597.3125 396.320312 612.703125 389.472656 628.769531 388.03125 C 627.425781 393.886719 627.488281 399.519531 628.863281 404.574219 C 629.246094 409.535156 632.0625 414.144531 636.382812 416.894531 C 642.976562 421.121094 652.800781 419.328125 657.632812 413.054688 C 666.816406 401.3125 681.375 393.601562 695.390625 393.375 C 705.886719 393.375 715.390625 398.113281 722.847656 407.070312 C 722.847656 407.105469 722.878906 407.136719 722.910156 407.136719 C 721.28125 417.089844 724.449219 425.726562 729.121094 433.054688 C 721.695312 434.273438 715.167969 437.503906 710.398438 442.59375 C 705.089844 448.222656 697.34375 460.832031 705.121094 482.207031 C 705.921875 484.351562 707.136719 486.273438 708.769531 487.9375 C 725.886719 505.089844 742.816406 502.113281 752.160156 494.367188 C 752.734375 493.886719 753.28125 493.375 753.824219 492.863281 C 755.230469 495.777344 755.96875 498.078125 756.097656 499.457031 C 756.128906 499.839844 756.191406 500.222656 756.257812 500.609375 C 753.535156 503.390625 751.488281 506.527344 750.078125 509.953125 L 749.28125 512.289062 C 747.808594 518.113281 747.550781 524 748.511719 530.304688 C 745.664062 529.695312 742.945312 529.566406 740.449219 529.761719 C 732.097656 530.144531 716.511719 534.175781 705.632812 557.566406 C 701.183594 571.199219 704.382812 584.222656 714.367188 593.3125 C 724.480469 602.433594 739.9375 605.214844 752.03125 600.03125 C 752.191406 599.96875 752.320312 599.902344 752.480469 599.839844 C 752.289062 600.511719 752.160156 601.214844 752.097656 601.921875 C 750.144531 603.902344 748.734375 606.398438 748.03125 608.960938 C 746.816406 613.023438 747.359375 617.503906 749.375 621.121094 C 750.464844 623.136719 751.96875 624.832031 753.953125 626.238281 C 752.511719 630.078125 750.71875 633.886719 748.640625 637.632812 C 748.257812 638.335938 747.96875 639.039062 747.808594 639.710938 C 747.648438 639.777344 747.519531 639.839844 747.359375 639.9375 C 731.808594 648.609375 722.175781 662.625 712.863281 676.222656 C 707.359375 684.257812 702.078125 691.902344 696.128906 697.792969 C 695.617188 697.375 695.265625 696.960938 694.910156 696.609375 Z M 694.910156 696.609375 "/>
<path style=" stroke:none;fill-rule:nonzero;fill:url(#linear0);" d="M 462.816406 274.273438 C 443.425781 282.367188 423.808594 291.9375 407.96875 305.824219 C 404.414062 300.734375 398.71875 296.640625 392.511719 294.6875 C 409.535156 283.296875 430.6875 278.144531 443.039062 260.832031 C 444.929688 258.175781 449.855469 250.304688 448.671875 247.9375 C 433.921875 218.335938 423.617188 184.929688 409.441406 154.433594 C 412.609375 154.910156 418.816406 149.152344 421.375 154.816406 C 431.167969 185.023438 442.558594 215.9375 455.230469 246.6875 C 455.230469 246.6875 464.449219 273.601562 462.816406 274.273438 Z M 409.984375 332.351562 C 404.449219 318.433594 395.871094 297.761719 379.390625 304.800781 C 359.9375 320.191406 381.984375 345.921875 386.878906 327.070312 C 386.71875 323.425781 378.144531 324.480469 379.070312 319.359375 C 388.382812 301.886719 406.046875 332.800781 390.078125 340.542969 C 372 352.0625 354.59375 325.214844 364.191406 309.855469 C 377.855469 278.753906 424 277.855469 437.472656 247.648438 L 430.207031 230.113281 C 415.808594 264.863281 364.609375 273.855469 346.113281 303.902344 C 351.457031 308.894531 348.671875 317.792969 342.015625 320.703125 C 352.929688 334.144531 365.183594 351.9375 380.929688 351.777344 C 388.480469 351.457031 413.152344 342.59375 409.984375 332.351562 Z M 422.847656 336 C 439.808594 341.632812 463.070312 308.703125 437.472656 311.265625 C 434.558594 310.304688 428.542969 317.953125 433.152344 317.792969 C 438.078125 314.238281 444.160156 322.433594 438.753906 325.855469 C 427.902344 333.632812 414.753906 317.566406 424.800781 308.542969 L 423.457031 306.078125 C 419.617188 308.671875 416.03125 311.617188 412.703125 314.496094 C 415.167969 320.511719 419.457031 327.457031 420.160156 334.015625 C 421.441406 335.296875 420 335.9375 422.847656 336 Z M 402.496094 853.054688 C 412.574219 828.0625 416.289062 800.351562 425.824219 775.167969 C 426.753906 768.382812 438.753906 753.28125 427.679688 751.488281 C 419.167969 764.351562 418.273438 784.320312 413.472656 799.136719 C 411.9375 816.992188 398.046875 835.648438 402.496094 853.054688 Z M 385.726562 738.65625 C 372.734375 721.472656 342.304688 708.734375 325.054688 694.625 C 319.390625 700.800781 304.832031 714.273438 296.703125 721.886719 C 316.960938 743.328125 337.121094 757.726562 362.367188 761.535156 C 377.183594 763.96875 384.800781 744.257812 385.726562 738.65625 Z M 410.910156 884.449219 C 413.855469 884.929688 414.398438 883.265625 415.039062 879.742188 C 420.832031 858.945312 420.382812 835.007812 434.335938 817.472656 C 430.910156 816.609375 427.519531 815.679688 424.128906 814.65625 C 417.695312 827.585938 419.167969 864.671875 400.449219 862.878906 C 398.785156 875.519531 394.335938 883.328125 410.910156 884.449219 Z M 260.097656 694.078125 C 258.847656 696.320312 257.3125 698.398438 255.488281 700.257812 L 260.160156 705.953125 C 261.3125 702.335938 260.574219 698.046875 260.097656 694.078125 Z M 517.023438 781.246094 C 510.496094 770.304688 449.664062 772.574219 438.496094 769.40625 C 435.457031 777.40625 427.777344 800.257812 426.71875 805.214844 C 449.503906 811.710938 464.574219 814.046875 487.457031 814.046875 C 515.777344 815.359375 524.574219 809.375 517.023438 781.246094 Z M 269.472656 655.902344 C 270.878906 655.9375 271.679688 655.648438 272.097656 655.777344 L 272.449219 655.199219 C 278.59375 654.175781 287.808594 650.175781 289.726562 643.328125 C 276.160156 621.472656 261.855469 599.359375 253.28125 574.464844 C 248.894531 575.710938 219.839844 583.742188 217.632812 584.351562 C 219.9375 605.886719 242.65625 650.207031 269.472656 655.902344 Z M 253.953125 713.824219 L 247.199219 705.601562 C 243.167969 707.199219 238.273438 707.742188 233.886719 707.007812 C 231.96875 707.871094 228.289062 708.351562 227.296875 708.414062 C 225.824219 714.496094 222.398438 719.871094 219.105469 724.542969 C 221.726562 727.9375 224.800781 731.007812 227.136719 734.65625 C 234.59375 728.351562 245.089844 720.734375 253.953125 713.824219 Z M 236.191406 521.375 C 243.808594 521.246094 251.742188 520.894531 250.238281 509.503906 C 248.542969 481.921875 248.351562 456 253.441406 432.574219 C 246.816406 431.328125 224.289062 427.488281 217.375 426.335938 C 212.671875 452.542969 201.28125 517.503906 236.191406 521.375 Z M 230.65625 530.753906 C 230.945312 538.464844 231.808594 546.078125 233.214844 553.535156 C 238.816406 551.871094 244.734375 550.207031 250.398438 548.609375 L 247.296875 530.015625 C 241.792969 531.199219 236.128906 531.519531 230.65625 530.753906 Z M 272.414062 706.59375 L 270.71875 704.542969 C 270.464844 706.59375 269.886719 708.574219 268.992188 710.558594 C 270.144531 709.246094 271.296875 707.9375 272.414062 706.59375 Z M 287.230469 690.207031 C 282.976562 685.601562 270.558594 671.9375 282.144531 669.28125 C 288.320312 670.527344 288.894531 679.871094 293.953125 683.136719 C 297.152344 679.742188 300.449219 676.320312 304.03125 673.183594 L 291.328125 657.601562 C 291.039062 657.664062 290.6875 657.695312 290.273438 657.695312 C 270.238281 672.800781 251.808594 662.816406 237.3125 646.113281 C 246.207031 658.71875 258.464844 676.160156 279.007812 699.230469 C 281.566406 696.289062 284.257812 693.40625 287.230469 690.207031 Z M 292.289062 683.070312 L 291.105469 684.097656 L 291.105469 684.128906 Z M 715.519531 222.398438 C 712.414062 229.152344 710.144531 236.734375 705.984375 240.734375 C 710.527344 244.511719 714.175781 248.800781 719.070312 253.152344 C 725.28125 242.816406 722.078125 226.207031 715.519531 222.398438 Z M 207.777344 221.121094 C 200.160156 225.601562 186.558594 232.289062 190.71875 240.191406 C 200.671875 255.871094 221.695312 261.28125 235.457031 273.34375 C 289.441406 306.625 224.640625 358.65625 226.238281 405.3125 C 228.542969 405.761719 236.734375 407.488281 236.734375 407.488281 C 237.695312 400.703125 238.558594 393.664062 241.664062 387.519531 C 223.9375 344.960938 305.121094 305.214844 255.230469 275.679688 C 231.902344 255.902344 174.910156 231.328125 240.03125 220.257812 C 260.289062 223.648438 282.078125 255.167969 298.816406 266.71875 C 299.777344 265.535156 300.769531 264.382812 301.761719 263.230469 C 269.441406 246.65625 249.503906 186.113281 207.777344 221.121094 Z M 744.574219 231.105469 C 740.769531 241.886719 733.441406 250.527344 725.441406 258.304688 C 733.34375 262.433594 740.800781 265.761719 750.113281 266.945312 C 752.863281 255.007812 750.65625 242.113281 744.574219 231.105469 Z M 707.390625 209.054688 C 707.710938 207.648438 707.9375 205.921875 707.742188 204.480469 C 700.542969 204.351562 693.34375 204.257812 686.175781 204.128906 C 683.96875 218.785156 704.800781 221.535156 707.390625 209.054688 Z M 685.792969 222.625 C 683.710938 224.351562 682.753906 228.542969 681.855469 232.894531 C 685.121094 234.527344 700 238.367188 700 238.367188 C 706.878906 223.359375 694.878906 214.976562 685.792969 222.625 Z M 733.953125 230.527344 C 737.503906 225.792969 743.230469 216.0625 742.59375 203.105469 C 735.871094 203.007812 729.121094 202.910156 722.398438 202.847656 C 725.566406 207.742188 727.777344 235.488281 733.953125 230.527344 Z M 765.214844 231.070312 C 770.207031 223.585938 771.039062 213.855469 770.976562 205.121094 C 764.960938 204.800781 759.167969 204.800781 753.214844 204.734375 C 757.984375 214.625 760.257812 226.847656 760.097656 237.824219 C 762.078125 236.320312 763.871094 233.089844 765.214844 231.070312 Z M 783.839844 193.855469 C 776.0625 194.433594 751.167969 194.367188 714.558594 194.367188 C 674.753906 194.367188 654.367188 192 651.550781 197.855469 C 646.847656 207.617188 641.824219 225.152344 632.222656 229.246094 C 622.625 233.34375 574.59375 228.734375 563.777344 228.382812 C 556.03125 228.160156 560.574219 217.726562 546.878906 216.960938 C 533.183594 216.191406 532.640625 224.03125 532.289062 228.414062 C 531.9375 232.414062 534.046875 241.855469 545.695312 242.816406 C 556.449219 243.710938 554.878906 235.617188 566.753906 235.902344 C 578.625 236.191406 618.558594 240.863281 628.351562 240.992188 C 635.167969 241.089844 671.96875 242.273438 685.503906 248.191406 C 697.441406 253.40625 699.136719 258.273438 711.007812 265.375 C 722.527344 272.257812 739.105469 283.777344 776.832031 283.328125 C 776.414062 282.015625 776.160156 280.734375 775.617188 279.457031 C 747.902344 283.136719 722.753906 271.742188 704.800781 250.878906 C 691.007812 233.121094 638.945312 245.921875 647.199219 223.742188 C 658.496094 202.335938 653.34375 192.992188 683.9375 196.894531 C 698.175781 193.953125 782.304688 204.734375 783.839844 193.855469 Z M 766.367188 240.992188 C 762.785156 255.328125 761.695312 264.929688 759.679688 270.464844 C 764.480469 271.039062 770.238281 271.265625 774.207031 271.839844 C 774.207031 271.839844 777.121094 264.929688 777.152344 264.929688 C 780.0625 257.054688 774.335938 246.304688 766.367188 240.992188 Z M 668.992188 138.976562 C 680.769531 151.007812 683.199219 173.601562 675.136719 185.566406 C 671.808594 185.566406 670.976562 185.664062 667.679688 185.601562 C 667.679688 185.566406 666.847656 185.566406 666.847656 185.535156 C 664.0625 185.855469 658.304688 185.601562 654.113281 185.601562 C 652.511719 185.824219 645.886719 185.984375 642.046875 189.246094 C 640.511719 190.335938 638.753906 193.664062 638.847656 193.664062 C 637.441406 196.289062 636.703125 198.207031 636.160156 201.34375 C 600.160156 192.703125 598.398438 149.152344 623.839844 133.886719 C 625.535156 132.863281 639.230469 129.601562 651.105469 133.566406 C 657.632812 135.742188 663.777344 137.214844 668.992188 138.976562 Z M 660.640625 166.144531 C 660.640625 156.734375 653.023438 149.089844 643.585938 149.089844 C 634.175781 149.089844 626.527344 156.703125 626.527344 166.144531 C 626.527344 175.550781 634.144531 183.199219 643.585938 183.199219 C 653.023438 183.199219 660.671875 175.550781 660.640625 166.144531 Z M 499.488281 95.457031 C 497.183594 93.183594 494.335938 96.863281 494.625 99.296875 C 495.96875 104.128906 504.03125 102.433594 507.9375 102.59375 C 524.480469 89.3125 485.472656 65.152344 477.34375 90.398438 C 471.488281 108.574219 485.921875 112.0625 514.625 119.230469 C 543.328125 126.398438 550.398438 185.214844 597.566406 144.414062 C 593.761719 142.753906 591.328125 139.136719 589.3125 135.457031 C 583.808594 139.167969 569.632812 147.230469 568.128906 146.046875 C 542.6875 148.03125 544.0625 103.296875 506.527344 109.535156 C 474.625 114.367188 490.945312 73.886719 504.929688 92.511719 C 505.054688 95.265625 501.921875 97.855469 499.488281 95.457031 Z M 790.433594 275.710938 C 793.023438 283.902344 794.945312 293.441406 787.550781 299.777344 C 787.425781 299.871094 787.296875 299.902344 787.199219 300 C 809.726562 319.230469 829.3125 341.824219 843.617188 367.488281 C 848.800781 376.800781 851.457031 374.464844 848.894531 363.839844 C 847.839844 359.488281 848.542969 353.121094 847.265625 349.054688 C 838.273438 320.382812 822.753906 298.433594 790.433594 275.710938 Z M 793.3125 347.488281 C 803.136719 345.089844 812.222656 347.96875 820.222656 353.183594 C 825.886719 356.894531 827.167969 353.503906 822.527344 347.265625 C 810.433594 331.070312 796.097656 316.542969 780.671875 303.390625 C 774.625 306.367188 773.183594 315.359375 771.105469 320.992188 C 779.902344 328.542969 787.96875 337.28125 793.3125 347.488281 Z M 852.929688 328.382812 C 852.414062 322.558594 852.160156 316.703125 852 310.878906 C 845.984375 307.679688 840.257812 303.96875 834.71875 299.839844 C 835.105469 303.070312 835.871094 306.304688 836.03125 309.535156 C 840.734375 315.519531 844.929688 321.886719 848.449219 328.609375 C 850.878906 333.28125 853.375 333.246094 852.929688 328.382812 Z M 554.910156 279.710938 C 656.128906 249.023438 603.839844 306.207031 647.039062 321.054688 C 637.246094 304.671875 635.457031 278.113281 622.335938 265.089844 C 597.664062 259.488281 573.441406 261.023438 551.265625 273.3125 C 473.441406 286.335938 465.726562 158.273438 550.335938 181.566406 C 568.929688 192.03125 587.167969 196.574219 608.703125 195.425781 C 600.320312 185.792969 594.527344 172.480469 595.488281 159.585938 C 595.617188 157.886719 593.054688 157.152344 591.390625 158.398438 C 588.191406 160.832031 584.832031 162.976562 580.929688 164.222656 C 580 169.3125 590.945312 184.222656 579.585938 180.929688 C 553.886719 155.167969 523.136719 160.574219 492.703125 185.632812 C 451.230469 227.136719 499.070312 303.519531 554.910156 279.710938 Z M 592.03125 329.984375 C 596.769531 331.390625 601.503906 332.769531 605.886719 334.976562 C 614.496094 329.503906 627.425781 332.800781 617.566406 319.808594 C 613.40625 310.238281 612.960938 291.070312 600.992188 287.585938 C 569.632812 288.671875 536.929688 311.359375 525.761719 340.894531 C 525.566406 341.054688 525.375 341.214844 525.183594 341.375 C 525.28125 341.472656 525.34375 341.566406 525.441406 341.632812 C 525.632812 341.503906 525.855469 341.40625 526.046875 341.28125 C 527.839844 343.230469 559.167969 320.128906 592.03125 329.984375 Z M 607.105469 896.992188 C 613.441406 898.335938 606.273438 884.480469 599.9375 867.039062 C 598.175781 862.238281 596.894531 863.296875 596.222656 868.128906 C 595.519531 873.089844 593.472656 877.28125 589.28125 880.128906 C 590.398438 892.609375 594.847656 896.894531 607.105469 896.992188 Z M 552.191406 794.6875 C 550.847656 789.824219 550.078125 780.449219 548.0625 775.871094 C 540.960938 777.023438 533.792969 777.984375 526.65625 778.847656 C 528.734375 783.9375 529.566406 788.351562 529.3125 792.800781 C 529.3125 793.441406 529.28125 794.078125 529.246094 794.753906 Z M 592.542969 835.136719 C 592.351562 828.03125 593.664062 821.472656 597.441406 816.128906 C 594.078125 817.121094 590.71875 818.144531 587.359375 818.945312 C 587.585938 823.328125 589.183594 829.214844 591.007812 835.648438 C 591.9375 838.945312 592.640625 838.625 592.542969 835.136719 Z M 656.0625 756.414062 C 637.632812 736.0625 602.273438 774.65625 577.472656 774.144531 C 579.105469 781.632812 583.742188 802.753906 585.214844 809.40625 C 609.023438 799.167969 674.753906 796.222656 656.0625 756.414062 Z M 321.246094 681.632812 C 316.511719 659.039062 252.382812 747.839844 243.105469 757.375 C 243.457031 758.175781 243.585938 759.070312 243.679688 759.9375 C 267.296875 732.542969 300.542969 710.625 321.246094 681.632812 Z M 237.246094 697.601562 C 245.34375 697.472656 252.960938 692.03125 253.34375 683.265625 C 232.992188 664.511719 218.558594 613.152344 184.832031 634.238281 C 199.902344 657.054688 210.945312 689.023438 237.246094 697.601562 Z M 172.289062 639.871094 C 179.742188 665.375 209.023438 685.246094 215.425781 711.96875 C 225.023438 692.863281 184.160156 666.464844 175.902344 638.304688 C 174.6875 638.816406 173.472656 639.359375 172.289062 639.871094 Z M 237.214844 769.535156 C 236.289062 776.320312 237.855469 782.878906 241.566406 787.742188 C 257.726562 769.089844 270.238281 741.441406 295.710938 735.105469 C 293.632812 732.992188 291.585938 730.847656 289.632812 728.640625 C 272.449219 739.617188 258.335938 771.425781 237.214844 769.535156 Z M 885.566406 652.097656 C 923.902344 618.625 838.335938 632.449219 830.046875 611.007812 C 829.40625 612.863281 826.945312 619.328125 826.945312 619.328125 C 840.703125 626.335938 888.03125 627.328125 878.015625 650.015625 C 880.480469 650.910156 883.199219 652.128906 885.566406 652.097656 Z M 912.03125 379.839844 C 914.71875 400.769531 919.742188 423.136719 927.359375 448.257812 C 933.023438 446.847656 952.414062 442.335938 959.070312 441.054688 C 946.335938 411.648438 957.761719 374.144531 953.566406 340.960938 C 931.105469 321.566406 911.9375 360.222656 912.03125 379.839844 Z M 733.792969 749.246094 C 742.078125 763.871094 774.273438 781.953125 760.03125 800.097656 C 762.113281 802.304688 765.28125 803.550781 768.769531 803.550781 C 801.886719 794.273438 736.832031 761.695312 742.433594 740.511719 C 739.679688 743.457031 736.671875 746.398438 733.792969 749.246094 Z M 763.296875 618.558594 C 797.824219 628.351562 829.535156 636.800781 863.390625 647.105469 C 891.808594 640.832031 771.808594 617.089844 763.550781 612.863281 Z M 814.398438 662.207031 C 817.152344 663.359375 820 664.511719 822.71875 665.695312 L 827.328125 658.078125 C 822.175781 656.671875 815.390625 656.351562 814.398438 662.207031 Z M 842.113281 688.574219 C 850.945312 685.121094 864.160156 689.441406 872.257812 692.542969 C 875.519531 687.777344 879.617188 682.847656 880.832031 677.246094 C 861.535156 672.769531 876.222656 676.449219 836.769531 661.441406 L 831.039062 670.910156 C 834.207031 673.761719 841.246094 680.128906 842.113281 688.574219 Z M 810.175781 670.878906 C 804.257812 682.078125 796 695.359375 785.023438 708.960938 C 768.769531 726.496094 764.734375 737.089844 791.742188 755.777344 C 805.3125 730.816406 861.214844 685.953125 810.175781 670.878906 Z M 124.382812 421.023438 C 150.910156 429.089844 180.257812 423.007812 205.953125 432.191406 C 206.398438 430.238281 207.679688 424.800781 207.679688 424.800781 C 192.734375 418.304688 140.191406 428.0625 151.136719 401.214844 C 138.015625 395.488281 129.054688 410.878906 124.382812 421.023438 Z M 248.382812 234.113281 C 239.96875 225.40625 229.023438 233.792969 219.710938 237.089844 C 240.929688 255.167969 263.839844 268.609375 281.632812 291.359375 C 283.070312 289.503906 284.542969 287.550781 286.273438 285.921875 C 277.441406 274.785156 227.136719 242.144531 248.382812 234.113281 Z M 246.335938 409.472656 C 249.054688 410.015625 261.023438 412.414062 261.023438 412.414062 L 262.304688 403.070312 C 257.375 401.953125 253.375 399.648438 248.863281 396.097656 C 247.648438 400.671875 246.910156 405.3125 246.335938 409.472656 Z M 275.839844 383.550781 C 287.070312 355.359375 300.769531 332.097656 317.632812 312.511719 C 314.976562 310.113281 311.457031 306.71875 308.574219 304.222656 L 308.480469 304.320312 C 304.320312 300.894531 298.238281 295.265625 293.855469 291.902344 C 281.023438 313.054688 221.921875 379.136719 265.28125 393.535156 C 270.527344 393.535156 273.953125 387.902344 275.839844 383.550781 Z M 324.160156 336.863281 C 321.632812 334.433594 318.847656 332.222656 316.128906 330.078125 C 296.480469 350.207031 292.863281 385.601562 272.160156 402.015625 C 272 406.65625 270.816406 411.296875 270.398438 415.9375 C 276.574219 419.742188 275.390625 429.886719 268.703125 432.480469 C 269.535156 446.464844 272.222656 463.007812 284.640625 468.671875 C 334.71875 470.175781 296.511719 410.785156 287.777344 437.953125 C 283.617188 447.199219 294.753906 454.367188 296.320312 445.984375 C 291.390625 444.128906 293.535156 436.480469 298.367188 436.640625 C 306.078125 437.472656 309.601562 448.480469 304.160156 454.015625 C 289.34375 465.886719 276.449219 451.328125 277.726562 429.503906 C 280.640625 391.457031 297.921875 356.992188 324.160156 336.863281 Z M 358.976562 353.632812 C 348.609375 344.832031 340.222656 334.015625 331.808594 323.617188 C 329.121094 323.265625 326.59375 321.28125 324.671875 319.390625 C 323.808594 320.414062 322.945312 321.441406 322.078125 322.496094 C 335.136719 331.742188 344.542969 345.121094 354.433594 357.40625 C 356 356.449219 357.503906 354.945312 358.976562 353.632812 Z M 312.351562 648.097656 C 349.566406 648.320312 330.71875 595.296875 304.128906 617.152344 C 304.929688 622.785156 317.601562 636.382812 319.585938 624.511719 C 319.359375 623.550781 318.753906 623.550781 318.015625 623.617188 C 309.214844 626.207031 309.792969 612.222656 318.496094 613.632812 C 351.617188 622.847656 302.046875 675.390625 285.886719 593.34375 C 280.222656 592.382812 274.945312 589.375 269.953125 584.160156 C 268.351562 582.496094 267.007812 583.617188 268.128906 586.175781 C 276.03125 604.511719 290.625 623.039062 299.359375 642.6875 C 303.328125 647.136719 308.609375 648.097656 312.351562 648.097656 Z M 259.839844 546.015625 C 275.039062 541.183594 285.183594 559.9375 270.207031 568.609375 C 276.863281 579.070312 283.617188 584.160156 290.816406 584.160156 C 345.632812 581.566406 312.382812 530.59375 286.65625 547.230469 C 287.96875 555.679688 294.6875 566.976562 301.375 560.222656 C 301.886719 559.679688 301.28125 558.976562 300.449219 558.910156 C 296.320312 558.71875 292.992188 552.671875 297.664062 550.046875 C 306.6875 544.257812 316.574219 556 310.6875 564.351562 C 266.464844 599.328125 273.566406 499.007812 271.390625 471.230469 C 266.238281 464.382812 262.558594 456.511719 260.609375 448.351562 C 254.238281 473.34375 265.601562 501.183594 256.320312 524.960938 Z M 315.425781 399.777344 C 304.832031 426.335938 330.496094 420.574219 331.425781 415.199219 C 331.617188 414.144531 328.929688 414.273438 328.191406 414.878906 C 324.382812 417.886719 317.441406 412.351562 319.871094 408.128906 C 324.414062 397.3125 344.222656 402.65625 341.214844 415.136719 C 313.855469 464.511719 280.414062 378.046875 338.078125 352.574219 C 335.777344 349.695312 333.40625 346.816406 330.945312 344.03125 C 308.960938 360.222656 293.472656 388.542969 288.128906 422.273438 C 297.535156 418.753906 308.894531 424.382812 313.535156 432.960938 C 318.878906 435.839844 323.136719 441.984375 329.28125 442.976562 C 367.296875 442.816406 348.769531 373.3125 315.425781 399.777344 Z M 315.070312 244.511719 C 335.679688 239.585938 351.457031 221.023438 369.695312 209.921875 C 381.34375 201.503906 372.382812 187.96875 367.488281 178.625 C 351.808594 190.753906 272.0625 225.214844 315.070312 244.511719 Z M 255.96875 241.152344 C 254.398438 242.496094 252.671875 243.136719 250.910156 243.871094 C 277.121094 268.574219 308.480469 287.96875 333.089844 314.046875 C 334.785156 312.769531 337.023438 312.257812 336.480469 310.273438 C 333.472656 299.519531 285.34375 268.992188 255.96875 241.152344 Z M 263.230469 418.527344 C 239.710938 413.921875 187.296875 408.800781 160.734375 404.351562 C 158.59375 406.816406 158.207031 409.40625 161.152344 411.359375 C 165.761719 413.664062 170.496094 414.59375 177.441406 415.105469 C 213.054688 417.726562 262.558594 427.839844 263.777344 425.40625 C 265.214844 422.527344 265.726562 421.921875 263.230469 418.527344 Z M 254.238281 205.214844 C 269.152344 217.855469 283.007812 238.558594 299.808594 250.046875 C 302.207031 251.679688 303.457031 251.390625 300.769531 249.023438 C 294.175781 243.199219 291.007812 233.40625 293.886719 224.894531 C 279.167969 221.695312 270.015625 187.902344 254.238281 205.214844 Z M 151.390625 589.535156 C 145.121094 591.359375 138.273438 593.632812 139.488281 601.214844 C 139.808594 605.695312 138.65625 612.0625 140.769531 614.59375 C 164.609375 611.488281 184.671875 595.617188 208.929688 593.152344 C 208.863281 592.734375 208.097656 587.710938 208.03125 587.136719 C 188.128906 587.96875 156.832031 618.847656 151.390625 589.535156 Z M 161.121094 586.144531 C 161.472656 588.0625 161.601562 590.335938 162.015625 592.191406 C 299.550781 551.96875 298.304688 541.503906 161.121094 586.144531 Z M 276.832031 196.0625 C 283.136719 204.449219 288.894531 209.472656 296.382812 215.457031 L 296.480469 215.457031 L 296.640625 215.488281 L 296.640625 215.425781 C 297.28125 215.457031 298.207031 215.265625 298.65625 215.617188 C 315.742188 194.945312 341.152344 184.449219 363.039062 169.984375 C 358.976562 161.984375 356 154.847656 351.039062 146.816406 C 325.28125 161.089844 296.574219 173.3125 276.832031 196.0625 Z M 198.976562 385.3125 C 201.664062 385.953125 204.191406 386.59375 207.136719 386.6875 C 210.433594 386.785156 214.625 386.273438 216.289062 383.648438 C 210.753906 383.808594 205.535156 382.046875 200.542969 378.945312 Z M 236.03125 341.214844 C 244.0625 326.847656 252.511719 311.488281 244.511719 296.734375 L 244.480469 296.800781 C 241.3125 290.144531 235.617188 286.273438 230.207031 281.601562 C 219.328125 303.265625 179.199219 363.390625 214.113281 373.761719 C 228.191406 373.34375 227.425781 350.59375 236.03125 341.214844 Z M 163.390625 643.550781 C 162.945312 643.710938 159.617188 644.894531 159.617188 644.894531 C 152.511719 642.785156 144.703125 650.785156 141.535156 656.097656 C 135.679688 663.839844 151.585938 684.222656 153.023438 689.824219 C 155.296875 699.902344 167.457031 699.105469 175.648438 697.792969 C 197.886719 701.984375 198.785156 735.390625 177.054688 736.257812 C 171.328125 736.640625 159.777344 729.601562 162.238281 721.695312 C 164.191406 718.558594 169.695312 718.6875 171.136719 722.304688 C 175.070312 730.207031 186.015625 724.960938 182.976562 717.214844 C 170.398438 688.734375 131.039062 735.296875 174.046875 746.753906 C 185.34375 747.359375 195.519531 740.449219 200.992188 731.296875 C 218.816406 698.207031 170.046875 675.359375 163.390625 643.550781 Z M 212.960938 732.382812 C 206.238281 739.425781 198.433594 749.152344 208.703125 756.800781 C 212.03125 751.199219 215.617188 745.824219 220.289062 741.152344 C 217.246094 738.785156 215.359375 735.296875 212.960938 732.382812 Z M 263.585938 800.257812 C 299.902344 723.679688 348.894531 779.9375 404.03125 796.609375 C 405.761719 789.761719 411.359375 767.488281 413.28125 759.296875 C 405.183594 757.886719 397.761719 755.390625 391.199219 751.871094 C 371.457031 794.785156 327.359375 755.457031 300.097656 744.191406 C 275.425781 745.921875 261.535156 787.550781 241.953125 800.03125 C 207.519531 780.03125 240.894531 741.792969 258.65625 722.6875 C 237.34375 738.847656 201.214844 759.550781 220.929688 790.464844 C 225.566406 801.726562 231.648438 821.632812 242.71875 820.449219 C 250.207031 820.769531 258.398438 811.871094 263.585938 800.257812 Z M 226.558594 631.550781 C 220.160156 621.601562 215.007812 611.136719 211.457031 602.753906 C 189.886719 599.425781 137.28125 644.960938 130.078125 612.671875 C 127.777344 599.070312 130.175781 583.9375 146.078125 580.894531 C 165.183594 574.238281 184.800781 568.351562 203.902344 562.367188 C 202.910156 560.382812 202.015625 558.398438 201.214844 556.382812 C 182.433594 570.878906 152.671875 564.832031 132.734375 578.046875 C 116.992188 582.59375 110.910156 636.703125 130.527344 643.167969 C 200.671875 618.878906 210.367188 612 226.558594 631.550781 Z M 253.34375 825.726562 C 251.167969 827.679688 248.769531 829.503906 246.015625 831.230469 C 257.632812 848.863281 275.007812 863.007812 295.105469 871.136719 C 314.496094 875.167969 344.800781 897.152344 321.921875 916.160156 C 312.832031 924.800781 288.511719 906.910156 303.96875 900.382812 C 306.078125 900.382812 308.382812 901.695312 308.769531 904.640625 C 310.945312 912.480469 321.921875 906.464844 320.0625 900.769531 C 301.921875 861.183594 264.414062 925.152344 314.816406 929.089844 C 331.359375 928.800781 346.625 914.558594 349.152344 898.144531 C 348.640625 860.222656 272.542969 860.480469 253.34375 825.726562 Z M 128.414062 553.855469 C 128.351562 558.558594 129.824219 563.265625 131.550781 567.679688 C 133.695312 566.65625 135.902344 565.792969 138.113281 564.929688 C 137.28125 561.953125 134.71875 553.664062 133.664062 549.726562 C 131.328125 550.078125 129.695312 552.542969 128.414062 553.855469 Z M 357.3125 808 C 364.929688 807.167969 373.40625 803.265625 376.992188 796.640625 C 352.191406 788.734375 312.671875 750.207031 291.742188 778.046875 C 312.703125 789.503906 333.855469 802.878906 357.3125 808 Z M 334.847656 859.550781 C 342.945312 860 345.375 851.070312 345.34375 848.414062 C 343.039062 822.046875 294.273438 814.753906 275.96875 799.265625 C 246.59375 836.449219 309.472656 850.910156 334.847656 859.550781 Z M 147.457031 561.953125 C 150.015625 561.246094 152.574219 560.609375 155.136719 560 C 153.761719 554.273438 152.609375 548.480469 151.742188 542.71875 C 149.246094 545.121094 146.433594 546.878906 143.328125 547.96875 Z M 160 376.222656 C 162.144531 376.671875 181.921875 380.640625 189.472656 382.976562 C 190.527344 378.976562 191.488281 373.503906 192.992188 370.273438 C 191.902344 367.070312 191.230469 363.96875 190.910156 360.960938 C 182.207031 365.054688 170.878906 367.617188 160.832031 365.726562 C 160.542969 369.214844 160.640625 372.734375 160 376.222656 Z M 110.046875 453.566406 C 104.449219 452.832031 97.855469 453.089844 93.695312 446.878906 C 68.929688 499.167969 102.847656 549.503906 83.808594 585.40625 C 66.65625 610.785156 26.71875 582.878906 49.953125 561.054688 C 53.246094 558.496094 58.113281 560.351562 59.425781 564.222656 C 61.632812 568.640625 54.6875 571.390625 55.296875 575.359375 C 58.144531 593.535156 82.527344 577.695312 77.953125 564.992188 C 73.089844 540.097656 41.664062 541.824219 31.648438 559.199219 C 16.480469 588.480469 45.089844 617.023438 75.230469 615.839844 C 151.902344 613.535156 80.769531 500.703125 110.046875 453.566406 Z M 147.519531 353.566406 C 154.847656 355.105469 162.625 356.542969 169.984375 356.542969 C 202.175781 359.070312 199.039062 299.839844 222.175781 275.9375 C 215.777344 271.617188 209.3125 267.742188 202.496094 263.648438 C 174.496094 281.183594 181.441406 343.136719 153.886719 344.351562 C 137.792969 346.046875 127.871094 318.816406 146.910156 316.609375 C 155.425781 316.0625 154.847656 328.382812 146.558594 326.785156 C 144.800781 330.847656 150.398438 334.910156 153.503906 334.464844 C 161.441406 334.433594 162.527344 325.28125 164.449219 319.296875 C 168.640625 311.230469 152.160156 303.839844 144.128906 303.457031 C 129.375 304.894531 125.601562 329.855469 128.640625 341.34375 C 131.679688 350.273438 142.304688 351.550781 147.519531 353.566406 Z M 125.761719 544.863281 C 131.902344 545.183594 139.296875 539.230469 144.160156 537.886719 C 157.40625 519.296875 141.855469 478.335938 146.367188 453.984375 C 116.03125 444.191406 113.183594 468.960938 116.480469 492.0625 C 120 505.089844 112.351562 540.289062 125.761719 544.863281 Z M 168.960938 303.902344 C 173.726562 288.0625 180.542969 270.6875 194.015625 258.175781 C 192.320312 256.992188 190.527344 255.679688 188.894531 254.144531 C 183.039062 259.902344 177.023438 265.824219 173.214844 272.0625 C 174.59375 281.695312 159.550781 288.734375 154.046875 279.777344 C 152.128906 275.039062 158.046875 270.625 162.175781 274.144531 C 167.105469 260.351562 119.457031 275.105469 168.960938 303.902344 Z M 213.34375 559.457031 L 223.808594 556.320312 C 221.921875 547.648438 220.960938 538.273438 220.863281 527.742188 C 197.34375 509.183594 202.433594 470.304688 204.097656 442.625 C 178.496094 429.503906 137.726562 443.070312 115.519531 425.921875 C 112.191406 404.894531 140.542969 380.160156 161.441406 394.496094 C 179.96875 397.089844 198.496094 400.128906 216.574219 403.488281 C 216.832031 400.542969 217.183594 397.632812 217.632812 394.6875 C 192.03125 400.542969 162.910156 382.527344 136.929688 382.625 C 115.679688 379.070312 69.566406 447.007812 112.734375 442.238281 C 240.160156 441.054688 179.199219 475.296875 213.34375 559.457031 Z M 155.136719 455.070312 C 154.304688 487.902344 159.519531 522.398438 164.640625 557.761719 C 173.183594 554.144531 193.28125 557.695312 194.59375 544.511719 C 194.59375 544.511719 191.742188 506.238281 190.59375 494.367188 C 189.3125 482.015625 192.703125 457.089844 175.648438 457.726562 L 175.648438 457.664062 C 171.359375 456.960938 159.617188 455.585938 155.136719 455.070312 Z M 380.542969 808.222656 C 350.878906 832.320312 315.070312 799.96875 285.761719 785.921875 C 284.320312 787.742188 282.910156 789.601562 281.566406 791.488281 C 410.71875 847.96875 317.726562 851.808594 368 874.753906 C 366.335938 853.726562 391.105469 826.625 380.542969 808.222656 Z M 703.105469 780.0625 C 715.902344 817.28125 654.71875 831.296875 631.425781 846.878906 C 632.0625 849.40625 632.800781 851.9375 633.566406 854.433594 C 655.425781 845.792969 677.726562 834.527344 703.550781 819.070312 C 712.03125 813.40625 719.199219 818.945312 724.128906 826.496094 C 730.238281 837.695312 742.078125 839.167969 747.425781 827.039062 C 730.878906 812.480469 717.34375 794.046875 705.886719 777.632812 C 704.960938 778.464844 704.03125 779.265625 703.105469 780.0625 Z M 648.03125 878.878906 L 650.785156 884.0625 C 665.535156 872.671875 705.761719 878.046875 704.769531 900.542969 C 701.375 908.289062 685.28125 912.960938 684.449219 897.34375 C 683.96875 895.457031 685.054688 891.359375 683.839844 890.144531 C 668.257812 895.105469 675.425781 918.273438 688.289062 921.40625 C 755.328125 907.105469 689.503906 843.070312 648.03125 878.878906 Z M 766.335938 746.335938 C 746.335938 719.457031 808.257812 676.960938 812.703125 639.519531 C 806.367188 637.121094 800.542969 634.976562 794.59375 633.246094 C 789.664062 642.046875 785.246094 651.007812 781.183594 660.671875 C 794.527344 699.265625 727.199219 726.65625 763.230469 760.449219 C 780.414062 774.59375 806.816406 807.871094 768.289062 813.695312 C 744.800781 808.832031 733.472656 781.664062 716.640625 766.464844 C 715.648438 768.0625 714.207031 769.28125 712.929688 770.625 C 730.945312 793.023438 742.046875 817.441406 766.558594 825.566406 C 844.640625 797.183594 809.34375 786.175781 766.335938 746.335938 Z M 711.519531 826.304688 C 687.070312 839.457031 662.785156 853.792969 636.574219 863.808594 L 639.488281 872.128906 C 665.375 863.007812 691.199219 850.945312 718.304688 835.265625 C 716.480469 832.609375 713.921875 826.59375 711.519531 826.304688 Z M 850.625 696.929688 C 832.097656 701.792969 816.640625 750.113281 801.441406 763.296875 C 804.449219 765.792969 808.382812 769.28125 812.191406 773.3125 C 831.105469 759.007812 833.375 711.328125 861.726562 711.136719 C 870.046875 710.496094 879.070312 713.246094 881.886719 721.984375 C 888.863281 745.183594 847.777344 740.542969 865.761719 727.710938 C 870.046875 730.113281 875.296875 728.03125 871.390625 722.847656 C 849.375 714.847656 846.015625 755.679688 875.105469 747.199219 C 888.992188 743.265625 898.527344 722.207031 887.550781 710.113281 C 875.585938 704.414062 864.382812 698.238281 850.625 696.929688 Z M 991.425781 454.496094 C 965.664062 439.648438 933.761719 457.726562 901.441406 467.679688 C 890.527344 472.191406 887.9375 483.390625 893.34375 503.070312 C 900.0625 535.136719 898.367188 568.382812 895.425781 599.617188 C 898.113281 599.902344 900.832031 600.289062 903.519531 600.671875 L 906.144531 601.054688 C 925.375 558.144531 873.472656 453.792969 959.039062 474.464844 C 961.503906 457.28125 986.015625 454.046875 990.945312 472.160156 C 993.601562 478.304688 988.832031 489.121094 981.953125 482.753906 C 980.542969 479.425781 981.855469 474.59375 979.457031 471.167969 C 976.0625 468.257812 971.007812 469.886719 969.34375 473.886719 C 967.871094 481.246094 980.222656 491.230469 986.71875 492.703125 C 1003.617188 490.816406 1000.160156 464.640625 991.425781 454.496094 Z M 558.304688 822.367188 C 558.304688 822.367188 555.136719 808.289062 554.304688 804.382812 C 547.742188 804.640625 534.527344 804.480469 527.808594 804.480469 C 519.519531 841.441406 468.574219 814.785156 442.238281 823.007812 C 428.734375 840.351562 430.6875 864.929688 423.679688 885.023438 C 419.9375 899.136719 404.191406 893.792969 394.175781 889.503906 C 380.414062 878.078125 397.601562 822.367188 401.855469 806.113281 C 396.671875 804.222656 391.550781 802.273438 386.433594 800.289062 C 415.777344 844.960938 326.6875 886.59375 423.902344 921.984375 C 424.769531 921.984375 425.472656 921.726562 425.761719 921.632812 C 451.328125 793.566406 437.472656 834.367188 558.304688 822.367188 Z M 841.089844 575.96875 C 836.894531 534.878906 849.121094 487.808594 821.535156 452.734375 C 803.96875 428.832031 763.585938 361.503906 739.230469 406.910156 C 730.785156 433.246094 787.167969 451.199219 791.679688 497.632812 C 836.128906 510.367188 839.265625 549.632812 834.59375 591.679688 C 832.769531 625.566406 884.671875 609.40625 901.695312 626.625 C 909.023438 638.144531 900.929688 661.566406 885.886719 662.207031 C 879.359375 661.503906 872.191406 658.015625 866.046875 656.800781 C 850.273438 656.351562 836.257812 648.222656 821.792969 643.070312 C 821.28125 644.574219 820.800781 646.046875 820.257812 647.550781 C 842.59375 647.839844 861.921875 665.726562 883.839844 667.519531 C 903.265625 662.496094 918.207031 640.382812 929.40625 624.257812 C 907.96875 595.167969 845.664062 624.160156 841.089844 575.96875 Z M 916.191406 500.960938 C 915.710938 535.167969 928.511719 569.503906 915.679688 603.230469 C 918.496094 604.097656 921.28125 605.246094 924.128906 606.71875 C 945.632812 575.265625 922.59375 535.808594 935.742188 504.351562 C 948.800781 484.511719 978.496094 505.921875 961.664062 522.847656 C 957.152344 527.359375 950.207031 519.777344 955.007812 515.648438 C 961.632812 508.257812 948.832031 502.207031 944.0625 509.503906 C 934.398438 519.808594 947.457031 535.488281 957.40625 533.792969 C 979.425781 533.726562 983.070312 502.816406 967.839844 491.296875 C 954.65625 477.3125 919.457031 476.128906 916.191406 500.960938 Z M 448.894531 885.824219 C 445.3125 886.464844 444.097656 891.296875 444.097656 891.296875 C 442.753906 897.089844 444.480469 905.375 447.136719 910.976562 C 453.503906 921.375 476.320312 917.921875 487.390625 920.992188 C 498.367188 918.144531 493.214844 901.152344 514.976562 900.734375 C 540.734375 900.257812 545.183594 932.414062 519.070312 933.089844 C 510.464844 934.433594 510.976562 921.792969 519.9375 923.488281 C 527.359375 923.199219 528.863281 912.511719 521.023438 910.6875 C 516.574219 909.921875 509.824219 910.238281 507.136719 914.078125 C 502.65625 923.519531 507.039062 944.128906 520.574219 942.367188 C 542.015625 943.359375 551.679688 920.511719 542.71875 903.585938 C 526.113281 870.753906 476.769531 897.726562 448.894531 885.824219 Z M 447.007812 861.726562 C 453.726562 862.015625 460.449219 862.144531 467.167969 862.144531 C 488.414062 861.953125 510.6875 861.121094 532.03125 857.792969 C 537.566406 853.34375 532.894531 840.832031 533.121094 834.144531 C 505.28125 840.160156 450.398438 820.222656 447.007812 861.726562 Z M 544.542969 856.351562 C 548.257812 855.96875 551.679688 855.679688 555.390625 855.230469 C 554.527344 850.59375 552.160156 837.214844 551.425781 832.800781 C 549.152344 832.800781 545.886719 833.152344 542.878906 833.472656 C 543.359375 839.265625 544.351562 851.617188 544.542969 856.351562 Z M 695.167969 786.273438 C 676.03125 804.320312 636.832031 810.59375 629.3125 836.894531 C 649.503906 825.023438 700.480469 807.839844 695.167969 786.273438 Z M 710.273438 759.265625 L 698.558594 745.984375 C 689.246094 753.28125 679.519531 760.191406 669.601562 766.558594 C 673.183594 805.953125 621.023438 797.601562 605.503906 821.601562 C 592.128906 850.335938 622.273438 875.199219 619.199219 901.886719 C 612.289062 910.816406 594.527344 906.304688 585.886719 900.832031 C 581.695312 895.359375 581.566406 888.160156 579.585938 881.824219 C 574.6875 880.640625 572.0625 876.640625 570.433594 872.191406 C 573.246094 918.175781 592.734375 917.152344 633.726562 920.542969 C 643.519531 920.257812 643.070312 914.335938 639.902344 904.414062 C 591.136719 791.9375 646.464844 824.480469 710.273438 759.265625 Z M 445.984375 871.457031 L 445.3125 879.902344 C 476.960938 883.871094 516.128906 868.640625 543.585938 886.433594 C 550.078125 886.625 557.28125 885.761719 563.136719 883.519531 C 561.792969 877.632812 560.128906 871.488281 558.078125 864.800781 C 521.40625 869.023438 484.257812 873.695312 445.984375 871.457031 Z M 692 738.625 C 689.472656 735.777344 686.433594 731.617188 684 729.566406 C 676.097656 735.488281 667.488281 740.160156 659.265625 745.472656 C 662.945312 748.960938 665.183594 751.96875 667.039062 756.414062 C 675.457031 750.847656 683.808594 744.863281 692 738.625 Z M 720.03125 476.671875 C 744.992188 501.761719 756.03125 458.335938 736.222656 469.472656 C 745.886719 478.464844 726.335938 482.847656 725.726562 471.328125 C 725.441406 431.742188 770.496094 482.175781 771.9375 497.984375 C 775.136719 496.929688 778.335938 496.382812 781.441406 496.320312 C 770.878906 437.566406 701.375 434.367188 720.03125 476.671875 Z M 773.535156 605.503906 C 792.542969 574.753906 742.113281 517.152344 720.769531 562.496094 C 712.449219 587.96875 752.128906 595.328125 752.222656 574.753906 C 747.105469 575.808594 738.367188 578.304688 734.816406 573.34375 C 731.96875 568.289062 732.769531 560.351562 737.054688 557.984375 C 759.359375 551.777344 774.6875 589.246094 767.777344 604.160156 Z M 764.734375 516.160156 C 757.121094 546.078125 801.535156 575.199219 783.136719 607.808594 C 789.953125 609.535156 811.328125 615.039062 817.503906 616.703125 C 827.9375 590.015625 834.398438 544.574219 810.496094 519.902344 C 803.710938 509.792969 772.414062 497.472656 764.734375 516.160156 Z M 784.734375 630.558594 C 780.03125 629.3125 775.328125 628.0625 770.6875 626.558594 C 768.703125 632.960938 765.953125 639.328125 762.527344 645.472656 C 767.265625 647.328125 771.390625 650.335938 774.046875 652.609375 C 777.183594 645.089844 781.246094 637.824219 784.734375 630.558594 Z M 759.457031 382.558594 C 758.6875 381.726562 757.726562 381.054688 756.800781 380.351562 C 718.398438 386.304688 705.726562 355.390625 670.175781 359.167969 C 657.089844 369.855469 638.976562 385.152344 644.863281 403.199219 C 644.800781 403.328125 644.734375 403.425781 644.671875 403.550781 C 644.769531 403.457031 644.863281 403.359375 644.929688 403.230469 C 665.34375 376.992188 707.871094 364.191406 735.039062 396.863281 C 740.640625 389.152344 749.632812 382.398438 759.457031 382.558594 Z M 786.945312 349.726562 C 782.015625 341.855469 776 334.6875 769.183594 328.382812 C 765.3125 343.425781 768.671875 359.230469 771.199219 366.144531 C 772.832031 362.433594 777.695312 353.632812 786.945312 349.726562 Z M 765.535156 291.871094 C 740.769531 290.304688 715.679688 286.367188 698.945312 266.175781 C 675.457031 246.496094 642.367188 252.480469 613.921875 249.152344 C 597.566406 249.472656 580.128906 243.9375 564.320312 246.464844 C 546.847656 260.542969 519.167969 249.855469 521.183594 225.855469 C 523.167969 204.320312 556.097656 201.664062 566.335938 218.71875 C 587.359375 217.441406 621.824219 231.167969 634.398438 209.214844 C 613.40625 199.070312 588 204.992188 566.785156 197.664062 C 553.792969 189.3125 539.425781 182.945312 523.617188 186.433594 C 466.433594 200.222656 507.390625 286.59375 555.96875 264.542969 C 574.976562 250.847656 597.632812 255.648438 619.425781 257.441406 C 630.6875 257.535156 633.855469 268.734375 637.695312 277.375 C 646.464844 297.566406 658.496094 352.222656 687.167969 339.585938 C 686.6875 327.808594 686.207031 309.023438 694.144531 299.839844 C 696.351562 295.777344 706.65625 284.863281 708 294.65625 C 698.910156 334.976562 713.726562 371.519531 754.175781 364.929688 C 749.089844 342.046875 753.375 317.34375 764.929688 297.023438 C 765.375 295.359375 765.601562 293.632812 765.535156 291.871094 Z M 674.59375 232.097656 C 674.304688 219.070312 658.878906 223.902344 657.855469 232.191406 C 662.113281 232.160156 668.222656 232.160156 674.59375 232.097656 Z M 595.105469 131.617188 C 596.511719 133.792969 598.046875 136.542969 599.679688 137.824219 C 599.742188 137.824219 599.96875 137.921875 600.0625 137.953125 C 641.246094 106.144531 675.199219 144.929688 673.855469 124.289062 C 673.984375 123.457031 674.078125 122.59375 674.144531 121.761719 C 661.183594 118.335938 647.167969 113.695312 633.664062 115.136719 C 619.742188 117.535156 606.945312 124.097656 595.105469 131.617188 Z M 755.070312 653.953125 C 732.320312 666.65625 723.230469 697.183594 701.375 714.367188 C 706.59375 719.679688 722.207031 736.289062 727.359375 741.953125 C 743.390625 723.105469 801.34375 665.984375 755.070312 653.953125 Z M 574.433594 395.96875 C 592.609375 378.65625 618.527344 368.703125 644.609375 371.902344 C 646.335938 364.542969 664.0625 361.566406 658.945312 354.144531 C 643.296875 347.839844 643.105469 338.6875 630.175781 334.367188 C 601.28125 339.039062 568.257812 365.121094 574.433594 395.96875 Z M 671.550781 202.910156 C 665.984375 202.910156 662.015625 206.59375 660 211.457031 C 659.585938 212.449219 659.136719 213.40625 658.910156 214.496094 C 659.039062 214.558594 659.136719 214.625 659.265625 214.6875 C 659.96875 216.511719 674.59375 210.6875 671.550781 202.910156 Z M 567.585938 774.304688 L 566.273438 775.167969 C 566.367188 774.144531 566.527344 771.296875 566.816406 770.433594 C 543.808594 727.390625 575.96875 868.640625 582.464844 872.03125 C 596 872.289062 567.742188 788.351562 567.585938 774.304688 Z M 756.257812 791.390625 C 742.945312 764.449219 711.167969 741.152344 692.863281 719.742188 C 690.335938 716.609375 686.078125 710.558594 683.265625 707.585938 C 679.871094 709.824219 679.96875 710.015625 682.625 713.054688 C 706.335938 738.527344 728.832031 768.289062 753.375 792.160156 Z M 848.351562 492.257812 C 855.9375 482.847656 871.457031 481.792969 880.671875 486.6875 C 873.089844 440.894531 849.089844 368.703125 800 355.585938 C 783.070312 354.433594 772.351562 374.113281 778.273438 388.609375 C 810.753906 415.519531 841.855469 453.535156 848.351562 492.257812 Z M 828.894531 235.519531 C 828.960938 232.191406 828.992188 228.894531 829.023438 227.871094 C 830.015625 220.128906 836.609375 200 844.222656 191.230469 C 850.175781 171.710938 841.953125 138.175781 852.511719 119.457031 C 861.023438 92.832031 810.976562 138.878906 798.046875 187.265625 C 797.152344 190.558594 801.054688 191.839844 798.625 197.183594 C 797.824219 198.910156 795.425781 200.960938 795.265625 202.847656 C 794.816406 208.289062 795.007812 213.695312 795.9375 218.878906 C 807.902344 222.464844 818.71875 228.414062 828.894531 235.519531 Z M 477.984375 276 C 479.425781 279.296875 483.039062 284.320312 487.199219 282.945312 C 488.289062 282.238281 488.191406 279.648438 487.199219 275.585938 C 485.441406 268.382812 476.894531 257.40625 470.945312 243.105469 C 466.304688 231.902344 464.191406 214.367188 458.335938 201.34375 C 433.40625 146.175781 412.734375 95.105469 430.335938 90.335938 C 442.625 87.007812 447.199219 100.574219 436.414062 97.601562 C 436.128906 98.046875 435.710938 98.433594 435.136719 98.625 C 438.527344 126.496094 473.695312 91.425781 440.863281 80.449219 C 396.320312 72.703125 414.015625 124.511719 426.847656 146.6875 C 439.425781 178.078125 448.703125 206.273438 459.9375 236.128906 C 465.054688 249.664062 473.089844 262.398438 477.984375 276 Z M 567.230469 135.585938 C 598.976562 111.070312 634.816406 93.855469 674.753906 106.71875 C 669.441406 81.3125 647.902344 58.113281 620.222656 68.640625 C 620.480469 74.527344 635.230469 109.535156 621.089844 99.871094 C 614.207031 79.777344 590.816406 77.375 572.03125 79.871094 C 573.121094 86.273438 595.457031 118.046875 579.457031 112.351562 C 569.34375 97.792969 549.214844 91.457031 532.640625 97.855469 C 532.414062 97.761719 531.96875 98.335938 531.839844 98.464844 C 531.710938 98.753906 531.648438 99.039062 531.648438 99.328125 C 531.679688 99.390625 531.742188 99.585938 531.742188 99.710938 C 533.855469 104.351562 543.105469 113.3125 550.367188 122.113281 C 554.847656 127.550781 558.433594 133.023438 561.023438 135.9375 C 562.238281 137.34375 566.144531 136.414062 567.230469 135.585938 Z M 478.464844 78.046875 C 497.921875 64.320312 520.257812 78.878906 518.144531 101.246094 C 517.984375 101.664062 525.792969 103.070312 525.40625 101.953125 C 526.113281 101.34375 526.527344 100.351562 526.816406 99.457031 C 526.816406 99.457031 526.847656 99.457031 526.878906 99.488281 C 528.542969 94.976562 528.800781 89.984375 527.519531 85.984375 C 520.929688 63.585938 491.519531 50.113281 472.511719 65.695312 C 455.648438 76.894531 466.304688 101.472656 453.152344 112.929688 C 446.6875 117.121094 438.046875 115.777344 432.289062 110.976562 C 445.886719 146.335938 455.488281 165.824219 467.742188 200.320312 C 472.160156 165.601562 504.222656 158.496094 538.65625 153.726562 C 538.65625 153.726562 522.71875 129.601562 512 126.398438 C 501.28125 123.199219 477.40625 120 472.289062 110.496094 C 466.65625 100.0625 467.390625 84.511719 478.464844 78.046875 Z M 532.414062 97.886719 C 532.480469 97.855469 532.574219 97.886719 532.640625 97.855469 C 532.640625 97.855469 532.671875 97.824219 532.671875 97.824219 C 532.609375 97.855469 532.542969 97.855469 532.414062 97.886719 Z M 308.191406 270.6875 C 325.152344 283.390625 329.054688 286.304688 339.679688 296.289062 C 356.320312 263.742188 428.640625 255.105469 421.664062 209.566406 L 400.414062 158.113281 C 394.6875 148.542969 405.3125 143.617188 412.480469 144.574219 C 413.40625 144.191406 414.335938 143.488281 414.144531 141.121094 L 414.816406 140.03125 C 409.441406 130.238281 405.183594 114.335938 402.910156 103.9375 C 389.855469 105.695312 353.472656 97.824219 349.664062 112.351562 C 353.472656 140.222656 377.632812 168.351562 385.34375 196 C 381.503906 232.351562 327.007812 241.28125 308.191406 270.6875 Z M 532.351562 97.886719 L 532.289062 97.921875 Z M 243.425781 179.96875 C 279.007812 169.28125 299.710938 129.054688 338.976562 122.785156 C 338.175781 119.9375 337.664062 116.960938 337.34375 113.792969 C 316.351562 116.257812 295.902344 125.472656 279.648438 139.777344 C 267.136719 155.105469 234.496094 172.800781 227.359375 143.519531 C 224.542969 132.0625 247.519531 118.433594 250.015625 133.152344 C 249.3125 137.089844 245.566406 137.824219 242.335938 136.769531 C 221.664062 149.726562 267.871094 159.710938 259.808594 128.894531 C 226.816406 83.488281 189.761719 170.496094 243.425781 179.96875 Z M 256.351562 191.871094 C 260.222656 190.113281 264.449219 189.375 268.449219 190.527344 C 289.375 166.207031 319.105469 153.054688 346.59375 138.078125 C 345.472656 135.679688 344.574219 133.441406 343.902344 131.359375 C 311.136719 148.574219 282.816406 167.425781 255.328125 190.046875 C 251.265625 193.40625 251.839844 193.921875 256.351562 191.871094 Z M 899.070312 356.222656 C 897.183594 342.910156 887.550781 336.960938 878.878906 336.960938 C 829.472656 349.28125 884.703125 434.238281 886.976562 466.078125 C 895.136719 456.800781 910.878906 452.992188 917.953125 451.105469 C 904.734375 410.273438 898.335938 356.800781 899.070312 356.222656 Z M 875.296875 319.839844 C 869.695312 318.6875 864.191406 316.671875 859.007812 314.367188 C 859.230469 319.777344 859.585938 325.183594 860.128906 330.59375 C 860.289062 332.222656 862.976562 333.566406 864.257812 332.800781 C 868.480469 330.175781 873.503906 328.542969 878.398438 328.609375 C 878.273438 328.191406 876.542969 323.328125 875.296875 319.839844 Z M 885.726562 598.753906 C 885.3125 576.320312 898.078125 498.945312 871.199219 494.144531 C 862.945312 494.527344 853.695312 495.808594 849.28125 506.785156 C 856.191406 541.503906 829.761719 594.078125 885.726562 598.753906 Z M 896.03125 323.007812 C 890.433594 322.6875 888.671875 322.238281 883.167969 321.054688 C 884.128906 323.710938 885.054688 326.367188 886.015625 329.023438 C 890.847656 329.695312 891.648438 331.296875 895.519531 334.207031 C 897.089844 335.390625 898.59375 334.144531 898.046875 332.0625 C 897.246094 329.089844 896.609375 326.046875 896.03125 323.007812 Z M 710.753906 151.265625 C 704.960938 154.625 693.535156 152.511719 687.519531 149.089844 C 695.425781 162.847656 691.359375 176.542969 686.078125 185.566406 C 715.871094 185.472656 745.632812 185.441406 775.425781 185.214844 C 770.625 178.65625 775.648438 169.792969 775.777344 162.65625 C 772.832031 149.214844 749.441406 158.65625 745.34375 139.871094 C 734.910156 111.199219 697.824219 137.632812 680.929688 117.40625 C 680.769531 121.761719 680.769531 128.097656 677.792969 131.710938 C 677.089844 132.574219 686.847656 138.398438 689.375 139.488281 C 702.015625 144.992188 711.742188 139.871094 710.753906 151.265625 Z M 198.753906 215.039062 C 202.144531 212.894531 206.046875 210.59375 209.921875 208.480469 C 209.441406 208.097656 208.960938 207.648438 208.542969 207.199219 C 197.214844 207.390625 191.871094 188.03125 203.96875 185.214844 C 207.585938 184.257812 211.328125 190.910156 207.519531 193.726562 C 205.566406 195.007812 207.96875 197.953125 209.886719 197.535156 C 224.128906 195.519531 214.464844 177.761719 205.3125 178.078125 C 187.007812 177.28125 181.441406 210.433594 198.753906 215.039062 Z M 841.28125 244.769531 C 839.96875 225.246094 848.511719 205.886719 865.089844 194.398438 C 871.96875 189.632812 879.519531 186.910156 887.265625 185.601562 C 887.777344 177.601562 900.257812 171.488281 900.734375 164.800781 C 866.175781 166.078125 832 205.953125 835.617188 240.382812 C 837.503906 241.824219 839.425781 243.265625 841.28125 244.769531 Z M 858.496094 254.59375 C 871.96875 276.128906 920.640625 263.710938 906.59375 235.359375 C 902.144531 224.097656 880.671875 232.769531 886.910156 242.207031 C 890.625 244.671875 886.175781 249.984375 882.496094 247.550781 C 877.886719 244.511719 876.734375 239.808594 877.726562 235.359375 C 881.054688 220.160156 903.519531 217.441406 912.03125 229.28125 C 933.664062 260.609375 894.335938 283.648438 868.734375 272.480469 C 838.496094 262.398438 817.632812 233.921875 773.921875 229.214844 C 773.886719 229.28125 773.886719 229.34375 773.855469 229.375 C 784.574219 239.710938 787.007812 253.246094 787.230469 256.414062 C 808.640625 260.257812 857.886719 302.527344 870.175781 307.742188 C 952 339.457031 987.390625 207.007812 897.566406 197.535156 C 867.871094 193.214844 841.664062 228.734375 858.496094 254.59375 Z M 858.496094 254.59375 "/>
<path style=" stroke:none;fill-rule:nonzero;fill:url(#linear1);" d="M 72.320312 644.574219 L 995.359375 644.574219 L 995.359375 790.367188 L 72.320312 790.367188 Z M 72.320312 644.574219 "/>
<path style=" stroke:none;fill-rule:nonzero;fill:rgb(18.823529%,18.823529%,18.431373%);fill-opacity:1;" d="M 84.480469 657.664062 L 205.472656 657.664062 L 205.472656 778.65625 L 84.480469 778.65625 Z M 84.480469 657.664062 "/>
<path style=" stroke:none;fill-rule:nonzero;fill:rgb(18.823529%,18.823529%,18.431373%);fill-opacity:1;" d="M 213.183594 657.664062 L 334.175781 657.664062 L 334.175781 778.65625 L 213.183594 778.65625 Z M 213.183594 657.664062 "/>
<path style=" stroke:none;fill-rule:nonzero;fill:rgb(18.823529%,18.823529%,18.431373%);fill-opacity:1;" d="M 342.496094 657.664062 L 463.488281 657.664062 L 463.488281 778.65625 L 342.496094 778.65625 Z M 342.496094 657.664062 "/>
<path style=" stroke:none;fill-rule:nonzero;fill:rgb(18.823529%,18.823529%,18.431373%);fill-opacity:1;" d="M 471.679688 657.664062 L 592.671875 657.664062 L 592.671875 778.65625 L 471.679688 778.65625 Z M 471.679688 657.664062 "/>
<path style=" stroke:none;fill-rule:nonzero;fill:rgb(18.823529%,18.823529%,18.431373%);fill-opacity:1;" d="M 600.992188 657.664062 L 721.984375 657.664062 L 721.984375 778.65625 L 600.992188 778.65625 Z M 600.992188 657.664062 "/>
<path style=" stroke:none;fill-rule:nonzero;fill:rgb(18.823529%,18.823529%,18.431373%);fill-opacity:1;" d="M 729.566406 657.664062 L 850.558594 657.664062 L 850.558594 778.65625 L 729.566406 778.65625 Z M 729.566406 657.664062 "/>
<path style=" stroke:none;fill-rule:nonzero;fill:rgb(18.823529%,18.823529%,18.431373%);fill-opacity:1;" d="M 858.878906 657.664062 L 979.871094 657.664062 L 979.871094 778.65625 L 858.878906 778.65625 Z M 858.878906 657.664062 "/>
<use xlink:href="#surface5" mask="url(#mask0)"/>
<path style=" stroke:none;fill-rule:nonzero;fill:url(#linear3);" d="M 298.398438 740.769531 L 255.167969 672.449219 L 243.519531 672.449219 L 243.519531 763.871094 L 256.222656 763.871094 L 256.222656 696.574219 L 299.328125 763.871094 L 311.105469 763.871094 L 311.105469 672.449219 L 298.398438 672.449219 Z M 298.398438 740.769531 "/>
<path style=" stroke:none;fill-rule:nonzero;fill:url(#linear4);" d="M 144.351562 672.414062 L 110.625 763.902344 L 124.480469 763.902344 L 131.359375 743.839844 L 168.289062 743.839844 L 175.167969 763.902344 L 188.992188 763.902344 L 155.265625 672.414062 Z M 135.550781 733.246094 L 149.824219 691.710938 L 164.097656 733.246094 Z M 135.550781 733.246094 "/>
<path style=" stroke:none;fill-rule:nonzero;fill:url(#linear5);" d="M 424.769531 697.953125 L 437.921875 697.953125 C 434.078125 668.542969 391.871094 660.320312 378.527344 687.007812 C 372.511719 696.734375 375.070312 718.785156 374.558594 730.046875 C 373.023438 771.359375 430.433594 776.703125 437.921875 736.960938 L 424.769531 736.960938 C 418.367188 760.128906 386.113281 754.078125 387.710938 730.046875 C 388.289062 722.144531 386.015625 700.480469 390.046875 693.601562 C 396.894531 677.601562 421.152344 681.695312 424.769531 697.953125 Z M 424.769531 697.953125 "/>
<path style=" stroke:none;fill-rule:nonzero;fill:url(#linear6);" d="M 887.199219 672.414062 L 887.199219 684.609375 L 913.054688 684.609375 L 913.054688 763.902344 L 925.886719 763.902344 L 925.886719 684.609375 L 951.742188 684.609375 L 951.742188 672.414062 Z M 887.199219 672.414062 "/>
<path style=" stroke:none;fill-rule:nonzero;fill:url(#linear7);" d="M 512.703125 684.609375 L 526.046875 684.609375 L 526.046875 751.679688 L 512.703125 751.679688 L 512.703125 763.902344 L 552.222656 763.902344 L 552.222656 751.679688 L 538.878906 751.679688 L 538.878906 684.609375 L 552.222656 684.609375 L 552.222656 672.414062 L 512.703125 672.414062 Z M 512.703125 684.609375 "/>
<path style=" stroke:none;fill-rule:nonzero;fill:url(#linear8);" d="M 811.070312 740.769531 L 767.871094 672.449219 L 756.222656 672.449219 L 756.222656 763.871094 L 768.929688 763.871094 L 768.929688 696.574219 L 812.03125 763.871094 L 823.808594 763.871094 L 823.808594 672.449219 L 811.070312 672.449219 Z M 811.070312 740.769531 "/>
<path style=" stroke:none;fill-rule:nonzero;fill:url(#linear9);" d="M 633.40625 763.902344 L 692.191406 763.902344 L 692.191406 751.679688 L 646.238281 751.679688 L 646.238281 724.574219 L 685.246094 724.574219 L 685.246094 712.351562 L 646.238281 712.351562 L 646.238281 684.609375 L 692.191406 684.609375 L 692.191406 672.414062 L 633.40625 672.414062 Z M 633.40625 763.902344 "/>
</g>
</svg>
