<?xml version="1.0" encoding="UTF-8"?>
<svg xmlns="http://www.w3.org/2000/svg" xmlns:xlink="http://www.w3.org/1999/xlink" width="100%" height="100%" viewBox="0 0 1024 1024" version="1.1">
<defs>
<linearGradient id="linear0" gradientUnits="userSpaceOnUse" x1="16.0446" y1="2.31075" x2="16.0446" y2="29.4104" gradientTransform="matrix(32,0,0,32,0,0)">
<stop offset="0" style="stop-color:rgb(84.705882%,92.941176%,94.117647%);stop-opacity:1;"/>
<stop offset="0.35381" style="stop-color:rgb(90.980392%,93.333333%,94.509804%);stop-opacity:1;"/>
<stop offset="0.50558" style="stop-color:rgb(94.117647%,93.72549%,94.509804%);stop-opacity:1;"/>
<stop offset="0.51763" style="stop-color:rgb(88.235294%,88.235294%,89.019608%);stop-opacity:1;"/>
<stop offset="0.53432" style="stop-color:rgb(77.647059%,78.431373%,78.431373%);stop-opacity:1;"/>
<stop offset="0.59918" style="stop-color:rgb(59.607843%,59.607843%,58.823529%);stop-opacity:1;"/>
<stop offset="0.6237" style="stop-color:rgb(52.156863%,51.764706%,50.980392%);stop-opacity:1;"/>
<stop offset="0.64558" style="stop-color:rgb(50.980392%,50.196078%,50.980392%);stop-opacity:1;"/>
<stop offset="0.70498" style="stop-color:rgb(50.196078%,49.019608%,50.980392%);stop-opacity:1;"/>
<stop offset="0.83587" style="stop-color:rgb(58.039216%,51.764706%,47.843137%);stop-opacity:1;"/>
<stop offset="0.90048" style="stop-color:rgb(57.647059%,49.019608%,44.705882%);stop-opacity:1;"/>
<stop offset="1" style="stop-color:rgb(57.254902%,48.235294%,43.529412%);stop-opacity:1;"/>
</linearGradient>
<linearGradient id="linear1" gradientUnits="userSpaceOnUse" x1="16.0443" y1="3.62497" x2="16.0443" y2="21.0624" gradientTransform="matrix(32,0,0,32,0,0)">
<stop offset="0" style="stop-color:rgb(99.607843%,99.215686%,100%);stop-opacity:1;"/>
<stop offset="0.11323" style="stop-color:rgb(93.72549%,93.72549%,94.117647%);stop-opacity:1;"/>
<stop offset="0.32954" style="stop-color:rgb(78.823529%,79.215686%,79.607843%);stop-opacity:1;"/>
<stop offset="0.34278" style="stop-color:rgb(77.647059%,78.431373%,78.431373%);stop-opacity:1;"/>
<stop offset="0.72248" style="stop-color:rgb(66.27451%,61.568627%,58.823529%);stop-opacity:1;"/>
<stop offset="1" style="stop-color:rgb(57.254902%,48.235294%,43.529412%);stop-opacity:1;"/>
</linearGradient>
<filter id="alpha" filterUnits="objectBoundingBox" x="0%" y="0%" width="100%" height="100%">
  <feColorMatrix type="matrix" in="SourceGraphic" values="0 0 0 0 1 0 0 0 0 1 0 0 0 0 1 0 0 0 1 0"/>
</filter>
<mask id="mask0">
  <g filter="url(#alpha)">
<rect x="0" y="0" width="1024" height="1024" style="fill:rgb(0%,0%,0%);fill-opacity:0.619608;stroke:none;"/>
  </g>
</mask>
<linearGradient id="linear2" gradientUnits="userSpaceOnUse" x1="15.9016" y1="29.0701" x2="16.0517" y2="19.5382" gradientTransform="matrix(32,0,0,32,0,0)">
<stop offset="0" style="stop-color:rgb(88.627451%,93.333333%,94.117647%);stop-opacity:1;"/>
<stop offset="0.50558" style="stop-color:rgb(94.117647%,93.72549%,94.509804%);stop-opacity:1;"/>
<stop offset="0.51763" style="stop-color:rgb(88.235294%,88.235294%,89.019608%);stop-opacity:1;"/>
<stop offset="0.53432" style="stop-color:rgb(77.647059%,78.431373%,78.431373%);stop-opacity:1;"/>
<stop offset="0.59918" style="stop-color:rgb(59.607843%,59.607843%,58.823529%);stop-opacity:1;"/>
<stop offset="0.6237" style="stop-color:rgb(52.156863%,51.764706%,50.980392%);stop-opacity:1;"/>
<stop offset="0.64558" style="stop-color:rgb(50.980392%,50.196078%,50.980392%);stop-opacity:1;"/>
<stop offset="0.70498" style="stop-color:rgb(50.196078%,49.019608%,50.980392%);stop-opacity:1;"/>
<stop offset="0.83587" style="stop-color:rgb(58.039216%,51.764706%,47.843137%);stop-opacity:1;"/>
<stop offset="0.90048" style="stop-color:rgb(57.647059%,49.019608%,44.705882%);stop-opacity:1;"/>
<stop offset="1" style="stop-color:rgb(57.254902%,48.235294%,43.529412%);stop-opacity:1;"/>
</linearGradient>
<clipPath id="clip1">
  <rect x="0" y="0" width="1024" height="1024"/>
</clipPath>
<g id="surface5" clip-path="url(#clip1)">
<path style=" stroke:none;fill-rule:nonzero;fill:url(#linear2);" d="M 513.429688 894.382812 L 258.546875 639.5 L 768.316406 639.5 Z M 263.023438 641.355469 L 513.429688 891.761719 L 763.839844 641.355469 Z M 263.023438 641.355469 "/>
</g>
<mask id="mask1">
  <g filter="url(#alpha)">
<rect x="0" y="0" width="1024" height="1024" style="fill:rgb(0%,0%,0%);fill-opacity:0.580392;stroke:none;"/>
  </g>
</mask>
<linearGradient id="linear3" gradientUnits="userSpaceOnUse" x1="16.1509" y1="15.4517" x2="15.9107" y2="26.8099" gradientTransform="matrix(32,0,0,32,0,0)">
<stop offset="0" style="stop-color:rgb(88.627451%,93.333333%,94.117647%);stop-opacity:1;"/>
<stop offset="0.50558" style="stop-color:rgb(94.117647%,93.72549%,94.509804%);stop-opacity:1;"/>
<stop offset="0.51763" style="stop-color:rgb(88.235294%,88.235294%,89.019608%);stop-opacity:1;"/>
<stop offset="0.53432" style="stop-color:rgb(77.647059%,78.431373%,78.431373%);stop-opacity:1;"/>
<stop offset="0.59918" style="stop-color:rgb(59.607843%,59.607843%,58.823529%);stop-opacity:1;"/>
<stop offset="0.6237" style="stop-color:rgb(52.156863%,51.764706%,50.980392%);stop-opacity:1;"/>
<stop offset="0.64558" style="stop-color:rgb(50.980392%,50.196078%,50.980392%);stop-opacity:1;"/>
<stop offset="0.70498" style="stop-color:rgb(50.196078%,49.019608%,50.980392%);stop-opacity:1;"/>
<stop offset="0.83587" style="stop-color:rgb(58.039216%,51.764706%,47.843137%);stop-opacity:1;"/>
<stop offset="0.84123" style="stop-color:rgb(56.078431%,50.196078%,46.27451%);stop-opacity:1;"/>
<stop offset="0.87204" style="stop-color:rgb(47.843137%,41.960784%,38.039216%);stop-opacity:1;"/>
<stop offset="0.90589" style="stop-color:rgb(41.568627%,36.078431%,32.156863%);stop-opacity:1;"/>
<stop offset="0.94476" style="stop-color:rgb(38.039216%,32.54902%,29.019608%);stop-opacity:1;"/>
<stop offset="1" style="stop-color:rgb(36.862745%,31.372549%,27.843137%);stop-opacity:1;"/>
</linearGradient>
<clipPath id="clip2">
  <rect x="0" y="0" width="1024" height="1024"/>
</clipPath>
<g id="surface8" clip-path="url(#clip2)">
<path style=" stroke:none;fill-rule:nonzero;fill:url(#linear3);" d="M 297.34375 655.5625 L 513.425781 871.640625 L 729.5 655.5625 Z M 301.820312 657.417969 L 725.023438 657.417969 L 513.425781 869.019531 Z M 301.820312 657.417969 "/>
</g>
<linearGradient id="linear4" gradientUnits="userSpaceOnUse" x1="15.9744" y1="2.40146" x2="16.1262" y2="31.6586" gradientTransform="matrix(32,0,0,32,0,0)">
<stop offset="0" style="stop-color:rgb(100%,100%,100%);stop-opacity:1;"/>
<stop offset="0.49762" style="stop-color:rgb(94.117647%,93.72549%,94.509804%);stop-opacity:1;"/>
<stop offset="0.50558" style="stop-color:rgb(94.117647%,93.72549%,94.509804%);stop-opacity:1;"/>
<stop offset="0.51763" style="stop-color:rgb(88.235294%,88.235294%,89.019608%);stop-opacity:1;"/>
<stop offset="0.53432" style="stop-color:rgb(77.647059%,78.431373%,78.431373%);stop-opacity:1;"/>
<stop offset="0.59918" style="stop-color:rgb(59.607843%,59.607843%,58.823529%);stop-opacity:1;"/>
<stop offset="0.6237" style="stop-color:rgb(52.156863%,51.764706%,50.980392%);stop-opacity:1;"/>
<stop offset="0.64558" style="stop-color:rgb(50.980392%,50.196078%,50.980392%);stop-opacity:1;"/>
<stop offset="0.70498" style="stop-color:rgb(50.196078%,49.019608%,50.980392%);stop-opacity:1;"/>
<stop offset="0.83587" style="stop-color:rgb(58.039216%,51.764706%,47.843137%);stop-opacity:1;"/>
<stop offset="0.84823" style="stop-color:rgb(62.745098%,53.72549%,47.058824%);stop-opacity:1;"/>
<stop offset="0.87768" style="stop-color:rgb(70.980392%,57.647059%,45.882353%);stop-opacity:1;"/>
<stop offset="0.91004" style="stop-color:rgb(77.254902%,60.392157%,45.098039%);stop-opacity:1;"/>
<stop offset="0.94721" style="stop-color:rgb(80.784314%,61.960784%,44.313725%);stop-opacity:1;"/>
<stop offset="1" style="stop-color:rgb(81.960784%,62.352941%,44.313725%);stop-opacity:1;"/>
</linearGradient>
<linearGradient id="linear5" gradientUnits="userSpaceOnUse" x1="16.0447" y1="21.0076" x2="16.0447" y2="16.0088" gradientTransform="matrix(32,0,0,32,0,0)">
<stop offset="0" style="stop-color:rgb(84.705882%,92.941176%,94.117647%);stop-opacity:1;"/>
<stop offset="0.17509" style="stop-color:rgb(90.980392%,93.333333%,94.509804%);stop-opacity:1;"/>
<stop offset="0.2502" style="stop-color:rgb(94.117647%,93.72549%,94.509804%);stop-opacity:1;"/>
<stop offset="0.29513" style="stop-color:rgb(88.235294%,88.235294%,88.627451%);stop-opacity:1;"/>
<stop offset="0.32682" style="stop-color:rgb(83.137255%,83.529412%,83.529412%);stop-opacity:1;"/>
<stop offset="0.41301" style="stop-color:rgb(80%,80.392157%,80.392157%);stop-opacity:1;"/>
<stop offset="0.50239" style="stop-color:rgb(77.647059%,78.431373%,78.431373%);stop-opacity:1;"/>
<stop offset="0.57653" style="stop-color:rgb(59.607843%,59.607843%,58.823529%);stop-opacity:1;"/>
<stop offset="0.60454" style="stop-color:rgb(52.156863%,51.764706%,50.980392%);stop-opacity:1;"/>
<stop offset="0.62081" style="stop-color:rgb(54.509804%,52.156863%,50.196078%);stop-opacity:1;"/>
<stop offset="0.70722" style="stop-color:rgb(64.313725%,53.333333%,45.882353%);stop-opacity:1;"/>
<stop offset="0.79715" style="stop-color:rgb(71.372549%,54.509804%,43.137255%);stop-opacity:1;"/>
<stop offset="0.892" style="stop-color:rgb(75.686275%,54.901961%,41.176471%);stop-opacity:1;"/>
<stop offset="1" style="stop-color:rgb(76.862745%,55.294118%,40.784314%);stop-opacity:1;"/>
</linearGradient>
<mask id="mask2">
  <g filter="url(#alpha)">
<rect x="0" y="0" width="1024" height="1024" style="fill:rgb(0%,0%,0%);fill-opacity:0.470588;stroke:none;"/>
  </g>
</mask>
<linearGradient id="linear6" gradientUnits="userSpaceOnUse" x1="13.9307" y1="28.0357" x2="13.7867" y2="19.4193" gradientTransform="matrix(32,0,0,32,0,0)">
<stop offset="0" style="stop-color:rgb(88.627451%,93.333333%,94.117647%);stop-opacity:1;"/>
<stop offset="0.50558" style="stop-color:rgb(94.117647%,93.72549%,94.509804%);stop-opacity:1;"/>
<stop offset="0.51763" style="stop-color:rgb(88.235294%,88.235294%,89.019608%);stop-opacity:1;"/>
<stop offset="0.53432" style="stop-color:rgb(77.647059%,78.431373%,78.431373%);stop-opacity:1;"/>
<stop offset="0.59918" style="stop-color:rgb(59.607843%,59.607843%,58.823529%);stop-opacity:1;"/>
<stop offset="0.6237" style="stop-color:rgb(52.156863%,51.764706%,50.980392%);stop-opacity:1;"/>
<stop offset="0.64558" style="stop-color:rgb(50.980392%,50.196078%,50.980392%);stop-opacity:1;"/>
<stop offset="0.70498" style="stop-color:rgb(50.196078%,49.019608%,50.980392%);stop-opacity:1;"/>
<stop offset="0.83587" style="stop-color:rgb(58.039216%,51.764706%,47.843137%);stop-opacity:1;"/>
<stop offset="0.90048" style="stop-color:rgb(57.647059%,49.019608%,44.705882%);stop-opacity:1;"/>
<stop offset="1" style="stop-color:rgb(57.254902%,48.235294%,43.529412%);stop-opacity:1;"/>
</linearGradient>
<linearGradient id="linear7" gradientUnits="userSpaceOnUse" x1="14.3381" y1="22.7147" x2="14.3181" y2="23.9355" gradientTransform="matrix(32,0,0,32,0,0)">
<stop offset="0" style="stop-color:rgb(88.627451%,93.333333%,94.117647%);stop-opacity:1;"/>
<stop offset="0.50558" style="stop-color:rgb(94.117647%,93.72549%,94.509804%);stop-opacity:1;"/>
<stop offset="0.51763" style="stop-color:rgb(88.235294%,88.235294%,89.019608%);stop-opacity:1;"/>
<stop offset="0.53432" style="stop-color:rgb(77.647059%,78.431373%,78.431373%);stop-opacity:1;"/>
<stop offset="0.59918" style="stop-color:rgb(59.607843%,59.607843%,58.823529%);stop-opacity:1;"/>
<stop offset="0.6237" style="stop-color:rgb(52.156863%,51.764706%,50.980392%);stop-opacity:1;"/>
<stop offset="0.64558" style="stop-color:rgb(50.980392%,50.196078%,50.980392%);stop-opacity:1;"/>
<stop offset="0.70498" style="stop-color:rgb(50.196078%,49.019608%,50.980392%);stop-opacity:1;"/>
<stop offset="0.83587" style="stop-color:rgb(58.039216%,51.764706%,47.843137%);stop-opacity:1;"/>
<stop offset="0.90048" style="stop-color:rgb(57.647059%,49.019608%,44.705882%);stop-opacity:1;"/>
<stop offset="1" style="stop-color:rgb(57.254902%,48.235294%,43.529412%);stop-opacity:1;"/>
</linearGradient>
<linearGradient id="linear8" gradientUnits="userSpaceOnUse" x1="12.6644" y1="20.6219" x2="13.7318" y2="23.6708" gradientTransform="matrix(32,0,0,32,0,0)">
<stop offset="0" style="stop-color:rgb(88.627451%,93.333333%,94.117647%);stop-opacity:1;"/>
<stop offset="0.25834" style="stop-color:rgb(94.117647%,93.72549%,94.509804%);stop-opacity:1;"/>
<stop offset="0.35269" style="stop-color:rgb(88.235294%,88.235294%,89.019608%);stop-opacity:1;"/>
<stop offset="0.48329" style="stop-color:rgb(77.647059%,78.431373%,78.431373%);stop-opacity:1;"/>
<stop offset="0.58519" style="stop-color:rgb(59.607843%,59.607843%,58.823529%);stop-opacity:1;"/>
<stop offset="0.6237" style="stop-color:rgb(52.156863%,51.764706%,50.980392%);stop-opacity:1;"/>
<stop offset="0.64558" style="stop-color:rgb(50.980392%,50.196078%,50.980392%);stop-opacity:1;"/>
<stop offset="0.70498" style="stop-color:rgb(50.196078%,49.019608%,50.980392%);stop-opacity:1;"/>
<stop offset="0.83587" style="stop-color:rgb(58.039216%,51.764706%,47.843137%);stop-opacity:1;"/>
<stop offset="0.90048" style="stop-color:rgb(57.647059%,49.019608%,44.705882%);stop-opacity:1;"/>
<stop offset="1" style="stop-color:rgb(57.254902%,48.235294%,43.529412%);stop-opacity:1;"/>
</linearGradient>
<linearGradient id="linear9" gradientUnits="userSpaceOnUse" x1="16.3886" y1="22.4799" x2="16.442" y2="20.1382" gradientTransform="matrix(32,0,0,32,0,0)">
<stop offset="0" style="stop-color:rgb(88.627451%,93.333333%,94.117647%);stop-opacity:1;"/>
<stop offset="0.50558" style="stop-color:rgb(94.117647%,93.72549%,94.509804%);stop-opacity:1;"/>
<stop offset="0.51763" style="stop-color:rgb(88.235294%,88.235294%,89.019608%);stop-opacity:1;"/>
<stop offset="0.53432" style="stop-color:rgb(77.647059%,78.431373%,78.431373%);stop-opacity:1;"/>
<stop offset="0.59918" style="stop-color:rgb(59.607843%,59.607843%,58.823529%);stop-opacity:1;"/>
<stop offset="0.6237" style="stop-color:rgb(52.156863%,51.764706%,50.980392%);stop-opacity:1;"/>
<stop offset="0.64558" style="stop-color:rgb(50.980392%,50.196078%,50.980392%);stop-opacity:1;"/>
<stop offset="0.70498" style="stop-color:rgb(50.196078%,49.019608%,50.980392%);stop-opacity:1;"/>
<stop offset="0.83587" style="stop-color:rgb(58.039216%,51.764706%,47.843137%);stop-opacity:1;"/>
<stop offset="0.90048" style="stop-color:rgb(57.647059%,49.019608%,44.705882%);stop-opacity:1;"/>
<stop offset="1" style="stop-color:rgb(57.254902%,48.235294%,43.529412%);stop-opacity:1;"/>
</linearGradient>
<linearGradient id="linear10" gradientUnits="userSpaceOnUse" x1="16.9287" y1="21.6733" x2="16.942" y2="22.4072" gradientTransform="matrix(32,0,0,32,0,0)">
<stop offset="0" style="stop-color:rgb(88.627451%,93.333333%,94.117647%);stop-opacity:1;"/>
<stop offset="0.50558" style="stop-color:rgb(94.117647%,93.72549%,94.509804%);stop-opacity:1;"/>
<stop offset="0.51763" style="stop-color:rgb(88.235294%,88.235294%,89.019608%);stop-opacity:1;"/>
<stop offset="0.53432" style="stop-color:rgb(77.647059%,78.431373%,78.431373%);stop-opacity:1;"/>
<stop offset="0.59918" style="stop-color:rgb(59.607843%,59.607843%,58.823529%);stop-opacity:1;"/>
<stop offset="0.6237" style="stop-color:rgb(52.156863%,51.764706%,50.980392%);stop-opacity:1;"/>
<stop offset="0.64558" style="stop-color:rgb(50.980392%,50.196078%,50.980392%);stop-opacity:1;"/>
<stop offset="0.70498" style="stop-color:rgb(50.196078%,49.019608%,50.980392%);stop-opacity:1;"/>
<stop offset="0.83587" style="stop-color:rgb(58.039216%,51.764706%,47.843137%);stop-opacity:1;"/>
<stop offset="0.90048" style="stop-color:rgb(57.647059%,49.019608%,44.705882%);stop-opacity:1;"/>
<stop offset="1" style="stop-color:rgb(57.254902%,48.235294%,43.529412%);stop-opacity:1;"/>
</linearGradient>
<linearGradient id="linear11" gradientUnits="userSpaceOnUse" x1="17.6001" y1="26.4968" x2="17.6134" y2="21.6533" gradientTransform="matrix(32,0,0,32,0,0)">
<stop offset="0" style="stop-color:rgb(88.627451%,93.333333%,94.117647%);stop-opacity:1;"/>
<stop offset="0.50558" style="stop-color:rgb(94.117647%,93.72549%,94.509804%);stop-opacity:1;"/>
<stop offset="0.51763" style="stop-color:rgb(88.235294%,88.235294%,89.019608%);stop-opacity:1;"/>
<stop offset="0.53432" style="stop-color:rgb(77.647059%,78.431373%,78.431373%);stop-opacity:1;"/>
<stop offset="0.59918" style="stop-color:rgb(59.607843%,59.607843%,58.823529%);stop-opacity:1;"/>
<stop offset="0.6237" style="stop-color:rgb(52.156863%,51.764706%,50.980392%);stop-opacity:1;"/>
<stop offset="0.64558" style="stop-color:rgb(50.980392%,50.196078%,50.980392%);stop-opacity:1;"/>
<stop offset="0.70498" style="stop-color:rgb(50.196078%,49.019608%,50.980392%);stop-opacity:1;"/>
<stop offset="0.83587" style="stop-color:rgb(58.039216%,51.764706%,47.843137%);stop-opacity:1;"/>
<stop offset="0.86158" style="stop-color:rgb(52.156863%,45.490196%,41.960784%);stop-opacity:1;"/>
<stop offset="0.89918" style="stop-color:rgb(45.882353%,39.215686%,35.686275%);stop-opacity:1;"/>
<stop offset="0.94185" style="stop-color:rgb(42.352941%,35.686275%,32.156863%);stop-opacity:1;"/>
<stop offset="1" style="stop-color:rgb(41.176471%,34.509804%,30.980392%);stop-opacity:1;"/>
</linearGradient>
<linearGradient id="linear12" gradientUnits="userSpaceOnUse" x1="17.5816" y1="21.1139" x2="18.2955" y2="25.1168" gradientTransform="matrix(32,0,0,32,0,0)">
<stop offset="0" style="stop-color:rgb(88.627451%,93.333333%,94.117647%);stop-opacity:1;"/>
<stop offset="0.12164" style="stop-color:rgb(88.627451%,93.333333%,94.117647%);stop-opacity:1;"/>
<stop offset="0.14166" style="stop-color:rgb(88.627451%,93.333333%,94.117647%);stop-opacity:1;"/>
<stop offset="0.23798" style="stop-color:rgb(88.235294%,92.54902%,93.333333%);stop-opacity:1;"/>
<stop offset="0.27418" style="stop-color:rgb(85.882353%,90.196078%,90.588235%);stop-opacity:1;"/>
<stop offset="0.30026" style="stop-color:rgb(82.352941%,85.882353%,85.882353%);stop-opacity:1;"/>
<stop offset="0.32147" style="stop-color:rgb(76.862745%,79.607843%,79.215686%);stop-opacity:1;"/>
<stop offset="0.33971" style="stop-color:rgb(70.196078%,71.372549%,70.588235%);stop-opacity:1;"/>
<stop offset="0.35592" style="stop-color:rgb(61.960784%,61.176471%,59.607843%);stop-opacity:1;"/>
<stop offset="0.37063" style="stop-color:rgb(51.764706%,49.019608%,47.058824%);stop-opacity:1;"/>
<stop offset="0.38374" style="stop-color:rgb(40.784314%,35.686275%,32.54902%);stop-opacity:1;"/>
<stop offset="0.39385" style="stop-color:rgb(30.196078%,23.137255%,19.215686%);stop-opacity:1;"/>
<stop offset="0.40272" style="stop-color:rgb(43.137255%,37.254902%,34.117647%);stop-opacity:1;"/>
<stop offset="0.41377" style="stop-color:rgb(56.470588%,52.156863%,50.196078%);stop-opacity:1;"/>
<stop offset="0.42552" style="stop-color:rgb(68.235294%,65.098039%,63.921569%);stop-opacity:1;"/>
<stop offset="0.43789" style="stop-color:rgb(77.647059%,75.686275%,74.901961%);stop-opacity:1;"/>
<stop offset="0.45109" style="stop-color:rgb(85.098039%,83.529412%,83.529412%);stop-opacity:1;"/>
<stop offset="0.46552" style="stop-color:rgb(90.196078%,89.411765%,89.803922%);stop-opacity:1;"/>
<stop offset="0.48207" style="stop-color:rgb(93.333333%,92.54902%,93.333333%);stop-opacity:1;"/>
<stop offset="0.50558" style="stop-color:rgb(94.117647%,93.72549%,94.509804%);stop-opacity:1;"/>
<stop offset="0.51763" style="stop-color:rgb(88.235294%,88.235294%,89.019608%);stop-opacity:1;"/>
<stop offset="0.53432" style="stop-color:rgb(77.647059%,78.431373%,78.431373%);stop-opacity:1;"/>
<stop offset="0.59918" style="stop-color:rgb(59.607843%,59.607843%,58.823529%);stop-opacity:1;"/>
<stop offset="0.6237" style="stop-color:rgb(52.156863%,51.764706%,50.980392%);stop-opacity:1;"/>
<stop offset="0.64558" style="stop-color:rgb(50.980392%,50.196078%,50.980392%);stop-opacity:1;"/>
<stop offset="0.70498" style="stop-color:rgb(50.196078%,49.019608%,50.980392%);stop-opacity:1;"/>
<stop offset="0.83587" style="stop-color:rgb(30.196078%,23.137255%,19.215686%);stop-opacity:1;"/>
<stop offset="0.85351" style="stop-color:rgb(37.647059%,29.803922%,25.882353%);stop-opacity:1;"/>
<stop offset="0.88069" style="stop-color:rgb(45.882353%,37.647059%,33.333333%);stop-opacity:1;"/>
<stop offset="0.91057" style="stop-color:rgb(52.156863%,43.137255%,38.823529%);stop-opacity:1;"/>
<stop offset="0.94487" style="stop-color:rgb(55.686275%,46.27451%,41.960784%);stop-opacity:1;"/>
<stop offset="0.99361" style="stop-color:rgb(56.862745%,47.45098%,43.137255%);stop-opacity:1;"/>
</linearGradient>
<linearGradient id="linear13" gradientUnits="userSpaceOnUse" x1="16.8364" y1="20.1198" x2="15.2419" y2="24.2628" gradientTransform="matrix(32,0,0,32,0,0)">
<stop offset="0" style="stop-color:rgb(88.627451%,93.333333%,94.117647%);stop-opacity:1;"/>
<stop offset="0.50558" style="stop-color:rgb(94.117647%,93.72549%,94.509804%);stop-opacity:1;"/>
<stop offset="0.51763" style="stop-color:rgb(88.235294%,88.235294%,89.019608%);stop-opacity:1;"/>
<stop offset="0.53432" style="stop-color:rgb(77.647059%,78.431373%,78.431373%);stop-opacity:1;"/>
<stop offset="0.59918" style="stop-color:rgb(59.607843%,59.607843%,58.823529%);stop-opacity:1;"/>
<stop offset="0.6237" style="stop-color:rgb(52.156863%,51.764706%,50.980392%);stop-opacity:1;"/>
<stop offset="0.64558" style="stop-color:rgb(50.980392%,50.196078%,50.980392%);stop-opacity:1;"/>
<stop offset="0.70498" style="stop-color:rgb(50.196078%,49.019608%,50.980392%);stop-opacity:1;"/>
<stop offset="0.83587" style="stop-color:rgb(58.039216%,51.764706%,47.843137%);stop-opacity:1;"/>
<stop offset="0.90048" style="stop-color:rgb(57.647059%,49.019608%,44.705882%);stop-opacity:1;"/>
<stop offset="1" style="stop-color:rgb(57.254902%,48.235294%,43.529412%);stop-opacity:1;"/>
</linearGradient>
<linearGradient id="linear14" gradientUnits="userSpaceOnUse" x1="15.8474" y1="27.9088" x2="15.715" y2="19.9849" gradientTransform="matrix(32,0,0,32,0,0)">
<stop offset="0" style="stop-color:rgb(88.627451%,93.333333%,94.117647%);stop-opacity:1;"/>
<stop offset="0.28062" style="stop-color:rgb(88.627451%,93.333333%,94.117647%);stop-opacity:1;"/>
<stop offset="0.32682" style="stop-color:rgb(88.627451%,93.333333%,94.117647%);stop-opacity:1;"/>
<stop offset="0.37728" style="stop-color:rgb(88.235294%,92.54902%,93.333333%);stop-opacity:1;"/>
<stop offset="0.39684" style="stop-color:rgb(86.27451%,90.196078%,90.588235%);stop-opacity:1;"/>
<stop offset="0.41103" style="stop-color:rgb(83.529412%,85.882353%,85.882353%);stop-opacity:1;"/>
<stop offset="0.42264" style="stop-color:rgb(79.215686%,80%,79.215686%);stop-opacity:1;"/>
<stop offset="0.43266" style="stop-color:rgb(73.72549%,72.156863%,70.196078%);stop-opacity:1;"/>
<stop offset="0.44157" style="stop-color:rgb(67.058824%,62.352941%,59.607843%);stop-opacity:1;"/>
<stop offset="0.4495" style="stop-color:rgb(59.215686%,51.372549%,47.058824%);stop-opacity:1;"/>
<stop offset="0.45132" style="stop-color:rgb(57.254902%,48.235294%,43.529412%);stop-opacity:1;"/>
<stop offset="0.45236" style="stop-color:rgb(60.784314%,52.54902%,48.235294%);stop-opacity:1;"/>
<stop offset="0.45558" style="stop-color:rgb(69.411765%,63.529412%,60.392157%);stop-opacity:1;"/>
<stop offset="0.45922" style="stop-color:rgb(77.254902%,72.941176%,71.372549%);stop-opacity:1;"/>
<stop offset="0.46334" style="stop-color:rgb(83.529412%,80.784314%,80%);stop-opacity:1;"/>
<stop offset="0.46814" style="stop-color:rgb(88.235294%,86.666667%,86.666667%);stop-opacity:1;"/>
<stop offset="0.47409" style="stop-color:rgb(91.764706%,90.588235%,90.980392%);stop-opacity:1;"/>
<stop offset="0.48243" style="stop-color:rgb(93.72549%,92.941176%,93.72549%);stop-opacity:1;"/>
<stop offset="0.50558" style="stop-color:rgb(94.117647%,93.72549%,94.509804%);stop-opacity:1;"/>
<stop offset="0.51763" style="stop-color:rgb(88.235294%,88.235294%,89.019608%);stop-opacity:1;"/>
<stop offset="0.53432" style="stop-color:rgb(77.647059%,78.431373%,78.431373%);stop-opacity:1;"/>
<stop offset="0.59918" style="stop-color:rgb(59.607843%,59.607843%,58.823529%);stop-opacity:1;"/>
<stop offset="0.6237" style="stop-color:rgb(52.156863%,51.764706%,50.980392%);stop-opacity:1;"/>
<stop offset="0.64558" style="stop-color:rgb(50.980392%,50.196078%,50.980392%);stop-opacity:1;"/>
<stop offset="0.70498" style="stop-color:rgb(50.196078%,49.019608%,50.980392%);stop-opacity:1;"/>
<stop offset="0.83587" style="stop-color:rgb(58.039216%,51.764706%,47.843137%);stop-opacity:1;"/>
<stop offset="0.90048" style="stop-color:rgb(57.647059%,49.019608%,44.705882%);stop-opacity:1;"/>
<stop offset="1" style="stop-color:rgb(57.254902%,48.235294%,43.529412%);stop-opacity:1;"/>
</linearGradient>
<linearGradient id="linear15" gradientUnits="userSpaceOnUse" x1="15.6857" y1="22.1188" x2="15.9192" y2="23.0394" gradientTransform="matrix(32,0,0,32,0,0)">
<stop offset="0" style="stop-color:rgb(88.627451%,93.333333%,94.117647%);stop-opacity:1;"/>
<stop offset="0.50558" style="stop-color:rgb(94.117647%,93.72549%,94.509804%);stop-opacity:1;"/>
<stop offset="0.51763" style="stop-color:rgb(88.235294%,88.235294%,89.019608%);stop-opacity:1;"/>
<stop offset="0.53432" style="stop-color:rgb(77.647059%,78.431373%,78.431373%);stop-opacity:1;"/>
<stop offset="0.59918" style="stop-color:rgb(59.607843%,59.607843%,58.823529%);stop-opacity:1;"/>
<stop offset="0.6237" style="stop-color:rgb(52.156863%,51.764706%,50.980392%);stop-opacity:1;"/>
<stop offset="0.64558" style="stop-color:rgb(50.980392%,50.196078%,50.980392%);stop-opacity:1;"/>
<stop offset="0.70498" style="stop-color:rgb(50.196078%,49.019608%,50.980392%);stop-opacity:1;"/>
<stop offset="0.83587" style="stop-color:rgb(58.039216%,51.764706%,47.843137%);stop-opacity:1;"/>
<stop offset="0.90048" style="stop-color:rgb(57.647059%,49.019608%,44.705882%);stop-opacity:1;"/>
<stop offset="1" style="stop-color:rgb(57.254902%,48.235294%,43.529412%);stop-opacity:1;"/>
</linearGradient>
<linearGradient id="linear16" gradientUnits="userSpaceOnUse" x1="15.9568" y1="24.0249" x2="16.0102" y2="24.3652" gradientTransform="matrix(32,0,0,32,0,0)">
<stop offset="0" style="stop-color:rgb(88.627451%,93.333333%,94.117647%);stop-opacity:1;"/>
<stop offset="0.50558" style="stop-color:rgb(94.117647%,93.72549%,94.509804%);stop-opacity:1;"/>
<stop offset="0.51763" style="stop-color:rgb(88.235294%,88.235294%,89.019608%);stop-opacity:1;"/>
<stop offset="0.53432" style="stop-color:rgb(77.647059%,78.431373%,78.431373%);stop-opacity:1;"/>
<stop offset="0.59918" style="stop-color:rgb(59.607843%,59.607843%,58.823529%);stop-opacity:1;"/>
<stop offset="0.6237" style="stop-color:rgb(52.156863%,51.764706%,50.980392%);stop-opacity:1;"/>
<stop offset="0.64558" style="stop-color:rgb(50.980392%,50.196078%,50.980392%);stop-opacity:1;"/>
<stop offset="0.70498" style="stop-color:rgb(50.196078%,49.019608%,50.980392%);stop-opacity:1;"/>
<stop offset="0.83587" style="stop-color:rgb(58.039216%,51.764706%,47.843137%);stop-opacity:1;"/>
<stop offset="0.90048" style="stop-color:rgb(57.647059%,49.019608%,44.705882%);stop-opacity:1;"/>
<stop offset="1" style="stop-color:rgb(57.254902%,48.235294%,43.529412%);stop-opacity:1;"/>
</linearGradient>
<clipPath id="clip3">
  <rect x="0" y="0" width="1024" height="1024"/>
</clipPath>
<g id="surface11" clip-path="url(#clip3)">
<path style=" stroke:none;fill-rule:nonzero;fill:url(#linear6);" d="M 474.398438 734.378906 C 473.089844 733.054688 471.242188 732.378906 468.914062 732.375 C 465.636719 732.367188 462.355469 732.363281 459.074219 732.363281 C 455.28125 732.363281 451.488281 732.367188 447.691406 732.386719 C 445.289062 732.398438 443.40625 733.105469 442.09375 734.488281 C 441.625 734.980469 441.246094 735.546875 440.953125 736.1875 C 440.964844 735.636719 440.972656 735.003906 440.980469 734.289062 C 441.019531 731.753906 441.054688 728.242188 441.089844 724.34375 C 441.15625 716.386719 441.210938 706.992188 441.226562 700.964844 C 441.246094 692.085938 437.730469 684.941406 430.769531 679.730469 C 429.300781 678.632812 427.191406 677.953125 425.257812 677.953125 C 424.761719 677.953125 424.285156 678 423.835938 678.085938 C 421.550781 678.542969 420.980469 681.089844 420.480469 684.371094 C 420.292969 685.578125 420.222656 686.765625 420.152344 687.914062 C 420.070312 689.335938 419.992188 690.679688 419.707031 691.90625 C 419.035156 694.753906 418.398438 697.65625 417.777344 700.464844 C 415.960938 708.6875 414.085938 717.195312 411.367188 725.1875 C 408.035156 734.972656 410.011719 741.859375 417.777344 747.511719 C 428.191406 755.089844 432.277344 764.46875 430.269531 776.175781 C 429.957031 777.996094 430.976562 780.210938 431.941406 781.554688 C 432.875 782.84375 433.90625 783.585938 435.011719 783.753906 C 435.433594 783.816406 435.839844 783.851562 436.222656 783.851562 C 436.21875 783.851562 436.222656 783.851562 436.222656 783.851562 C 438.007812 783.851562 439.082031 783.113281 439.664062 782.496094 C 441.105469 780.964844 440.980469 778.832031 440.890625 777.269531 C 440.871094 776.933594 440.847656 776.609375 440.851562 776.308594 C 440.859375 774.847656 440.863281 773.382812 440.871094 771.917969 C 441.175781 772.710938 441.59375 773.402344 442.140625 773.984375 C 443.453125 775.378906 445.375 776.082031 447.855469 776.082031 C 448.566406 776.082031 449.34375 776.027344 450.171875 775.914062 C 452.550781 775.589844 454.992188 775.429688 457.632812 775.429688 C 460.175781 775.429688 462.875 775.574219 466.132812 775.886719 C 466.859375 775.953125 467.546875 775.988281 468.175781 775.988281 C 470.9375 775.988281 472.945312 775.304688 474.324219 773.902344 C 475.667969 772.53125 476.292969 770.589844 476.238281 767.960938 C 476.179688 764.878906 476.191406 761.726562 476.207031 758.679688 C 476.207031 758.152344 476.210938 757.621094 476.214844 757.09375 L 476.378906 757.09375 C 476.378906 757.09375 476.378906 751.710938 476.378906 750.257812 C 476.371094 746.9375 476.363281 743.503906 476.390625 740.132812 C 476.410156 737.667969 475.738281 735.730469 474.398438 734.378906 Z M 438.378906 776.292969 C 438.363281 778.476562 439.308594 781.910156 435.382812 781.308594 C 434.222656 781.128906 432.457031 778.046875 432.707031 776.59375 C 435.003906 763.195312 429.742188 753.164062 419.230469 745.511719 C 412.113281 740.328125 410.824219 734.445312 413.707031 725.984375 C 417.40625 715.113281 419.488281 703.691406 422.113281 692.46875 C 422.699219 689.96875 422.527344 687.300781 422.921875 684.746094 C 423.15625 683.226562 423.589844 680.660156 424.320312 680.511719 C 425.859375 680.203125 427.988281 680.738281 429.289062 681.710938 C 435.652344 686.472656 438.769531 692.960938 438.753906 700.957031 C 438.71875 713.417969 438.523438 738.34375 438.414062 738.34375 C 438.414062 750.996094 438.453125 763.640625 438.378906 776.292969 Z M 473.90625 754.621094 C 473.851562 754.621094 473.800781 754.621094 473.746094 754.621094 C 473.746094 759.085938 473.675781 763.546875 473.765625 768.011719 C 473.851562 772.273438 471.886719 773.945312 466.367188 773.421875 C 460.671875 772.878906 455.324219 772.714844 449.835938 773.460938 C 444.824219 774.148438 442.515625 772.480469 442.796875 767.8125 C 443.351562 758.730469 443.101562 749.621094 442.679688 740.527344 C 442.507812 736.773438 444.136719 734.875 447.707031 734.859375 C 454.769531 734.824219 461.839844 734.832031 468.910156 734.847656 C 472.378906 734.859375 473.941406 736.703125 473.917969 740.113281 C 473.882812 744.949219 473.90625 749.785156 473.90625 754.621094 Z M 473.90625 754.621094 "/>
<path style=" stroke:none;fill-rule:nonzero;fill:url(#linear7);" d="M 464.359375 741.695312 C 460.117188 741.453125 455.863281 741.546875 451.3125 741.566406 C 450.371094 741.570312 449.609375 742.335938 449.609375 743.277344 L 449.609375 764.492188 C 449.609375 765.738281 450.621094 766.75 451.867188 766.75 L 467.105469 766.75 C 467.105469 759.046875 467.207031 751.671875 466.984375 744.304688 C 466.960938 743.371094 465.320312 741.75 464.359375 741.695312 Z M 464.644531 761.3125 C 464.644531 762.292969 464.640625 763.28125 464.640625 764.273438 L 452.082031 764.273438 L 452.082031 744.035156 C 452.617188 744.03125 453.148438 744.027344 453.675781 744.023438 C 454.953125 744.011719 456.210938 744.003906 457.457031 744.003906 C 460.070312 744.003906 462.089844 744.046875 463.957031 744.152344 C 464.136719 744.273438 464.386719 744.515625 464.523438 744.699219 C 464.679688 750.167969 464.664062 755.585938 464.644531 761.3125 Z M 464.644531 761.3125 "/>
<path style=" stroke:none;fill-rule:nonzero;fill:url(#linear8);" d="M 428.878906 694.59375 C 425.625 707.492188 422.359375 720.382812 419.15625 733.289062 C 418.949219 734.113281 418.921875 735.375 419.398438 735.902344 C 422.71875 739.601562 426.148438 743.191406 429.554688 746.796875 C 430.03125 747.300781 430.878906 746.964844 430.878906 746.269531 C 430.878906 746.269531 430.523438 706.527344 429.980469 694.703125 C 429.949219 694.0625 429.035156 693.972656 428.878906 694.59375 Z M 421.488281 734.53125 C 421.484375 734.355469 421.5 734.101562 421.554688 733.886719 C 423.640625 725.476562 425.78125 716.960938 427.894531 708.605469 C 428.125 720.238281 428.289062 734.808594 428.363281 741.9375 C 426.066406 739.507812 423.734375 737.023438 421.488281 734.53125 Z M 421.488281 734.53125 "/>
<path style=" stroke:none;fill-rule:nonzero;fill:url(#linear9);" d="M 461.859375 681.851562 C 462.472656 682.199219 463.167969 682.378906 463.871094 682.378906 C 465.054688 682.378906 466.179688 681.867188 466.953125 680.980469 C 467.585938 680.257812 468.480469 679.226562 469.367188 678.195312 L 473.539062 682.648438 C 474.308594 683.476562 475.402344 683.949219 476.53125 683.949219 C 477.644531 683.949219 478.726562 683.484375 479.496094 682.679688 L 483.550781 678.433594 L 488.152344 683.246094 C 488.929688 684.0625 489.984375 684.507812 491.113281 684.507812 C 492.566406 684.507812 493.882812 683.765625 494.628906 682.523438 L 497.316406 678.0625 L 502.1875 683.300781 C 502.957031 684.132812 504.050781 684.609375 505.1875 684.609375 C 506.574219 684.609375 507.855469 683.921875 508.613281 682.761719 L 511.582031 678.253906 L 516.191406 683.445312 C 516.96875 684.324219 518.085938 684.824219 519.257812 684.824219 C 520.679688 684.824219 521.976562 684.105469 522.734375 682.902344 L 525.621094 678.296875 L 529.800781 682.789062 C 530.574219 683.621094 531.667969 684.097656 532.804688 684.097656 C 534.007812 684.097656 535.152344 683.570312 535.933594 682.644531 L 540.132812 677.679688 L 543.222656 682.945312 C 543.953125 684.195312 545.308594 684.972656 546.757812 684.972656 C 548.0625 684.972656 549.261719 684.371094 550.042969 683.320312 L 553.769531 678.328125 L 558.625 683.40625 C 559.390625 684.210938 560.472656 684.671875 561.585938 684.671875 C 562.855469 684.671875 564.03125 684.097656 564.816406 683.097656 L 568.222656 678.75 C 569.421875 680.019531 570.945312 681.640625 572.339844 683.15625 C 573.113281 683.992188 574.210938 684.472656 575.351562 684.472656 C 576.6875 684.472656 577.945312 683.820312 578.710938 682.726562 L 581.917969 678.144531 C 582.808594 679.226562 583.648438 680.226562 584.234375 680.929688 C 585.015625 681.859375 586.15625 682.394531 587.371094 682.394531 C 587.992188 682.394531 588.613281 682.246094 589.171875 681.976562 L 590.777344 681.195312 C 591.898438 680.644531 592.699219 679.632812 592.976562 678.414062 C 593.253906 677.199219 592.964844 675.941406 592.191406 674.964844 C 589.445312 671.496094 587.160156 668.628906 585.574219 666.664062 C 584.792969 665.691406 583.628906 665.136719 582.382812 665.136719 C 581.429688 665.136719 580.503906 665.472656 579.769531 666.078125 L 579.429688 666.359375 C 578.042969 667.507812 576.621094 668.6875 575.195312 669.84375 L 571.0625 665.566406 C 570.292969 664.769531 569.21875 664.308594 568.113281 664.308594 C 567.066406 664.308594 566.066406 664.703125 565.304688 665.425781 C 564.253906 666.414062 562.65625 667.886719 560.835938 669.453125 C 559.210938 668.097656 557.214844 666.457031 555.984375 665.445312 C 555.253906 664.84375 554.328125 664.515625 553.386719 664.515625 C 552.285156 664.515625 551.25 664.945312 550.472656 665.730469 C 549.625 666.589844 548.101562 668.113281 546.699219 669.40625 C 545.304688 667.964844 544.097656 666.609375 543.289062 665.6875 C 542.511719 664.792969 541.386719 664.28125 540.203125 664.28125 C 539.253906 664.28125 538.328125 664.613281 537.601562 665.214844 C 536.328125 666.265625 534.46875 667.8125 532.570312 669.453125 C 530.859375 667.964844 529.3125 666.554688 528.496094 665.804688 C 527.738281 665.105469 526.753906 664.722656 525.726562 664.722656 C 524.769531 664.722656 523.835938 665.058594 523.101562 665.671875 C 521.945312 666.636719 520.234375 668.046875 518.386719 669.511719 C 516.910156 668.199219 515.195312 666.660156 514.25 665.796875 C 513.496094 665.117188 512.519531 664.738281 511.5 664.738281 C 510.5 664.738281 509.53125 665.105469 508.78125 665.773438 C 507.691406 666.742188 505.96875 668.265625 504.546875 669.515625 C 502.839844 668.15625 500.894531 666.589844 499.703125 665.628906 C 498.976562 665.042969 498.0625 664.71875 497.132812 664.71875 C 496.066406 664.71875 495.058594 665.128906 494.292969 665.867188 C 493.21875 666.898438 491.742188 668.3125 490.429688 669.539062 C 488.824219 668.046875 487.277344 666.664062 486.214844 665.730469 C 485.464844 665.070312 484.503906 664.703125 483.503906 664.703125 C 482.523438 664.703125 481.578125 665.054688 480.835938 665.695312 C 479.726562 666.648438 478.058594 668.09375 476.1875 669.742188 C 474.980469 668.574219 473.46875 667.179688 472.339844 666.152344 C 471.585938 665.460938 470.605469 665.085938 469.585938 665.085938 C 468.472656 665.085938 467.433594 665.519531 466.65625 666.316406 C 464.179688 668.84375 459.785156 673.460938 458.144531 675.960938 C 457.726562 676.59375 457.601562 677.355469 457.785156 678.101562 C 458.09375 679.359375 459.160156 680.34375 461.859375 681.851562 Z M 460.210938 677.316406 C 461.773438 674.933594 466.3125 670.199219 468.421875 668.042969 C 469.035156 667.421875 470.027344 667.390625 470.675781 667.980469 C 471.871094 669.070312 473.742188 670.789062 475.003906 672.050781 C 475.617188 672.65625 476.589844 672.683594 477.230469 672.113281 C 479.40625 670.195312 481.320312 668.539062 482.445312 667.570312 C 483.0625 667.039062 483.96875 667.046875 484.578125 667.585938 C 485.683594 668.558594 487.5 670.179688 489.316406 671.882812 C 489.9375 672.464844 490.902344 672.46875 491.53125 671.890625 C 493.027344 670.503906 494.875 668.734375 496.007812 667.648438 C 496.59375 667.078125 497.511719 667.039062 498.152344 667.554688 C 499.476562 668.621094 501.738281 670.441406 503.566406 671.894531 C 504.179688 672.382812 505.054688 672.363281 505.648438 671.84375 C 507.148438 670.523438 509.1875 668.71875 510.421875 667.621094 C 511.042969 667.070312 511.972656 667.074219 512.589844 667.632812 C 513.777344 668.710938 515.734375 670.472656 517.28125 671.832031 C 517.867188 672.351562 518.742188 672.378906 519.355469 671.894531 C 521.484375 670.222656 523.496094 668.5625 524.683594 667.570312 C 525.308594 667.050781 526.222656 667.070312 526.824219 667.621094 C 527.886719 668.601562 529.636719 670.191406 531.5 671.804688 C 532.113281 672.332031 533.023438 672.332031 533.636719 671.796875 C 535.746094 669.960938 537.878906 668.1875 539.171875 667.125 C 539.847656 666.5625 540.847656 666.648438 541.425781 667.3125 C 542.347656 668.371094 543.820312 670.011719 545.5 671.722656 C 546.113281 672.34375 547.101562 672.378906 547.75 671.796875 C 549.292969 670.410156 551.117188 668.597656 552.230469 667.472656 C 552.824219 666.875 553.765625 666.824219 554.414062 667.355469 C 555.785156 668.484375 558.105469 670.390625 559.800781 671.808594 C 560.410156 672.316406 561.296875 672.308594 561.898438 671.796875 C 564.011719 669.996094 565.867188 668.289062 567 667.222656 C 567.648438 666.613281 568.664062 666.640625 569.28125 667.28125 C 570.433594 668.46875 572.296875 670.402344 574.054688 672.222656 C 574.390625 672.574219 574.871094 672.769531 575.351562 672.714844 C 575.5 672.699219 575.636719 672.660156 575.738281 672.578125 C 577.625 671.070312 579.484375 669.527344 581.34375 667.984375 C 582.042969 667.40625 583.078125 667.507812 583.648438 668.214844 C 585.777344 670.859375 588.636719 674.460938 590.253906 676.5 C 590.898438 677.316406 590.625 678.515625 589.691406 678.96875 L 588.085938 679.753906 C 587.414062 680.078125 586.605469 679.910156 586.125 679.335938 C 585.390625 678.460938 584.257812 677.105469 583.117188 675.714844 C 582.433594 674.882812 581.144531 674.929688 580.527344 675.8125 C 579.25 677.640625 578.027344 679.390625 576.683594 681.304688 C 576.089844 682.15625 574.859375 682.238281 574.15625 681.476562 C 572.433594 679.613281 570.554688 677.617188 569.335938 676.328125 C 568.652344 675.609375 567.492188 675.664062 566.875 676.449219 L 562.863281 681.574219 C 562.257812 682.355469 561.09375 682.414062 560.410156 681.695312 L 554.863281 675.894531 C 554.167969 675.167969 552.988281 675.238281 552.386719 676.042969 C 551.332031 677.457031 549.691406 679.65625 548.058594 681.84375 C 547.363281 682.777344 545.941406 682.699219 545.355469 681.691406 C 544.0625 679.496094 542.632812 677.054688 541.660156 675.394531 C 541.09375 674.429688 539.742188 674.308594 539.019531 675.167969 C 537.660156 676.769531 535.628906 679.175781 534.042969 681.050781 C 533.410156 681.796875 532.273438 681.820312 531.609375 681.105469 C 530.003906 679.378906 528.5 677.761719 526.679688 675.804688 C 525.953125 675.023438 524.679688 675.140625 524.113281 676.046875 C 523 677.820312 521.886719 679.601562 520.636719 681.585938 C 520.0625 682.507812 518.757812 682.613281 518.039062 681.804688 C 516.039062 679.546875 514.480469 677.796875 512.695312 675.785156 C 511.984375 674.984375 510.707031 675.078125 510.117188 675.972656 C 508.945312 677.761719 507.796875 679.507812 506.546875 681.402344 C 505.96875 682.285156 504.714844 682.386719 503.996094 681.617188 C 501.972656 679.441406 500.347656 677.691406 498.363281 675.550781 C 497.625 674.757812 496.332031 674.894531 495.777344 675.820312 C 494.691406 677.625 493.632812 679.386719 492.511719 681.246094 C 491.957031 682.167969 490.679688 682.308594 489.9375 681.535156 C 487.886719 679.386719 486.308594 677.742188 484.730469 676.085938 C 484.085938 675.417969 483.019531 675.417969 482.378906 676.085938 C 480.867188 677.667969 479.386719 679.21875 477.707031 680.972656 C 477.0625 681.648438 475.980469 681.640625 475.34375 680.960938 C 473.75 679.261719 472.21875 677.621094 470.523438 675.8125 C 469.863281 675.105469 468.730469 675.132812 468.097656 675.871094 C 467.039062 677.113281 465.863281 678.46875 465.089844 679.351562 C 464.582031 679.933594 463.742188 680.074219 463.070312 679.695312 C 461.769531 678.96875 459.890625 677.804688 460.210938 677.316406 Z M 460.210938 677.316406 "/>
<path style=" stroke:none;fill-rule:nonzero;fill:url(#linear10);" d="M 539.007812 705.558594 C 538.226562 709.089844 542.875 714.144531 545.019531 715.035156 C 545.453125 713.226562 544.355469 709.53125 543.886719 708.113281 C 543.847656 705.726562 541.179688 702.222656 539.007812 705.558594 Z M 539.007812 705.558594 "/>
<path style=" stroke:none;fill-rule:nonzero;fill:url(#linear11);" d="M 597.90625 782.238281 C 597.90625 764.527344 596.945312 747.039062 596.011719 730.113281 C 595.804688 726.304688 595.59375 722.488281 595.394531 718.667969 L 595.390625 718.589844 C 595.199219 716.367188 595.148438 713.90625 595.089844 711.300781 C 594.917969 703.210938 594.71875 694.042969 590.273438 687.707031 L 589.128906 686.078125 L 587.292969 686.847656 C 586.113281 687.339844 585.441406 688.386719 585.054688 690.046875 C 583.714844 686.914062 582.59375 686.382812 581.1875 686.382812 C 580.386719 686.382812 579.628906 686.71875 579.050781 687.320312 C 578.175781 688.230469 576.574219 689.902344 577.285156 709.425781 C 576.015625 709.632812 574.554688 709.777344 573.035156 709.9375 C 568.570312 710.390625 563.507812 710.910156 560.148438 713.261719 L 559.195312 713.921875 L 559.101562 715.074219 C 558.808594 718.476562 563.394531 725.007812 566.007812 726.453125 L 566.121094 726.507812 L 566.238281 726.558594 C 568.75 727.628906 571.339844 728.238281 573.851562 728.8125 C 572.0625 733.636719 571.394531 738.507812 571.019531 743.53125 C 567.960938 736.632812 563.746094 729.617188 556.804688 729.617188 C 556.488281 729.617188 556.167969 729.632812 555.847656 729.660156 C 554.808594 728.355469 553.253906 724.308594 552.285156 721.019531 C 552.484375 720.960938 552.679688 720.90625 552.863281 720.855469 C 555.328125 720.164062 558.121094 719.375 558.878906 716.863281 C 559.335938 715.367188 558.875 713.804688 557.511719 712.222656 L 556.828125 711.425781 L 556.148438 711.386719 C 555.492188 711.117188 554.929688 710.914062 554.296875 710.914062 C 553.75 710.914062 553.238281 711.074219 552.816406 711.355469 C 552.507812 711.511719 551.917969 711.808594 551.222656 712.148438 C 550.949219 708.011719 549.617188 703.359375 547.035156 700.394531 C 545.375 698.484375 543.347656 697.476562 541.160156 697.476562 C 538.496094 697.476562 535.796875 698.964844 533.144531 701.902344 L 533 702.0625 L 532.882812 702.25 C 529.527344 707.601562 533.597656 712.753906 537.390625 716.59375 C 535.253906 717.269531 533 718.320312 531.546875 720.6875 L 529.015625 724.796875 L 533.441406 724.476562 C 533.945312 725.226562 534.816406 726.144531 536.28125 726.144531 C 536.621094 726.144531 536.957031 726.089844 537.289062 725.980469 C 538.308594 725.667969 539.285156 725.238281 540.226562 724.824219 C 540.910156 724.519531 541.609375 724.210938 542.253906 723.992188 C 552.351562 749.292969 553.496094 764.222656 554.1875 773.230469 C 554.65625 779.355469 554.9375 783.046875 557.800781 785.527344 C 560.582031 787.933594 565.007812 788.355469 573.277344 788.355469 C 576.015625 788.355469 579.242188 788.304688 582.972656 788.246094 C 585.886719 788.203125 589.128906 788.152344 592.753906 788.113281 C 592.945312 788.148438 593.164062 788.167969 593.410156 788.167969 C 594.804688 788.167969 596.101562 787.398438 596.972656 786.054688 Z M 594.894531 784.710938 C 594.027344 786.054688 593.035156 785.636719 593.035156 785.636719 C 535.320312 786.203125 572.070312 790.472656 543.796875 721.210938 C 541.546875 721.15625 538.996094 722.878906 536.539062 723.621094 C 535.558594 723.957031 535.261719 722.363281 534.71875 721.90625 L 533.652344 721.984375 C 535.484375 719 539.371094 718.816406 542.109375 717.769531 C 538.316406 713.988281 531.824219 708.59375 534.980469 703.5625 C 544.4375 693.101562 549.800781 707.875 548.648438 716.054688 C 550.542969 715.285156 554.125 713.464844 554.164062 713.441406 C 554.273438 713.203125 555.488281 713.828125 555.636719 713.832031 C 559.195312 717.972656 551.621094 718.046875 549.320312 719.511719 C 549.804688 721.566406 553.28125 733.683594 555.972656 732.132812 C 565.199219 731.140625 569.355469 746.839844 572.847656 754.273438 C 573.542969 744.714844 573.230469 735.644531 577.261719 727.078125 C 573.890625 726.226562 570.425781 725.65625 567.203125 724.285156 C 565.210938 723.1875 561.375 717.5 561.566406 715.285156 C 566.023438 712.167969 574.929688 712.785156 579.839844 711.40625 C 579.195312 696.167969 579.300781 672.789062 586.742188 705.035156 C 587.496094 702.910156 586.25 689.96875 588.25 689.128906 C 593.601562 696.757812 592.148438 709.617188 592.925781 718.796875 C 594.042969 740.246094 595.484375 761.441406 595.433594 783.390625 C 595.210938 783.882812 594.980469 784.367188 594.804688 784.710938 Z M 594.894531 784.710938 "/>
<path style=" stroke:none;fill-rule:nonzero;fill:url(#linear12);" d="M 587.023438 716.3125 L 579.089844 715.21875 C 574.144531 715.425781 567.40625 716.296875 566.59375 717.003906 C 568.664062 722 580.945312 723.59375 584.195312 724.363281 C 584.03125 726.730469 584.609375 730.238281 582.953125 731.664062 C 575.519531 738.507812 579.734375 748.007812 581.058594 756.363281 C 581.796875 761.074219 581.515625 765.960938 581.351562 770.707031 L 576.003906 771.871094 L 561.339844 742.523438 C 560.53125 740.902344 558.757812 740.054688 557.015625 740.402344 C 558.035156 747.125 560.875 753.554688 561.773438 760.308594 C 564.398438 779.742188 564.042969 779.542969 583.609375 778.851562 C 586.210938 779.371094 588.394531 776.691406 588.105469 775.121094 C 587.902344 753.984375 588.503906 734.65625 587.023438 716.3125 Z M 582.699219 721.53125 C 580.488281 721.101562 575.039062 720.042969 571.640625 718.371094 C 573.710938 718.085938 576.363281 717.816406 578.972656 717.699219 L 584.710938 718.488281 C 584.792969 719.65625 584.871094 720.824219 584.941406 721.996094 L 584.765625 721.957031 C 584.238281 721.832031 583.558594 721.699219 582.699219 721.53125 Z M 584.273438 776.445312 L 584.097656 776.425781 L 583.8125 776.367188 L 582.90625 776.398438 C 579.992188 776.503906 577.476562 776.59375 575.40625 776.59375 C 569.785156 776.59375 568.222656 775.867188 567.308594 774.523438 C 565.910156 772.476562 565.320312 768.125 564.347656 760.921875 L 564.222656 759.984375 C 563.734375 756.308594 562.710938 752.761719 561.71875 749.328125 C 561.601562 748.921875 561.488281 748.523438 561.371094 748.121094 L 574.648438 774.699219 L 583.75 772.714844 L 583.867188 769.441406 C 584.035156 765.035156 584.207031 760.480469 583.503906 755.976562 C 583.234375 754.296875 582.859375 752.574219 582.492188 750.910156 C 580.980469 744.023438 579.675781 738.070312 584.605469 733.507812 C 584.90625 733.242188 585.164062 732.949219 585.386719 732.640625 C 585.601562 740.753906 585.59375 749.101562 585.585938 757.734375 C 585.582031 763.371094 585.574219 769.199219 585.632812 775.140625 L 585.636719 775.355469 L 585.644531 775.40625 C 585.515625 775.761719 584.90625 776.445312 584.273438 776.445312 Z M 584.273438 776.445312 "/>
<path style=" stroke:none;fill-rule:nonzero;fill:url(#linear13);" d="M 515.496094 730.921875 C 514.503906 729.886719 512.742188 730.351562 512.414062 731.75 C 511.863281 734.128906 510.859375 736.433594 509.671875 738.523438 C 509.183594 739.386719 507.824219 739.636719 507.132812 738.851562 C 503.867188 735.136719 501.453125 730.757812 500.199219 725.957031 C 499.578125 723.578125 499.226562 721.101562 499.175781 718.640625 C 499.160156 718.007812 499.109375 717.125 499.109375 716.203125 C 499.109375 715.832031 498.988281 715.472656 498.78125 715.164062 C 496.929688 712.445312 495.742188 709.21875 495.832031 705.050781 C 495.84375 704.304688 494.671875 703.53125 493.210938 702.757812 C 490.886719 701.53125 487.464844 700.824219 485.984375 702.988281 C 485.492188 703.707031 476.253906 703.308594 475.613281 706.179688 C 475.371094 707.277344 484.699219 710.570312 484.820312 711.492188 C 487.085938 729.191406 496.621094 741.683594 505.667969 756.453125 C 507.011719 758.644531 509.023438 761.335938 511.226562 761.925781 C 516.96875 763.460938 522.878906 764.382812 528.761719 765.398438 C 530.535156 763.472656 531.089844 762.867188 532.863281 760.941406 C 532.554688 759.746094 532.234375 758.554688 531.847656 757.386719 C 528.484375 747.160156 522.8125 738.542969 515.496094 730.921875 Z M 527.851562 762.734375 L 526.882812 762.570312 C 521.902344 761.722656 516.753906 760.84375 511.867188 759.539062 C 511.472656 759.433594 510.011719 758.804688 507.777344 755.160156 C 506.371094 752.863281 504.945312 750.609375 503.5625 748.425781 C 496.132812 736.6875 489.117188 725.601562 487.269531 711.175781 C 487.042969 709.398438 485.585938 708.726562 481.695312 706.925781 C 481.332031 706.753906 480.898438 706.558594 480.453125 706.347656 C 481.621094 706.152344 482.863281 706.023438 483.542969 705.953125 C 485.988281 705.695312 487.214844 705.566406 488.023438 704.382812 C 488.078125 704.308594 488.242188 704.066406 489.007812 704.066406 C 489.875 704.066406 491.015625 704.394531 492.050781 704.945312 C 492.730469 705.300781 493.125 705.550781 493.355469 705.710938 C 493.394531 709.671875 494.472656 713.179688 496.636719 716.410156 C 496.640625 716.972656 496.664062 717.515625 496.679688 717.992188 C 496.6875 718.25 496.699219 718.488281 496.699219 718.695312 C 496.757812 721.339844 497.128906 723.996094 497.804688 726.585938 C 499.140625 731.683594 501.652344 736.363281 505.277344 740.488281 C 506.007812 741.320312 507.085938 741.796875 508.226562 741.796875 C 509.726562 741.796875 511.105469 741.011719 511.824219 739.746094 C 513.019531 737.640625 513.921875 735.539062 514.519531 733.484375 C 521.640625 741.109375 526.546875 749.195312 529.496094 758.160156 C 529.726562 758.851562 529.933594 759.5625 530.128906 760.265625 Z M 527.851562 762.734375 "/>
<path style=" stroke:none;fill-rule:nonzero;fill:url(#linear14);" d="M 541.863281 765.015625 C 541.257812 761.867188 540.6875 758.898438 539.871094 756.007812 C 535.972656 742.105469 527.53125 729.695312 514.0625 718.074219 C 508.894531 713.609375 505.65625 709.792969 504.402344 703.492188 C 502.929688 696.066406 498.003906 691.453125 491.546875 691.453125 C 487.375 691.453125 483.082031 693.453125 479.464844 697.085938 C 478.675781 697.875 477.214844 698.378906 475.671875 698.914062 C 474.664062 699.265625 473.625 699.625 472.621094 700.113281 C 471.320312 700.742188 470.089844 701.429688 468.734375 702.203125 C 467.632812 702.832031 466.867188 703.90625 466.632812 705.15625 C 466.402344 706.398438 466.734375 707.671875 467.53125 708.652344 L 467.578125 708.710938 C 468.800781 710.203125 470.183594 711.894531 472.238281 712.515625 C 476.128906 713.6875 477.800781 715.820312 478.878906 720.96875 C 480.070312 726.652344 482.539062 732.011719 484.925781 737.199219 L 485.160156 737.714844 C 487.574219 742.960938 490.121094 748.238281 492.585938 753.339844 C 495.71875 759.835938 498.960938 766.550781 501.9375 773.230469 C 502.226562 773.882812 502.609375 774.535156 503.007812 775.222656 C 503.441406 775.972656 504.601562 777.957031 504.410156 778.472656 C 504.410156 778.472656 504.132812 778.789062 503.386719 779.0625 C 501.582031 779.726562 499.082031 779.75 496.875 779.773438 C 495.097656 779.789062 493.5625 779.804688 492.28125 780.117188 C 491.101562 780.402344 490.476562 781.304688 490.242188 781.640625 C 489.335938 782.949219 489.234375 784.640625 489.972656 786.050781 C 490.71875 787.476562 492.179688 788.363281 493.820312 788.363281 L 494.476562 788.359375 C 498.21875 788.359375 506.390625 788.539062 508.835938 788.644531 C 509.460938 788.667969 510.097656 788.679688 510.738281 788.679688 C 514.730469 788.679688 518.589844 788.207031 520.804688 787.445312 C 524.4375 786.191406 523.015625 781.988281 522.074219 779.203125 C 521.601562 777.8125 521.117188 776.375 520.957031 775.175781 C 520.851562 774.382812 520.699219 773.621094 520.527344 772.816406 L 538.175781 772.816406 C 539.460938 772.816406 540.671875 772.246094 541.488281 771.25 C 542.308594 770.257812 542.632812 768.957031 542.378906 767.691406 C 542.203125 766.769531 542.027344 765.882812 541.863281 765.015625 Z M 538.175781 770.34375 L 519.710938 770.34375 C 518.546875 770.34375 517.683594 771.425781 517.9375 772.5625 C 518.171875 773.621094 518.378906 774.558594 518.503906 775.503906 C 519.03125 779.394531 522.074219 784.394531 520 785.105469 C 517.726562 785.886719 513.109375 786.34375 508.9375 786.171875 C 506.273438 786.0625 497.050781 785.863281 493.800781 785.886719 C 492.335938 785.902344 491.441406 784.253906 492.273438 783.054688 C 492.488281 782.742188 492.664062 782.570312 492.867188 782.523438 C 495.375 781.910156 500.558594 782.734375 504.238281 781.386719 C 509.570312 779.425781 505.417969 774.964844 504.195312 772.222656 C 498.863281 760.257812 492.882812 748.585938 487.40625 736.679688 C 484.996094 731.429688 482.46875 726.054688 481.300781 720.464844 C 480.195312 715.1875 478.339844 711.773438 472.949219 710.148438 C 471.601562 709.738281 470.523438 708.40625 469.445312 707.089844 C 468.734375 706.214844 468.976562 704.910156 469.957031 704.351562 C 471.191406 703.652344 472.425781 702.953125 473.699219 702.335938 C 476.203125 701.125 479.386719 700.667969 481.214844 698.828125 C 489.238281 690.777344 499.746094 692.746094 501.976562 703.972656 C 503.4375 711.316406 507.414062 715.601562 512.449219 719.945312 C 524.042969 729.957031 533.273438 741.648438 537.496094 756.675781 C 538.496094 760.246094 539.117188 763.921875 539.957031 768.167969 C 540.179688 769.296875 539.320312 770.34375 538.175781 770.34375 Z M 538.175781 770.34375 "/>
<path style=" stroke:none;fill-rule:nonzero;fill:url(#linear15);" d="M 505.9375 731.585938 C 506.746094 733.039062 508.898438 732.726562 509.300781 731.109375 C 509.742188 729.324219 509.878906 727.484375 509.484375 725.726562 C 509.394531 725.320312 509.175781 724.953125 508.859375 724.691406 C 507.929688 723.929688 506.984375 723.179688 506.046875 722.421875 C 503.5625 723.988281 505.613281 722.699219 503.125 724.261719 C 503.246094 724.777344 503.375 725.289062 503.523438 725.796875 C 504.109375 727.824219 504.917969 729.761719 505.9375 731.585938 Z M 507.113281 726.460938 C 507.242188 727.136719 507.277344 727.867188 507.210938 728.644531 C 506.757812 727.652344 506.367188 726.628906 506.042969 725.59375 C 506.398438 725.882812 506.757812 726.167969 507.113281 726.460938 Z M 507.113281 726.460938 "/>
<path style=" stroke:none;fill-rule:nonzero;fill:url(#linear16);" d="M 513.507812 776.007812 C 513.09375 773.730469 509.652344 774.304688 509.921875 776.601562 C 509.9375 776.757812 509.9375 776.917969 509.976562 777.070312 C 511.265625 782.589844 515.574219 781.378906 513.601562 776.847656 C 513.496094 776.597656 513.558594 776.292969 513.507812 776.007812 Z M 513.507812 776.007812 "/>
</g>
<mask id="mask3">
  <g filter="url(#alpha)">
<rect x="0" y="0" width="1024" height="1024" style="fill:rgb(0%,0%,0%);fill-opacity:0.529412;stroke:none;"/>
  </g>
</mask>
<linearGradient id="linear17" gradientUnits="userSpaceOnUse" x1="16.061" y1="16.0792" x2="16.061" y2="19.6854" gradientTransform="matrix(32,0,0,32,0,0)">
<stop offset="0" style="stop-color:rgb(84.705882%,92.941176%,94.117647%);stop-opacity:1;"/>
<stop offset="0.35381" style="stop-color:rgb(90.980392%,93.333333%,94.509804%);stop-opacity:1;"/>
<stop offset="0.50558" style="stop-color:rgb(94.117647%,93.72549%,94.509804%);stop-opacity:1;"/>
<stop offset="0.51763" style="stop-color:rgb(88.235294%,88.235294%,89.019608%);stop-opacity:1;"/>
<stop offset="0.53432" style="stop-color:rgb(77.647059%,78.431373%,78.431373%);stop-opacity:1;"/>
<stop offset="0.59918" style="stop-color:rgb(59.607843%,59.607843%,58.823529%);stop-opacity:1;"/>
<stop offset="0.6237" style="stop-color:rgb(52.156863%,51.764706%,50.980392%);stop-opacity:1;"/>
<stop offset="0.64558" style="stop-color:rgb(50.980392%,50.196078%,50.980392%);stop-opacity:1;"/>
<stop offset="0.70498" style="stop-color:rgb(50.196078%,49.019608%,50.980392%);stop-opacity:1;"/>
<stop offset="0.83587" style="stop-color:rgb(58.039216%,51.764706%,47.843137%);stop-opacity:1;"/>
<stop offset="0.90048" style="stop-color:rgb(57.647059%,49.019608%,44.705882%);stop-opacity:1;"/>
<stop offset="1" style="stop-color:rgb(57.254902%,48.235294%,43.529412%);stop-opacity:1;"/>
</linearGradient>
<clipPath id="clip4">
  <rect x="0" y="0" width="1024" height="1024"/>
</clipPath>
<g id="surface14" clip-path="url(#clip4)">
<path style=" stroke:none;fill-rule:nonzero;fill:url(#linear17);" d="M 238.574219 544.160156 L 237.597656 542.90625 L 236.625 544.160156 L 201.390625 589.40625 L 200.609375 590.410156 L 201.632812 591.160156 L 212.914062 599.460938 L 213.898438 600.1875 L 214.632812 599.210938 L 237.601562 568.769531 L 260.566406 599.210938 L 261.300781 600.1875 L 262.285156 599.460938 L 273.566406 591.160156 L 274.589844 590.410156 L 273.808594 589.40625 Z M 261.554688 598.46875 L 237.597656 566.71875 L 213.644531 598.46875 L 202.363281 590.167969 L 237.597656 544.917969 L 272.832031 590.167969 Z M 373.335938 547.960938 L 372.101562 547.960938 L 372.101562 570.613281 L 331.152344 545.292969 L 329.265625 544.128906 L 329.265625 597.960938 L 346.945312 597.960938 L 346.945312 575.304688 L 387.898438 600.628906 L 389.785156 601.796875 L 389.785156 547.960938 Z M 388.546875 599.574219 L 345.707031 573.089844 L 345.707031 596.722656 L 330.5 596.722656 L 330.5 546.34375 L 373.335938 572.835938 L 373.335938 549.195312 L 388.546875 549.195312 Z M 816.769531 567.84375 C 810.0625 565.316406 800.695312 564.496094 792.414062 564.027344 C 790.191406 563.894531 787.9375 563.71875 786.515625 563.34375 C 785.609375 563.105469 785.28125 562.84375 785.28125 562.726562 C 785.28125 562.304688 787.136719 560.730469 796.210938 560.730469 C 803.582031 560.730469 811.363281 562.117188 817.035156 564.441406 L 818.15625 564.898438 L 818.640625 563.785156 L 823.644531 552.1875 L 824.132812 551.054688 L 823 550.5625 C 815.554688 547.355469 806.378906 545.585938 797.160156 545.585938 C 778.375 545.585938 767.601562 552.109375 767.601562 563.484375 C 767.601562 575.628906 780.238281 578.875 800.628906 580.183594 C 803.429688 580.363281 805.535156 580.511719 807.171875 580.789062 C 809.339844 581.160156 809.609375 581.601562 809.621094 581.621094 C 809.613281 582.121094 806.8125 583.605469 798.238281 583.605469 C 789.003906 583.605469 780.546875 581.832031 773.101562 578.335938 L 771.984375 577.8125 L 771.457031 578.925781 L 765.941406 590.523438 L 765.410156 591.640625 L 766.535156 592.171875 C 772.539062 594.996094 782.277344 598.753906 797.476562 598.753906 C 816.148438 598.753906 827.296875 592.082031 827.296875 580.910156 C 827.296875 574.789062 823.847656 570.511719 816.769531 567.84375 Z M 797.476562 597.515625 C 782.964844 597.515625 773.523438 594.097656 767.058594 591.054688 L 772.574219 579.457031 C 778.785156 582.371094 787.277344 584.839844 798.238281 584.839844 C 804.132812 584.839844 810.847656 584.082031 810.847656 581.609375 C 810.847656 579.644531 806.605469 579.328125 800.710938 578.945312 C 778.910156 577.554688 768.835938 573.878906 768.835938 563.484375 C 768.835938 551.320312 782.015625 546.820312 797.160156 546.820312 C 807.109375 546.820312 816.042969 548.910156 822.507812 551.699219 L 817.503906 563.296875 C 812.242188 561.140625 804.449219 559.496094 796.210938 559.496094 C 789.9375 559.496094 784.042969 560.253906 784.042969 562.726562 C 784.042969 564.5 787.023438 564.945312 792.34375 565.261719 C 811.355469 566.339844 826.058594 568.9375 826.058594 580.910156 C 826.058594 592.066406 814.144531 597.515625 797.476562 597.515625 Z M 625.070312 571.8125 C 629.285156 569.460938 631.417969 565.925781 631.417969 561.265625 C 631.417969 550.738281 621.070312 546.042969 597.878906 546.042969 L 596.644531 546.042969 C 590.414062 546.042969 580.992188 546.042969 574.007812 546.539062 L 572.859375 546.617188 L 572.859375 597.71875 L 574.007812 597.796875 C 576.1875 597.953125 578.753906 598.027344 581.839844 598.027344 C 584.652344 598.027344 587.523438 597.96875 590.292969 597.910156 C 592.839844 597.855469 595.246094 597.804688 597.417969 597.804688 C 609.980469 597.804688 618.871094 596.542969 624.59375 593.945312 C 629.960938 591.511719 632.683594 587.742188 632.683594 582.753906 C 632.683594 577.804688 630.128906 574.132812 625.070312 571.8125 Z M 597.417969 596.570312 C 592.863281 596.570312 587.21875 596.789062 581.839844 596.789062 C 579.132812 596.789062 576.496094 596.734375 574.097656 596.566406 L 574.097656 547.769531 C 580.839844 547.292969 589.898438 547.28125 596.644531 547.28125 C 597.066406 547.28125 597.476562 547.28125 597.878906 547.28125 C 623.605469 547.28125 630.183594 553.160156 630.183594 561.265625 C 630.183594 566.84375 626.824219 570.078125 621.878906 571.914062 C 627.519531 573.691406 631.449219 576.921875 631.449219 582.753906 C 631.445312 591.179688 623.144531 596.570312 597.417969 596.570312 Z M 691.652344 547.167969 L 690.414062 547.167969 L 690.414062 597.167969 L 708.097656 597.167969 L 708.097656 547.167969 Z M 706.859375 595.933594 L 691.652344 595.933594 L 691.652344 548.402344 L 706.859375 548.402344 Z M 496.152344 547.167969 L 494.914062 547.167969 L 494.914062 570.839844 C 494.914062 578.433594 489.832031 582.972656 481.320312 582.972656 C 472.8125 582.972656 467.730469 578.433594 467.730469 570.839844 L 467.730469 547.167969 L 450.046875 547.167969 L 450.046875 572.738281 C 450.046875 580.980469 453.257812 587.769531 459.332031 592.363281 C 464.859375 596.542969 472.460938 598.753906 481.320312 598.753906 C 490.1875 598.753906 497.789062 596.542969 503.316406 592.363281 C 509.386719 587.769531 512.597656 580.980469 512.597656 572.738281 L 512.597656 547.167969 Z M 511.359375 572.738281 C 511.359375 589.40625 497.925781 597.515625 481.320312 597.515625 C 464.71875 597.515625 451.285156 589.40625 451.285156 572.738281 L 451.285156 548.402344 L 466.492188 548.402344 L 466.492188 570.839844 C 466.492188 579.203125 472.324219 584.207031 481.320312 584.207031 C 490.324219 584.207031 496.152344 579.203125 496.152344 570.839844 L 496.152344 548.402344 L 511.359375 548.402344 Z M 598.875 577.554688 C 595.070312 577.554688 591.96875 577.554688 589.304688 577.621094 L 589.304688 584.839844 C 590.46875 584.925781 591.808594 584.945312 593.253906 584.945312 C 595.125 584.945312 597.175781 584.910156 599.246094 584.910156 C 612.742188 584.910156 616.238281 583.574219 616.238281 581.105469 C 616.238281 578.824219 613.007812 577.554688 598.875 577.554688 Z M 599.246094 583.671875 C 598.179688 583.671875 597.121094 583.683594 596.085938 583.691406 C 595.113281 583.703125 594.164062 583.710938 593.253906 583.710938 C 592.175781 583.710938 591.300781 583.699219 590.542969 583.671875 L 590.542969 578.828125 C 592.90625 578.789062 595.597656 578.789062 598.875 578.789062 C 609.578125 578.789062 615 579.566406 615 581.105469 C 615 582.808594 609.703125 583.671875 599.246094 583.671875 Z M 614.972656 563.230469 C 614.972656 560.761719 611.636719 559.359375 599.40625 559.359375 C 598.03125 559.359375 596.644531 559.355469 595.3125 559.355469 C 593.070312 559.355469 590.972656 559.375 589.304688 559.496094 L 589.304688 566.71875 C 591.96875 566.78125 595.070312 566.78125 598.875 566.78125 C 611.742188 566.78125 614.972656 565.511719 614.972656 563.230469 Z M 590.542969 560.664062 C 592.011719 560.597656 593.6875 560.589844 595.3125 560.589844 C 595.972656 560.589844 596.644531 560.59375 597.324219 560.59375 C 598.015625 560.59375 598.710938 560.597656 599.40625 560.597656 C 608.910156 560.597656 613.734375 561.484375 613.734375 563.230469 C 613.734375 564.289062 611.160156 565.546875 598.875 565.546875 C 595.597656 565.546875 592.90625 565.546875 590.542969 565.507812 Z M 590.542969 560.664062 "/>
</g>
</defs>
<g id="surface1">
<path style=" stroke:none;fill-rule:nonzero;fill:url(#linear0);" d="M 513.425781 953.714844 L 70.296875 510.585938 L 513.425781 67.453125 L 956.558594 510.585938 Z M 513.425781 953.714844 "/>
<path style=" stroke:none;fill-rule:nonzero;fill:url(#linear1);" d="M 618.386719 278.199219 C 619.476562 275.726562 619.097656 272.5625 618.234375 270.519531 C 601.75 231.515625 584.980469 192.117188 569.320312 155.351562 C 568.804688 154.140625 568.132812 153.089844 567.542969 152.160156 C 567.3125 151.792969 567.078125 151.429688 566.859375 151.058594 C 566.1875 149.910156 564.957031 149.226562 563.664062 149.226562 C 563.398438 149.226562 563.132812 149.257812 562.871094 149.3125 L 561.34375 149.648438 C 559.777344 149.988281 558.609375 151.296875 558.441406 152.890625 L 546.933594 264.023438 C 546.671875 263.949219 546.414062 263.871094 546.164062 263.792969 C 534.273438 260.101562 523.570312 258.308594 513.457031 258.308594 C 511.015625 258.308594 508.570312 258.414062 506.1875 258.625 C 499.453125 259.21875 492.761719 260.535156 486.292969 261.804688 C 484.050781 262.242188 481.734375 262.699219 479.46875 263.113281 C 479.386719 263.128906 479.300781 263.144531 479.21875 263.160156 C 478.144531 251.625 476.972656 239.660156 475.644531 226.621094 C 473.355469 204.136719 470.898438 180.324219 468.339844 155.84375 C 468.203125 154.550781 467.855469 153.386719 467.550781 152.359375 C 467.4375 151.972656 467.320312 151.585938 467.222656 151.195312 C 466.828125 149.652344 465.496094 148.535156 463.90625 148.414062 L 462.71875 148.320312 C 462.625 148.316406 462.53125 148.3125 462.4375 148.3125 C 460.976562 148.3125 459.636719 149.175781 459.039062 150.535156 C 458.621094 151.496094 458.195312 152.457031 457.769531 153.421875 C 456.867188 155.464844 455.933594 157.582031 455.035156 159.683594 C 451.15625 168.789062 447.277344 177.894531 443.398438 187 C 432.273438 213.121094 420.769531 240.128906 409.382812 266.660156 C 407.859375 270.21875 406.675781 274.605469 409.46875 280.1875 C 414.4375 290.121094 418.921875 300.328125 423.023438 309.878906 C 423.25 310.410156 423.160156 311.851562 422.863281 312.367188 C 419.867188 317.621094 416.617188 322.828125 413.472656 327.867188 C 412.335938 329.6875 411.210938 331.496094 410.097656 333.296875 C 409.40625 334.414062 409.359375 335.8125 409.972656 336.972656 C 410.0625 337.140625 410.121094 337.28125 410.175781 337.394531 C 410.390625 337.863281 410.714844 338.570312 411.441406 339.210938 C 412.613281 340.238281 413.980469 341.425781 415.40625 342.574219 C 463.628906 381.289062 486.671875 433.285156 483.902344 497.117188 L 483.875 497.683594 C 483.5 506.167969 484.46875 507.640625 492.488281 510.824219 C 503.261719 515.097656 508.664062 517.242188 514.574219 517.242188 C 520.453125 517.242188 525.832031 515.101562 536.546875 510.839844 L 536.753906 510.757812 C 540.085938 509.429688 543.425781 507.234375 542.910156 501.011719 C 541.042969 478.347656 543.136719 456.339844 549.140625 435.59375 C 557.925781 405.21875 573.035156 379.355469 594.046875 358.722656 C 598.746094 354.105469 603.566406 349.769531 608.675781 345.175781 C 610.972656 343.105469 613.351562 340.96875 615.707031 338.808594 C 617.019531 337.609375 617.292969 335.644531 616.359375 334.132812 C 615.199219 332.25 614.042969 330.347656 612.878906 328.441406 C 609.945312 323.632812 606.910156 318.660156 603.761719 313.8125 C 602.9375 312.546875 602.820312 312.035156 603.671875 310.277344 C 608.101562 301.09375 612.78125 290.898438 618.386719 278.199219 Z M 618.386719 278.199219 "/>
<path style=" stroke:none;fill-rule:nonzero;fill:rgb(10.980392%,69.803922%,95.686275%);fill-opacity:1;" d="M 436.265625 343.347656 L 477.980469 399.886719 L 543.703125 399.886719 L 590.597656 339.042969 L 558.890625 324.949219 L 449.59375 319.1875 Z M 436.265625 343.347656 "/>
<path style=" stroke:none;fill-rule:nonzero;fill:rgb(13.72549%,12.156863%,12.54902%);fill-opacity:1;" d="M 615.003906 276.695312 C 615.582031 275.390625 615.410156 273.332031 614.828125 271.960938 C 598.59375 233.542969 582.265625 195.167969 565.917969 156.800781 C 565.335938 155.4375 564.429688 154.21875 563.671875 152.929688 C 563.164062 153.042969 562.652344 153.152344 562.144531 153.265625 C 558.171875 191.621094 554.203125 229.972656 550.183594 268.773438 C 547.9375 268.140625 546.496094 267.769531 545.078125 267.332031 C 532.503906 263.425781 519.636719 261.15625 506.527344 262.3125 C 497.671875 263.09375 488.925781 265.152344 480.148438 266.753906 C 477.921875 267.160156 475.953125 267.929688 475.625 264.4375 C 474.464844 251.949219 473.238281 239.46875 471.96875 226.988281 C 469.566406 203.398438 467.125 179.808594 464.660156 156.226562 C 464.515625 154.832031 463.988281 153.476562 463.636719 152.105469 C 463.242188 152.074219 462.84375 152.046875 462.453125 152.015625 C 461.121094 155.054688 459.761719 158.082031 458.460938 161.132812 C 443.253906 196.800781 428.09375 232.488281 412.804688 268.117188 C 411.246094 271.746094 410.894531 274.722656 412.796875 278.519531 C 417.691406 288.304688 422.117188 298.34375 426.441406 308.410156 C 427.132812 310.015625 426.964844 312.679688 426.097656 314.199219 C 421.992188 321.394531 417.507812 328.363281 413.265625 335.238281 C 413.605469 335.886719 413.6875 336.230469 413.898438 336.414062 C 415.160156 337.523438 416.433594 338.625 417.742188 339.675781 C 467.726562 379.808594 490.421875 432.628906 487.617188 497.269531 C 487.296875 504.699219 487.109375 504.6875 493.867188 507.371094 C 514.644531 515.613281 514.628906 515.566406 535.390625 507.304688 C 538.3125 506.144531 539.523438 504.917969 539.226562 501.308594 C 537.359375 478.6875 539.265625 456.398438 545.585938 434.558594 C 554.320312 404.363281 569.195312 377.929688 591.460938 356.070312 C 598.414062 349.238281 605.796875 342.863281 613.210938 336.070312 C 609.105469 329.40625 605.019531 322.523438 600.664062 315.832031 C 599.023438 313.316406 599.019531 311.386719 600.339844 308.65625 C 605.4375 298.105469 610.273438 287.421875 615.003906 276.695312 Z M 482.210938 386.425781 C 482.125 386.492188 482.035156 386.558594 481.945312 386.625 C 480.898438 381.40625 480 376.15625 478.726562 371 C 478.292969 369.246094 477.148438 366.539062 475.953125 366.304688 C 462.789062 363.742188 457.703125 352.59375 450.839844 341.898438 C 452.492188 342.734375 453.480469 343.125 454.359375 343.695312 C 462.65625 349.128906 470.976562 354.523438 479.171875 360.113281 C 480.492188 361.019531 482.019531 362.808594 482.078125 364.246094 C 482.367188 371.628906 482.210938 379.03125 482.210938 386.425781 Z M 562.808594 361.515625 C 560.511719 364.113281 556.132812 364.910156 552.570312 366.152344 C 549.636719 367.175781 548.160156 368.871094 547.671875 372.042969 C 546.886719 377.152344 545.6875 382.191406 544.664062 387.265625 C 544.574219 387.203125 544.484375 387.140625 544.390625 387.078125 C 544.390625 379.691406 544.308594 372.304688 544.480469 364.925781 C 544.507812 363.789062 545.472656 362.285156 546.441406 361.632812 C 555.902344 355.257812 565.460938 349.03125 575.65625 343.339844 C 571.441406 349.460938 567.683594 356.007812 562.808594 361.515625 Z M 562.808594 361.515625 "/>
<path style=" stroke:none;fill-rule:nonzero;fill:rgb(13.72549%,12.156863%,12.54902%);fill-opacity:1;" d="M 299.585938 656.496094 L 727.265625 656.496094 L 513.425781 870.335938 Z M 260.78125 640.421875 L 513.425781 893.070312 L 766.074219 640.421875 Z M 260.78125 640.421875 "/>
<path style=" stroke:none;fill-rule:nonzero;fill:rgb(13.72549%,12.156863%,12.54902%);fill-opacity:1;" d="M 391.78125 339.945312 L 386.851562 324.769531 L 227.367188 484.253906 L 185.28125 484.253906 L 391.78125 277.75 L 391.78125 257.640625 L 150.953125 498.46875 L 451.042969 498.46875 L 451.042969 483.390625 L 248.339844 483.390625 Z M 391.78125 339.945312 "/>
<path style=" stroke:none;fill-rule:nonzero;fill:rgb(13.72549%,12.156863%,12.54902%);fill-opacity:1;" d="M 485.558594 183.964844 L 513.414062 156.109375 L 543.710938 186.40625 L 545.398438 167.980469 L 513.414062 136 L 483.875 165.539062 Z M 485.558594 183.964844 "/>
<path style=" stroke:none;fill-rule:nonzero;fill:rgb(13.72549%,12.156863%,12.54902%);fill-opacity:1;" d="M 540.199219 224.976562 L 513.425781 198.203125 L 489.09375 222.535156 L 490.777344 240.960938 L 513.425781 218.3125 L 538.515625 243.402344 Z M 540.199219 224.976562 "/>
<path style=" stroke:none;fill-rule:nonzero;fill:rgb(13.72549%,12.156863%,12.54902%);fill-opacity:1;" d="M 627.742188 250.328125 L 627.742188 270.4375 L 841.558594 484.257812 L 799.472656 484.257812 L 633.683594 318.46875 L 627.742188 332.632812 L 778.503906 483.394531 L 575.796875 483.394531 L 575.796875 498.472656 L 875.886719 498.472656 Z M 627.742188 250.328125 "/>
<use xlink:href="#surface5" mask="url(#mask0)"/>
<use xlink:href="#surface8" mask="url(#mask1)"/>
<path style=" stroke:none;fill-rule:nonzero;fill:rgb(13.72549%,12.156863%,12.54902%);fill-opacity:1;" d="M 513.425781 89.3125 L 934.703125 510.585938 L 513.425781 931.859375 L 92.15625 510.585938 Z M 513.425781 67.453125 L 70.296875 510.585938 L 513.425781 953.714844 L 956.558594 510.585938 Z M 513.425781 67.453125 "/>
<path style=" stroke:none;fill-rule:nonzero;fill:url(#linear4);" d="M 513.429688 96.433594 L 927.585938 510.585938 L 513.429688 924.738281 L 99.277344 510.585938 Z M 513.429688 89.3125 L 92.15625 510.585938 L 513.429688 931.859375 L 934.703125 510.585938 Z M 513.429688 89.3125 "/>
<path style=" stroke:none;fill-rule:nonzero;fill:url(#linear5);" d="M 237.597656 538.875 L 278.097656 590.886719 L 260.796875 603.621094 L 237.597656 572.871094 L 214.394531 603.621094 L 197.09375 590.886719 Z M 369.625 565.378906 L 326.789062 538.894531 L 326.789062 599.636719 L 349.414062 599.636719 L 349.414062 578.945312 L 392.253906 605.433594 L 392.253906 544.6875 L 369.625 544.6875 Z M 492.4375 570.832031 C 492.4375 579.550781 484.664062 580.492188 481.320312 580.492188 C 477.976562 580.492188 470.203125 579.550781 470.203125 570.832031 L 470.203125 544.6875 L 447.570312 544.6875 L 447.570312 572.734375 C 447.570312 590.039062 460.820312 601.21875 481.320312 601.21875 C 501.820312 601.21875 515.066406 590.039062 515.066406 572.734375 L 515.066406 544.6875 L 492.4375 544.6875 Z M 635.15625 582.746094 C 635.15625 598.453125 613.617188 600.273438 597.414062 600.273438 C 595.269531 600.273438 592.875 600.324219 590.34375 600.378906 C 587.554688 600.433594 584.675781 600.496094 581.832031 600.496094 C 578.6875 600.496094 576.070312 600.417969 573.832031 600.257812 L 570.382812 600.015625 L 570.382812 544.308594 L 573.832031 544.0625 C 580.902344 543.566406 590.378906 543.566406 596.644531 543.566406 L 597.871094 543.566406 C 614.640625 543.566406 633.886719 545.574219 633.886719 561.265625 C 633.886719 564.445312 633.003906 568.375 629.570312 571.589844 C 634.039062 574.910156 635.15625 579.246094 635.15625 582.746094 Z M 687.9375 599.636719 L 710.566406 599.636719 L 710.566406 544.6875 L 687.9375 544.6875 Z M 820.117188 566.589844 L 827.382812 549.757812 L 823.972656 548.289062 C 816.226562 544.945312 806.703125 543.105469 797.160156 543.105469 C 776.800781 543.105469 765.125 550.53125 765.125 563.476562 C 765.125 568.6875 767.160156 572.433594 770.503906 575.152344 L 762.109375 592.816406 L 765.476562 594.402344 C 771.695312 597.328125 781.777344 601.21875 797.476562 601.21875 C 817.691406 601.21875 829.765625 593.625 829.765625 580.90625 C 829.765625 573.769531 825.777344 569.359375 820.117188 566.589844 Z M 820.117188 566.589844 "/>
<path style=" stroke:none;fill-rule:nonzero;fill:rgb(13.72549%,12.156863%,12.54902%);fill-opacity:1;" d="M 237.59375 566.707031 L 213.640625 598.453125 L 202.359375 590.152344 L 237.59375 544.90625 L 272.828125 590.152344 L 261.546875 598.453125 Z M 237.59375 566.707031 "/>
<path style=" stroke:none;fill-rule:nonzero;fill:rgb(13.72549%,12.156863%,12.54902%);fill-opacity:1;" d="M 330.5 546.328125 L 373.335938 572.816406 L 373.335938 549.179688 L 388.546875 549.179688 L 388.546875 599.558594 L 345.707031 573.070312 L 345.707031 596.707031 L 330.5 596.707031 Z M 330.5 546.328125 "/>
<path style=" stroke:none;fill-rule:nonzero;fill:rgb(13.72549%,12.156863%,12.54902%);fill-opacity:1;" d="M 466.488281 548.390625 L 466.488281 570.824219 C 466.488281 579.1875 472.320312 584.195312 481.320312 584.195312 C 490.316406 584.195312 496.148438 579.1875 496.148438 570.824219 L 496.148438 548.390625 L 511.355469 548.390625 L 511.355469 572.726562 C 511.355469 589.390625 497.921875 597.503906 481.320312 597.503906 C 464.71875 597.503906 451.28125 589.390625 451.28125 572.726562 L 451.28125 548.390625 Z M 466.488281 548.390625 "/>
<path style=" stroke:none;fill-rule:nonzero;fill:rgb(13.72549%,12.156863%,12.54902%);fill-opacity:1;" d="M 574.09375 596.554688 L 574.09375 547.757812 C 581.253906 547.25 591.03125 547.265625 597.871094 547.265625 C 623.601562 547.265625 630.175781 553.140625 630.175781 561.253906 C 630.175781 566.832031 626.820312 570.0625 621.875 571.902344 C 627.511719 573.675781 631.441406 576.910156 631.441406 582.734375 C 631.441406 591.164062 623.140625 596.558594 597.414062 596.558594 C 590.570312 596.558594 581.253906 597.058594 574.09375 596.554688 Z M 614.964844 563.21875 C 614.964844 560.75 611.632812 559.347656 599.402344 559.347656 C 595.726562 559.347656 591.964844 559.289062 589.300781 559.480469 L 589.300781 566.703125 C 591.964844 566.769531 595.070312 566.769531 598.871094 566.769531 C 611.734375 566.769531 614.964844 565.5 614.964844 563.21875 Z M 616.234375 581.089844 C 616.234375 578.808594 613 577.542969 598.871094 577.542969 C 595.070312 577.542969 591.964844 577.542969 589.300781 577.601562 L 589.300781 584.828125 C 591.964844 585.019531 595.566406 584.894531 599.242188 584.894531 C 612.738281 584.894531 616.234375 583.5625 616.234375 581.089844 Z M 616.234375 581.089844 "/>
<path style=" stroke:none;fill-rule:nonzero;fill:rgb(13.72549%,12.156863%,12.54902%);fill-opacity:1;" d="M 691.640625 548.390625 L 706.851562 548.390625 L 706.851562 595.921875 L 691.640625 595.921875 Z M 691.640625 548.390625 "/>
<path style=" stroke:none;fill-rule:nonzero;fill:rgb(13.72549%,12.156863%,12.54902%);fill-opacity:1;" d="M 772.558594 579.445312 C 778.769531 582.363281 787.261719 584.835938 798.222656 584.835938 C 804.117188 584.835938 810.835938 584.074219 810.835938 581.601562 C 810.835938 579.636719 806.589844 579.320312 800.699219 578.941406 C 778.894531 577.546875 768.824219 573.871094 768.824219 563.476562 C 768.824219 551.3125 782.003906 546.8125 797.148438 546.8125 C 807.097656 546.8125 816.03125 548.902344 822.496094 551.691406 L 817.488281 563.289062 C 812.230469 561.132812 804.433594 559.484375 796.199219 559.484375 C 789.921875 559.484375 784.027344 560.246094 784.027344 562.71875 C 784.027344 564.492188 787.007812 564.9375 792.332031 565.253906 C 811.34375 566.328125 826.042969 568.929688 826.042969 580.90625 C 826.042969 592.058594 814.132812 597.507812 797.464844 597.507812 C 782.953125 597.507812 773.511719 594.085938 767.046875 591.042969 Z M 772.558594 579.445312 "/>
<path style=" stroke:none;fill-rule:nonzero;fill:rgb(13.72549%,12.156863%,12.54902%);fill-opacity:1;" d="M 429.292969 681.707031 C 427.992188 680.734375 425.867188 680.203125 424.328125 680.507812 C 423.59375 680.65625 423.160156 683.222656 422.929688 684.742188 C 422.535156 687.300781 422.703125 689.964844 422.117188 692.464844 C 419.496094 703.6875 417.410156 715.109375 413.710938 725.976562 C 410.832031 734.441406 412.117188 740.324219 419.238281 745.507812 C 429.75 753.160156 435.011719 763.1875 432.710938 776.589844 C 432.460938 778.042969 434.226562 781.125 435.390625 781.304688 C 439.3125 781.902344 438.371094 778.46875 438.382812 776.289062 C 438.460938 763.636719 438.421875 750.988281 438.421875 738.34375 C 438.53125 738.34375 438.726562 713.414062 438.757812 700.953125 C 438.777344 692.957031 435.65625 686.46875 429.292969 681.707031 Z M 429.5625 746.789062 C 426.152344 743.183594 422.71875 739.589844 419.40625 735.898438 C 418.929688 735.367188 418.957031 734.105469 419.160156 733.28125 C 422.363281 720.375 425.632812 707.484375 428.882812 694.589844 C 429.039062 693.964844 429.957031 694.054688 429.984375 694.699219 C 430.53125 706.523438 430.882812 746.261719 430.882812 746.261719 C 430.882812 746.957031 430.039062 747.292969 429.5625 746.789062 Z M 429.5625 746.789062 "/>
<path style=" stroke:none;fill-rule:nonzero;fill:rgb(13.72549%,12.156863%,12.54902%);fill-opacity:1;" d="M 463.082031 679.691406 C 463.753906 680.070312 464.59375 679.929688 465.105469 679.347656 C 465.875 678.464844 467.054688 677.109375 468.113281 675.867188 C 468.742188 675.128906 469.875 675.105469 470.539062 675.8125 C 472.230469 677.621094 473.761719 679.257812 475.355469 680.957031 C 475.992188 681.636719 477.074219 681.644531 477.722656 680.96875 C 479.398438 679.210938 480.878906 677.664062 482.390625 676.082031 C 483.03125 675.414062 484.097656 675.410156 484.738281 676.082031 C 486.324219 677.738281 487.898438 679.382812 489.953125 681.53125 C 490.691406 682.308594 491.972656 682.164062 492.523438 681.246094 C 493.644531 679.382812 494.703125 677.621094 495.789062 675.816406 C 496.34375 674.890625 497.636719 674.753906 498.375 675.546875 C 500.359375 677.6875 501.988281 679.441406 504.007812 681.613281 C 504.726562 682.382812 505.980469 682.28125 506.558594 681.398438 C 507.808594 679.503906 508.957031 677.757812 510.132812 675.96875 C 510.71875 675.074219 511.996094 674.980469 512.707031 675.78125 C 514.492188 677.792969 516.046875 679.546875 518.050781 681.800781 C 518.769531 682.609375 520.074219 682.503906 520.648438 681.585938 C 521.894531 679.597656 523.011719 677.816406 524.121094 676.042969 C 524.691406 675.140625 525.964844 675.019531 526.695312 675.800781 C 528.511719 677.761719 530.015625 679.375 531.621094 681.105469 C 532.285156 681.816406 533.425781 681.792969 534.054688 681.046875 C 535.636719 679.175781 537.671875 676.769531 539.03125 675.164062 C 539.757812 674.308594 541.105469 674.425781 541.671875 675.390625 C 542.644531 677.050781 544.078125 679.492188 545.363281 681.691406 C 545.953125 682.695312 547.375 682.773438 548.070312 681.839844 C 549.703125 679.65625 551.34375 677.453125 552.398438 676.042969 C 553 675.234375 554.183594 675.164062 554.875 675.890625 L 560.421875 681.691406 C 561.105469 682.410156 562.265625 682.351562 562.875 681.570312 L 566.890625 676.445312 C 567.5 675.660156 568.664062 675.601562 569.351562 676.328125 C 570.5625 677.613281 572.449219 679.609375 574.167969 681.476562 C 574.871094 682.238281 576.097656 682.152344 576.695312 681.300781 C 578.035156 679.390625 579.261719 677.636719 580.539062 675.8125 C 581.160156 674.929688 582.445312 674.878906 583.128906 675.710938 C 584.269531 677.101562 585.40625 678.457031 586.136719 679.335938 C 586.617188 679.90625 587.425781 680.078125 588.097656 679.75 L 589.703125 678.964844 C 590.632812 678.507812 590.910156 677.3125 590.265625 676.496094 C 588.648438 674.457031 585.792969 670.859375 583.660156 668.210938 C 583.089844 667.503906 582.054688 667.402344 581.355469 667.980469 C 579.496094 669.523438 577.636719 671.066406 575.75 672.574219 C 575.648438 672.65625 575.511719 672.695312 575.363281 672.710938 C 574.878906 672.769531 574.402344 672.570312 574.066406 672.222656 C 572.308594 670.398438 570.445312 668.46875 569.292969 667.277344 C 568.675781 666.636719 567.65625 666.609375 567.011719 667.21875 C 565.882812 668.285156 564.027344 669.992188 561.910156 671.792969 C 561.304688 672.308594 560.417969 672.3125 559.8125 671.804688 C 558.113281 670.386719 555.796875 668.480469 554.425781 667.355469 C 553.777344 666.824219 552.832031 666.871094 552.242188 667.46875 C 551.125 668.59375 549.304688 670.40625 547.761719 671.792969 C 547.113281 672.375 546.121094 672.339844 545.511719 671.71875 C 543.832031 670.007812 542.363281 668.367188 541.4375 667.308594 C 540.859375 666.644531 539.863281 666.558594 539.179688 667.121094 C 537.890625 668.1875 535.761719 669.957031 533.648438 671.796875 C 533.035156 672.328125 532.128906 672.328125 531.511719 671.796875 C 529.648438 670.1875 527.898438 668.597656 526.835938 667.621094 C 526.234375 667.070312 525.320312 667.046875 524.695312 667.566406 C 523.511719 668.558594 521.496094 670.222656 519.371094 671.886719 C 518.753906 672.371094 517.882812 672.34375 517.292969 671.832031 C 515.746094 670.46875 513.792969 668.707031 512.601562 667.628906 C 511.984375 667.070312 511.054688 667.066406 510.433594 667.621094 C 509.199219 668.714844 507.160156 670.523438 505.65625 671.839844 C 505.070312 672.359375 504.191406 672.378906 503.574219 671.890625 C 501.75 670.4375 499.488281 668.617188 498.160156 667.546875 C 497.523438 667.035156 496.609375 667.074219 496.015625 667.644531 C 494.890625 668.730469 493.039062 670.5 491.539062 671.886719 C 490.914062 672.46875 489.949219 672.460938 489.324219 671.878906 C 487.511719 670.175781 485.691406 668.554688 484.589844 667.582031 C 483.980469 667.042969 483.070312 667.035156 482.457031 667.566406 C 481.332031 668.535156 479.417969 670.1875 477.246094 672.113281 C 476.601562 672.679688 475.628906 672.652344 475.019531 672.046875 C 473.75 670.789062 471.882812 669.066406 470.683594 667.976562 C 470.039062 667.386719 469.042969 667.414062 468.433594 668.042969 C 466.328125 670.195312 461.785156 674.929688 460.222656 677.3125 C 459.902344 677.800781 461.78125 678.964844 463.082031 679.691406 Z M 463.082031 679.691406 "/>
<path style=" stroke:none;fill-rule:nonzero;fill:rgb(13.72549%,12.156863%,12.54902%);fill-opacity:1;" d="M 468.910156 734.839844 C 461.84375 734.824219 454.773438 734.820312 447.707031 734.851562 C 444.140625 734.871094 442.511719 736.769531 442.683594 740.523438 C 443.105469 749.617188 443.355469 758.722656 442.804688 767.808594 C 442.519531 772.46875 444.828125 774.140625 449.839844 773.457031 C 455.328125 772.707031 460.675781 772.875 466.371094 773.414062 C 471.890625 773.9375 473.855469 772.265625 473.773438 768.007812 C 473.683594 763.542969 473.75 759.078125 473.75 754.613281 L 473.910156 754.613281 C 473.910156 749.777344 473.886719 744.945312 473.921875 740.109375 C 473.945312 736.699219 472.382812 734.851562 468.910156 734.839844 Z M 467.109375 766.746094 L 451.867188 766.746094 C 450.621094 766.746094 449.609375 765.734375 449.609375 764.488281 L 449.609375 743.273438 C 449.609375 742.332031 450.371094 741.566406 451.3125 741.5625 C 455.863281 741.539062 460.121094 741.449219 464.359375 741.691406 C 465.320312 741.742188 466.960938 743.363281 466.988281 744.300781 C 467.207031 751.667969 467.109375 759.042969 467.109375 766.746094 Z M 467.109375 766.746094 "/>
<path style=" stroke:none;fill-rule:nonzero;fill:rgb(13.72549%,12.156863%,12.54902%);fill-opacity:1;" d="M 595.457031 783.378906 C 595.507812 761.425781 594.066406 740.234375 592.945312 718.785156 C 592.167969 709.601562 593.621094 696.746094 588.269531 689.117188 C 586.273438 689.957031 587.515625 702.894531 586.765625 705.023438 C 579.320312 672.777344 579.214844 696.152344 579.859375 711.394531 C 574.953125 712.769531 566.042969 712.152344 561.585938 715.273438 C 561.398438 717.488281 565.230469 723.175781 567.226562 724.273438 C 570.449219 725.640625 573.910156 726.214844 577.28125 727.066406 C 573.253906 735.632812 573.5625 744.699219 572.867188 754.261719 C 569.371094 746.828125 565.222656 731.125 555.992188 732.121094 C 553.300781 733.671875 549.828125 721.550781 549.339844 719.5 C 551.640625 718.035156 559.214844 717.957031 555.660156 713.820312 C 555.507812 713.8125 554.292969 713.191406 554.1875 713.433594 C 554.1875 713.433594 550.5625 715.273438 548.671875 716.042969 C 549.824219 707.863281 544.457031 693.089844 535 703.546875 C 531.847656 708.578125 538.335938 713.972656 542.132812 717.757812 C 539.394531 718.804688 535.507812 718.988281 533.671875 721.972656 L 534.734375 721.894531 C 535.28125 722.347656 535.578125 723.945312 536.5625 723.609375 C 539.019531 722.867188 541.570312 721.140625 543.816406 721.199219 C 572.089844 790.460938 535.339844 786.195312 593.054688 785.621094 C 593.054688 785.621094 594.046875 786.042969 594.914062 784.699219 L 594.824219 784.699219 C 595 784.355469 595.230469 783.867188 595.457031 783.378906 Z M 545.046875 715.019531 C 542.902344 714.132812 538.257812 709.078125 539.035156 705.546875 C 541.207031 702.210938 543.875 705.714844 543.914062 708.097656 C 544.378906 709.519531 545.476562 713.214844 545.046875 715.019531 Z M 583.625 778.835938 C 564.0625 779.523438 564.414062 779.722656 561.789062 760.292969 C 560.890625 753.539062 558.050781 747.105469 557.03125 740.386719 C 558.773438 740.039062 560.546875 740.886719 561.355469 742.503906 L 576.015625 771.855469 L 581.363281 770.691406 C 581.53125 765.945312 581.8125 761.058594 581.074219 756.347656 C 579.746094 747.992188 575.535156 738.492188 582.96875 731.648438 C 584.625 730.222656 584.042969 726.714844 584.210938 724.34375 C 580.964844 723.578125 568.679688 721.984375 566.609375 716.984375 C 567.421875 716.28125 574.160156 715.410156 579.105469 715.203125 L 587.035156 716.296875 C 588.519531 734.636719 587.914062 753.96875 588.121094 775.101562 C 588.410156 776.671875 586.226562 779.355469 583.625 778.835938 Z M 583.625 778.835938 "/>
<path style=" stroke:none;fill-rule:nonzero;fill:rgb(13.72549%,12.156863%,12.54902%);fill-opacity:1;" d="M 537.503906 756.652344 C 533.285156 741.628906 524.054688 729.9375 512.460938 719.921875 C 507.425781 715.578125 503.449219 711.296875 501.992188 703.957031 C 499.757812 692.722656 489.25 690.757812 481.230469 698.808594 C 479.398438 700.648438 476.214844 701.105469 473.707031 702.316406 C 472.433594 702.933594 471.199219 703.632812 469.96875 704.332031 C 468.988281 704.894531 468.746094 706.195312 469.460938 707.070312 C 470.539062 708.386719 471.609375 709.71875 472.964844 710.128906 C 478.347656 711.753906 480.207031 715.167969 481.3125 720.441406 C 482.484375 726.035156 485.003906 731.410156 487.421875 736.664062 C 492.894531 748.5625 498.875 760.238281 504.203125 772.203125 C 505.425781 774.945312 509.582031 779.40625 504.25 781.367188 C 500.574219 782.71875 495.386719 781.886719 492.875 782.5 C 492.675781 782.550781 492.503906 782.722656 492.289062 783.03125 C 491.453125 784.234375 492.347656 785.882812 493.8125 785.867188 C 497.0625 785.839844 506.28125 786.042969 508.945312 786.152344 C 513.121094 786.328125 517.742188 785.867188 520.011719 785.085938 C 522.082031 784.371094 519.039062 779.375 518.515625 775.484375 C 518.390625 774.535156 518.1875 773.597656 517.949219 772.542969 C 517.691406 771.40625 518.558594 770.324219 519.726562 770.324219 L 538.1875 770.324219 C 539.335938 770.324219 540.191406 769.273438 539.96875 768.152344 C 539.125 763.902344 538.503906 760.222656 537.503906 756.652344 Z M 506.046875 722.414062 C 506.984375 723.175781 507.929688 723.921875 508.859375 724.683594 C 509.175781 724.945312 509.394531 725.316406 509.484375 725.722656 C 509.878906 727.480469 509.742188 729.320312 509.300781 731.105469 C 508.898438 732.71875 506.742188 733.03125 505.9375 731.578125 C 504.917969 729.753906 504.109375 727.816406 503.523438 725.792969 C 503.375 725.28125 503.246094 724.769531 503.125 724.257812 C 505.609375 722.691406 503.5625 723.980469 506.046875 722.414062 Z M 509.988281 777.054688 C 509.953125 776.902344 509.953125 776.742188 509.933594 776.589844 C 509.664062 774.289062 513.105469 773.71875 513.519531 775.992188 C 513.570312 776.28125 513.507812 776.582031 513.617188 776.832031 C 515.585938 781.367188 511.28125 782.574219 509.988281 777.054688 Z M 528.773438 765.386719 C 522.890625 764.371094 516.980469 763.449219 511.238281 761.914062 C 509.035156 761.324219 507.023438 758.628906 505.679688 756.433594 C 496.632812 741.667969 487.097656 729.175781 484.832031 711.476562 C 484.714844 710.554688 475.382812 707.265625 475.625 706.164062 C 476.265625 703.292969 485.5 703.695312 485.992188 702.972656 C 487.476562 700.804688 490.898438 701.511719 493.21875 702.742188 C 494.683594 703.515625 495.855469 704.289062 495.839844 705.035156 C 495.757812 709.203125 496.9375 712.433594 498.789062 715.148438 C 499 715.457031 499.121094 715.816406 499.121094 716.1875 C 499.121094 717.113281 499.171875 717.992188 499.1875 718.625 C 499.238281 721.085938 499.585938 723.5625 500.210938 725.945312 C 501.460938 730.746094 503.878906 735.121094 507.144531 738.835938 C 507.832031 739.621094 509.195312 739.371094 509.6875 738.507812 C 510.871094 736.417969 511.871094 734.113281 512.429688 731.734375 C 512.753906 730.339844 514.515625 729.871094 515.511719 730.90625 C 522.824219 738.527344 528.492188 747.144531 531.859375 757.371094 C 532.242188 758.539062 532.566406 759.730469 532.875 760.929688 C 531.105469 762.855469 530.546875 763.457031 528.773438 765.386719 Z M 528.773438 765.386719 "/>
<use xlink:href="#surface11" mask="url(#mask2)"/>
<use xlink:href="#surface14" mask="url(#mask3)"/>
<path style=" stroke:none;fill-rule:nonzero;fill:rgb(13.72549%,12.156863%,12.54902%);fill-opacity:1;" d="M 306.480469 404.519531 L 303.859375 407.140625 L 390.804688 494.082031 L 393.425781 491.460938 Z M 306.480469 404.519531 "/>
<path style=" stroke:none;fill-rule:nonzero;fill:rgb(13.72549%,12.156863%,12.54902%);fill-opacity:1;" d="M 720.378906 406.804688 L 633.4375 493.75 L 636.0625 496.371094 L 723 409.429688 Z M 720.378906 406.804688 "/>
</g>
</svg>
