<svg width="100%" height="100%" viewBox="0 0 32 32" fill="none" xmlns="http://www.w3.org/2000/svg">
<path fill-rule="evenodd" clip-rule="evenodd" d="M31.99 11.84C31.96 11.74 31.86 11.67 31.72 11.66C29.92 11.51 21.18 10.81 20.38 10.74C20.1 10.03 17.12 2.55 16.33 0.550002C16.3 0.480002 16.21 0.260002 16.05 0.260002C15.88 0.260002 15.79 0.480002 15.77 0.560002C14.97 2.57 12 10.04 11.72 10.75C10.92 10.81 2.13 11.52 0.349996 11.67C0.169996 11.69 0.119996 11.79 0.0999963 11.83C0.0699963 11.93 0.119996 12.04 0.239996 12.13C1.66 13.24 8.4 18.49 9.04 18.99C8.83 19.81 6.52 28.7 6.11 30.28C6.09 30.36 6.11 30.44 6.15 30.51C6.2 30.57 6.27 30.6 6.34 30.6C6.4 30.6 6.45 30.58 6.5 30.55C7.89 29.61 15.34 24.57 16.04 24.09L25.6 30.57C25.7 30.64 25.78 30.67 25.85 30.67C25.9 30.67 25.95 30.65 25.98 30.61C26.03 30.55 26.03 30.46 26 30.33C25.51 28.43 23.27 19.79 23.07 18.99C23.71 18.49 30.47 13.23 31.87 12.14C31.98 12.06 32.02 11.95 31.99 11.84ZM22.51 18.83L25.34 29.76L16.1 23.49L16.05 23.45L16 23.49L6.76 29.76L9.59 18.83L9.61 18.77L9.56 18.73L1.02 12.08L12.01 11.19H12.07L12.09 11.13L16.05 1.16L20.01 11.13L20.03 11.18H20.09L31.08 12.08L22.54 18.73L22.49 18.77L22.51 18.83ZM6.36 30.51C6.4 30.51 6.44 30.51 6.48 30.47C6.48 30.47 6.48 30.47 6.49 30.47C6.49 30.47 6.49 30.47 6.48 30.47C6.44 30.5 6.4 30.51 6.37 30.51H6.36ZM25.85 30.58C25.85 30.58 25.86 30.58 25.87 30.58C25.87 30.58 25.87 30.58 25.86 30.58H25.85Z" fill="url(#paint0_linear_244_97)"/>
<path d="M31.22 12.02C31.22 12.02 31.22 12.02 31.22 12.01C31.2 11.98 31.18 11.97 31.14 11.97L20.12 11.08L16.14 1.13C16.14 1.13 16.09 1.07 16.05 1.07C16.01 1.07 15.97 1.09 15.96 1.13L12.01 11.08L0.989994 11.97C0.989994 11.97 0.899994 12.01 0.899994 12.06C0.899994 12.06 0.899994 12.06 0.899994 12.07C0.899994 12.1 0.909994 12.13 0.939994 12.15L9.50999 18.76L6.66999 29.73C6.66999 29.73 6.66999 29.81 6.70999 29.84C6.72999 29.85 6.74999 29.86 6.76999 29.86C6.78999 29.86 6.80999 29.86 6.82999 29.84L16.06 23.58L25.3 29.84C25.3 29.84 25.34 29.86 25.36 29.86C25.38 29.86 25.4 29.86 25.42 29.84C25.45 29.82 25.47 29.77 25.46 29.73L22.68 18.76L31.21 12.15C31.21 12.15 31.26 12.07 31.24 12.03L31.22 12.02ZM16.16 22.04C16.16 22.04 16.14 21.97 16.11 21.95C16.1 21.95 16.08 21.94 16.06 21.94C16.04 21.94 16.02 21.94 16 21.96L8.71999 26.9L11.19 18.25C11.19 18.25 11.21 18.22 11.21 18.21C11.21 18.17 11.2 18.14 11.17 18.12L4.15999 12.96L12.86 12.25C12.86 12.25 12.93 12.22 12.94 12.19L16.05 4.34L19.19 12.19C19.19 12.19 19.24 12.25 19.27 12.25L27.97 12.96L20.96 18.12C20.96 18.12 20.91 18.19 20.92 18.23L23.38 26.96L16.15 22.05L16.16 22.04Z" fill="url(#paint1_linear_244_97)"/>
<path d="M12.84 12.15L16.05 4.07V1.16L12.07 11.17L12.84 12.15Z" fill="url(#paint2_linear_244_97)"/>
<path d="M12.84 12.15L3.87 12.88L1 12.07L12.07 11.17L12.84 12.15Z" fill="url(#paint3_linear_244_97)"/>
<path d="M11.11 18.2L3.87 12.88L1 12.07L9.58 18.72L11.11 18.2Z" fill="url(#paint4_linear_244_97)"/>
<path d="M11.1 18.22L8.53999 27.18L6.75999 29.76L9.56999 18.73L11.1 18.22Z" fill="url(#paint5_linear_244_97)"/>
<path d="M16.06 22.04L8.53999 27.15L6.75999 29.76L16.05 23.45L16.06 22.04Z" fill="url(#paint6_linear_244_97)"/>
<path d="M19.28 12.15L16.05 4.07V1.16L20.05 11.17L19.28 12.15Z" fill="url(#paint7_linear_244_97)"/>
<path d="M19.28 12.15L28.26 12.88L31.13 12.07L20.05 11.17L19.28 12.15Z" fill="url(#paint8_linear_244_97)"/>
<path d="M21.02 18.2L28.26 12.88L31.13 12.07L22.55 18.72L21.02 18.2Z" fill="url(#paint9_linear_244_97)"/>
<path d="M21.02 18.2L23.56 27.19L25.34 29.76L22.55 18.71L21.02 18.2Z" fill="url(#paint10_linear_244_97)"/>
<path d="M16.06 22.05L23.56 27.19L25.34 29.76L16.05 23.45L16.06 22.05Z" fill="url(#paint11_linear_244_97)"/>
<path fill-rule="evenodd" clip-rule="evenodd" d="M26.79 13.21L18.9 12.57L16.05 5.41L13.2 12.57L5.31 13.21L11.44 17.98L9.41 25.83L16.05 21.33L22.69 25.83L20.66 17.98L26.79 13.21Z" fill="#D35353"/>
<path fill-rule="evenodd" clip-rule="evenodd" d="M26.03 13.87L25.87 13.28L17.02 16.03L23 12.89L21.68 12.75L16.88 15.78L20.32 12.61L19.5 12.52L16.68 15.57L18.83 12.17L18.53 11.43L16.43 15.43L18.05 10.23L17.58 9.06L16.16 15.36L16.57 6.57L16.07 5.17L15.52 6.6L15.87 15.36L14.5 9.3L14.04 10.47L15.59 15.44L13.59 11.63L13.3 12.36L15.33 15.58L12.59 12.61L11.77 12.68L15.13 15.79L10.4 12.81L9.05 12.93L14.98 16.05L6.13 13.3L5.97 13.91L6.66 14.46L14.91 16.32L8.67 16.07L9.6 16.82L14.91 16.61L10.56 17.59L11.07 18L11.04 18.11L14.98 16.89L10.82 19.08L10.61 20L15.12 17.15L10.23 21.67L9.87 23.27L15.33 17.36L10.39 25.19L10.44 25.22L12.12 24.11L15.59 17.5L13.9 22.93L14.79 22.34L15.87 17.58L15.71 21.74L16.01 21.54L16.34 21.76L16.17 17.58L17.25 22.37L18.15 22.97L16.45 17.51L19.95 24.17L21.56 25.24L21.64 25.19L16.7 17.36L21.9 22.98L21.55 21.43L16.91 17.15L21.19 19.85L20.99 18.96L17.06 16.89L20.78 18.05L21.38 17.57L17.14 16.61L22.34 16.81L23.28 16.07L17.15 16.31L25.32 14.46L26.07 13.87H26.03Z" fill="#D66E6E"/>
<path d="M16.05 0.360002C16.12 0.360002 16.18 0.440002 16.25 0.590002C17.09 2.69 20.32 10.84 20.32 10.84C20.32 10.84 29.83 11.61 31.72 11.76C31.92 11.78 31.97 11.95 31.81 12.07C30.34 13.22 22.96 18.96 22.96 18.96C22.96 18.96 25.4 28.37 25.91 30.36C25.95 30.51 25.93 30.58 25.86 30.58C25.82 30.58 25.75 30.55 25.67 30.5C23.92 29.31 16.06 23.98 16.06 23.98C16.06 23.98 7.93 29.48 6.47 30.47C6.43 30.5 6.39 30.51 6.36 30.51C6.26 30.51 6.19 30.42 6.22 30.31C6.65 28.64 9.16 18.96 9.16 18.96C9.16 18.96 1.81 13.22 0.309996 12.06C0.139996 11.93 0.169996 11.78 0.369996 11.76C2.23 11.61 11.8 10.84 11.8 10.84C11.8 10.84 15.04 2.7 15.87 0.590002C15.93 0.430002 16 0.350002 16.07 0.350002M6.61 29.97L16.05 23.56L25.49 29.97L22.6 18.8L31.33 12L20.1 11.09L16.05 0.900002L12 11.09L0.769996 12L9.5 18.8L6.61 29.97ZM16.05 0.260002C15.88 0.260002 15.79 0.480002 15.77 0.560002C14.97 2.57 12 10.04 11.72 10.75C10.92 10.81 2.13 11.52 0.349996 11.67C0.169996 11.69 0.119996 11.79 0.0999963 11.83C0.0699963 11.93 0.119996 12.04 0.239996 12.13C1.66 13.24 8.4 18.49 9.04 18.99C8.83 19.81 6.52 28.7 6.11 30.28C6.09 30.36 6.11 30.44 6.15 30.51C6.2 30.57 6.27 30.6 6.34 30.6C6.4 30.6 6.45 30.58 6.5 30.55C7.89 29.61 15.34 24.57 16.04 24.09L25.6 30.57C25.7 30.64 25.78 30.67 25.85 30.67C25.9 30.67 25.95 30.65 25.98 30.61C26.03 30.55 26.03 30.46 26 30.33C25.51 28.43 23.27 19.79 23.07 18.99C23.71 18.49 30.47 13.23 31.87 12.14C31.98 12.06 32.02 11.95 31.99 11.84C31.96 11.74 31.86 11.67 31.72 11.66C29.92 11.51 21.18 10.81 20.38 10.74C20.1 10.03 17.12 2.55 16.33 0.550002C16.3 0.480002 16.21 0.260002 16.05 0.260002ZM1.02 12.08L12.01 11.19H12.07L12.09 11.13L16.05 1.16L20.01 11.13L20.03 11.18H20.09L31.08 12.08L22.54 18.73L22.49 18.77L22.51 18.83L25.34 29.76L16.1 23.49L16.05 23.45L16 23.49L6.76 29.76L9.59 18.83L9.61 18.77L9.56 18.73L1.02 12.08Z" fill="url(#paint12_linear_244_97)"/>
<path fill-rule="evenodd" clip-rule="evenodd" d="M31.72 11.76C29.84 11.61 20.32 10.84 20.32 10.84C20.32 10.84 17.08 2.69 16.25 0.589998C16.13 0.279998 15.98 0.279998 15.86 0.589998C15.02 2.7 11.79 10.84 11.79 10.84C11.79 10.84 2.23 11.61 0.359996 11.76C0.159996 11.78 0.139996 11.93 0.299996 12.06C1.79 13.22 9.14999 18.96 9.14999 18.96C9.14999 18.96 6.64 28.64 6.21 30.31C6.17 30.46 6.32 30.57 6.47 30.47C7.94 29.48 16.06 23.98 16.06 23.98C16.06 23.98 23.92 29.31 25.67 30.5C25.89 30.65 25.98 30.6 25.92 30.36C25.41 28.37 22.97 18.96 22.97 18.96C22.97 18.96 30.35 13.22 31.82 12.07C31.98 11.95 31.93 11.78 31.73 11.76H31.72ZM22.61 18.8L25.5 29.97L16.06 23.56L6.62 29.97L9.51 18.8L0.769996 12.01L12 11.1L16.05 0.899998L20.1 11.09L31.33 12L22.6 18.8H22.61Z" fill="url(#paint13_linear_244_97)"/>
<path fill-rule="evenodd" clip-rule="evenodd" d="M27.97 12.95L19.22 12.24L16.06 4.3L12.9 12.24L4.15001 12.95L10.95 18.24L8.70001 26.94L16.06 21.95L23.42 26.94L21.17 18.24L27.97 12.95ZM22.71 25.85L16.06 21.34L9.41001 25.85L11.44 17.99L5.30001 13.21L13.21 12.57L16.06 5.4L18.91 12.57L26.82 13.21L20.68 17.99L22.71 25.85Z" fill="url(#paint14_linear_244_97)"/>
<path d="M16.06 4.3L19.22 12.24L27.97 12.95L21.17 18.24L23.42 26.94L16.06 21.95L8.7 26.94L10.95 18.24L4.15 12.95L12.9 12.24L16.06 4.3ZM9.41 25.85L16.06 21.34L22.71 25.85L20.68 17.99L26.82 13.21L18.91 12.57L16.06 5.4L13.21 12.57L5.3 13.21L11.44 17.99L9.41 25.85ZM16.06 4.05L15.97 4.27L12.84 12.15L4.15 12.86L3.91 12.88L4.1 13.03L10.85 18.28L8.61 26.92L8.55 27.16L8.76 27.02L16.06 22.07L23.36 27.02L23.57 27.16L23.51 26.92L21.27 18.28L28.02 13.03L28.21 12.88L27.97 12.86L19.28 12.15L16.15 4.27L16.06 4.05ZM5.55 13.28L13.21 12.66H13.27L13.29 12.6L16.06 5.65L18.82 12.6L18.84 12.65H18.9L26.56 13.28L20.61 17.91L20.56 17.95L20.58 18.01L22.55 25.63L16.11 21.26L16.06 21.22L16.01 21.26L9.57 25.63L11.54 18.01L11.56 17.95L11.51 17.91L5.56 13.28H5.55Z" fill="url(#paint15_linear_244_97)"/>
<path d="M20.97 19.63H11.08L10.86 20.5L21.24 20.49L20.97 19.63Z" fill="url(#paint16_linear_244_97)"/>
<path d="M11.08 19.62H8.88L8.77 20.07H10.98L11.08 19.62Z" fill="url(#paint17_linear_244_97)"/>
<path d="M21 19.63H23.25L23.35 20.08H21.1L21 19.63Z" fill="url(#paint18_linear_244_97)"/>
<path d="M14.02 13.61L16.06 8.6V5.65L13.28 12.66L14.02 13.61Z" fill="url(#paint19_linear_244_97)"/>
<path d="M13.82 13.37L7.57 13.85L5.55 13.28L13.28 12.66L13.82 13.37Z" fill="url(#paint20_linear_244_97)"/>
<path d="M12.64 17.59L7.57 13.85L5.56 13.28L11.57 17.96L12.64 17.59Z" fill="url(#paint21_linear_244_97)"/>
<path d="M12.57 17.62L10.78 23.92L9.55 25.66L11.5 17.98L12.57 17.62Z" fill="url(#paint22_linear_244_97)"/>
<path d="M16.04 20.34L10.78 23.92L9.55 25.66L16.04 21.29V20.34Z" fill="url(#paint23_linear_244_97)"/>
<path d="M17.97 13.78L16.06 8.69V5.65L18.83 12.68L17.97 13.78Z" fill="url(#paint24_linear_244_97)"/>
<path d="M18.29 13.37L24.57 13.86L26.57 13.28L18.83 12.68L18.29 13.37Z" fill="url(#paint25_linear_244_97)"/>
<path d="M19.47 17.61L24.54 13.87L26.57 13.28L20.54 17.98L19.47 17.61Z" fill="url(#paint26_linear_244_97)"/>
<path d="M19.67 17.65L21.29 23.94L22.54 25.65L20.58 17.98L19.67 17.65Z" fill="url(#paint27_linear_244_97)"/>
<path d="M16.04 20.34L21.29 23.94L22.54 25.65L16.04 21.29V20.34Z" fill="url(#paint28_linear_244_97)"/>
<path d="M16.05 7.05L13.65 13.23L7.35001 13.71L24.78 13.66L18.47 13.17L16.05 7.06V7.05Z" fill="url(#paint29_linear_244_97)"/>
<path d="M16.05 1.76L12.25 11.4L1.84 12.29L3.11 12.68L12.65 11.86L16.05 3.38L17.36 6.66L18.5 7.88L16.05 1.76Z" fill="url(#paint30_radial_244_97)"/>
<path d="M21.96 20.34H22.78L25.21 29.32L16.07 23.22L6.96001 29.47L8.15001 24.9L9.75001 21.81L8.22001 27.64L16.05 22.33L23.83 27.53L21.96 20.34Z" fill="url(#paint31_radial_244_97)"/>
<path d="M25.21 13.96H6.61V19.13H25.21V13.96Z" fill="url(#paint32_linear_244_97)"/>
<path d="M6.49 19.43L6.47 13.8L25.34 13.78L25.36 19.41C25.36 19.41 25.36 19.43 25.34 19.43H6.49ZM6.84 19.11L24.99 19.09L24.97 14.11L6.84 14.13V19.11Z" fill="url(#paint33_linear_244_97)"/>
<path fill-rule="evenodd" clip-rule="evenodd" d="M25.41 13.51H6.36999C6.25999 13.51 6.17999 13.6 6.17999 13.7V19.46C6.17999 19.57 6.26999 19.65 6.36999 19.65H25.41C25.52 19.65 25.6 19.56 25.6 19.46V13.7C25.6 13.59 25.52 13.51 25.41 13.51ZM25.3 19.41H6.51999V13.82H25.3V19.41Z" fill="url(#paint34_linear_244_97)"/>
<path d="M21.13 18.28C21.04 18.28 20.97 18.21 20.97 18.12V15.14C20.97 15.05 21.04 14.98 21.13 14.98H23.11C23.2 14.98 23.27 15.05 23.27 15.14V15.63C23.27 15.72 23.2 15.79 23.11 15.79H21.88V16.2H22.99C23.08 16.2 23.15 16.27 23.15 16.36V16.85C23.15 16.94 23.08 17.01 22.99 17.01H21.88V17.45H23.11C23.2 17.45 23.27 17.52 23.27 17.61V18.1C23.27 18.19 23.2 18.26 23.11 18.26H21.13V18.28ZM23.05 18.06V17.69H21.66V16.81H22.93V16.44H21.66V15.59H23.05V15.22H21.18V18.08H23.05V18.06Z" fill="white"/>
<path d="M19.61 18.28C19.52 18.28 19.45 18.21 19.45 18.12V17.01H18.66V18.12C18.66 18.21 18.59 18.28 18.5 18.28H17.91C17.82 18.28 17.75 18.21 17.75 18.12V15.14C17.75 15.05 17.82 14.98 17.91 14.98H18.5C18.59 14.98 18.66 15.05 18.66 15.14V16.19H20.2C20.29 16.19 20.36 16.26 20.36 16.35V18.12C20.36 18.21 20.29 18.28 20.2 18.28H19.61ZM20.14 18.06V16.41H18.44V15.2H17.97V18.06H18.44V16.79H19.66V18.06H20.14Z" fill="white"/>
<path d="M15.4 18.28C15.21 18.28 15.04 18.22 14.91 18.09C14.77 17.96 14.7 17.81 14.7 17.62V15.62C14.7 15.44 14.77 15.28 14.91 15.15C15.04 15.03 15.21 14.96 15.4 14.96H16.5C16.69 14.96 16.85 15.02 16.99 15.14C17.13 15.27 17.2 15.42 17.2 15.61V16.12C17.2 16.21 17.13 16.28 17.04 16.28H16.45C16.36 16.28 16.29 16.21 16.29 16.12V15.77H15.61V17.44H16.29V17.06C16.29 16.97 16.36 16.9 16.45 16.9H17.04C17.13 16.9 17.2 16.97 17.2 17.06V17.6C17.2 17.78 17.13 17.94 16.99 18.07C16.86 18.19 16.69 18.25 16.5 18.25H15.4V18.28ZM15.4 15.2C15.26 15.2 15.15 15.24 15.06 15.33C14.97 15.41 14.92 15.51 14.92 15.64V17.64C14.92 17.76 14.96 17.86 15.06 17.95C15.15 18.04 15.26 18.08 15.4 18.08H16.5C16.64 18.08 16.75 18.04 16.84 17.95C16.93 17.87 16.98 17.77 16.98 17.64V17.16H16.51V17.53C16.51 17.53 16.49 17.62 16.45 17.66C16.41 17.69 16.37 17.71 16.32 17.71H15.58C15.58 17.71 15.49 17.69 15.45 17.66C15.41 17.63 15.39 17.58 15.39 17.53V15.77C15.39 15.72 15.41 15.67 15.45 15.64C15.48 15.61 15.53 15.59 15.58 15.59H16.32C16.32 15.59 16.41 15.61 16.45 15.64C16.49 15.67 16.51 15.72 16.51 15.77V16.11H16.98V15.65C16.98 15.53 16.93 15.43 16.84 15.34C16.75 15.25 16.63 15.21 16.5 15.21H15.4V15.2Z" fill="white"/>
<path d="M13.65 18.28C13.58 18.28 13.52 18.24 13.5 18.17L13.3 17.63H12.42L12.23 18.17C12.21 18.23 12.15 18.28 12.08 18.28H11.49C11.44 18.28 11.39 18.25 11.36 18.21C11.33 18.17 11.32 18.11 11.34 18.06L12.44 15.08C12.46 15.02 12.52 14.97 12.59 14.97H13.14C13.21 14.97 13.27 15.01 13.29 15.08L14.39 18.06C14.39 18.06 14.4 18.17 14.37 18.21C14.34 18.25 14.29 18.28 14.24 18.28H13.65ZM14.16 18.06L13.1 15.2H12.64L11.58 18.06H12.05L12.28 17.41H13.46L13.7 18.06H14.17H14.16ZM12.4 17.05L12.86 15.67L13.32 17.05H12.4ZM13.02 16.83L12.86 16.36L12.71 16.83H13.02Z" fill="white"/>
<path d="M9.25 18.28C9.06 18.28 8.89 18.22 8.76 18.09C8.62 17.96 8.55 17.81 8.55 17.62V15.62C8.55 15.44 8.62 15.28 8.76 15.15C8.89 15.03 9.06 14.96 9.25 14.96H10.35C10.54 14.96 10.71 15.02 10.84 15.14C10.98 15.27 11.05 15.42 11.05 15.61V16.12C11.05 16.21 10.98 16.28 10.89 16.28H10.3C10.21 16.28 10.14 16.21 10.14 16.12V15.77H9.46V17.44H10.14V17.06C10.14 16.97 10.21 16.9 10.3 16.9H10.89C10.98 16.9 11.05 16.97 11.05 17.06V17.6C11.05 17.78 10.98 17.94 10.84 18.07C10.71 18.19 10.54 18.25 10.35 18.25H9.25V18.28ZM9.25 15.2C9.11 15.2 9 15.24 8.91 15.33C8.82 15.42 8.77 15.51 8.77 15.64V17.64C8.77 17.76 8.81 17.86 8.91 17.95C9 18.04 9.11 18.08 9.25 18.08H10.35C10.49 18.08 10.6 18.04 10.7 17.95C10.79 17.87 10.84 17.77 10.84 17.64V17.16H10.37V17.53C10.37 17.53 10.35 17.62 10.31 17.66C10.27 17.69 10.23 17.71 10.18 17.71H9.44C9.44 17.71 9.35 17.69 9.31 17.66C9.27 17.63 9.25 17.58 9.25 17.53V15.77C9.25 15.72 9.27 15.67 9.31 15.64C9.35 15.61 9.39 15.59 9.44 15.59H10.18C10.18 15.59 10.27 15.61 10.31 15.64C10.35 15.67 10.37 15.72 10.37 15.77V16.11H10.84V15.65C10.84 15.53 10.8 15.43 10.7 15.34C10.61 15.25 10.49 15.21 10.36 15.21H9.25V15.2Z" fill="white"/>
<path fill-rule="evenodd" clip-rule="evenodd" d="M10.35 15.15H9.25001C9.10001 15.15 8.97001 15.2 8.87001 15.29C8.77001 15.39 8.71001 15.5 8.71001 15.64V17.64C8.71001 17.78 8.76001 17.89 8.87001 17.99C8.97001 18.09 9.10001 18.13 9.25001 18.13H10.35C10.5 18.13 10.63 18.08 10.73 17.99C10.83 17.89 10.89 17.78 10.89 17.64V17.1H10.3V17.53C10.3 17.53 10.29 17.59 10.26 17.61C10.23 17.63 10.2 17.64 10.17 17.64H9.43001C9.43001 17.64 9.36001 17.63 9.34001 17.61C9.31001 17.59 9.30001 17.56 9.30001 17.53V15.77C9.30001 15.77 9.31001 15.71 9.34001 15.69C9.37001 15.67 9.40001 15.66 9.43001 15.66H10.17C10.17 15.66 10.24 15.67 10.26 15.69C10.29 15.71 10.3 15.74 10.3 15.77V16.17H10.89V15.66C10.89 15.52 10.84 15.41 10.73 15.31C10.62 15.21 10.5 15.17 10.35 15.17V15.15ZM12.59 15.15L11.49 18.13H12.08L12.31 17.48H13.41L13.64 18.13H14.23L13.13 15.15H12.59ZM12.48 17L12.86 15.86L13.24 17H12.48ZM16.5 15.15H15.4C15.25 15.15 15.12 15.2 15.02 15.29C14.92 15.39 14.87 15.5 14.87 15.64V17.64C14.87 17.78 14.92 17.89 15.02 17.99C15.12 18.09 15.25 18.13 15.4 18.13H16.5C16.65 18.13 16.78 18.08 16.88 17.99C16.98 17.89 17.04 17.78 17.04 17.64V17.1H16.45V17.53C16.45 17.53 16.44 17.59 16.41 17.61C16.38 17.63 16.35 17.64 16.32 17.64H15.58C15.58 17.64 15.51 17.63 15.49 17.61C15.46 17.59 15.45 17.56 15.45 17.53V15.77C15.45 15.77 15.46 15.71 15.49 15.69C15.52 15.67 15.55 15.66 15.58 15.66H16.32C16.32 15.66 16.39 15.67 16.41 15.69C16.44 15.71 16.45 15.74 16.45 15.77V16.17H17.04V15.66C17.04 15.52 16.99 15.41 16.88 15.31C16.77 15.21 16.65 15.17 16.5 15.17V15.15ZM18.5 15.15H17.91V18.13H18.5V16.85H19.61V18.13H20.2V16.36H18.5V15.15ZM23.11 15.64V15.15H21.13V18.13H23.11V17.64H21.72V16.88H22.99V16.39H21.72V15.65H23.11V15.64Z" fill="url(#paint35_linear_244_97)"/>
<defs>
<linearGradient id="paint0_linear_244_97" x1="13.51" y1="24.44" x2="18.53" y2="-0.359998" gradientUnits="userSpaceOnUse">
<stop stop-color="#FBF4C1"/>
<stop offset="0.09" stop-color="#E4CF93"/>
<stop offset="0.31" stop-color="#B48030"/>
<stop offset="0.76" stop-color="#FBF4C1"/>
<stop offset="1" stop-color="#A07C2D"/>
</linearGradient>
<linearGradient id="paint1_linear_244_97" x1="15.39" y1="1.74" x2="17.18" y2="29.24" gradientUnits="userSpaceOnUse">
<stop stop-color="#5F96BE"/>
<stop offset="0.11" stop-color="#6091AF"/>
<stop offset="0.21" stop-color="#618FAA"/>
<stop offset="0.39" stop-color="#618CAB"/>
<stop offset="0.61" stop-color="#6F98A3"/>
<stop offset="0.66" stop-color="#749DA1"/>
<stop offset="0.99" stop-color="#3F4E5C"/>
</linearGradient>
<linearGradient id="paint2_linear_244_97" x1="15.22" y1="6.95" x2="13.74" y2="6.39" gradientUnits="userSpaceOnUse">
<stop stop-color="#282447"/>
<stop offset="0.52" stop-color="#355F75"/>
<stop offset="0.97" stop-color="#2F2B47"/>
</linearGradient>
<linearGradient id="paint3_linear_244_97" x1="6.99587" y1="12.9371" x2="6.85129" y2="11.3895" gradientUnits="userSpaceOnUse">
<stop stop-color="#282447"/>
<stop offset="0.52" stop-color="#355F75"/>
<stop offset="0.97" stop-color="#2F2B47"/>
</linearGradient>
<linearGradient id="paint4_linear_244_97" x1="6.58318" y1="14.4491" x2="5.487" y2="15.8644" gradientUnits="userSpaceOnUse">
<stop stop-color="#282447"/>
<stop offset="0.52" stop-color="#355F75"/>
<stop offset="0.97" stop-color="#2F2B47"/>
</linearGradient>
<linearGradient id="paint5_linear_244_97" x1="9.88076" y1="24.227" x2="8.03216" y2="23.765" gradientUnits="userSpaceOnUse">
<stop stop-color="#282447"/>
<stop offset="0.52" stop-color="#355F75"/>
<stop offset="0.97" stop-color="#2F2B47"/>
</linearGradient>
<linearGradient id="paint6_linear_244_97" x1="10.9293" y1="25.171" x2="11.931" y2="26.6881" gradientUnits="userSpaceOnUse">
<stop stop-color="#282447"/>
<stop offset="0.52" stop-color="#355F75"/>
<stop offset="0.97" stop-color="#2F2B47"/>
</linearGradient>
<linearGradient id="paint7_linear_244_97" x1="16.87" y1="6.96" x2="18.39" y2="6.38" gradientUnits="userSpaceOnUse">
<stop stop-color="#282447"/>
<stop offset="0.52" stop-color="#355F75"/>
<stop offset="0.97" stop-color="#2F2B47"/>
</linearGradient>
<linearGradient id="paint8_linear_244_97" x1="25.1269" y1="13.0147" x2="25.2715" y2="11.467" gradientUnits="userSpaceOnUse">
<stop stop-color="#282447"/>
<stop offset="0.52" stop-color="#355F75"/>
<stop offset="0.97" stop-color="#2F2B47"/>
</linearGradient>
<linearGradient id="paint9_linear_244_97" x1="25.5827" y1="14.4966" x2="26.6789" y2="15.9118" gradientUnits="userSpaceOnUse">
<stop stop-color="#282447"/>
<stop offset="0.52" stop-color="#355F75"/>
<stop offset="0.97" stop-color="#2F2B47"/>
</linearGradient>
<linearGradient id="paint10_linear_244_97" x1="22.2579" y1="24.2156" x2="24.0844" y2="23.7568" gradientUnits="userSpaceOnUse">
<stop stop-color="#282447"/>
<stop offset="0.52" stop-color="#355F75"/>
<stop offset="0.97" stop-color="#2F2B47"/>
</linearGradient>
<linearGradient id="paint11_linear_244_97" x1="21.2086" y1="25.1235" x2="20.2209" y2="26.6431" gradientUnits="userSpaceOnUse">
<stop stop-color="#282447"/>
<stop offset="0.52" stop-color="#355F75"/>
<stop offset="0.97" stop-color="#2F2B47"/>
</linearGradient>
<linearGradient id="paint12_linear_244_97" x1="12.41" y1="-2.33" x2="21.21" y2="32.11" gradientUnits="userSpaceOnUse">
<stop stop-color="#FBF4C1"/>
<stop offset="0.09" stop-color="#E4CF93"/>
<stop offset="0.31" stop-color="#B48030"/>
<stop offset="0.76" stop-color="#FBF4C1"/>
<stop offset="1" stop-color="#A07C2D"/>
</linearGradient>
<linearGradient id="paint13_linear_244_97" x1="15.29" y1="8.11" x2="20.3" y2="32.83" gradientUnits="userSpaceOnUse">
<stop stop-color="#FBF4C1"/>
<stop offset="0.09" stop-color="#E4CF93"/>
<stop offset="0.31" stop-color="#B48030"/>
<stop offset="0.76" stop-color="#FBF4C1"/>
<stop offset="1" stop-color="#A07C2D"/>
</linearGradient>
<linearGradient id="paint14_linear_244_97" x1="11.45" y1="10.01" x2="23.58" y2="27.51" gradientUnits="userSpaceOnUse">
<stop stop-color="#FBF4C1"/>
<stop offset="0.09" stop-color="#E4CF93"/>
<stop offset="0.31" stop-color="#B48030"/>
<stop offset="0.76" stop-color="#FBF4C1"/>
<stop offset="1" stop-color="#A07C2D"/>
</linearGradient>
<linearGradient id="paint15_linear_244_97" x1="13.68" y1="4.74" x2="20.49" y2="28.06" gradientUnits="userSpaceOnUse">
<stop stop-color="#FBF4C1"/>
<stop offset="0.09" stop-color="#E4CF93"/>
<stop offset="0.31" stop-color="#B48030"/>
<stop offset="0.76" stop-color="#FBF4C1"/>
<stop offset="1" stop-color="#A07C2D"/>
</linearGradient>
<linearGradient id="paint16_linear_244_97" x1="16.05" y1="20.91" x2="16.05" y2="19.6" gradientUnits="userSpaceOnUse">
<stop stop-color="#282447" stop-opacity="0"/>
<stop offset="0.32" stop-color="#282447" stop-opacity="0.29"/>
<stop offset="0.69" stop-color="#282447" stop-opacity="0.52"/>
<stop offset="0.97" stop-color="#282447" stop-opacity="0.6"/>
</linearGradient>
<linearGradient id="paint17_linear_244_97" x1="9.72" y1="20.2636" x2="9.72" y2="19.5772" gradientUnits="userSpaceOnUse">
<stop stop-color="#282447" stop-opacity="0"/>
<stop offset="0.32" stop-color="#282447" stop-opacity="0.29"/>
<stop offset="0.69" stop-color="#282447" stop-opacity="0.52"/>
<stop offset="0.97" stop-color="#282447" stop-opacity="0.6"/>
</linearGradient>
<linearGradient id="paint18_linear_244_97" x1="22.38" y1="20.2792" x2="22.38" y2="19.5928" gradientUnits="userSpaceOnUse">
<stop stop-color="#282447" stop-opacity="0"/>
<stop offset="0.32" stop-color="#282447" stop-opacity="0.29"/>
<stop offset="0.69" stop-color="#282447" stop-opacity="0.52"/>
<stop offset="0.97" stop-color="#282447" stop-opacity="0.6"/>
</linearGradient>
<linearGradient id="paint19_linear_244_97" x1="16.06" y1="10.02" x2="14.61" y2="9.46" gradientUnits="userSpaceOnUse">
<stop offset="0.37" stop-color="#282447" stop-opacity="0"/>
<stop offset="0.55" stop-color="#282447" stop-opacity="0.26"/>
<stop offset="0.97" stop-color="#282447" stop-opacity="0.8"/>
</linearGradient>
<linearGradient id="paint20_linear_244_97" x1="9.73219" y1="13.9182" x2="9.6328" y2="12.799" gradientUnits="userSpaceOnUse">
<stop offset="0.37" stop-color="#282447" stop-opacity="0"/>
<stop offset="0.5" stop-color="#282447" stop-opacity="0.26"/>
<stop offset="0.82" stop-color="#282447" stop-opacity="0.8"/>
</linearGradient>
<linearGradient id="paint21_linear_244_97" x1="9.46509" y1="14.9518" x2="8.70425" y2="15.9526" gradientUnits="userSpaceOnUse">
<stop offset="0.37" stop-color="#282447" stop-opacity="0"/>
<stop offset="0.55" stop-color="#282447" stop-opacity="0.26"/>
<stop offset="0.97" stop-color="#282447" stop-opacity="0.8"/>
</linearGradient>
<linearGradient id="paint22_linear_244_97" x1="11.7202" y1="21.8037" x2="10.4288" y2="21.487" gradientUnits="userSpaceOnUse">
<stop offset="0.37" stop-color="#282447" stop-opacity="0"/>
<stop offset="0.52" stop-color="#282447" stop-opacity="0.26"/>
<stop offset="0.89" stop-color="#282447" stop-opacity="0.8"/>
</linearGradient>
<linearGradient id="paint23_linear_244_97" x1="12.4826" y1="22.5112" x2="13.143" y2="23.5215" gradientUnits="userSpaceOnUse">
<stop offset="0.37" stop-color="#282447" stop-opacity="0"/>
<stop offset="0.51" stop-color="#282447" stop-opacity="0.26"/>
<stop offset="0.86" stop-color="#282447" stop-opacity="0.8"/>
</linearGradient>
<linearGradient id="paint24_linear_244_97" x1="16.06" y1="10.08" x2="17.57" y2="9.51" gradientUnits="userSpaceOnUse">
<stop offset="0.37" stop-color="#282447" stop-opacity="0"/>
<stop offset="0.55" stop-color="#282447" stop-opacity="0.26"/>
<stop offset="0.97" stop-color="#282447" stop-opacity="0.8"/>
</linearGradient>
<linearGradient id="paint25_linear_244_97" x1="22.3714" y1="14.0012" x2="22.4708" y2="12.882" gradientUnits="userSpaceOnUse">
<stop offset="0.37" stop-color="#282447" stop-opacity="0"/>
<stop offset="0.53" stop-color="#282447" stop-opacity="0.26"/>
<stop offset="0.9" stop-color="#282447" stop-opacity="0.8"/>
</linearGradient>
<linearGradient id="paint26_linear_244_97" x1="22.6966" y1="15.0212" x2="23.4643" y2="16.0097" gradientUnits="userSpaceOnUse">
<stop offset="0.37" stop-color="#282447" stop-opacity="0"/>
<stop offset="0.52" stop-color="#282447" stop-opacity="0.26"/>
<stop offset="0.89" stop-color="#282447" stop-opacity="0.8"/>
</linearGradient>
<linearGradient id="paint27_linear_244_97" x1="20.5102" y1="21.8014" x2="21.6165" y2="21.5165" gradientUnits="userSpaceOnUse">
<stop offset="0.37" stop-color="#282447" stop-opacity="0"/>
<stop offset="0.53" stop-color="#282447" stop-opacity="0.26"/>
<stop offset="0.9" stop-color="#282447" stop-opacity="0.8"/>
</linearGradient>
<linearGradient id="paint28_linear_244_97" x1="19.6414" y1="22.4612" x2="18.9834" y2="23.4576" gradientUnits="userSpaceOnUse">
<stop offset="0.37" stop-color="#282447" stop-opacity="0"/>
<stop offset="0.51" stop-color="#282447" stop-opacity="0.26"/>
<stop offset="0.86" stop-color="#282447" stop-opacity="0.8"/>
</linearGradient>
<linearGradient id="paint29_linear_244_97" x1="19.06" y1="20.83" x2="12.13" y2="4.3" gradientUnits="userSpaceOnUse">
<stop offset="0.37" stop-color="#B3B3B3" stop-opacity="0"/>
<stop offset="0.52" stop-color="#C9C9C9" stop-opacity="0.18"/>
<stop offset="0.73" stop-color="#E6E6E6" stop-opacity="0.4"/>
<stop offset="0.89" stop-color="#F8F8F8" stop-opacity="0.55"/>
<stop offset="0.97" stop-color="white" stop-opacity="0.6"/>
</linearGradient>
<radialGradient id="paint30_radial_244_97" cx="0" cy="0" r="1" gradientUnits="userSpaceOnUse" gradientTransform="translate(12.5033 4.57144) rotate(-45.27) scale(6 4.26)">
<stop offset="0.03" stop-color="white" stop-opacity="0.6"/>
<stop offset="1" stop-color="#B3B3B3" stop-opacity="0"/>
</radialGradient>
<radialGradient id="paint31_radial_244_97" cx="0" cy="0" r="1" gradientUnits="userSpaceOnUse" gradientTransform="translate(16.0276 19.3849) rotate(26.02) scale(9.41 6.6811)">
<stop offset="0.03" stop-color="white" stop-opacity="0.6"/>
<stop offset="0.72" stop-color="#B3B3B3" stop-opacity="0"/>
</radialGradient>
<linearGradient id="paint32_linear_244_97" x1="15.81" y1="12.19" x2="16.12" y2="25.85" gradientUnits="userSpaceOnUse">
<stop offset="0.14" stop-color="#FFE8C7"/>
<stop offset="0.23" stop-color="#F9E0C1"/>
<stop offset="0.4" stop-color="#EAD1A6"/>
<stop offset="0.77" stop-color="#D0AC9C"/>
</linearGradient>
<linearGradient id="paint33_linear_244_97" x1="6.47" y1="16.6" x2="25.35" y2="16.6" gradientUnits="userSpaceOnUse">
<stop stop-color="#282447"/>
<stop offset="0.16" stop-color="#29354A"/>
<stop offset="0.37" stop-color="#2A464D"/>
<stop offset="0.52" stop-color="#2B4C4F"/>
<stop offset="0.68" stop-color="#2B464D"/>
<stop offset="0.88" stop-color="#2D3549"/>
<stop offset="0.97" stop-color="#2F2B47"/>
</linearGradient>
<linearGradient id="paint34_linear_244_97" x1="15.75" y1="20.64" x2="16.03" y2="12.39" gradientUnits="userSpaceOnUse">
<stop stop-color="#FBF4C1"/>
<stop offset="0.09" stop-color="#E4CF93"/>
<stop offset="0.31" stop-color="#B48030"/>
<stop offset="0.76" stop-color="#FBF4C1"/>
<stop offset="1" stop-color="#A07C2D"/>
</linearGradient>
<linearGradient id="paint35_linear_244_97" x1="15.36" y1="11.09" x2="16.31" y2="20.2" gradientUnits="userSpaceOnUse">
<stop stop-color="#282447"/>
<stop offset="0.16" stop-color="#29354A"/>
<stop offset="0.37" stop-color="#2A464D"/>
<stop offset="0.52" stop-color="#28455C"/>
<stop offset="0.68" stop-color="#293C4D"/>
<stop offset="0.88" stop-color="#2D3549"/>
<stop offset="0.97" stop-color="#2F2B47"/>
</linearGradient>
</defs>
</svg>
