<svg xmlns="http://www.w3.org/2000/svg" xml:space="preserve" viewBox="0 0 32 32"><circle cx="16.05" cy="15.9" r="15.21" fill="#2B2B2B" fill-rule="evenodd" clip-rule="evenodd"/><path fill="#D9D1B4" fill-rule="evenodd" d="m25.31 19.68 3.8-3.8-3.8-3.8V6.7h-5.38l-3.8-3.8-3.81 3.8H6.94v5.38l-3.8 3.8 3.8 3.8v5.38h5.38l3.81 3.8 3.8-3.8h5.38z" clip-rule="evenodd" opacity=".2"/><path fill="#2B2B2B" fill-rule="evenodd" d="M16.05 3.56a12.34 12.34 0 1 0 0 24.68 12.34 12.34 0 0 0 0-24.68zm0 24.36a12.02 12.02 0 1 1 0-24.04 12.02 12.02 0 0 1 0 24.04z" clip-rule="evenodd"/><circle cx="16" cy="15.82" r="15.21" fill="#282828"/><g fill="#151515"><path d="m7.2 3.84.3-.22-.3.22zM27.25 23.66h-1.72l.32-1 1.4 1zm-1.68-1.85-.9-.64 1.44-1.06-.54 1.7zm.81-2.54-2.14 1.58-2.93-2.1-1.28-3.92 4.12-.02 2.97 2.14-.74 2.32zm-5.88-7.08 2.92 2.1-3.56.02-.43-1.33 1.07-.79zm-1.06-1.4.42-1.33 3.5-.02-2.87 2.1-1.05-.75zm.04 4.04 1.11 3.4-2.85-2.05.42-1.35h1.32zm5.55-.02h2.77l-.52 1.62-2.25-1.62zm2.06 3.93.47-1.47.78.55-1.25.92zm3.02-2.22-1.33.98-1.05-.75.62-1.95h1.2l.56 1.72zm-.72-2.24h-.88l.43-1.36.45 1.36zm.12-4.85-.57 1.78-.58-1.78h1.15zm-.84 2.63-.7 2.22-3.66.01-3.37-2.42 3.3-2.43h3.58l.85 2.63zm-1.02-3.15h-2.7l2.18-1.6.52 1.6zm-1.31-4.05.16.5.46 1.43-2.9 2.13-4.03.01 1.25-3.98 2.43-1.79-.45-.31-1.71 1.25-.71.53-3.34 2.45-1.28-3.94.76-2.4h-.55l-.49 1.55-.5-1.52-.53.04.77 2.33-1.28 4.03-3.28-2.36-.9-2.76-.48.22.66 2.02-1.88-1.35-.48.3 2.63 1.9 1.25 3.81-4.22.02L5.1 7.1 5.84 5c-.3.3-.6.61-.88.93l-.3.84-.25-.17-.31.41.38.27-.6 1.69h-.99l-.26.52H3.7l-.62 1.75-.52-1.56-.31.73.54 1.62-.83 2.31h-.67l-.04.53h.53l-.4 1.1-.17-.12v.09c0 .6.04 1.19.1 1.77l.33-.9 1.3.97-1.45 1.07.12.56 1.78-1.3 1.9 1.4.86 2.58-2.25 1.66h-.53c.14.24.3.47.45.7l.25-.18 2.8-.01 1.1 3.3-.26.84.45.3.1-.3.15.46c.22.14.45.28.68.4l-.57-1.7 1.05-3.31 2.11-.01 2.41 1.78-.95 3-1.72 1.28.6.2.86-.63-.26.8.51.12.46-1.45 2.5-1.84 2.48 1.83.44 1.34 1.5-.56-1.5-1.1-.96-2.96 2.52-1.85 1.98-.01 1.15 3.54-.4 1.28 1.13-.73-.18-.55 1.12-3.55 2.61-.02.17-.52L26 22.13l.81-2.55 1.96-1.44 1.84 1.32.06-.6-1.46-1.04 1.06-.78.42 1.31.2-1.08-.18-.56.19-.14-.03-.63-.33.25-.45-1.4h.77l-.03-.52h-.91l-.72-2.2.65-2.04s.02-.42-.08-.64c-.11-.23-.65-.49-.65-.49l-.94.01-.62-1.92.18-.13s-.98-1.74-1.53-2.37m-5.65.98-1.1 3.46h-1.36l-.43-1.33 2.9-2.13zm-4.54 14.4-1.16-3.54 1.08-.8 1.18.86-1.1 3.48zm0 1.71.7 2.13h-1.37l.68-2.13zM15.96 4l1.11 3.41-1.15.85-1.06-.76 1.1-3.5zm-3.42 10.86h1.3l.43 1.28-2.78 2.05 1.05-3.33zm-.38-.52H8.5l2.85-2.09 1.18.85-.4 1.24zm-.76-8.68 2.85 2.04-.4 1.26h-1.37l-1.08-3.3zm.7 3.83.42 1.28-1.15.84-2.94-2.11 3.67-.01zM4.92 7.6 6.8 8.97H4.43l.49-1.36zM4.24 9.5l3.29-.01 3.39 2.43-3.29 2.42H4.1l-.77-2.3.91-2.54zm2.68 5.36-2.13 1.57-.52-1.56h2.65zm-3.87-2.02.5 1.51H2.51l.54-1.5zM1.8 16.31l.51-1.43h1.4l.63 1.87-.97.72L1.8 16.3zm2 1.48.71-.52.47 1.39-1.17-.87zm1.16-.84 2.83-2.09 4.18-.01-1.22 3.85-2.86 2.1-2.18-1.6-.75-2.25zM6 20.05l1.46 1.08-.88.65L6 20.06zm-1.23 3.7 1.54-1.13.38 1.13H4.77zm3.46 2.98-.82-2.46 1.6-.01-.78 2.47zm.95-3-1.94.02-.49-1.45 1.15-.84 1.62 1.2-.34 1.08zm-.84-2.6 2.16-1.58-.82 2.58-1.34-1zm1.38 2.6.24-.75 1.01.75H9.72zm.4-1.27 1.09-3.44 3.22-2.37 1.33 4.08-.94 2.98-2.98.02-1.71-1.27zm2.42 1.78h2.11l-.4 1.26-1.7-1.26zm1.3 4.27.69-2.15 1.12.83-1.8 1.32zm.85-2.68.5-1.6h1.7l.54 1.64-1.35 1-1.39-1.04zm3.6 2.66-1.77-1.3 1.08-.8.69 2.1zm-.42-2.95-.43-1.32h2.24l-1.8 1.32zm2.52-1.85-3.12.01-.96-2.97 1.26-4.03 3.3 2.37 1.12 3.44-1.6 1.18zm.88 0 .89-.66.2.65h-1.09zm1.16-1.5-.85-2.6 2.22 1.59-1.37 1zm.17.51 1.64-1.2 1.17.83-.43 1.34h-2.06l-.32-.97zm.48 1.5h1.74l-.86 2.69-.88-2.7z"/></g><path fill="#262626" d="M16.04.66a15.23 15.23 0 1 0 0 30.46 15.23 15.23 0 0 0 0-30.46zm0 27.15a11.92 11.92 0 1 1 0-23.85 11.92 11.92 0 0 1 0 23.85z"/><g fill="#D9D1B4" fill-rule="evenodd" clip-rule="evenodd"><path d="m6.94 19.68-2.23-2.23c.27 2 1.06 3.84 2.23 5.38v-3.15zM12.32 25.06H9.2a11.36 11.36 0 0 0 5.3 2.17l-2.17-2.17zM25.3 9.18v2.9l2.05 2.04c-.29-1.82-1-3.5-2.04-4.94zM6.94 8.97a11.39 11.39 0 0 0-2.22 5.33l2.22-2.22V8.97zM17.82 4.6l2.1 2.1h2.93a11.39 11.39 0 0 0-5.03-2.1zM25.3 19.68v2.93a11.37 11.37 0 0 0 2.06-4.97l-2.05 2.04zM14.45 4.57a11.38 11.38 0 0 0-5.2 2.13h3.07l2.13-2.13zM19.93 25.06l-2.15 2.15c1.9-.29 3.65-1.05 5.12-2.15h-2.97z"/></g><path fill="#D9D1B4" fill-rule="evenodd" d="M16.05 3.88a12.01 12.01 0 1 0 0 24.03 12.01 12.01 0 0 0 0-24.03zm0 23.82a11.8 11.8 0 1 1 0-23.6 11.8 11.8 0 0 1 0 23.6z" clip-rule="evenodd"/><path fill="#D9D1B4" fill-rule="evenodd" d="M16.05.54a15.36 15.36 0 1 0 0 30.72 15.36 15.36 0 0 0 0-30.73zm0 30.45a15.1 15.1 0 1 1 0-30.18 15.1 15.1 0 0 1 0 30.18z" clip-rule="evenodd"/><path fill="#D9D1B4" d="M10.07 19.7h.66c.46 0 .8.06 1.04.2s.36.34.36.6c0 .2-.06.36-.17.48-.12.12-.29.21-.5.27-.2.05-.44.08-.7.08h-.69V19.7zm.7.34v.94c.22 0 .37-.05.46-.12.1-.07.14-.18.14-.34 0-.1-.02-.18-.05-.24a.34.34 0 0 0-.14-.15.51.51 0 0 0-.18-.07l-.22-.02z"/><path fill="#151515" d="M10.73 19.7c.46 0 .8.06 1.04.2s.36.34.36.6c0 .2-.06.36-.17.48-.12.12-.29.21-.5.27-.2.05-.44.08-.7.08h-.69V19.7h.66m.05 1.28c.21-.01.36-.05.45-.12.1-.07.14-.18.14-.34 0-.1-.02-.18-.05-.24a.34.34 0 0 0-.14-.16.51.51 0 0 0-.18-.06l-.22-.02v.94m-.05-1.48H9.87v2.03H10.78c.26 0 .52-.04.74-.1.25-.06.44-.17.59-.31a.86.86 0 0 0 .23-.62c0-.33-.16-.6-.46-.77a2.31 2.31 0 0 0-1.14-.23zm.24 1.26v-.5c.04 0 .07.01.11.03l.07.07.02.16c0 .1-.02.16-.06.19a.36.36 0 0 1-.14.05z"/><path fill="#D9D1B4" d="M12.6 19.7h.72v1.14c0 .06.03.1.08.13.06.03.13.05.22.05.1 0 .17-.02.23-.05.05-.03.08-.08.08-.14V19.7h.72v1.07c0 .14-.03.26-.1.35s-.19.15-.33.19c-.14.04-.34.06-.6.06-.38 0-.64-.05-.8-.15s-.23-.27-.23-.51V19.7z"/><path fill="#151515" d="M14.65 19.7v1.07c0 .14-.04.26-.11.35s-.18.15-.32.2c-.15.03-.35.05-.6.05-.38 0-.64-.05-.8-.15s-.23-.27-.23-.51V19.7h.73v1.14c0 .06.03.1.08.13s.13.05.22.05c.1 0 .17-.02.23-.05.05-.03.08-.08.08-.14V19.7h.72m.2-.2H13.73v1.3a.3.3 0 0 1-.11.02l-.1-.01V19.5h-1.13v1.2c0 .4.18.59.33.69.18.12.48.18.9.18.27 0 .49-.02.65-.07a.83.83 0 0 0 .42-.26c.1-.12.16-.28.16-.47V19.5z"/><path fill="#D9D1B4" d="M15.29 21.3v-.38c.23.07.41.1.56.1a.5.5 0 0 0 .22-.04c.05-.02.07-.06.07-.1 0-.03-.02-.06-.06-.1a1.23 1.23 0 0 0-.21-.1 2.4 2.4 0 0 1-.54-.27c-.1-.08-.16-.18-.16-.28 0-.14.08-.26.25-.35.17-.08.4-.13.66-.13.2 0 .4.02.6.07v.36a1.97 1.97 0 0 0-.52-.09.55.55 0 0 0-.2.04c-.05.02-.08.05-.08.09 0 .07.12.14.36.23.14.05.28.12.42.21.15.1.22.2.22.32 0 .14-.1.26-.28.35-.2.1-.43.14-.72.14-.2 0-.4-.02-.59-.07z"/><path fill="#151515" d="M16.08 19.65c.2 0 .4.02.6.07v.36a1.97 1.97 0 0 0-.51-.09.55.55 0 0 0-.21.04c-.05.02-.08.05-.08.09 0 .07.12.14.36.23.14.05.28.12.42.21.15.1.22.2.22.32 0 .14-.1.26-.28.35-.19.1-.43.14-.72.14-.2 0-.4-.03-.59-.07v-.38c.23.06.41.1.57.1a.5.5 0 0 0 .2-.04c.06-.02.08-.06.08-.1 0-.03-.02-.06-.06-.1a1.23 1.23 0 0 0-.21-.1 2.4 2.4 0 0 1-.53-.27c-.11-.08-.17-.18-.17-.28 0-.14.09-.26.26-.35.17-.08.38-.13.65-.13m0-.2c-.3 0-.55.06-.74.16-.3.16-.36.37-.36.52 0 .11.04.28.24.44.1.07.24.15.43.24-.09-.02-.19-.04-.3-.08l-.25-.07v.79l.14.04c.21.05.43.08.64.08.32 0 .59-.06.8-.16.33-.16.4-.38.4-.53 0-.13-.06-.32-.31-.48-.1-.07-.21-.12-.32-.17l.18.04.24.07v-.78l-.15-.03a2.78 2.78 0 0 0-.64-.07z"/><path fill="#D9D1B4" d="M17.15 19.7h1.7v.37h-.5v1.26h-.71v-1.26h-.49v-.37z"/><path fill="#151515" d="M18.84 19.7v.37h-.49v1.26h-.71v-1.26h-.49v-.37h1.7m.19-.2h-2.09v.77h.5v1.26H18.54v-1.27h.49v-.76z"/><path fill="#D9D1B4" d="M11.24 16.64c.12-.11-.05-.27-.1-.38-.05-.12-.25-.34-.42-.74a3.73 3.73 0 0 1-.22-1.15c.32.41.46 1.38.46 1.37a2.77 2.77 0 0 0-.65-1.98c-.13.87.08 1.3.37 1.92-.25-.38-.4-.65-.66-1.18l.02-.2c0-.06.02-.05.03-.07l.03-.03c.09-.04.11-.12.08-.19s-.16-.14-.25-.1c-.08.03-.09.15-.09.2l-.08-.2a5.62 5.62 0 0 1-.05-1.71c.21.47.27 1.33.27 1.32.11-.72-.04-1.3-.33-1.98-.21.65-.2 1.46-.03 2.12-.19-.5-.27-.86-.39-1.4.01-.06.04-.17.06-.2.02-.06.02-.05.04-.07l.03-.02c.1-.03.12-.17.1-.25 0-.08-.1-.12-.19-.09-.07.03-.12.14-.13.2l-.02-.08c.02-.61.08-1.26.3-1.83.1.52-.02 1.42-.02 1.41.25-.67.3-1.4.1-2.1-.38.66-.49 1.52-.46 2.27-.11-1-.18-2.07-.11-2.95.02-.26-.2-.26-.23.02-.1.86-.04 2.05.1 3.04l.02.1c-.44-.38-.65-.83-.61-1.54.08.09.34.66.34.66s-.18-1-.4-1.37a2.64 2.64 0 0 0 0 1.63c.25.53.55.61.68.68v.03l.04.15c-.03-.07-.12-.15-.2-.13-.1.03-.16.12-.15.2.02.09.13.14.21.16.05 0 .17.11.22.17.15.66.25.98.5 1.6v.01c-.5-.27-.85-.77-.93-1.34.1.06.48.56.48.56s-.38-.9-.7-1.22c-.12.66.1 1.2.33 1.53.3.42.7.49.85.53v.03h.01l.1.21c-.04-.05-.17-.11-.25-.08-.09.04-.1.18-.07.26.04.07.13.06.23.06.04 0 .2.08.26.12.28.57.44.85.8 1.37.03.03-.96-.5-1.19-1.05.12.05.61.46.61.46s-.58-.8-.97-1.04c0 .52.45 1.1.8 1.33.25.15.88.45 1.06.68.15.2.28.35.37.27z"/><path fill="#151515" d="M8.83 8.36c.06 0 .1.06.1.19-.07.88 0 1.94.11 2.95-.03-.74.08-1.6.47-2.27.2.7.14 1.43-.1 2.1 0 0 .12-.89.02-1.4a5.4 5.4 0 0 0-.3 1.83l.01.08c.01-.06.06-.18.13-.2l.07-.01c.06 0 .12.03.13.1.02.07-.01.2-.1.24-.02 0-.03.02-.04.03-.02.01-.02 0-.04.06-.02.03-.04.14-.06.2.13.54.2.9.4 1.4a3.89 3.89 0 0 1 .03-2.12c.28.68.44 1.26.32 1.99 0 0-.05-.86-.27-1.33-.08.57-.04 1.16.05 1.72l.09.2c0-.06 0-.17.08-.2.02-.02.04-.02.06-.02.08 0 .17.05.2.11.02.07 0 .15-.09.2l-.03.03c-.01.01-.02 0-.03.06l-.01.2c.26.53.4.8.65 1.18a2.9 2.9 0 0 1-.37-1.92c.47.53.68 1.25.65 1.98 0 0-.14-.96-.45-1.37 0 0 .01.69.21 1.15.18.4.37.62.42.74.05.11.23.27.1.38a.08.08 0 0 1-.05.02c-.08 0-.2-.13-.32-.28-.18-.24-.81-.54-1.06-.7-.35-.21-.8-.8-.8-1.32.39.25.97 1.04.97 1.04s-.5-.4-.61-.45c.22.53 1.16 1.04 1.2 1.04a8.6 8.6 0 0 1-.81-1.36.86.86 0 0 0-.26-.13h-.1c-.05 0-.1 0-.13-.06-.03-.07-.02-.21.07-.26h.06c.07 0 .15.04.19.08l-.1-.21-.01-.02c-.15-.05-.55-.12-.85-.54a2.02 2.02 0 0 1-.33-1.53c.31.32.7 1.22.7 1.22s-.39-.5-.48-.56c.08.57.43 1.07.94 1.34a8.64 8.64 0 0 1-.51-1.61.79.79 0 0 0-.22-.17c-.09-.02-.2-.07-.21-.15-.01-.09.05-.18.14-.2h.03c.08 0 .15.06.18.12l-.03-.15-.01-.02c-.13-.07-.43-.16-.69-.68a2.64 2.64 0 0 1 0-1.63c.23.37.4 1.37.4 1.37s-.25-.58-.33-.66c-.04.7.17 1.15.61 1.53l-.01-.1c-.16-.99-.2-2.17-.12-3.03.02-.15.09-.22.14-.22m0-.2c-.14 0-.3.12-.33.4-.03.33-.05.72-.04 1.13l-.15-.33-.18-.28-.16.29a2.78 2.78 0 0 0 0 1.81c.14.3.3.47.45.58l-.02.03-.23-.23-.06.37c-.15.78.16 1.38.36 1.67.2.29.46.44.66.52a.31.31 0 0 0-.04.06L8.81 14v.36c0 .58.47 1.23.9 1.5l.26.15c.25.13.63.34.74.49.17.2.3.35.48.35.07 0 .13-.02.19-.07.21-.19.04-.44-.02-.53a.58.58 0 0 1-.04-.07 6.94 6.94 0 0 1-.17-.28v-.15a2.96 2.96 0 0 0-.7-2.12l-.25-.29c.06-.67-.1-1.25-.37-1.88l-.15-.36a3.6 3.6 0 0 0 .02-1.93l-.13-.44-.23.4c-.1.16-.18.34-.24.52-.01-.4 0-.77.02-1.09.01-.16-.04-.26-.09-.3a.27.27 0 0 0-.2-.1z"/><path fill="#D9D1B4" d="M21.11 16.36c.2-.24.82-.54 1.06-.69.35-.22.8-.8.8-1.32-.38.24-.97 1.04-.97 1.04s.5-.42.62-.46c-.23.55-1.22 1.07-1.2 1.04.36-.52.53-.8.8-1.36a.87.87 0 0 1 .27-.13c.1 0 .19.02.22-.06s.02-.21-.07-.25c-.08-.04-.2.02-.24.08l.1-.22V14c.16-.05.56-.12.85-.54.23-.33.46-.87.34-1.52-.32.31-.7 1.22-.7 1.22s.38-.5.48-.57a1.83 1.83 0 0 1-.94 1.35v-.01c.25-.62.35-.94.5-1.6a.74.74 0 0 1 .22-.18c.1-.01.2-.07.22-.15.01-.08-.05-.17-.15-.2-.08-.03-.17.06-.2.12l.03-.15v-.02c.14-.07.43-.16.7-.68.18-.37.15-1.35 0-1.63-.24.37-.41 1.37-.41 1.37s.26-.58.34-.66c.04.7-.18 1.15-.62 1.53l.02-.1c.15-.99.2-2.17.11-3.03-.03-.29-.25-.28-.23-.03.07.88 0 1.95-.11 2.95.03-.74-.08-1.6-.47-2.27-.2.7-.14 1.43.1 2.1 0 .01-.12-.88-.02-1.4.23.57.29 1.21.3 1.83l-.01.08c-.01-.06-.06-.18-.14-.2-.09-.03-.18 0-.19.08-.02.08.01.22.1.25.02 0 .03.02.04.03.02.01.02 0 .04.06.02.03.04.14.06.2-.13.54-.2.9-.4 1.4a3.9 3.9 0 0 0-.03-2.12 3.41 3.41 0 0 0-.32 1.99s.05-.86.27-1.33c.09.56.04 1.16-.05 1.72l-.09.2c0-.06 0-.17-.08-.2-.09-.05-.22.02-.25.1-.03.06-.01.14.08.19l.03.03c.01.01.02 0 .03.06l.01.2c-.26.53-.4.8-.65 1.18.3-.62.5-1.05.37-1.92a2.77 2.77 0 0 0-.65 1.98s.14-.96.45-1.37c0 0-.01.69-.21 1.15-.17.4-.37.62-.42.74-.05.1-.23.27-.1.38.08.08.22-.07.36-.26z"/><path fill="#151515" d="M23.15 8.34c.06 0 .12.07.14.22.09.86.04 2.04-.12 3.03v.1c.43-.37.64-.83.6-1.53-.08.08-.34.66-.34.66s.18-1 .41-1.37c.16.28.18 1.26 0 1.63-.26.52-.56.6-.69.68v.02l-.03.15c.02-.05.1-.13.17-.13h.03c.1.04.16.13.14.21-.02.08-.12.14-.21.15a.78.78 0 0 0-.22.17 8.74 8.74 0 0 1-.5 1.6v.02c.5-.28.85-.77.94-1.35-.1.07-.49.57-.49.57s.39-.9.7-1.22c.12.65-.1 1.19-.33 1.52-.3.42-.7.5-.85.54v.02h-.01l-.1.22c.04-.05.12-.1.2-.1l.05.01c.1.05.1.19.07.26-.02.05-.08.06-.13.06h-.1c-.04 0-.19.08-.25.13a8.7 8.7 0 0 1-.81 1.36c.03 0 .97-.5 1.2-1.04-.12.04-.62.46-.62.46s.58-.8.97-1.04c0 .52-.45 1.1-.8 1.32-.24.15-.87.45-1.06.69-.12.15-.23.28-.32.28-.02 0-.04 0-.05-.02-.12-.1.05-.27.1-.38.05-.11.25-.33.42-.74.2-.46.22-1.15.22-1.15-.32.41-.46 1.37-.46 1.37-.03-.73.18-1.45.65-1.98a2.9 2.9 0 0 1-.37 1.93c.25-.39.4-.65.66-1.18l-.02-.2c0-.06-.02-.05-.03-.07l-.03-.03c-.09-.04-.11-.12-.08-.2.02-.05.11-.1.2-.1h.05c.08.04.09.15.08.22l.1-.2c.08-.57.13-1.16.04-1.73-.21.48-.27 1.33-.27 1.33-.11-.73.04-1.3.33-1.99.21.66.2 1.47.03 2.13.19-.51.27-.86.4-1.4l-.07-.2c-.02-.06-.02-.05-.04-.07l-.03-.03c-.1-.03-.12-.16-.1-.24 0-.06.06-.1.13-.1l.06.01c.07.02.12.14.13.2l.02-.08a5.37 5.37 0 0 0-.3-1.83c-.1.52.02 1.41.02 1.41-.25-.67-.3-1.4-.1-2.1.38.66.49 1.52.46 2.27.11-1 .18-2.07.12-2.95-.01-.13.04-.2.09-.2m0-.2a.27.27 0 0 0-.2.1c-.04.05-.1.14-.09.3.03.33.03.69.02 1.09a3.12 3.12 0 0 0-.24-.52l-.23-.4-.12.45c-.18.61-.17 1.27.01 1.92l-.15.37c-.26.63-.43 1.2-.36 1.87l-.26.29c-.48.54-.73 1.3-.7 2.12v.16l-.05.08c-.05.08-.09.14-.11.2l-.04.06c-.07.1-.23.34-.02.54.05.04.12.07.19.07.17 0 .3-.16.47-.36.11-.14.49-.35.74-.5l.27-.14c.42-.27.89-.91.9-1.5V14l-.29.18-.03-.07c.2-.08.45-.22.65-.52.2-.29.51-.88.37-1.67l-.07-.36-.22.22-.02-.03c.14-.1.3-.28.45-.58.21-.43.18-1.48 0-1.8l-.17-.3-.17.28c-.06.1-.1.2-.15.33 0-.4-.01-.8-.05-1.13-.03-.27-.18-.4-.33-.4z"/><path fill="#D9D1B4" fill-rule="evenodd" d="m15.18 12.45.81-.56.81.56-.26-.96.76-.58-.97-.06-.34-.89-.34.89-.97.06.76.58z" clip-rule="evenodd"/><path fill="#151515" d="m15.99 9.96.34.89.97.06-.76.58.26.96-.81-.56-.81.56.26-.96-.76-.58.97-.06.34-.9m0-.54-.18.48-.3.77-.85.05-.52.04.42.31.65.5-.22.84-.14.51.44-.3.7-.48.7.48.43.3-.14-.51-.22-.83.65-.5.42-.32-.52-.04-.85-.05-.3-.77L16 9.4z"/><path fill="#D9D1B4" fill-rule="evenodd" d="m12.3 14.7-.06.37h7.49l-.06-.37z" clip-rule="evenodd"/><path fill="#151515" d="m19.67 14.7.06.37h-7.5l.07-.37h7.37m.16-.2h-7.69l-.03.17-.06.37-.04.22h7.95l-.04-.22-.06-.37-.03-.16z"/><path fill="#D9D1B4" fill-rule="evenodd" d="M19.9 10.59c-.71.6-.89 1.56-.89 1.56s.81.76.43 1.41c-.31.54-1.23.52-1.34-.46.14 0 .25-.12.25-.26a.26.26 0 0 0-.53 0c0 .08.04.16.1.2-.77.65-1.6.16-1.48-.47l-.45-.32-.45.32c.12.64-.72 1.13-1.5.47.05-.05.09-.12.09-.2a.26.26 0 1 0-.26.26c-.11.98-1.02 1-1.34.46-.38-.65.43-1.41.43-1.41s-.18-.96-.9-1.56c-.68-.57-1.38-.38-1.38-.38s.52.44 1.1 1.6c.63 1.26.52 2.7.52 2.7h7.37s-.1-1.44.53-2.7c.57-1.16 1.1-1.6 1.1-1.6s-.7-.2-1.4.38z" clip-rule="evenodd"/><path fill="#151515" d="M21 10.18c.18 0 .3.03.3.03s-.53.44-1.1 1.6c-.63 1.26-.53 2.7-.53 2.7H12.3s.1-1.44-.52-2.7c-.58-1.16-1.1-1.6-1.1-1.6s.12-.03.3-.03c.26 0 .68.07 1.09.41.72.6.9 1.56.9 1.56s-.82.76-.44 1.41a.7.7 0 0 0 .6.35c.34 0 .68-.24.75-.81h-.01a.26.26 0 1 1 .17-.06c.26.22.53.31.76.31.47 0 .82-.36.74-.78l.45-.32.45.31c-.08.43.26.8.73.8.23 0 .5-.1.76-.31a.26.26 0 1 1 .17.05c.07.57.4.81.74.81a.7.7 0 0 0 .6-.35c.38-.65-.43-1.42-.43-1.42s.18-.95.9-1.55c.4-.34.82-.41 1.09-.41m0-.2c-.3 0-.76.08-1.22.46a3.16 3.16 0 0 0-.96 1.67l-.02.1.08.08s.69.67.4 1.18a.5.5 0 0 1-.44.25c-.2 0-.43-.13-.52-.49a.46.46 0 0 0-.24-.85.46.46 0 0 0-.42.62.92.92 0 0 1-.49.16.57.57 0 0 1-.45-.2.43.43 0 0 1-.1-.36l.03-.12-.1-.07-.45-.31-.11-.08-.11.07-.45.32-.1.07.02.12c.02.13-.01.26-.1.37-.1.12-.26.19-.45.19a.93.93 0 0 1-.5-.17l.02-.15a.46.46 0 1 0-.67.4c-.1.35-.32.48-.51.48a.51.51 0 0 1-.44-.25c-.3-.51.39-1.17.4-1.18l.07-.07-.02-.11c0-.04-.2-1.03-.96-1.67a1.87 1.87 0 0 0-1.22-.46c-.2 0-.33.04-.34.04l-.36.1.28.24s.5.44 1.05 1.53c.6 1.2.5 2.6.5 2.6v.22H19.86v-.21c-.01-.02-.1-1.41.5-2.6.55-1.11 1.04-1.53 1.05-1.54l.28-.24-.36-.1c-.01 0-.14-.04-.34-.04z"/><path fill="#6CAA4A" fill-rule="evenodd" d="m16 10.6.18.46.51.04-.4.3.14.5-.43-.29-.42.29.14-.5-.4-.3.51-.04z" clip-rule="evenodd"/><path fill="#D9D1B4" d="M18.95 30.23a.3.3 0 0 0-.02.05v.11l.03-.01.02-.11a.27.27 0 0 0-.03-.04zM19.22 30.01a.3.3 0 0 0-.06.03l.03.02.03-.01V30zM18.64 30.14a.64.64 0 0 0-.1.18h.02a.72.72 0 0 1 .05-.08.61.61 0 0 1 .07-.1h-.04zM19.05 29.83l-.22.13h.06l.19-.1-.03-.03zM20.77 29.55a.95.95 0 0 0-.1.07l.02.02a.57.57 0 0 1 .08-.05v-.04zM20.5 29.86a.2.2 0 0 0 0 .07l.04-.01v-.02a.2.2 0 0 0-.04-.04zM20.35 29.57h.05c.11-.09.24-.15.35-.2l-.02-.02c-.17.07-.3.14-.38.22zM20.2 29.77l-.02.04h.02l.02-.04h-.02zM21.98 29.36l.03-.01v-.04a.21.21 0 0 0-.05-.03c0 .03 0 .05.02.08zM22.2 28.94l-.1.08h.03a.76.76 0 0 1 .07-.05v-.03zM21.78 29h.06c.07-.08.17-.15.25-.2l-.02-.02c-.12.08-.22.15-.29.23zM21.64 29.23a.62.62 0 0 0-.03.1h.03a.3.3 0 0 1 .02-.05l.02-.06h-.04zM23.36 28.5v.06l.02.04.04-.02s-.02-.03-.02-.09a.45.45 0 0 0-.04-.02v.04zM23.54 28.18l-.02.02-.02.02a.2.2 0 0 1 .04 0h.01l-.01-.04zM23.03 28.5a.58.58 0 0 0-.02.16h.02l.04-.16v-.02l-.04.02zM23.38 28.06l-.03-.03-.2.23.07-.02.16-.18zM24.89 27.22l-.05.06h.04l.02-.03-.01-.03zM24.75 27.66c.02 0 .03-.02.03-.02l-.02-.06-.05-.02c0 .04.02.07.04.1zM24.4 27.6h-.03a.6.6 0 0 0-.01.14h.02v-.03l.03-.12zM24.68 27.1c-.09.1-.15.17-.2.25l.06-.02c.05-.07.1-.14.17-.2l-.03-.03zM26.13 26.14a1.2 1.2 0 0 0-.04.05h.04l.01-.02s0-.02-.02-.03zM26.05 26.6l.04-.03s-.04-.04-.05-.1h-.03c0 .05.02.1.04.12zM25.96 26c-.1.13-.18.24-.23.35l.07-.04c.05-.1.1-.2.19-.28l-.03-.03zM25.71 26.57a.54.54 0 0 0-.03.02v.07h.03v-.09zM27.24 25.36c.02 0 .03-.03.03-.03l-.03-.05a.26.26 0 0 0-.05 0 .3.3 0 0 0 .05.08zM27.25 24.89l-.04.09a.2.2 0 0 1 .04 0l.02-.07-.02-.02zM26.9 25.12a.72.72 0 0 1 .05-.04c.04-.08.08-.17.13-.24a.36.36 0 0 0-.04-.02l-.14.3zM26.86 25.38l.02.13h.03l-.01-.1v-.06l-.04.03zM28.18 23.6l-.02.03.04-.01-.02-.03zM28.14 23.92c.02.06.06.1.09.12.02-.01.02-.03.02-.03s-.04-.02-.07-.1a.2.2 0 0 0-.04.01zM27.87 24.2l.03-.02a.67.67 0 0 1-.02-.12l-.03.03.02.1zM27.98 23.5c-.06.12-.1.22-.12.32l.05-.05v-.01c.03-.07.05-.15.1-.22v-.03l-.03-.02zM29.05 22.61h.01c.02 0 .02-.02.02-.02s-.04-.03-.08-.09h-.04c.02.05.05.08.09.11zM28.96 22.17l-.02.05a.2.2 0 0 1 .04-.02v-.01l-.02-.02zM28.72 22.81l.02-.01a.71.71 0 0 1-.03-.13.24.24 0 0 0-.03.04l.04.1zM28.67 22.44l.05-.05c.01-.1.04-.2.07-.28h-.03c-.05.12-.08.23-.1.33zM29.62 20.62l-.02.1.03-.02.02-.06-.03-.02zM29.74 21.06l.02-.03-.04-.03h-.05l.07.06zM29.43 21.25l.02-.01a.42.42 0 0 1-.02-.06l-.03.03.03.04zM29.34 20.96a2 2 0 0 1 .05-.05v-.13l.05-.23h-.03c-.05.16-.07.3-.07.4zM30.1 19.08l-.03-.01v.1l.03-.02v-.07zM30.26 19.5l.01-.04-.04-.02-.05.01a.3.3 0 0 0 .08.05zM29.93 19.68l.05.08.02-.02v-.01a.57.57 0 0 1-.05-.08l-.02.03zM29.88 19.06h-.04v.38l.04-.06v-.32zM30.58 17.89h.01v-.04s-.04 0-.09-.05l-.03.02c.04.04.08.06.11.07zM30.35 17.5v.05l.04-.02v-.02l-.04-.01zM30.13 17.51c0 .14 0 .25.03.34l.03-.06a1.34 1.34 0 0 1-.03-.28h-.03zM30.34 18.19l.02-.02a.6.6 0 0 1-.07-.11l-.02.04.07.09zM30.71 16.2l.01-.04-.02-.01a.33.33 0 0 0-.05.02l.07.02zM30.5 15.9a.6.6 0 0 1-.03-.09h-.03l.03.12.02-.02zM30.22 15.85c.02.16.05.28.09.39l.02-.06c-.04-.1-.06-.22-.07-.34h-.04zM30.45 16.45l.05.05.02-.02-.06-.06v.03zM30.35 14.25v.02h.01v.03l.03-.03v-.02h-.04zM30.66 14.57h.01v-.03s-.05 0-.1-.03c-.02 0-.02.02-.03.03.03.02.07.03.12.03zM30.41 14.84l.08.06.01-.02-.01-.02a.59.59 0 0 1-.07-.06v.04zM30.13 14.28c.04.14.07.25.12.35l.01-.06a1.44 1.44 0 0 1-.1-.3l-.03.01zM30.08 12.64l.04.08.01-.03a.51.51 0 0 1-.02-.05h-.03zM30.3 12.94c.05.02.1.02.13.02v-.04l-.1-.02-.02.04zM29.87 12.73c.05.14.1.25.16.34v-.06c-.05-.09-.1-.19-.13-.3l-.03.02zM30.29 13.3v-.02a.6.6 0 0 1-.07-.06v.04a.9.9 0 0 0 .07.04zM29.94 11.35h.08v-.05l-.05.01a.23.23 0 0 0-.03.04zM29.64 11.1a.75.75 0 0 0 .06.08l.01-.03a.99.99 0 0 1-.04-.06h-.03zM29.43 11.18c.07.15.14.26.22.34v-.07a1.33 1.33 0 0 1-.18-.29l-.04.02zM29.92 11.7v-.02a.68.68 0 0 1-.07-.05v.04l.07.03zM29.03 9.63l.01.01.06.06v-.03a.58.58 0 0 1-.04-.05h-.03zM29.44 9.83l.02-.01-.01-.03-.06.01-.04.04h.09zM29.3 10.17c.06.03.13.04.2.05v-.03h-.06a.42.42 0 0 1-.14-.05v.03zM28.9 9.83c.06.08.12.15.18.2v-.05a1.58 1.58 0 0 1-.16-.17l-.03.02zM28.66 8.39l-.01-.04s-.04.02-.1.02v.04c.05 0 .09 0 .11-.02zM28.24 8.22l.05.04v-.03l-.01-.02h-.04zM28.63 8.76v-.03a.5.5 0 0 1-.07-.02v.04l.07.01zM28.33 8.63l-.02-.07a1.44 1.44 0 0 1-.23-.24l-.02.02c.1.13.18.22.27.3zM27.27 6.93l.06.05v-.04l-.03-.02-.03.01zM27.7 7.06l.03-.02c0-.02-.02-.03-.02-.03s-.03.02-.1.03l-.01.04c.04 0 .08 0 .1-.02zM27.43 7.35l-.02-.05a1.46 1.46 0 0 1-.22-.19l-.02.03c.1.1.18.16.26.2zM27.69 7.45h.11v-.02l-.05-.01h-.08l.02.03zM29.3 10.75v-.03l-.03.03s.03.13-.04.34a.6.6 0 0 0 .06-.31l.03-.01v-.05l-.02.03zM29.16 11.27v.03l.02-.03v.03l.07-.14-.02-.05-.07.16zM29.16 20.44l-.02.03.04-.02-.02.03.1-.06.03-.05a.94.94 0 0 1-.13.07zM29.58 20.12l.01-.02-.04.01s-.05.12-.25.25c.1-.05.18-.12.24-.2h.04l.03-.05-.03.01zM25.23 26.73l.02-.01h-.05a.9.9 0 0 1-.5.07l-.03.02h.04l-.03.02h.08c.12.01.24 0 .34-.05l.02.02a.52.52 0 0 0 .14-.06h-.03zM21.11 29.23h.02c0-.02-.03-.03-.03-.03s-.12.03-.34-.04c.1.05.2.07.3.06v.03a.3.3 0 0 0 .07 0c0-.02-.01-.02-.02-.02zM20.6 29.1h-.04l.04.02h-.04l.12.06.06-.02-.15-.06zM6.6 6.31l.08-.08-.19-.2-.04-.14c-.07-.03-.23.06-.3.12.01.1.03.18.09.27l.05.04-.09.09a19.75 19.75 0 0 0 .2.2c.07.07.07.18.05.27.1-.06.2-.13.29-.21 0-.1-.03-.22-.09-.3a1.22 1.22 0 0 0-.05-.06zM7.8 5.27l.1-.07-.17-.22c-.02-.04-.02-.14-.03-.15-.06-.04-.23.04-.3.09-.01.1 0 .18.05.27l.04.06-.1.07a22.43 22.43 0 0 1 .19.22c.05.08.04.19.01.27.11-.04.21-.1.31-.16.02-.11 0-.22-.05-.32l-.05-.06zM7.46 6.46s-.04.08-.05.14c-.02.05 0 .12 0 .12s.04 0 .1.07l.22-.2c-.08-.15.03-.3.14-.4.11-.09.23-.14.38-.09l.02.03h.01l.24-.18v-.01c-.17-.23.13-.56.3-.7H8.8a.93.93 0 0 1-.34.04.9.9 0 0 0-.28.59.9.9 0 0 0-.43.2.88.88 0 0 0-.28.4l-.03-.01zM9.03 4.1c-.01-.04 0-.14 0-.14-.06-.05-.24 0-.32.04-.02.1 0 .18.03.29l.03.05-.1.07.1.17s.02.01.05.07c.05.08.03.19-.01.27.11-.03.22-.08.32-.13a.47.47 0 0 0-.02-.32.83.83 0 0 0-.03-.06l.1-.06-.15-.25z"/><path fill="#D9D1B4" d="m8.62 5.56-.02-.01s-.05.07-.06.13c-.02.05-.02.12-.02.12s.04.01.1.08l.24-.17c-.06-.16.06-.3.18-.38.11-.07.27-.13.39-.04l.01.03.01-.01h.01l.25-.15c-.14-.25.18-.55.37-.67 0 0 0-.01 0 0a.9.9 0 0 1-.35 0 .93.93 0 0 0-.34.55.9.9 0 0 0-.44.15.88.88 0 0 0-.33.37zM10.42 3.23c-.04-.05-.23-.02-.3.01a.54.54 0 0 0-.01.29l.02.06-.1.05.09.19.03.07c.04.09 0 .2-.04.27.11-.02.22-.05.33-.1a.5.5 0 0 0 .02-.32l-.03-.06.1-.05-.11-.26v-.15z"/><path fill="#D9D1B4" d="m9.86 4.79-.02-.02s-.06.07-.08.12c-.03.06-.03.12-.03.12s.04.02.08.1l.26-.15c-.04-.16.1-.29.23-.35.11-.06.27-.1.38 0l.01.03h.01l.28-.12V4.5c-.11-.26.23-.52.43-.62v-.01c-.12 0-.23 0-.34-.04a.93.93 0 0 0-.4.52.87.87 0 0 0-.45.1.84.84 0 0 0-.36.33zM11.91 2.8l.03-.15c-.04-.06-.23-.05-.31-.03a.53.53 0 0 0-.04.29l.02.06-.11.04.06.2.03.08c.03.09-.02.19-.07.26.12 0 .23-.02.34-.05a.5.5 0 0 0 .05-.32l-.02-.07.1-.04-.08-.27z"/><path fill="#D9D1B4" d="m11.2 4.14-.02-.02-.1.11c-.03.05-.03.12-.03.12s.04.02.07.1l.27-.11c-.02-.17.12-.27.26-.33.12-.04.29-.06.38.05l.01.03h.01l.29-.09c-.08-.28.29-.5.5-.57v-.01a.86.86 0 0 1-.33-.08.9.9 0 0 0-.46.47.94.94 0 0 0-.45.04.84.84 0 0 0-.4.3zM13.45 2.26c-.03-.06-.21-.07-.3-.06a.55.55 0 0 0-.07.28l.01.07c-.04 0-.07.01-.11.03l.04.2.02.08c.02.1-.04.2-.1.26.12 0 .23 0 .34-.02.07-.09.1-.2.09-.31l-.01-.08.1-.02-.05-.28c0-.04.05-.14.04-.15z"/><path fill="#D9D1B4" d="M12.54 3.65s-.07.05-.1.1c-.04.05-.06.11-.06.11s.04.03.06.1l.29-.07c-.01-.17.15-.26.29-.3.13-.03.29-.03.37.1v.03h.02l.29-.06c-.05-.29.34-.46.56-.51v-.02a.91.91 0 0 1-.32-.11.9.9 0 0 0-.5.42.87.87 0 0 0-.88.23l-.02-.02zM14.71 1.96a.45.45 0 0 0-.1.27v.07l-.11.01.02.21v.08c.01.1-.05.19-.12.24.11.03.22.03.34.03a.5.5 0 0 0 .12-.3V2.5l.11-.01-.02-.29c0-.05.06-.13.06-.14-.03-.07-.21-.1-.3-.1z"/><path fill="#D9D1B4" d="M13.94 3.33s-.07.04-.11.09l-.07.1s.03.03.05.12l.29-.05c.01-.16.18-.24.32-.26.13-.01.3 0 .36.13v.04h.02l.3-.02h-.01c-.01-.3.4-.42.62-.44v-.02a1 1 0 0 1-.3-.15.89.89 0 0 0-.55.35.89.89 0 0 0-.9.13l-.02-.02zM16.56 2.18l.08-.13c-.02-.07-.2-.13-.29-.14a.44.44 0 0 0-.13.26v.06h-.12v.3c-.02.1-.1.17-.17.22.11.04.23.06.34.07a.5.5 0 0 0 .16-.28v-.08h.12l.01-.28z"/><path fill="#D9D1B4" d="M15.42 3.18s-.08.03-.12.07l-.08.1s.03.03.03.12l.3-.01c.03-.17.2-.22.35-.22.14 0 .3.03.35.17v.04l.3.01c.03-.29.45-.36.67-.36.02 0 .02 0 0-.01a.98.98 0 0 1-.28-.2.9.9 0 0 0-.59.3.88.88 0 0 0-.92.02l-.01-.03zM18.13 2.34c.01-.04.09-.11.08-.13-.01-.07-.18-.14-.27-.16a.46.46 0 0 0-.16.24l-.01.07-.12-.02c0 .07-.02.14-.03.2v.1c-.03.09-.1.16-.2.2.11.05.22.08.34.1a.5.5 0 0 0 .19-.26l.01-.07.12.01.05-.28z"/><path fill="#D9D1B4" d="M16.87 3.2s-.09.03-.13.06l-.1.09s.03.03.03.12l.3.02c.04-.16.23-.2.37-.17.13.01.29.07.32.2v.04h.01v.01l.3.05V3.6c.05-.28.48-.31.7-.29.02 0 .02 0 0 0a.96.96 0 0 1-.26-.23.93.93 0 0 0-.62.22.9.9 0 0 0-.92-.09V3.2zM19.66 2.67c.02-.04.1-.1.1-.12 0-.07-.16-.16-.25-.19a.44.44 0 0 0-.19.22c0 .03 0 .04-.02.07l-.11-.03-.05.2-.03.09c-.02.09-.11.15-.2.18.1.06.2.1.32.14.1-.05.17-.14.22-.24 0-.03 0-.05.02-.08l.1.03.09-.27z"/><path fill="#D9D1B4" d="M18.31 3.42v-.03s-.09.01-.14.04c-.06.03-.1.08-.1.08s.02.04 0 .12l.3.06c.06-.16.25-.17.4-.13.12.02.27.1.29.24l-.01.03h.01v.02l.29.07c.09-.28.52-.26.74-.21V3.7a1 1 0 0 1-.23-.25.93.93 0 0 0-.65.15.86.86 0 0 0-.4-.22.92.92 0 0 0-.5.04zM20.97 3.4l.11.05.11-.26c.03-.04.12-.1.12-.1 0-.08-.14-.2-.23-.23a.46.46 0 0 0-.21.2l-.03.06-.11-.04-.08.2-.03.08c-.03.08-.13.13-.22.15.09.08.19.13.3.18.1-.04.19-.12.24-.21l.03-.07z"/><path fill="#D9D1B4" d="M19.77 3.77v-.03l-.15.03c-.05.02-.1.07-.1.07s.01.04-.02.12c.1.03.2.06.28.1.1-.15.28-.15.42-.1.12.05.26.13.26.28l-.01.03h.01v.02l.28.1c.12-.27.55-.2.76-.12v-.01a.95.95 0 0 1-.2-.27.9.9 0 0 0-.66.07.9.9 0 0 0-.88-.29zM22.33 4.12l.04-.07.1.06.14-.26.13-.08c.01-.07-.12-.2-.2-.25a.46.46 0 0 0-.23.17l-.04.06-.1-.05-.1.19-.04.07c-.05.08-.15.12-.25.13.09.08.18.15.28.21.1-.03.2-.1.27-.18z"/><path fill="#D9D1B4" d="M21.13 4.28v-.03l-.15.01c-.05.01-.12.05-.12.05s.02.04-.02.13l.27.11c.1-.13.3-.1.42-.04.12.06.25.16.24.3l-.02.04v.01l.27.14c.15-.25.57-.13.77-.03.01 0 .02 0 0-.02a1.04 1.04 0 0 1-.16-.29.9.9 0 0 0-.67 0 .85.85 0 0 0-.35-.3.92.92 0 0 0-.48-.08zM23.68 4.85l.1.07.17-.23c.03-.04.13-.07.13-.08.03-.07-.1-.21-.16-.27a.46.46 0 0 0-.26.15l-.04.05a5.86 5.86 0 0 0-.1-.06l-.12.17-.05.07c-.06.08-.16.1-.26.1.08.1.16.17.25.25a.51.51 0 0 0 .3-.16l.04-.06z"/><path fill="#D9D1B4" d="M24 5.82V5.8c-.06-.1-.1-.2-.13-.32a1 1 0 0 0-.66-.08.9.9 0 0 0-.79-.48V4.9s-.08-.01-.14 0c-.06 0-.12.04-.12.04s0 .04-.04.12l.25.15c.12-.13.3-.07.43 0 .1.08.23.2.2.34-.02 0-.02.02-.03.03h.01v.01l.24.17h.01c.18-.24.58-.06.76.06zM24.93 5.84l.08.08.2-.21c.04-.03.14-.05.15-.06.02-.06-.07-.23-.14-.29-.1 0-.2.05-.27.11l-.04.05-.1-.08-.14.16s0 .02-.05.07c-.07.07-.18.08-.27.06.06.1.13.2.22.28a.5.5 0 0 0 .3-.12l.06-.05z"/><path fill="#D9D1B4" d="M25.12 6.84h.01c-.05-.1-.08-.22-.1-.34a1 1 0 0 0-.64-.16.89.89 0 0 0-.73-.58v-.03l-.14-.02-.12.02s0 .05-.05.12l.23.18c.15-.09.3-.04.42.06.1.08.2.22.16.36l-.03.02.01.01.22.2h.01c.2-.2.59.02.75.17zM26.02 6.96l.07.09.22-.19.15-.04c.04-.06-.04-.23-.1-.3-.1 0-.18.02-.28.07l-.05.05a7.64 7.64 0 0 0-.08-.1l-.16.15-.06.06c-.08.06-.19.06-.28.03.05.11.12.2.19.3a.5.5 0 0 0 .32-.07l.06-.05z"/><path fill="#D9D1B4" d="m25.18 7.47-.03.02.01.01c.06.09.13.16.2.24.23-.19.59.1.73.26.01 0 .02 0 .01-.01a1.08 1.08 0 0 1-.06-.35.93.93 0 0 0-.62-.25.97.97 0 0 0-.22-.41.84.84 0 0 0-.43-.26l.01-.03-.14-.04-.13.01s0 .05-.06.11l.21.21c.16-.07.3 0 .41.12.1.1.16.22.11.37z"/><path fill="#D9D1B4" d="M25.76 7.82v-.03s-.07-.04-.13-.05c-.06-.02-.12-.01-.12-.01s-.01.04-.08.1l.19.24c.16-.08.3.05.4.17.07.11.14.27.06.4a.74.74 0 0 0-.03.01v.02l.17.26c.1-.05.18-.05.27-.01h-.02s-.01.04-.08.09l.16.24c.15-.06.29.06.36.18.07.11.12.27.03.38a.14.14 0 0 0-.03.02v.01l.14.25c.26-.13.53.18.65.37l.01-.01a.9.9 0 0 1 .02-.33.87.87 0 0 0-.54-.34.87.87 0 0 0-.27-.62c-.01-.08-.02-.15 0-.23a.93.93 0 0 0-.6-.34 1.03 1.03 0 0 0-.17-.45.87.87 0 0 0-.4-.32zM26.97 8.25l.06-.05.07.1.23-.17c.04-.02.15-.02.15-.03.04-.06-.02-.23-.07-.3-.1 0-.18 0-.28.05l-.06.04L27 7.8l-.16.13-.07.05c-.08.05-.19.04-.27.01.03.12.1.21.15.31.11.02.22 0 .32-.05zM27.77 9.5l.07-.03.05.1.25-.15h.15c.05-.06.01-.24-.03-.32a.53.53 0 0 0-.28.03 1.6 1.6 0 0 1-.06.03 2.1 2.1 0 0 0-.06-.1l-.18.11-.07.04c-.09.05-.19.03-.27-.01.02.11.06.22.11.32.1.03.22.03.32-.02zM28.41 10.84l.07-.03.04.1.27-.11h.15c.05-.04.04-.22 0-.3a.53.53 0 0 0-.28-.01.87.87 0 0 1-.06.03l-.05-.11-.19.09-.08.03c-.08.04-.18 0-.26-.04 0 .11.04.22.07.33.1.04.22.05.32.02z"/><path fill="#D9D1B4" d="m27.41 10.24.02-.02s-.06-.06-.12-.08a.5.5 0 0 0-.11-.03s-.02.04-.1.08l.13.26c.16-.05.28.09.34.22.05.12.08.27-.02.38l-.03.01v.01l.1.27h.01c.27-.1.5.23.6.43 0 .01 0 0 0 0 0-.11.02-.23.06-.33a.86.86 0 0 0-.5-.4.84.84 0 0 0-.39-.8zM28.9 12.27c.03 0 .05 0 .07-.02l.03.1.28-.07c.04 0 .14.03.15.02.05-.04.06-.22.04-.3a.52.52 0 0 0-.28-.04c-.03 0-.04 0-.07.02l-.03-.11-.2.06-.08.03c-.09.02-.19-.02-.25-.08-.01.12 0 .23.03.34.1.05.2.07.31.05z"/><path fill="#D9D1B4" d="M28.25 11.96a.82.82 0 0 0-.27-.4l.03-.01-.11-.1-.11-.04s-.03.04-.1.08c.02.09.06.17.09.26.16-.02.27.13.3.26.05.12.06.28-.05.38h-.04v.02l.08.27c.27-.07.47.3.54.5h.01a.85.85 0 0 1 .1-.32.83.83 0 0 0-.45-.45.9.9 0 0 0-.02-.45zM29.21 13.71l.08-.01.02.1.28-.04c.04 0 .13.04.14.04.06-.04.09-.21.08-.3a.53.53 0 0 0-.28-.07l-.06.01-.02-.11-.2.04-.09.02c-.09.01-.18-.04-.24-.1-.02.1-.02.22 0 .33.08.07.19.1.3.09z"/><path fill="#D9D1B4" d="M28.6 13.32a.81.81 0 0 0-.22-.41l.03-.02s-.05-.07-.1-.1c-.04-.04-.1-.06-.1-.06s-.03.04-.12.06l.07.28c.16 0 .25.15.28.3.02.12.01.28-.1.36h-.04v.01l.04.29c.28-.04.44.34.48.55h.02c.02-.1.06-.22.12-.31a.83.83 0 0 0-.39-.5c.05-.15.06-.3.03-.45zM29.45 15.17v.11l.29-.01c.04 0 .13.06.14.05.06-.02.1-.2.1-.29a.43.43 0 0 0-.26-.1h-.07l-.01-.11-.2.02h-.1c-.08.01-.17-.05-.22-.12a1.2 1.2 0 0 0-.04.33c.08.08.18.12.3.13h.07zM2.79 10.89l-.02.03a12.8 12.8 0 0 1-.18-.07c-.05.12-.11.29-.2.43.03.08.05.16.06.25.07-.1.12-.2.15-.3l.2.07.05-.12c.08-.15.23-.3.41-.27l.27.1c0-.04.02-.07.04-.1l.06.02c.11.02.2.01.3-.02.21-.08.36-.28.48-.48.03-.06.07-.11.11-.15a1.15 1.15 0 0 1-.04-.26 1 1 0 0 0-.18.2l-.05.07v.02a.95.95 0 0 1-.2.24.34.34 0 0 1-.29.08l-.07-.03-.2-.08c0 .04-.02.06-.04.1l-.06-.02c-.23-.06-.43.09-.58.26l-.02.03z"/><path fill="#D9D1B4" d="M2.04 11.46h.01l.07.05v.02c.06.05.08.1.08.26v.13-.02c-.02.15-.07.3-.1.4l.2.04c.06-.1.14-.17.24-.23l.02-.07-.2-.05c.03-.11.05-.26.05-.4a.74.74 0 0 0-.11-.37.32.32 0 0 0-.13-.1c.05-.15.1-.29.17-.43l.14-.36c.1.02.18 0 .26-.04.02-.16-.03-.25-.07-.29a26.32 26.32 0 0 0-.23-.09l-.17.4-.05.11-.09.23-.09.23-.05.11-.14.41.18.06h.01z"/><path fill="#D9D1B4" d="M2.65 9.94c.3.12 0 .75-.03.84l.15.06a.92.92 0 0 1 .31-.25v-.01l-.19-.08c.05-.1.08-.24.1-.38 0-.1 0-.2-.03-.28a.36.36 0 0 0-.16-.22l.18-.35.2-.4c.1.03.2.02.28-.01a.43.43 0 0 0 0-.3h-.1l-.17-.1-.2.36-.06.1-.16.3-.06.13-.06.12-.19.4.17.07h.02zM1.62 14.98c.04.13.04.42.04.53h.2c.03-.1.09-.2.17-.28v-.08h-.2c0-.12-.02-.27-.06-.4a1 1 0 0 0-.17-.3.36.36 0 0 0-.19-.1l.03-.21.03-.25v-.03l.06-.36c.1 0 .19-.04.26-.1 0-.15-.05-.23-.1-.28a.23.23 0 0 1-.1.03l-.2-.04-.07.42-.02.11-.04.27-.03.24-.02.1-.04.44.2.02h.02l.06.02.02.02c.06.03.11.1.15.23z"/><path fill="#D9D1B4" d="M1.5 16.38c.06.04.12.1.16.25l.01.04c.06.16.07.33.08.44l.2-.02a.62.62 0 0 1 .14-.3v-.07l-.22.01c-.01-.1-.04-.24-.1-.37h.01a.9.9 0 0 0-.15-.25.39.39 0 0 0-.27-.14V15.12c.1 0 .16-.04.23-.1-.03-.17-.12-.23-.18-.25l-.03-.01-.21-.01-.02.42v.74l.02.44.21-.01c.03 0 .08 0 .12.04zM3.44 8.47c.06.04.11.13.06.37l-.02.06-.02.04c-.05.14-.12.26-.16.35l.17.08a.63.63 0 0 1 .28-.17l.03-.06-.18-.1c.05-.09.1-.22.13-.35.02-.1.03-.2.01-.3a.36.36 0 0 0-.14-.24l.43-.66c.1.04.19.04.28.02.06-.14.05-.23.03-.3-.03 0-.07 0-.1-.02l-.16-.12-.21.3-.06.1a13.7 13.7 0 0 0-.28.42l-.1.14h.01l-.2.33.17.09.03.02zM2.71 20a.9.9 0 0 0-.05.4l-.18.06c.04.13.1.31.12.48.08.04.15.1.23.16a1.74 1.74 0 0 0-.08-.34l.2-.08-.05-.13c-.02-.18-.02-.4.16-.5l.27-.1-.03-.1c.02-.02.04-.02.07-.03.1-.05.17-.13.22-.22.11-.22.1-.46.06-.7a.66.66 0 0 1 0-.2c-.08-.05-.15-.1-.2-.18-.02.1-.03.19-.02.28v.09l.01.02c.02.1.02.22 0 .32-.01.1-.08.2-.17.26l-.08.02-.2.07c0 .05.01.07.03.12l-.07.02a.48.48 0 0 0-.23.26L2.7 20zM1.62 13.04c.05 0 .08.03.1.06.06.06.1.16.1.34 0 .16-.02.32-.04.42l.2.02c.04-.1.12-.19.21-.25l.01-.08c-.07 0-.14-.02-.2-.03.01-.1.02-.24 0-.37a.9.9 0 0 0-.12-.34.34.34 0 0 0-.18-.13l.06-.23.16-.59c.1.01.18-.01.25-.06 0-.16-.06-.24-.11-.28h-.03l-.2-.06-.12.4-.03.1-.08.29-.06.21-.03.12-.1.42.2.04z"/><path fill="#D9D1B4" d="m1.9 18.3.1.44.2-.04a.67.67 0 0 1 .11-.33c0-.04-.02-.07-.02-.07l-.2.04c-.03-.1-.07-.24-.13-.37a.97.97 0 0 0-.18-.24v.01a.37.37 0 0 0-.28-.11l-.09-.81c.1-.03.17-.08.23-.16-.04-.15-.1-.22-.17-.26-.02.02-.03.03-.07.04h-.02l-.2.02.02.35v.03l.01.1.05.4.01.13.02.17.02.13.04.27.2-.04h.02c.07 0 .08.02.13.04s.18.18.2.27zM12.31 1.97l-.41.14.05.19a.6.6 0 0 1 .32.08l.07-.02a15.3 15.3 0 0 1-.05-.2l.18-.06c.1-.03.36-.24.46-.4a.35.35 0 0 0 .02-.19l.8-.15c.03.1.1.16.16.21.15-.05.21-.13.25-.2a.25.25 0 0 1-.04-.06l-.03-.2-.37.05-.15.02-.25.05-.26.05-.13.03-.39.09.05.2c.01.05 0 .1-.02.13-.03.07-.1.16-.26.24zM3.44 22.3l.19-.1-.06-.12c-.05-.17-.07-.39.09-.5l.26-.14-.05-.1.07-.04a.5.5 0 0 0 .2-.25c.08-.23.05-.47-.02-.7a.64.64 0 0 1-.03-.2 1.17 1.17 0 0 1-.22-.15l.01.28.02.08v.02c.04.1.06.22.05.32 0 .11-.06.22-.15.28l-.07.04-.2.09.05.11-.06.03c-.24.15-.26.46-.21.7l-.18.1c.05.11.13.27.18.42a.7.7 0 0 1 .24.14 1.91 1.91 0 0 0-.11-.3z"/><path fill="#D9D1B4" d="m10.8 2.46-.07.04-.02.01c-.13.09-.3.15-.39.2l.07.16.06-.01c.03-.01.19-.01.34.04l-.07-.2c.3-.13.49-.34.57-.5a.36.36 0 0 0 .02-.21l.45-.15.37-.11c.04.09.11.15.2.2.14-.07.2-.16.21-.22a.29.29 0 0 1-.06-.08l-.04-.2-.42.11-.11.03a22.56 22.56 0 0 0-.5.16l-.1.04-.42.15.07.2c.03.08-.04.25-.17.34zM14.23 1.29c0 .05-.01.1-.03.13a.42.42 0 0 1-.24.18c-.13.05-.37.1-.49.12l.04.2c.1 0 .22.05.3.12l.08-.02c0-.07-.02-.14-.03-.2l.1-.02s.34-.08.55-.3c.05-.08.09-.15.09-.25l.49-.03.38-.02c.01.1.06.16.13.22.17-.04.23-.13.25-.2a.11.11 0 0 1-.01-.03V1h-.56l-.26.03-.26.01-.11.01-.45.05.02.18v.02zM5.33 25.14 5.5 25l-.09-.11c-.09-.16-.16-.37-.03-.53l.23-.18-.08-.1.06-.04a.5.5 0 0 0 .14-.29c.02-.26-.07-.49-.2-.72a1.15 1.15 0 0 1-.07-.2 1.65 1.65 0 0 1-.25-.12 1.63 1.63 0 0 0 .12.38v.02c.06.1.1.2.13.32.01.11 0 .23-.08.31l-.07.06-.17.12.08.1-.06.05c-.2.2-.13.52-.03.75l-.15.12c.07.1.19.24.27.38.09.02.17.04.27.1-.05-.1-.12-.2-.18-.28zM30.72 16.2a.25.25 0 0 1-.08-.02c-.06-.04-.12-.1-.17-.25-.06-.17-.06-.4-.06-.52h-.2c-.03.12-.08.22-.16.3v.07h.2c.01.11.03.26.08.4.03.09.08.17.13.24.07.07.15.13.25.14l-.05.55-.02.3c-.1 0-.18.05-.26.12.01.15.07.23.12.27a.3.3 0 0 1 .1-.03c.06.02.13.03.2.03l.05-.42.01-.11.03-.28.01-.24.01-.11.02-.44h-.21zM8.03 27.65a1.7 1.7 0 0 0-.23-.22l.12-.17-.11-.09c-.14-.14-.21-.3-.15-.48l.18-.23-.1-.08.06-.06a.5.5 0 0 0 .06-.3c-.02-.24-.17-.44-.33-.62h-.01a.69.69 0 0 1-.11-.17c-.1 0-.19-.01-.27-.04a1.39 1.39 0 0 0 .2.31l.01.02a1 1 0 0 1 .19.27c.04.1.04.22-.01.31l-.06.07-.13.16.1.08-.05.05c-.13.25-.03.5.13.71l-.12.16c.1.07.24.18.36.3a.66.66 0 0 1 .27.02zM6.7 26.62a1.7 1.7 0 0 0-.21-.27l.14-.16-.1-.1c-.11-.16-.18-.31-.09-.5l.2-.2a3.45 3.45 0 0 1-.08-.1l.05-.04c.07-.09.1-.2.1-.3a1.26 1.26 0 0 0-.26-.68.72.72 0 0 1-.1-.18 1.16 1.16 0 0 1-.26-.07 1.4 1.4 0 0 0 .16.34l.01.02c.06.1.12.19.15.3.03.1.02.22-.04.3l-.06.07-.15.15.08.09-.05.04c-.17.22-.08.52.05.74l-.13.14c.09.1.23.22.33.37a.7.7 0 0 1 .27.04zM5.29 6.32l-.25.32.14.12c.1-.06.2-.1.31-.1l.05-.06-.15-.13.07-.1s.19-.23.2-.5c.01-.1 0-.2-.07-.28l.08-.08.6-.55a.4.4 0 0 0 .25.08c.1-.14.09-.24.07-.3a.2.2 0 0 1-.04-.03l-.13-.15-.37.31a.52.52 0 0 0-.04.04c-.16.15-.33.3-.48.46l-.34.35.14.13s.14.22-.04.47z"/><path fill="#D9D1B4" d="M6.55 5.04c-.1.16-.28.31-.37.4l.13.13c.1-.05.21-.08.33-.07l.05-.05-.13-.15.06-.06.02-.02a1.47 1.47 0 0 0 .19-.24.87.87 0 0 0 .1-.26c.02-.1.02-.2-.04-.29l.27-.2.42-.32c.07.07.16.1.25.12.1-.11.13-.21.14-.28a.25.25 0 0 1-.08-.05l-.11-.17-.35.25-.1.07L7.1 4l-.2.15-.1.08h.01l-.34.27.13.16.03.08c.01.07 0 .17-.08.3zM4.33 7.54l-.23.38.16.1a.6.6 0 0 1 .3-.13l.03-.07-.17-.11c.06-.09.1-.19.16-.32l.02-.05c.03-.1.03-.25.03-.25 0-.1-.03-.2-.1-.27l.5-.64a.4.4 0 0 0 .28.05c.06-.14.05-.25.02-.3a6.73 6.73 0 0 1-.2-.16 11.36 11.36 0 0 0-.7.85l-.08.1-.2.27.14.11s.17.15.04.44z"/><path fill="#D9D1B4" d="m7.87 4.03-.03.03c0 .01 0 .02-.02.02-.11.11-.25.2-.33.27l.1.15c.11-.04.23-.05.34-.03L8 4.43l-.11-.17c.08-.06.19-.15.27-.26.08-.1.14-.2.17-.31a.35.35 0 0 0-.02-.26l.39-.22.37-.22a.4.4 0 0 0 .22.14c.13-.12.13-.23.12-.29l-.02-.02-.09-.19-.38.21-.1.06-.25.15-.2.11-.1.06-.38.24.1.18H8c.02.04.03.08.02.13 0 .06-.04.15-.14.26zM4.3 23.7c.06-.03.12-.08.17-.12l-.07-.11c-.08-.17-.12-.38.02-.52l.25-.16-.06-.1.06-.04a.5.5 0 0 0 .17-.27c.06-.23-.01-.47-.1-.7a.66.66 0 0 1-.06-.19 1.08 1.08 0 0 1-.24-.12c0 .1.02.18.05.27l.03.09v.02c.05.1.09.2.1.31 0 .1-.04.22-.12.3l-.08.04-.18.11c.02.04.03.07.06.1a.7.7 0 0 1-.06.04c-.22.18-.2.49-.12.73l-.17.11c.08.13.21.31.27.5.1.03.19.09.29.17a1.42 1.42 0 0 0-.21-.45zM5.93 5.9l.14.14.1-.1c.16-.1.32-.17.5-.07l.18.2.09-.07.05.05c.07.07.18.1.27.1.24.02.46-.1.66-.23a.64.64 0 0 1 .18-.09c.01-.09.04-.17.08-.25a1.22 1.22 0 0 0-.33.14l-.02.01a.94.94 0 0 1-.29.15.35.35 0 0 1-.3-.06l-.05-.06-.13-.15-.1.07-.04-.04c-.2-.18-.5-.1-.7.02l-.13-.14c-.1.09-.23.23-.38.32a.7.7 0 0 1-.06.26l.28-.2z"/><path fill="#D9D1B4" d="M9.31 3.14a.6.6 0 0 1-.06.05v.01l-.39.25.1.16a.6.6 0 0 1 .33.01l.07-.04-.1-.18c.24-.12.48-.42.53-.62 0-.05 0-.1-.02-.16l.43-.19.36-.16a.4.4 0 0 0 .2.17c.13-.11.16-.23.16-.29l-.02-.02-.07-.2-.4.17-.1.05-.25.1-.23.11-.1.05-.4.2.09.18.01.08v.02c0 .07-.03.14-.14.25zM2.28 19.95a5.84 5.84 0 0 1 .17.44l.16-.06c0-.07 0-.2.09-.4v-.02l-.21.07c-.04-.11-.1-.25-.19-.37a.85.85 0 0 0-.27-.25.35.35 0 0 0-.2-.03l-.09-.36-.1-.49c.1-.04.16-.1.21-.2a.41.41 0 0 0-.2-.22.28.28 0 0 1-.08.05l-.2.04.08.43.02.1.07.34.04.18c0 .05.02.09.03.13l.1.44.2-.07H2c.08 0 .22.08.3.25zM17.36 30.51l.03-.06c.04-.07.12-.14.29-.2v.01c.15-.04.3-.06.4-.07l-.02-.19a.6.6 0 0 1-.3-.14h-.07l.03.22-.08.01c-.22.05-.4.12-.52.23a.37.37 0 0 0-.12.27H16.16a.4.4 0 0 0-.13-.23c-.16.05-.22.14-.24.2v.23h.42v.01h.74l.42-.02-.01-.18-.01-.02v-.07zM28.16 23.63c.05-.17.16-.34.22-.44l-.16-.1a.62.62 0 0 1-.29.16l-.04.06.17.11-.06.11-.08.23a.9.9 0 0 0-.04.3c0 .1.04.2.12.27l-.19.26-.31.42a.38.38 0 0 0-.25-.04c-.07.15-.04.26-.01.31l.03.02.15.13c.1-.1.18-.22.26-.33a6.56 6.56 0 0 1 .28-.37l.1-.12.07-.11.25-.36-.17-.11a.24.24 0 0 1-.08-.1c-.02-.07-.02-.16.03-.3zM1.88 14.36l.21.02.01-.14c.06-.16.16-.34.35-.35l.29.03.01-.1h.08c.1 0 .2-.03.29-.09.2-.13.3-.35.36-.57a.66.66 0 0 1 .08-.18 1.16 1.16 0 0 1-.1-.24c-.06.07-.1.15-.14.23l-.02.08-.01.02c-.03.1-.07.2-.14.29a.35.35 0 0 1-.27.14l-.08-.02c-.07 0-.14-.02-.2-.03l-.03.12-.07-.01c-.26-.01-.44.22-.54.45l-.2-.03c-.01.13-.04.32-.1.48.06.06.1.14.13.23.05-.11.07-.23.09-.33z"/><path fill="#D9D1B4" d="M27.21 24.98c.07-.17.2-.35.28-.45l-.15-.11a.63.63 0 0 1-.3.12l-.05.06.16.13a1.34 1.34 0 0 0-.07.1c-.12.2-.19.4-.18.58 0 .08.03.16.09.22l-.59.61a.4.4 0 0 0-.27-.06c-.09.12-.1.22-.09.29.04 0 .09.01.12.04l.14.15.8-.85.28-.33-.15-.13a.22.22 0 0 1-.05-.08c-.02-.07-.02-.16.03-.3zM3.78 8.64c.08-.08.14-.16.19-.23l.17.1.08-.1c.1-.14.27-.25.45-.18l.23.15.06-.09.06.04c.1.04.19.06.29.04.22-.02.4-.2.56-.36V8a.64.64 0 0 1 .14-.12c0-.09 0-.18.02-.26a.92.92 0 0 0-.28.21l-.01.02a.9.9 0 0 1-.24.2.34.34 0 0 1-.3 0l-.06-.04-.17-.11-.06.1-.06-.05c-.24-.1-.47 0-.66.18l-.16-.1c-.06.1-.15.23-.26.35.02.08.03.16.01.26zM15.74 30.57c0-.03 0-.04.03-.07.02-.05.1-.12.23-.17a.8.8 0 0 1 .13-.02c.15-.02.3-.02.4-.02l-.01-.19a.63.63 0 0 1-.28-.17h-.08v.2l-.23.03a1 1 0 0 0-.41.17.36.36 0 0 0-.14.23l-.32-.03-.54-.05c0-.1-.04-.18-.1-.25-.16 0-.24.06-.29.12l.03.09-.03.2.43.05.12.01.22.02.84.07v-.21z"/><path fill="#D9D1B4" d="M14.04 30.42c.02-.06.07-.1.07-.1.1-.12.28-.12.27-.12.18-.02.38 0 .5.01l.01-.19a.63.63 0 0 1-.26-.2h-.08l-.02.2H14.24c-.14.02-.27.06-.38.12a.38.38 0 0 0-.18.23l-.5-.1-.35-.06a.4.4 0 0 0-.07-.25c-.17 0-.26.09-.3.14l.01.02-.06.2.43.1.11.02.27.06.24.04.12.02.43.07.03-.21zM15.9 1.2l-.03.07c-.05.11-.24.18-.24.18-.18.06-.41.06-.54.07l.01.2c.11.02.22.08.3.16h.07v-.22l.12-.01.04-.01a.9.9 0 0 0 .5-.2v-.01a.33.33 0 0 0 .14-.23l.46.02.41.02c0 .1.06.19.13.26a.42.42 0 0 0 .27-.14.26.26 0 0 1-.03-.08l.03-.21-.44-.04-.12-.01-.27-.01-.25-.02H15.89V1.18zM26.12 26.14c.1-.13.23-.26.3-.33l-.14-.13c-.1.05-.2.09-.31.08l-.06.06.15.14c-.08.09-.18.2-.26.35a.83.83 0 0 0-.09.34c0 .07.02.13.06.18-.2.18-.5.38-.69.55a.37.37 0 0 0-.2-.1c-.11.14-.12.24-.12.3.02 0 .03.02.04.03l.13.16.33-.25.16-.12c.17-.13.33-.26.47-.4l.3-.26-.14-.15a.25.25 0 0 1-.05-.13c0-.07.02-.18.12-.32zM2.14 12.8l.2.05.04-.14c.07-.15.2-.32.39-.3l.27.06.03-.11.07.02c.1.01.2-.01.3-.06.2-.11.33-.32.42-.53a.62.62 0 0 1 .1-.17 1.07 1.07 0 0 1-.07-.24.98.98 0 0 0-.2.28v.02c-.05.1-.1.2-.17.27a.35.35 0 0 1-.28.1l-.08-.01-.2-.06-.04.11-.06-.02c-.26-.03-.47.18-.6.39l-.18-.04c-.03.11-.07.27-.14.42.05.07.08.15.1.25.04-.1.08-.2.1-.29zM23.36 28.5v-.03a.6.6 0 0 1 .15-.25l.01-.02.02-.02c.11-.1.26-.2.34-.26l-.1-.16a.6.6 0 0 1-.32.01l-.07.04.12.18c-.1.06-.2.15-.28.25h-.01a.97.97 0 0 0-.14.26c-.04.1-.05.2 0 .29l-.53.28-.2.1a.4.4 0 0 0-.22-.14c-.12.11-.13.23-.12.28l.02.02.08.2.37-.19.1-.05.24-.13.2-.1c.03-.03.06-.04.1-.06l.37-.22-.1-.18h-.01a.17.17 0 0 1-.01-.04l-.01-.05zM4.65 7.32l.2-.2.17.12.08-.1c.12-.12.3-.22.47-.13l.21.18.08-.09.05.05c.08.05.19.08.28.07.24-.02.43-.15.6-.3l.01-.01c.05-.04.1-.08.16-.1 0-.1.02-.18.04-.27l-.23.13-.07.06-.01.01a.91.91 0 0 1-.27.17c-.1.04-.2.04-.3-.01l-.05-.06-.15-.13-.08.09-.05-.05c-.24-.13-.48-.04-.68.1l-.15-.11c-.07.09-.17.22-.29.32.01.08 0 .17-.02.26zM18.93 30.3v-.02l.02-.05a.5.5 0 0 1 .21-.19l.03-.01.03-.02c.14-.06.29-.1.39-.12l-.05-.18a.61.61 0 0 1-.3-.1l-.08.01.05.2a.99.99 0 0 0-.62.41.35.35 0 0 0-.03.2l-.4.05-.37.05a.42.42 0 0 0-.16-.23c-.14.04-.2.12-.24.18l.05.08.02.2.36-.03.14-.02.22-.02.28-.04.12-.02.37-.07-.04-.18v-.09z"/><path fill="#D9D1B4" d="M20.77 29.55c.13-.07.27-.12.35-.15l-.05-.15c-.08 0-.2 0-.39-.07l.05.17.02.03c-.25.1-.44.25-.54.44a.36.36 0 0 0-.04.23l-.5.14-.3.08a.41.41 0 0 0-.18-.2.42.42 0 0 0-.2.2.3.3 0 0 1 .04.07l.04.2c.14-.02.27-.06.4-.09l.1-.02.3-.08.18-.05.12-.03.4-.13-.07-.2v-.07c0-.09.06-.2.27-.32z"/><path fill="#D9D1B4" d="m22.2 28.94.34-.2-.09-.17a.58.58 0 0 1-.32-.02l-.06.03.09.19a.82.82 0 0 0-.07.04c-.2.13-.36.3-.43.47a.37.37 0 0 0-.01.23l-.42.17c-.11.04-.23.1-.34.13a.4.4 0 0 0-.2-.17c-.15.1-.16.21-.15.26l.02.03.06.2a12.46 12.46 0 0 0 .38-.14l.12-.04.22-.1.23-.09.1-.04.39-.17-.09-.19a.21.21 0 0 1 0-.08c0-.1.04-.2.23-.34zM29.05 22.61h-.01c-.01 0 0 0 0 0a.25.25 0 0 1-.09-.1c-.02-.07-.03-.18 0-.35.05-.15.13-.3.17-.4l-.17-.08a.63.63 0 0 1-.27.18l-.04.07.19.1-.04.08c-.07.2-.1.4-.07.56.02.1.06.2.15.26v.02l-.4.68a.4.4 0 0 0-.27-.01c-.06.14-.04.24-.02.3.03 0 .06 0 .09.02l.17.11.2-.32.06-.11.17-.28.09-.15.08-.15.18-.34-.16-.08-.01-.01zM24.84 27.28h-.01c.12-.15.3-.28.39-.36a30.7 30.7 0 0 0-.1-.12c-.08.02-.2.04-.36.03l-.06.05.13.16a1.71 1.71 0 0 0-.29.29.85.85 0 0 0-.15.38c0 .06 0 .12.04.17l-.7.44a.38.38 0 0 0-.19-.1c-.1.12-.13.21-.14.27l.08.05.1.18.27-.17a7.95 7.95 0 0 0 .68-.48l.33-.24-.12-.17a.22.22 0 0 1-.03-.1c0-.07.03-.15.13-.28zM3.03 10.06c.08-.09.14-.19.19-.27l.18.08.06-.12c.1-.14.26-.27.44-.22l.24.13.06-.1.06.03c.1.03.2.04.3.02.21-.06.38-.25.51-.43.04-.06.09-.1.13-.14l-.01-.26a1 1 0 0 0-.25.24l-.01.02a.88.88 0 0 1-.22.22.34.34 0 0 1-.29.04 7.48 7.48 0 0 1-.25-.14c-.02.05-.03.07-.06.1l-.05-.02c-.25-.1-.49.07-.65.24l-.17-.08c-.06.11-.14.28-.25.41.03.08.04.16.04.25zM1.97 17.9v-.31l.2-.03-.01-.14c0-.17.06-.38.25-.43l.29-.04-.02-.1.08-.02a.5.5 0 0 0 .26-.15c.16-.18.2-.42.2-.65 0-.07.02-.13.04-.2a1.25 1.25 0 0 1-.16-.2.92.92 0 0 0-.08.34v.02a1 1 0 0 1-.07.3.34.34 0 0 1-.22.2l-.09.02-.2.01v.12h-.06c-.27.06-.39.34-.42.58-.07 0-.13.02-.2.03.01.11.04.28.03.44a.7.7 0 0 1 .18.21zM6.85 26.95l.07.03c.01 0 .3.2.38.27l.12-.15a.7.7 0 0 1-.12-.32 33.2 33.2 0 0 0-.06-.05l-.13.16c-.1-.07-.37-.21-.37-.21-.1-.04-.19-.06-.27-.06 0 0-.18-.02-.28.09l-.32-.3-.31-.32a.42.42 0 0 0 .07-.28c-.13-.1-.23-.1-.3-.1a.3.3 0 0 1-.03.1h-.01l-.15.14.3.32.08.09.25.24.13.13.1.1.33.3c.05-.06.1-.1.13-.16h.01c.08-.1.16-.12.38-.02zM4.16 24.34c.08-.03.17 0 .33.13.15.13.28.32.35.4l.15-.12a.83.83 0 0 1-.04-.35l-.05-.07-.17.14a1.24 1.24 0 0 0-.5-.43.4.4 0 0 0-.31-.03c-.15-.22-.35-.52-.48-.74a.45.45 0 0 0 .13-.25c-.1-.12-.2-.15-.27-.16a.3.3 0 0 1-.05.09h-.01l-.18.1.2.35c.22.36.44.72.68 1.08.06-.04.2-.14.22-.14z"/><path fill="#D9D1B4" d="M5.62 25.77c.16.1.3.26.4.34l.13-.14a.8.8 0 0 1-.09-.33l-.05-.06-.15.15a1.54 1.54 0 0 0-.32-.25.98.98 0 0 0-.28-.11.38.38 0 0 0-.3.05l-.53-.67-.06-.09a.4.4 0 0 0 .11-.14c-.15-.13-.27-.14-.31-.12l-.17.12-.02.02.1.12c.27.44.6.85.98 1.2l.15-.14.03-.02c.06-.04.18-.06.38.07zM29.74 21.06a.23.23 0 0 1-.07-.05c-.04-.06-.08-.14-.06-.3l-.01.01c.01-.18.08-.4.12-.51l-.14-.05a.95.95 0 0 1-.31.26v.02l.19.07-.02.04-.04.23v.02l-.01.1c0 .1 0 .2.03.28.04.1.09.17.18.22l-.2.46-.15.32a.39.39 0 0 0-.27.02.41.41 0 0 0 .02.3h.09l.18.1.19-.38.05-.1a14.04 14.04 0 0 0 .26-.58l.16-.4-.19-.08zM2.8 21.46l.06.07c.1.14.17.3.21.4l.18-.09a.82.82 0 0 1 .04-.34l-.03-.07-.2.09a1.3 1.3 0 0 0-.22-.34v-.01a1.02 1.02 0 0 0-.23-.18.34.34 0 0 0-.29-.03l-.1-.3-.18-.54c.1-.04.15-.12.2-.21-.1-.15-.2-.17-.27-.17l-.03.02h-.01l-.2.06.13.42.04.12.08.26.09.25c0 .04.02.07.03.1l.16.43.2-.09h.09c.04 0 .15.04.25.15zM2.3 19.54c0-.12 0-.25-.03-.35l.21-.06-.03-.13c-.01-.18.02-.4.2-.47l.28-.06-.02-.12c.03 0 .04 0 .07-.02a.5.5 0 0 0 .25-.18c.13-.2.15-.45.14-.69-.01-.07 0-.13.01-.2a1.24 1.24 0 0 1-.18-.19 1.06 1.06 0 0 0-.05.36v.02c0 .11 0 .22-.03.32-.02.1-.1.19-.2.23l-.08.02-.21.04.02.12-.07.01c-.26.1-.34.38-.36.63l-.19.05c.03.13.08.32.08.5.07.04.14.1.2.17z"/><path fill="#D9D1B4" d="M3.58 22.98c.13.13.23.3.3.4l.17-.1a.76.76 0 0 1 0-.35L4 22.86l-.18.12c-.06-.1-.15-.2-.25-.3a.91.91 0 0 0-.32-.18.36.36 0 0 0-.24.01c-.12-.22-.22-.44-.33-.67l-.05-.12a.44.44 0 0 0 .16-.23c-.1-.13-.22-.14-.28-.14l-.02.02-.2.09.17.4.04.1.15.31.08.17.06.12.21.4.19-.11a.23.23 0 0 1 .13-.03c.03.01.16.05.26.16zM1.8 16.28c.02-.1.02-.2.02-.3h.22v-.13c.02-.17.1-.36.29-.4h.28v-.1h.08a.5.5 0 0 0 .28-.13c.18-.16.25-.4.29-.61v-.01a.65.65 0 0 1 .06-.18 1.1 1.1 0 0 1-.14-.22.97.97 0 0 0-.12.32v.02c-.03.1-.05.2-.1.3a.34.34 0 0 1-.25.17h-.09L2.41 15v.12h-.07c-.27.02-.42.27-.49.5h-.19c0 .13 0 .3-.02.46.06.05.11.12.16.2zM12.73 29.93c.2-.02.41.03.54.06l.04-.2a.6.6 0 0 1-.25-.22c-.05 0-.07-.02-.07-.02l-.05.21a1.43 1.43 0 0 0-.41-.02s-.15.01-.27.07a.39.39 0 0 0-.21.2l-.42-.12-.4-.13a.4.4 0 0 0-.06-.26c-.17-.02-.26.05-.3.1v.04l-.08.2.41.13.1.04.35.1.15.05.13.04.43.11.05-.2a.2.2 0 0 1 .05-.07c.1-.12.28-.11.27-.11zM30.07 19.17c-.01-.18.04-.4.06-.52l-.18-.03a.61.61 0 0 1-.23.24l-.02.07.2.05c-.02.1-.03.24-.02.38.01.14.05.27.11.37.04.05.1.1.16.12l-.13.4-.14.41a.4.4 0 0 0-.25.04c-.02.17.05.26.1.3h.03l.2.08.14-.4.03-.11.09-.26.07-.23.04-.11.12-.42-.2-.05a.22.22 0 0 1-.08-.05c-.05-.05-.09-.13-.1-.28z"/><path fill="#D9D1B4" d="M11.16 29.47c.19.01.4.08.52.12l.05-.16a1.03 1.03 0 0 1-.26-.3h-.02l-.07.2a1.03 1.03 0 0 0-.22-.05h-.01l-.03-.01h-.07a.96.96 0 0 0-.35.03.38.38 0 0 0-.23.18l-.5-.23-.3-.13c.04-.1.02-.2-.02-.29a.42.42 0 0 0-.3.03v.1c-.04.05-.07.12-.1.18l.39.19.1.05.24.11.25.11.12.05.39.16.07-.2a.27.27 0 0 1 .03-.04c.13-.13.32-.1.32-.1zM30.58 17.89a.25.25 0 0 1-.12-.07.47.47 0 0 1-.1-.27v-.05h-.01c-.01-.16 0-.33.02-.44l-.2-.01c-.04.1-.1.2-.2.27v.07l.2.02c0 .1 0 .25.02.38.02.1.05.19.1.27.05.09.13.16.23.19l-.1.52-.07.31a.4.4 0 0 0-.25.07c.01.17.09.25.13.29h.03l.2.05.1-.41c.02-.04.03-.09.03-.13l.05-.23.05-.26.03-.12.07-.43-.2-.02zM7.87 27.96c.06-.05.19-.08.41.03.15.06.3.16.38.22l.1-.17a.65.65 0 0 1-.15-.3l-.07-.05-.1.18a.82.82 0 0 0-.06-.03s-.28-.2-.6-.17c-.1 0-.2.03-.27.12l-.36-.27-.34-.27a.4.4 0 0 0 .05-.26c-.15-.07-.26-.05-.32-.03a.2.2 0 0 1-.02.05l-.13.16c.1.1.22.18.33.27l.1.08.28.22.12.1.11.08.36.26.12-.17a.17.17 0 0 1 .05-.05z"/><path fill="#D9D1B4" d="M9.26 28.87c.07-.07.17-.12.38-.07.17.05.35.14.47.19l.08-.18a.63.63 0 0 1-.19-.28 6.41 6.41 0 0 1-.07-.03l-.09.19c-.1-.05-.26-.11-.37-.12-.05 0-.2-.02-.29 0-.1 0-.2.06-.26.15l-.02-.01-.5-.32-.18-.1v-.01a.42.42 0 0 0 0-.29c-.14-.06-.24-.05-.3-.02 0 .04 0 .07-.02.1l-.12.17.33.22.11.07.27.17.17.1.14.09.35.2.1-.2.01-.02zM20.55 2.19h-.1c-.16-.03-.32-.08-.42-.11l-.05.15c.07.05.16.13.27.3h.02l.06-.2c.11.04.26.07.41.07.12-.01.23-.03.33-.07a.38.38 0 0 0 .19-.17l.46.2.34.13a.4.4 0 0 0 .03.28c.15.05.26.01.3-.02l.01-.1.1-.19-.4-.18-.1-.05-.25-.1-.24-.1c-.04 0-.08-.02-.11-.04l-.42-.15-.07.17s-.1.18-.36.18zM20.35 29.57c-.12 0-.24.02-.33.05l-.06-.2-.13.03c-.16.02-.36-.01-.44-.18l-.06-.28c-.04 0-.08.02-.11.03l-.02-.08a.5.5 0 0 0-.18-.23c-.2-.13-.43-.14-.66-.13h-.18l-.18.18a.96.96 0 0 0 .34.04h.02c.1-.01.2 0 .3.02.1.03.19.1.23.2 0 .02 0 .04.02.07l.04.2c.04 0 .07 0 .11-.02l.02.07c.09.25.36.33.6.34l.05.18c.12-.03.3-.08.47-.09a.57.57 0 0 1 .15-.2z"/><path fill="#D9D1B4" d="m21.1 2.6-.08.2.13.05c.15.08.3.24.26.42l-.12.27.1.04c0 .03-.01.04-.03.07-.02.11-.02.2.01.3.07.22.28.38.47.5l.16.13.27-.03a.98.98 0 0 0-.2-.2L22 4.32l-.02-.01a.92.92 0 0 1-.24-.21c-.06-.09-.1-.2-.06-.3l.03-.07.1-.2-.11-.04.02-.07c.1-.26-.1-.49-.29-.64l.08-.18c-.12-.05-.3-.12-.45-.21a.9.9 0 0 1-.26.05c.1.07.2.13.3.17zM20.74 29.15l.02.01h-.02zM22.34 3.09c.08.07.17.13.25.17l-.1.19.12.06c.14.1.27.28.2.46l-.14.25.1.05-.04.07c-.04.1-.05.2-.03.3.04.23.23.4.41.55l.14.15c.09-.02.18-.01.27 0a1 1 0 0 0-.23-.28l-.02-.01a.95.95 0 0 1-.22-.24.34.34 0 0 1-.03-.3l.05-.07.11-.18-.1-.06.04-.06c.1-.27-.04-.48-.22-.67l.1-.17c-.1-.06-.25-.13-.38-.23a.76.76 0 0 1-.28.02zM22.88 28.37a16.4 16.4 0 0 0-.1-.18l-.11.06c-.16.06-.36.08-.48-.07l-.12-.25-.1.05-.03-.07a.48.48 0 0 0-.23-.18 1.06 1.06 0 0 0-.66.04.6.6 0 0 1-.19.03c-.03.08-.08.16-.13.22a.95.95 0 0 0 .34-.04h.02c.1-.04.2-.06.3-.06.1 0 .2.05.26.14l.03.07.09.2.1-.06.03.06c.14.22.43.24.66.18l.09.17c.1-.05.24-.13.38-.18a.77.77 0 0 1 .12-.24c-.1.03-.2.07-.27.11z"/><path fill="#D9D1B4" d="m21.46 29.1-.08-.2-.12.05c-.17.04-.36.03-.46-.13l-.1-.27-.1.04-.03-.07a.49.49 0 0 0-.2-.21c-.2-.1-.44-.09-.66-.04a.61.61 0 0 1-.19 0c-.04.08-.1.15-.15.21a.92.92 0 0 0 .34 0h.02a1 1 0 0 1 .3-.02c.1.02.2.08.24.17l.03.08.06.2.11-.04.02.06c.11.24.4.3.63.26l.07.18c.11-.04.28-.11.45-.14a.69.69 0 0 1 .14-.22c-.12.01-.23.05-.32.08zM26.5 6.28l-.16.15.1.1c.08.15.16.36.02.51l-.22.19.07.09-.06.05a.5.5 0 0 0-.13.28c-.03.24.07.47.19.69.04.06.06.13.08.2.09.02.17.05.25.1a1.57 1.57 0 0 0-.12-.36l-.01-.02a.95.95 0 0 1-.12-.31c-.02-.1 0-.22.08-.3l.06-.06.17-.12a6.6 6.6 0 0 0-.07-.1l.05-.05c.2-.2.14-.5.04-.73l.15-.12c-.08-.1-.2-.23-.28-.37a.7.7 0 0 1-.27-.08c.06.1.12.2.18.26zM17.28 30.15c-.1-.02-.2-.02-.29-.02l-.01-.21h-.13c-.17-.02-.36-.1-.4-.29l-.01-.28h-.11v-.08a.51.51 0 0 0-.14-.27c-.16-.17-.4-.24-.63-.27a.7.7 0 0 1-.18-.06c-.07.06-.15.1-.22.14a1.08 1.08 0 0 0 .33.12h.02c.1.02.21.04.3.1.1.05.16.13.18.24v.28l.12.01v.07c.04.27.3.4.53.47v.2c.12 0 .29-.01.44.01a.63.63 0 0 1 .2-.16zM27.57 7.58l-.18.13.09.1c.07.16.12.37-.02.5l-.24.16.07.1-.06.04a.47.47 0 0 0-.16.26c-.05.23.03.45.12.67l.06.18c.09.03.17.07.24.11a1.05 1.05 0 0 0-.09-.34v-.01a.91.91 0 0 1-.1-.3c0-.1.03-.21.11-.29l.07-.04.18-.12-.07-.1.06-.03c.2-.18.19-.48.1-.7l.16-.12c-.06-.08-.15-.2-.22-.33a.68.68 0 0 1-.26-.1c.04.09.1.17.14.23zM28.44 8.9l-.18.12.07.11c.05.16.07.37-.08.5l-.25.13.05.1-.07.03a.5.5 0 0 0-.18.24c-.08.23-.03.45.04.68.02.06.03.13.03.19.08.03.16.08.22.13.01-.08 0-.17-.02-.26l-.02-.08v-.02a1 1 0 0 1-.06-.31c0-.1.05-.2.14-.27l.07-.04.2-.1c-.03-.03-.04-.05-.06-.1l.06-.03c.23-.15.24-.44.18-.68l.18-.1c-.06-.1-.14-.24-.2-.4a.62.62 0 0 1-.23-.1c.03.1.07.2.11.27zM25.1 4.86c.07.1.16.19.23.26l-.14.16.1.1c.12.14.18.3.1.49l-.21.2.08.09-.05.05a.48.48 0 0 0-.1.29c0 .24.13.45.27.65.04.06.08.11.1.18.1 0 .18.03.27.06a1.41 1.41 0 0 0-.17-.32l-.01-.02a.96.96 0 0 1-.16-.29.35.35 0 0 1 .04-.3l.07-.06.15-.15-.09-.09.05-.05c.18-.22.08-.5-.05-.71l.14-.15c-.1-.08-.24-.21-.35-.36a.7.7 0 0 1-.27-.03zM18.83 29.96h-.3l-.04-.2-.13.02c-.17 0-.36-.06-.42-.24l-.04-.28-.1.01-.02-.07a.5.5 0 0 0-.16-.26c-.19-.15-.4-.2-.64-.2a.65.65 0 0 1-.19-.03l-.2.16c.08.03.17.06.26.07h.1c.1.02.2.03.3.07.1.04.18.12.2.22l.02.08.02.21.12-.01v.07c.07.26.33.37.57.4l.03.2c.11-.02.27-.05.43-.04a.89.89 0 0 1 .2-.18zM24.2 27.5l-.13-.16-.1.08c-.16.07-.36.12-.49-.02l-.15-.24-.1.07c0-.03-.02-.04-.03-.07a.47.47 0 0 0-.4-.16c.07-.01.15-.02.24-.01a.92.92 0 0 0 .3-.6.94.94 0 0 0 .52-.27c.11-.04.22-.06.34-.07a.93.93 0 0 0 .25-.6.9.9 0 0 0 .4-.22.84.84 0 0 0 .26-.42h.03l.04-.13-.01-.12s-.04 0-.1-.06l-.21.2c.09.15-.01.3-.12.4-.1.1-.22.16-.37.11l-.02-.02h-.01l-.23.2c.15.19-.01.45-.17.62a.7.7 0 0 0 .1-.22c.02 0 .02.01.03.02 0 0 .04-.08.05-.14v-.13s-.04 0-.1-.08l-.22.2c.08.15-.03.3-.15.4-.1.08-.25.15-.38.07l-.02-.03h-.01l-.25.18v.01c.17.24-.13.57-.31.7V27a1.6 1.6 0 0 0-.39.12.64.64 0 0 1-.18.06c-.03.09-.06.17-.1.24a.92.92 0 0 0 .32-.09h.02c.1-.05.19-.08.3-.1.1 0 .2.03.27.11l.04.07.1.18.1-.06.04.05c.16.2.46.2.68.1l.1.16c.1-.06.24-.17.39-.24a.73.73 0 0 1 .1-.25c-.1.05-.2.1-.28.16zM23.76 3.88c.08.09.16.16.24.21l-.12.18.11.08c.12.11.24.3.15.47l-.18.23.1.07a2.4 2.4 0 0 0-.05.06.47.47 0 0 0-.07.3c.03.24.19.44.35.6.05.05.09.1.12.16.1 0 .18.02.27.04a1.23 1.23 0 0 0-.22-.32.97.97 0 0 1-.19-.26.34.34 0 0 1 .01-.3l.05-.07.14-.16-.1-.08.05-.05c.13-.26.02-.5-.14-.7l.12-.16c-.1-.07-.24-.17-.36-.28a.73.73 0 0 1-.28-.02zM17.9 1.79l-.03.2.14.03c.16.06.34.16.34.36l-.05.28.11.02-.01.07c-.01.1.02.21.07.3.13.2.36.3.58.38a.7.7 0 0 1 .18.08c.08-.04.16-.07.25-.09-.07-.06-.15-.1-.23-.14l-.08-.03-.02-.01a.95.95 0 0 1-.29-.15.34.34 0 0 1-.13-.27l.02-.08.05-.2-.12-.03.01-.07c.03-.27-.2-.46-.43-.56 0-.07.02-.13.03-.2-.11-.01-.28-.04-.44-.09a.75.75 0 0 1-.25.12c.1.04.21.06.3.08zM30.07 18.14c-.07 0-.14-.02-.2-.03l-.03.14c-.06.16-.17.33-.36.33l-.28-.05-.02.1h-.08a.5.5 0 0 0-.29.06c-.2.13-.3.35-.38.56a.67.67 0 0 1-.1.17c.04.08.07.17.09.25a1.08 1.08 0 0 0 .18-.3v-.02c.04-.1.09-.2.16-.28a.35.35 0 0 1 .27-.12c.03 0 .05 0 .08.02l.2.04.03-.11.06.01c.27.03.46-.2.57-.42l.19.04c.02-.12.05-.28.1-.43a.67.67 0 0 1-.1-.25l-.09.3zM11.12 2.48c.13 0 .25-.03.35-.07l.07.2.13-.04c.17-.02.38-.01.46.16l.08.28.11-.04.02.08c.04.09.11.17.2.22.2.12.44.11.68.08h.2c.04-.07.1-.13.17-.2a1 1 0 0 0-.35 0h-.02c-.1 0-.21.01-.32-.01a.34.34 0 0 1-.23-.18l-.02-.09-.05-.2-.12.03-.02-.06c-.1-.26-.39-.31-.63-.3l-.06-.2c-.12.05-.3.1-.47.12a.73.73 0 0 1-.18.22zM29.7 19.74l-.2-.05-.04.13c-.07.15-.2.31-.4.29l-.26-.09-.04.1-.07-.01c-.1-.02-.2 0-.29.03-.2.09-.34.31-.45.51v.01a.64.64 0 0 1-.1.15l.05.26a1.02 1.02 0 0 0 .21-.28l.01-.02c.05-.09.1-.18.18-.26.08-.07.18-.1.28-.09l.08.03.2.07.03-.11.07.02c.26.05.47-.15.6-.35l.19.05c.04-.12.1-.3.18-.45a.67.67 0 0 1-.09-.24c-.06.1-.1.21-.14.3zM29.23 11.1a.85.85 0 0 0 .04-.39l.18-.07c-.05-.12-.12-.3-.15-.47a.78.78 0 0 1-.22-.14c.02.12.05.24.09.34l-.2.08.05.13c.03.16.03.37-.13.47l-.27.1.04.1a2.1 2.1 0 0 1-.07.04.5.5 0 0 0-.21.21c-.1.21-.09.46-.04.68v.2c.08.03.15.09.21.15a1.06 1.06 0 0 0 0-.35v-.02a1 1 0 0 1-.02-.31c.01-.1.07-.2.17-.25l.08-.03.2-.07-.04-.11.06-.03a.47.47 0 0 0 .22-.26l.01-.01v.01zM14.28 1.7c.12.02.23.03.33.02l.02.2h.14c.17.01.37.07.41.27l.02.28h.11v.07c.02.1.07.2.15.27.17.17.42.22.64.24h.01c.07 0 .13.02.19.05.07-.06.14-.11.22-.15a1.11 1.11 0 0 0-.34-.1h-.02a.93.93 0 0 1-.31-.08.34.34 0 0 1-.2-.24v-.29h-.12v-.07c-.04-.27-.31-.4-.55-.44l-.01-.2c-.12 0-.3.03-.45 0a.85.85 0 0 1-.24.18zM30.3 16.24c-.03.11-.05.23-.05.33h-.22v.13c-.05.16-.14.35-.33.37l-.28-.02-.01.1h-.08a.5.5 0 0 0-.28.1c-.18.15-.27.38-.32.6a.69.69 0 0 1-.07.18c.04.08.08.16.1.24.06-.08.1-.16.13-.24l.02-.08v-.02c.03-.1.07-.2.13-.3a.34.34 0 0 1 .26-.15l.08.01.2.02.02-.11h.07c.27 0 .43-.24.52-.47h.19c.01-.12.02-.31.07-.48a.66.66 0 0 1-.14-.21z"/><path fill="#D9D1B4" d="m25.22 26.71.04-.02.11.15.31-.25c0-.08.02-.16.05-.24l-.18.13-.13-.15-.1.09c-.14.08-.33.16-.48.04l-.16-.22-.1.07-.04-.06a.43.43 0 0 0-.26-.12c-.23-.02-.44.08-.65.2a.63.63 0 0 1-.18.08l-.1.25.16-.05a.5.5 0 0 0 .05.3l.04.06-.1.07.16.23c.02.04.02.14.03.15.08.04.22-.02.3-.07 0-.1-.01-.18-.06-.28l-.03-.05.09-.07a7.16 7.16 0 0 0-.12-.17l-.05-.07c-.05-.07-.04-.17-.01-.25a.7.7 0 0 1 .18-.06c.1-.02.2 0 .28.07l.05.06.12.16.1-.07.03.05c.17.18.42.13.63.05h.02zM16.28 1.66l-.01.2.14.01c.17.04.36.13.39.32l-.02.29h.11v.08c0 .1.04.2.1.28.15.2.4.27.62.32.07.01.13.04.19.07.07-.05.15-.09.24-.12a1.04 1.04 0 0 0-.33-.14h-.02a.92.92 0 0 1-.3-.12.34.34 0 0 1-.16-.26v-.08l.02-.21-.12-.01.01-.07c0-.27-.26-.43-.5-.51l.01-.2c-.12 0-.32 0-.49-.05a.7.7 0 0 1-.23.14l.35.06zM10.72 2.92a.86.86 0 0 0-.4-.01l-.07-.18c-.12.05-.3.14-.47.18a.71.71 0 0 1-.15.23c.13-.03.25-.07.35-.11l.09.19.12-.06c.17-.04.38-.06.48.1l.11.27.1-.05.03.07c.05.09.13.16.22.2.22.1.46.06.7 0a.64.64 0 0 1 .19-.02c.04-.08.1-.15.15-.21a1.05 1.05 0 0 0-.35.02h-.02c-.1.03-.21.05-.32.04-.1 0-.2-.07-.25-.15l-.03-.08-.07-.2-.11.05-.03-.07c-.08-.16-.29-.21-.27-.2zM26.9 25.12c-.1.06-.19.15-.26.22l-.15-.14-.09.1c-.15.11-.3.19-.48.1l-.2-.2-.08.08-.05-.05a.45.45 0 0 0-.27-.1 1.12 1.12 0 0 0-.64.28.7.7 0 0 1-.17.1c-.01.09-.04.17-.07.26a1.12 1.12 0 0 0 .34-.18.96.96 0 0 1 .28-.15c.1-.03.2-.03.29.03l.06.06.14.15.08-.08.05.04c.21.17.5.07.7-.06.04.05.08.1.13.13.09-.09.21-.23.35-.33 0-.09.01-.17.04-.26zM29.29 20.36h.01-.01zM29.18 21.25l-.2-.08-.05.12c-.09.15-.24.3-.42.25l-.26-.12-.04.1c-.03 0-.04-.01-.07-.03a.55.55 0 0 0-.3.01c-.2.06-.37.27-.49.46a.64.64 0 0 1-.13.15c.02.08.03.17.03.26a.99.99 0 0 0 .24-.26l.01-.01a.92.92 0 0 1 .2-.24c.1-.06.2-.09.3-.06l.07.03.18.1.05-.11.06.03c.25.08.49-.1.64-.28l.18.07c.05-.11.12-.3.22-.43a.65.65 0 0 1-.05-.25c-.08.1-.13.2-.17.29zM28.67 22.44c-.07.08-.14.17-.18.24l-.18-.1-.07.13c-.1.13-.27.26-.44.2l-.24-.15-.05.1-.07-.04a.53.53 0 0 0-.29-.03c-.22.04-.4.22-.54.4a.62.62 0 0 1-.14.13v.27a.96.96 0 0 0 .26-.23l.01-.02a.94.94 0 0 1 .24-.2c.08-.06.2-.08.29-.04l.06.05.17.1.07-.1.05.04c.25.1.48-.03.66-.2l.16.09c.06-.1.14-.25.24-.37a.73.73 0 0 1-.01-.27zM27.86 23.82c-.08.07-.15.15-.2.23l-.17-.12-.08.1c-.12.13-.3.24-.46.15-.08-.05-.15-.1-.22-.17l-.07.1-.06-.05a.52.52 0 0 0-.28-.06c-.23.02-.42.18-.6.34a.69.69 0 0 1-.15.12c0 .09-.01.17-.03.26l.23-.14.06-.06.01-.01a.96.96 0 0 1 .26-.2c.1-.03.2-.03.3.01l.06.05c.05.05.1.1.15.13l.08-.09.05.04c.24.13.48.02.68-.13l.15.11c.06-.1.16-.23.28-.35a.68.68 0 0 1 0-.26zM19.9 2.21l.05-.15c-.12-.04-.31-.09-.47-.17a.71.71 0 0 1-.25.09c.1.06.22.1.32.13l-.06.2.14.04c.15.07.32.2.3.4l-.09.27.11.03-.02.08c-.01.1 0 .2.04.3.1.2.32.34.53.44a.7.7 0 0 1 .16.1l.27-.06a.98.98 0 0 0-.21-.16l-.08-.05h-.02a.93.93 0 0 1-.27-.18.34.34 0 0 1-.1-.29l.03-.08.07-.2-.11-.04a.83.83 0 0 0 .02-.06c.06-.27-.16-.48-.37-.6v-.03h.01zM23.57 3.58c-.18-.05-.35-.16-.46-.22l-.1.17c.08.08.14.18.16.3l.07.03.11-.18.1.05c.19.1.38.14.56.13a.4.4 0 0 0 .28-.13l.45.32.26.19a.4.4 0 0 0-.05.26c.16.07.26.05.32.02l.02-.05.14-.16-.34-.27-.1-.07a7.93 7.93 0 0 0-.23-.17l-.2-.14-.1-.07-.37-.25-.1.17s-.14.17-.42.07z"/><path fill="#D9D1B4" d="M25.35 4.5v.01a.24.24 0 0 1-.09.06c-.06.02-.16.02-.3-.03-.18-.07-.35-.21-.46-.29l-.12.16c.07.09.12.2.13.31l.06.05.13-.17.1.07c.19.11.37.18.55.19.1 0 .2-.03.28-.1l.3.28.34.32a.42.42 0 0 0-.07.27c.13.09.23.1.3.09 0-.03.02-.06.04-.1v.01l.16-.14-.31-.31-.1-.1a15.64 15.64 0 0 0-.38-.35l-.09-.09-.34-.29-.13.15zM22.1 2.8c-.17-.03-.36-.11-.47-.16l-.08.18c.09.07.16.17.2.27l.06.03.1-.19a1.47 1.47 0 0 0 .37.1c.13.03.3 0 .3 0a.4.4 0 0 0 .26-.16 16.65 16.65 0 0 1 .72.4.41.41 0 0 0 0 .27c.14.05.24.04.3.01l.02-.1v.01l.12-.18-.33-.2-.12-.07-.25-.14-.21-.11-.13-.07-.36-.18-.1.19a.25.25 0 0 1-.1.09c-.05.03-.15.05-.3.02z"/><path fill="#D9D1B4" d="M26.2 5.67c-.15-.1-.3-.24-.39-.33l-.13.15c.05.1.09.21.08.33l.06.05.15-.15a1.5 1.5 0 0 0 .32.24 1 1 0 0 0 .28.1.4.4 0 0 0 .3-.06c.19.21.37.43.54.65l.01.01a.43.43 0 0 0-.1.28c.12.09.22.1.3.1a.27.27 0 0 1 .04-.1l.17-.12-.26-.3c-.25-.32-.52-.64-.8-.95l-.15.15a.25.25 0 0 1-.07.03c-.08.03-.18.02-.35-.08zM11.8 29.42l.02.01-.06.19c.12.03.3.08.46.17a.65.65 0 0 1 .25-.09c-.1-.06-.22-.1-.31-.13.02-.07.03-.14.06-.2l-.14-.04c-.15-.07-.32-.21-.3-.4l.1-.28c-.04 0-.07-.02-.11-.03l.02-.07c.02-.12 0-.2-.03-.3-.1-.22-.31-.36-.52-.47a.66.66 0 0 1-.16-.11c-.09.03-.17.05-.26.06a1.08 1.08 0 0 0 .28.22h.02c.1.06.19.11.26.2.07.07.11.18.1.29l-.04.07a9.7 9.7 0 0 1-.07.2l.12.04-.03.07c-.02.1 0 .21.05.3l.09.13.2.17zM10.63 29.04l.08-.2-.13-.05c-.15-.09-.3-.25-.24-.43l.12-.27-.1-.04.02-.07a.6.6 0 0 0 0-.3c-.07-.24-.27-.4-.46-.53a.64.64 0 0 1-.15-.13c-.09.02-.18.02-.27.02a1 1 0 0 0 .26.25l.02.02c.09.06.18.13.24.22.06.08.08.2.05.3 0 .03-.02.04-.03.07l-.1.19.11.06a.9.9 0 0 0-.03.06c-.09.25.1.5.28.65l-.08.18c.12.05.3.13.44.23a.63.63 0 0 1 .26-.05c-.1-.08-.2-.14-.3-.18zM17.2 1.53h-.41l-.02.18c.1.05.2.11.28.2h.07l.02-.2c.11 0 .25 0 .4-.03.1-.02.19-.06.27-.1a.4.4 0 0 0 .19-.24l.49.08.37.06c0 .1.03.18.08.26.17 0 .25-.07.29-.12v-.06l.04-.2a16.88 16.88 0 0 0-.42-.1l-.13-.01-.25-.05-.26-.04-.12-.02-.44-.06-.02.2v.01a.2.2 0 0 1-.04.07c-.05.15-.4.17-.4.17z"/><path fill="#D9D1B4" d="M27.7 7.06a.24.24 0 0 1-.1.03c-.07 0-.16-.03-.27-.11l-.05-.04c-.14-.12-.25-.28-.33-.37l-.15.13c.05.1.06.23.05.34l.05.07.17-.14.12.15c.18.16.37.28.56.3.06 0 .12 0 .18-.04.15.22.3.45.43.68a.47.47 0 0 0-.07.17c.1.12.2.14.27.14a.26.26 0 0 1 .06-.08l.18-.1c-.17-.26-.35-.5-.53-.74l-.39-.52-.14.11-.03.02zM9.41 28.51a1.73 1.73 0 0 0-.24-.18l.1-.19-.12-.07c-.15-.12-.24-.27-.19-.46l.15-.25-.1-.06.04-.06a.5.5 0 0 0 .03-.3c-.05-.25-.22-.43-.4-.59a.64.64 0 0 1-.13-.15h-.27a1.16 1.16 0 0 0 .23.28l.01.01c.08.07.16.15.22.25.05.1.06.2.02.3l-.04.08-.12.17.1.07-.03.06c-.1.26.02.49.2.69l-.1.17c.1.06.25.15.37.25a.65.65 0 0 1 .27-.02zM12.68 2c.12 0 .24 0 .34-.03l.04.21.14-.03c.17 0 .37.04.44.22l.05.28.1-.02.02.08c.03.1.1.18.17.24.19.15.44.17.67.17.07 0 .13 0 .2.02.05-.07.12-.12.2-.18a1.03 1.03 0 0 0-.27-.05h-.11c-.1 0-.21-.01-.31-.05a.34.34 0 0 1-.21-.2l-.02-.09-.02-.2-.12.01-.01-.07c-.07-.26-.36-.35-.6-.37l-.03-.2c-.12.03-.3.07-.45.07a.73.73 0 0 1-.22.19zM18.96 1.76c-.2.01-.41-.03-.54-.05l-.04.2c.1.04.2.12.26.22l.07.01.05-.2c.08 0 .19.02.3.01a.54.54 0 0 0 .07 0c.12-.01.23-.04.32-.08a.4.4 0 0 0 .2-.21l.49.14.35.1a.4.4 0 0 0 .05.25c.16 0 .26-.05.3-.1V2l.08-.2-.41-.13-.12-.03-.25-.08-.26-.07c-.04 0-.07-.02-.11-.03l-.44-.1-.04.2s-.06.18-.33.2zM7.18 4.78l.13.16.1-.09c.16-.07.36-.14.5 0l.17.22.1-.07c0 .03.02.04.04.06.06.08.16.13.26.14.23.04.46-.05.67-.16a.7.7 0 0 1 .2-.06c.02-.09.05-.17.1-.25a1.13 1.13 0 0 0-.34.1l-.02.02c-.1.05-.2.09-.3.1a.34.34 0 0 1-.3-.08l-.04-.07-.11-.17-.1.07-.04-.06c-.18-.2-.48-.15-.7-.06l-.12-.15c-.1.07-.25.2-.4.27-.02.08-.04.17-.09.25.11-.05.21-.12.29-.17zM30.02 11.34h-.09c-.06 0-.14-.04-.23-.16a1.22 1.22 0 0 1-.06-.08c-.08-.14-.13-.3-.17-.4l-.15.07c0 .07 0 .2-.07.4l.2-.07c.04.1.1.24.2.35.06.08.12.14.2.19.08.05.18.07.27.05l.1.35.12.46c-.1.04-.16.1-.2.2a.4.4 0 0 0 .2.2.31.31 0 0 1 .07-.05l.2-.04c-.02-.14-.05-.27-.09-.41l-.02-.11-.07-.28-.06-.2-.03-.12-.12-.41-.2.06zM30.36 14.28v-.01l-.01-.02c-.05-.15-.07-.32-.08-.43l-.2.03a.6.6 0 0 1-.13.3v.08l.22-.03.02.1c.05.24.16.44.3.56.07.04.13.07.2.07.02.17.02.35.03.52l.01.33a.4.4 0 0 0-.23.13c.05.16.16.22.2.24h.23v-.78l-.02-.28v-.11l-.03-.44-.2.03c-.07.01-.22-.02-.31-.3z"/><path fill="#D9D1B4" d="M30.11 12.72c-.07-.15-.11-.34-.14-.45l-.2.05c0 .1-.03.22-.1.31l.02.08.2-.05c.03.1.08.23.15.34.05.09.1.16.18.22.08.07.17.1.28.1v.01c.05.26.08.51.11.77a.43.43 0 0 0-.22.17c.04.14.11.21.17.24a.3.3 0 0 1 .1-.05l.2-.02-.04-.37-.02-.16-.02-.16-.05-.34-.02-.12-.07-.37-.2.04c-.05 0-.1 0-.13-.02-.07-.03-.13-.09-.2-.22z"/><path fill="#D9D1B4" d="m30.03 13.07.01.3-.2.04.01.13c0 .18-.05.38-.23.44l-.28.04.01.11-.07.01a.49.49 0 0 0-.25.17c-.15.18-.19.42-.19.65a.6.6 0 0 1-.03.2c.07.05.12.12.17.2a.92.92 0 0 0 .07-.35v-.02a1 1 0 0 1 .05-.31c.03-.1.12-.18.22-.2l.08-.02.2-.02v-.12h.06c.26-.08.37-.35.4-.59l.19-.03c-.02-.12-.04-.28-.04-.44a.64.64 0 0 1-.18-.19zM15.38 30.1v-.21l-.13-.01c-.17-.05-.35-.14-.37-.33l.02-.28-.11-.01v-.08a.5.5 0 0 0-.1-.28c-.14-.2-.38-.28-.6-.34a.7.7 0 0 1-.18-.07l-.24.12a1.06 1.06 0 0 0 .32.14h.02c.1.04.2.07.3.13.08.06.14.16.15.26v.09c-.02.06-.03.13-.03.2l.11.02v.06c0 .27.25.44.48.52l-.02.2c.13 0 .32.02.49.08.06-.06.13-.1.22-.14a1.5 1.5 0 0 0-.34-.07zM29.64 11.52c0 .12.02.23.05.33l-.2.06.03.13c.02.17-.01.37-.18.45l-.28.08.02.1-.07.03c-.1.03-.18.1-.23.19-.12.2-.14.43-.12.66v.2c.06.05.13.11.18.18.03-.09.04-.17.04-.26v-.11c-.01-.1-.01-.2.01-.31.03-.1.1-.19.2-.23l.08-.02.2-.05-.02-.11.06-.02c.25-.1.33-.38.34-.62l.18-.05c-.03-.13-.08-.3-.08-.48a.6.6 0 0 1-.2-.15zM13.79 29.92c0-.07.02-.14.03-.2l-.14-.03c-.16-.06-.34-.17-.33-.36l.05-.28-.1-.03v-.07c.01-.1-.01-.2-.07-.3-.12-.2-.35-.3-.56-.39a.65.65 0 0 1-.17-.1c-.08.05-.17.08-.26.1a1.01 1.01 0 0 0 .31.18h.02c.1.05.2.09.28.16.08.07.13.17.12.28l-.01.08-.05.2.11.03-.01.06c-.03.27.2.46.42.57l-.03.19c.11.02.28.05.43.1a.66.66 0 0 1 .25-.1l-.3-.09zM8.51 3.84l.11.17.12-.07c.16-.06.37-.1.5.05l.13.24.1-.05.04.06c.06.08.15.15.24.17.23.06.46 0 .68-.08h.01a.64.64 0 0 1 .19-.04c.03-.09.08-.16.13-.23a1.04 1.04 0 0 0-.35.06l-.02.01c-.1.04-.2.07-.31.07-.1 0-.2-.04-.27-.12L9.77 4a5.36 5.36 0 0 1-.1-.18l-.1.06-.03-.06c-.16-.22-.46-.21-.7-.14l-.09-.17c-.1.06-.24.15-.4.21a.8.8 0 0 1-.12.25l.28-.13zM28.29 8.27c-.13-.12-.24-.29-.3-.38l-.17.1c.04.11.04.23.02.34l.04.06.18-.11.02.04h.01c.14.18.3.33.47.4V8.7c.1.04.2.04.3 0l.2.35.2.4a.42.42 0 0 0-.15.2c.1.13.21.14.28.14l.02-.02.2-.1-.2-.37h.01l-.06-.12-.08-.16-.15-.28-.06-.1-.22-.37-.17.1v.01a.24.24 0 0 1-.14.02c-.06 0-.15-.04-.25-.14z"/><path fill="#D9D1B4" d="M29.1 9.7a1.44 1.44 0 0 1-.06-.06l-.01-.01c-.1-.13-.17-.28-.21-.37l-.18.1c.02.1.02.22-.02.32l.03.07.19-.1c.04.08.1.16.16.24.13.15.28.25.44.3.05 0 .1-.01.14-.03l.2.5.1.29a.42.42 0 0 0-.17.2c.1.14.2.16.26.16a.7.7 0 0 1 .03-.02l.2-.07-.14-.4-.04-.1-.09-.23-.1-.25c0-.04-.02-.07-.03-.1l-.17-.4-.18.08c-.09.04-.2.04-.35-.12zM30.25 14.63a1.4 1.4 0 0 0-.02.3l-.21.03v.13c-.02.17-.09.36-.27.4l-.29.02v.1l-.07.01a.5.5 0 0 0-.27.14c-.16.16-.22.4-.25.63 0 .07-.02.13-.05.19.06.06.1.14.14.21a1.04 1.04 0 0 0 .1-.33l.01-.02c.02-.1.04-.21.09-.3a.36.36 0 0 1 .23-.19H29.68v-.11h.07c.27-.04.4-.3.46-.54l.2-.01c-.01-.12-.02-.3 0-.45a.66.66 0 0 1-.16-.21zM28.8 14.72a.85.85 0 0 0-.17-.44l.03-.01-.09-.11-.1-.07s-.03.03-.11.05c0 .1.02.19.03.28.16.01.23.18.25.32 0 .13-.02.29-.15.35h-.03v.02a27.41 27.41 0 0 1 .02.28c.28 0 .4.4.41.61h.02c.03-.1.08-.2.15-.3a.85.85 0 0 0-.33-.53c.07-.14.09-.3.08-.45z"/><path fill="#D9D1B4" d="M29.67 16.5v-.11h-.2l-.08-.01c-.1 0-.17-.08-.22-.16-.04.1-.06.22-.08.34.07.08.17.13.28.15h.07v.12l.28.01c.04.01.12.08.13.07.07-.01.13-.18.14-.27a.44.44 0 0 0-.25-.14h-.07zM28.73 16.63a.86.86 0 0 0 0-.9l.03-.01s-.03-.08-.07-.12c-.04-.05-.1-.08-.1-.08s-.03.03-.11.03v.29c.16.03.21.2.2.35 0 .13-.04.28-.17.33a.2.2 0 0 0-.04 0v.01l-.02.29c.29.02.35.43.34.65 0 .02.01.02.02 0 .05-.1.1-.2.19-.27a.85.85 0 0 0-.27-.57zM29.19 18.19l.07.01-.02.11.28.05c.04.02.1.09.12.09.07-.02.15-.17.17-.26a.43.43 0 0 0-.23-.16.8.8 0 0 0-.07-.01l.02-.12-.2-.03-.09-.01c-.09-.02-.15-.1-.2-.18-.05.1-.08.2-.1.32.05.09.15.15.25.19z"/><path fill="#D9D1B4" d="M28.7 17.13s-.02-.08-.05-.13l-.09-.09s-.03.03-.12.02c0 .1-.02.2-.03.29.16.05.19.23.17.37-.02.13-.08.28-.22.31h-.04l-.05.3c.28.05.3.47.26.68 0 .02.01.02.02 0a.9.9 0 0 1 .22-.25.87.87 0 0 0-.2-.6.88.88 0 0 0 .1-.9h.03zM28.84 19.64c.03 0 .04 0 .07.02l-.03.1.27.09c.04.02.1.1.11.1.07 0 .17-.15.2-.24a.44.44 0 0 0-.21-.19l-.07-.02.03-.11-.2-.05-.08-.03c-.08-.02-.14-.11-.17-.2-.06.1-.1.2-.15.31.05.1.13.17.23.22z"/><path fill="#D9D1B4" d="M28.48 18.53s-.01-.09-.04-.14c-.02-.05-.07-.1-.07-.1s-.04.03-.12.01l-.07.28c.15.07.16.25.13.4-.04.12-.1.26-.25.28l-.03-.01H28l-.08.29h.01c.27.09.23.5.18.72h.01a.85.85 0 0 1 .25-.22.89.89 0 0 0-.13-.63.88.88 0 0 0 .2-.88.1.1 0 0 0 .03 0zM28.32 21.09l.07.03-.05.1.26.11.1.11c.06 0 .18-.13.22-.21a.44.44 0 0 0-.19-.21l-.06-.03.04-.1-.19-.08-.07-.03c-.09-.04-.13-.14-.15-.22-.07.08-.13.18-.18.28.04.1.1.2.2.25z"/><path fill="#D9D1B4" d="m28.07 19.8-.06-.1s-.04.01-.12-.01l-.1.27c.15.08.13.27.08.4-.05.12-.14.26-.28.26l-.03-.02v.02h-.01l-.11.26v.01c.25.11.18.53.1.73 0 .01 0 .02.01.01a.84.84 0 0 1 .27-.2.87.87 0 0 0-.06-.64.9.9 0 0 0 .3-.85h.03s0-.08-.02-.14zM27.66 22.43l.07.04-.06.1.24.14.08.12c.07.01.2-.11.25-.19a.41.41 0 0 0-.22-.26l.05-.1a29.1 29.1 0 0 0-.18-.1l-.07-.04c-.08-.05-.1-.15-.12-.24-.08.08-.15.17-.2.27.02.1.08.2.16.26z"/><path fill="#D9D1B4" d="M27.54 21.26h.03l-.01-.14c-.01-.06-.05-.11-.05-.11s-.04.01-.12-.02l-.12.26c.13.1.1.28.03.4-.06.12-.16.25-.3.23l-.03-.01h-.01l-.14.26c.24.15.11.56.01.75h.01a.92.92 0 0 1 .29-.16c.07-.22.1-.43.02-.65a.89.89 0 0 0 .4-.8zM26.93 23.74l-.07.1.22.16c.03.03.06.13.07.13.07.02.21-.1.26-.16a.43.43 0 0 0-.13-.25l-.05-.04.06-.1-.16-.11s-.02 0-.07-.05c-.07-.05-.1-.16-.1-.25-.08.07-.16.16-.23.25.01.1.06.2.14.28l.06.04z"/><path fill="#D9D1B4" d="M26.9 22.52s.02-.08.01-.14c0-.06-.03-.12-.03-.12s-.05.01-.12-.03l-.15.24c.12.12.06.3-.01.42-.07.1-.2.22-.33.19l-.02-.03-.01.02h-.01l-.17.23c.23.18.05.57-.07.75H26c.1-.05.2-.1.3-.13a1 1 0 0 0 .1-.64.9.9 0 0 0 .48-.77l.02.01zM25.95 24.95l-.07.09.2.19.05.14c.06.03.22-.07.28-.13 0-.1-.04-.2-.1-.27a1.07 1.07 0 0 1-.05-.04l.07-.1-.15-.13-.06-.05c-.07-.06-.07-.17-.06-.26-.1.06-.18.14-.27.22 0 .1.04.21.1.3l.06.04z"/><path fill="#D9D1B4" d="m26.08 23.73.02-.13-.02-.13s-.04 0-.11-.05l-.18.24c.1.12.03.3-.06.4-.09.1-.22.2-.35.15l-.02-.02-.01.01h-.01l-.2.22h.01c.2.2-.03.57-.17.73v.01c.1-.05.22-.09.33-.1.12-.2.2-.4.17-.62a.87.87 0 0 0 .37-.27c.1-.13.17-.27.2-.44h.03zM24.86 26.02l-.1.08.19.2.03.15c.06.04.23-.04.3-.1 0-.1-.02-.18-.07-.27l-.04-.05.09-.08-.14-.15-.05-.06c-.06-.07-.06-.18-.03-.27-.1.05-.2.12-.3.19-.01.1.01.21.07.3a.5.5 0 0 1 .05.06zM22.39 28.07v.15c.09.05.23.02.3-.02a.54.54 0 0 0-.01-.29l-.03-.06.1-.06-.1-.18s-.02 0-.05-.07c-.04-.08-.02-.19.02-.27-.1.02-.21.07-.31.11-.03.1-.03.22.01.32l.04.07-.1.05.13.25zM22.83 26.32l-.24.16c.06.15-.06.29-.18.36-.11.07-.26.12-.37.03a.38.38 0 0 0-.02-.03h-.01a12.08 12.08 0 0 1-.25.14c.12.25-.18.53-.36.64-.02.01-.01.02 0 .02.11-.01.21 0 .33.01a.9.9 0 0 0 .33-.53c.16-.01.3-.05.43-.13.14-.08.26-.2.32-.35l.02.01s.05-.06.07-.12.02-.12.02-.12-.04-.02-.1-.09zM21.04 28.87c.07.05.22.04.3 0 .03-.1.03-.18.01-.28l-.03-.06.1-.05-.07-.19-.04-.07c-.03-.1 0-.2.05-.27-.1 0-.22.04-.32.08a.5.5 0 0 0-.02.31l.02.07-.1.04.1.27c.02.05 0 .14 0 .15z"/><path fill="#D9D1B4" d="m21.61 27.34.02.02s.06-.06.08-.11l.03-.12s-.04-.02-.08-.1l-.25.13c.04.16-.09.28-.22.34-.12.06-.27.08-.37-.02l-.01-.03h-.01l-.26.1v.01c.1.26-.23.5-.43.6-.01 0-.01 0 0 0 .1 0 .22.02.32.06a.88.88 0 0 0 .4-.49.9.9 0 0 0 .43-.07.88.88 0 0 0 .35-.32zM19.58 29.36c.07.06.2.06.3.04.03-.1.05-.17.04-.28l-.02-.06.1-.04-.05-.2-.03-.08c-.02-.09.02-.18.07-.25-.1 0-.21 0-.32.03a.5.5 0 0 0-.06.31l.02.08-.1.02.07.28c0 .05-.03.13-.02.15z"/><path fill="#D9D1B4" d="m20.31 27.91.02.02.1-.1.03-.11s-.03-.03-.06-.1l-.27.09c.03.16-.11.26-.25.3-.12.05-.28.06-.36-.06l-.01-.03h-.02l-.27.07V28c.07.27-.28.47-.49.53v.02c.11.01.22.04.32.1.19-.1.36-.25.44-.45.15.03.29.03.44-.02a.84.84 0 0 0 .38-.27zM18.16 29.51c0 .05-.05.13-.04.14.06.07.2.1.29.09.05-.1.07-.17.07-.28l-.01-.07c.04 0 .06 0 .11-.02l-.04-.2-.02-.08c0-.1.04-.19.1-.25a1.47 1.47 0 0 0-.32 0c-.07.08-.1.19-.1.3l.02.07-.1.02c0 .1.02.19.04.28z"/><path fill="#D9D1B4" d="M19.02 28.33s.07-.04.1-.1l.06-.1s-.04-.03-.06-.11l-.27.06c0 .16-.15.25-.3.28-.12.02-.27.01-.35-.11v-.03h-.01v-.01l-.28.04v.01c.04.28-.34.43-.55.47v.01c.1.03.21.07.3.14.2-.07.4-.2.5-.39a.81.81 0 0 0 .85-.18l.01.02zM16.9 29.88c.06-.07.1-.16.1-.26v-.07h.11l-.01-.21-.01-.09c0-.09.06-.17.13-.23-.1-.03-.22-.04-.33-.04a.5.5 0 0 0-.13.29v.07h-.1l.01.3c0 .04-.06.11-.05.13.05.07.2.11.28.11z"/><path fill="#D9D1B4" d="M17.67 28.57s.07-.04.1-.09l.07-.1s-.03-.03-.04-.11c-.1 0-.19.02-.28.03-.02.16-.18.23-.32.24-.13 0-.28-.02-.35-.15v-.04H16.55v.01c0 .28-.4.39-.6.4-.02 0-.02 0-.01.01.1.04.2.1.3.17a.8.8 0 0 0 .53-.32.82.82 0 0 0 .87-.08c0 .02.01.02.02.03zM15.1 29.57c0 .05-.07.12-.07.13.04.08.19.13.28.15a.43.43 0 0 0 .13-.25v-.07h.12v-.2l.01-.09c0-.09.08-.16.16-.2-.1-.05-.22-.08-.33-.1a.48.48 0 0 0-.16.28v.08l-.12-.01-.02.28z"/><path fill="#D9D1B4" d="M16.23 28.64s.08-.03.12-.07c.05-.04.08-.1.08-.1s-.03-.03-.03-.11l-.29-.01c-.03.16-.2.2-.34.2s-.3-.05-.34-.19v-.03l-.01-.01-.29-.02c-.02.29-.44.35-.66.34v.01c.1.05.2.11.27.2.22-.02.44-.1.59-.27a.86.86 0 0 0 .9.03v.03zM13.57 29.37c-.02.04-.09.1-.09.12.04.09.18.15.26.17a.44.44 0 0 0 .17-.23l.01-.07.12.02c0-.07.02-.14.03-.2l.01-.1c.02-.08.1-.15.18-.19-.1-.05-.2-.08-.32-.11a.48.48 0 0 0-.2.25v.08l-.12-.02-.05.28z"/><path fill="#D9D1B4" d="m14.82 28.55.13-.06c.05-.03.09-.08.09-.08s-.02-.04-.02-.13c-.1 0-.2-.02-.29-.03-.05.16-.23.19-.38.16-.13-.01-.28-.07-.3-.22v-.03h-.02v-.01l-.28-.05c-.06.29-.49.3-.7.27-.02 0-.02 0-.01.02.1.06.18.13.25.22a.9.9 0 0 0 .62-.2c.12.1.27.15.42.18.17.02.33 0 .48-.07l.01.03zM12.06 29c-.02.05-.1.1-.1.12.02.09.15.17.24.2a.45.45 0 0 0 .19-.22l.02-.06c.04 0 .07.01.11.03l.06-.2.02-.09c.03-.1.12-.15.2-.17-.1-.07-.2-.11-.3-.16a.5.5 0 0 0-.23.24l-.02.07c-.04 0-.07-.02-.1-.03l-.1.28z"/><path fill="#D9D1B4" d="M13.4 28.3v.02l.14-.04.1-.08s-.02-.04 0-.12l-.29-.07c-.07.16-.25.16-.4.13-.12-.03-.27-.1-.29-.26l.02-.03h-.02v-.01l-.28-.08c-.1.28-.52.25-.73.2h-.01a1 1 0 0 1 .23.26.9.9 0 0 0 .64-.14.88.88 0 0 0 .89.21zM10.77 28.23a1.95 1.95 0 0 1-.1-.04c-.05.08-.09.17-.12.26-.03.04-.12.09-.12.1.01.1.14.2.22.23.09-.04.17-.1.21-.2l.03-.06.11.05.08-.2.03-.08c.04-.08.14-.13.23-.15l-.3-.19c-.1.05-.19.12-.24.21l-.03.07z"/><path fill="#D9D1B4" d="M11.97 27.9v.03l.14-.03c.06-.02.1-.06.1-.06s0-.05.02-.13l-.28-.1c-.09.15-.27.14-.41.08-.12-.05-.26-.14-.26-.29l.02-.03h-.02v-.01l-.26-.11H11c-.12.26-.54.18-.75.1-.01 0-.02 0 0 .01.07.08.14.18.2.28.2.06.45.05.64-.06a.88.88 0 0 0 .87.32zM9.44 27.48l-.04.06a3.8 3.8 0 0 1-.1-.06l-.15.25-.12.08c0 .1.12.21.19.26.1-.03.18-.08.23-.16l.04-.06.1.05.1-.18.04-.08c.05-.08.15-.11.24-.12a1.71 1.71 0 0 0-.27-.22.5.5 0 0 0-.26.18z"/><path fill="#D9D1B4" d="M10.63 27.35v.03h.14c.06-.02.11-.06.11-.06s0-.04.03-.12l-.27-.13c-.1.13-.28.1-.41.03-.12-.07-.25-.17-.23-.32l.02-.03H10v-.02l-.26-.14c-.15.25-.56.11-.75 0-.02 0-.02 0-.01.02.07.09.12.19.16.3.2.08.45.1.65.02a.89.89 0 0 0 .83.42zM8.12 26.68l-.1-.08-.17.23c-.03.03-.13.06-.13.07-.01.1.09.22.16.28.1-.02.19-.06.25-.14l.04-.05.1.07.12-.17s0-.02.05-.07c.06-.08.16-.1.26-.1-.08-.1-.16-.17-.25-.25a.48.48 0 0 0-.29.14l-.04.07z"/><path fill="#D9D1B4" d="M9.36 26.67s.08.02.14.01l.12-.03s0-.05.04-.12l-.25-.16c-.12.12-.3.06-.42-.03-.11-.07-.22-.2-.19-.35l.02-.02v-.01a18.9 18.9 0 0 1-.24-.19h-.01c-.17.23-.57.04-.75-.09-.02 0-.02 0-.01.01.06.1.1.2.13.33.21.1.42.15.65.1.07.15.17.27.3.36.15.1.3.15.47.17v.02zM6.9 25.63l-.1-.08-.2.21c-.03.03-.13.04-.14.05-.01.1.07.23.13.3.1 0 .2-.04.28-.1l.04-.06.1.09.13-.16.06-.07c.06-.06.18-.07.27-.06-.06-.1-.14-.2-.22-.28a.49.49 0 0 0-.3.1l-.06.06z"/><path fill="#D9D1B4" d="m8.14 25.78.14.02.12-.02s0-.04.05-.11l-.23-.2c-.15.1-.29.04-.41-.07-.1-.09-.2-.23-.15-.37l.02-.02v-.02l-.22-.21h-.01c-.2.21-.58-.03-.74-.18h-.02c.05.12.09.23.1.35.19.12.41.22.64.18.06.16.14.29.26.4.14.12.28.19.45.22v.03zM5.82 24.46l-.08-.1-.22.2c-.04.02-.14.02-.15.03-.03.1.04.24.1.32.1 0 .2-.02.28-.08l.05-.04.08.1.16-.15.06-.05c.08-.07.19-.06.27-.03a1.83 1.83 0 0 0-.18-.32.48.48 0 0 0-.32.07l-.05.05z"/><path fill="#D9D1B4" d="m7.04 24.77.14.04h.13s0-.05.06-.11l-.2-.23c-.17.07-.3 0-.41-.12-.1-.1-.18-.26-.11-.4 0 0 .02 0 .03-.02h-.01v-.02l-.2-.24v.01c-.23.18-.58-.12-.72-.29h-.02c.04.12.06.24.06.37.18.15.38.26.62.27.04.16.11.3.22.43.1.13.26.23.42.28v.03z"/><path fill="#D9D1B4" d="m6.08 23.58-.01.03s.07.05.13.06c.06.02.12.01.12.01s.01-.04.08-.1l-.18-.25c-.16.07-.31-.07-.4-.19-.07-.12-.14-.28-.06-.41l.03-.02v-.02l-.17-.28c-.26.17-.58-.21-.7-.4v.01c.02.13.03.25.01.38.15.18.35.34.58.37.03.17.08.33.17.48.1.14.24.26.4.33zM4.93 23.03l-.07.05-.06-.1-.25.17c-.04.02-.14.02-.15.02-.05.06.01.24.06.32.11 0 .2 0 .3-.05l.05-.05.07.1.18-.12s0-.02.07-.06c.08-.05.19-.04.28 0a1.63 1.63 0 0 0-.15-.33.53.53 0 0 0-.33.05zM4.14 21.7l-.07.04-.05-.1-.26.14c-.05.02-.15 0-.15 0-.06.06-.02.25.02.33.1.02.19.02.29-.02l.06-.03.06.1.19-.1s.01-.02.07-.05c.09-.04.2-.02.28.02a1.66 1.66 0 0 0-.1-.33.5.5 0 0 0-.34 0z"/><path fill="#D9D1B4" d="m5.23 22.24-.02.02s.07.05.13.07c.06.02.13.02.13.02s0-.05.09-.1L5.4 22c-.17.06-.3-.07-.38-.2-.06-.11-.1-.27-.01-.4h.03v-.02l-.14-.27c-.26.13-.54-.2-.65-.4l-.01.01c0 .12 0 .23-.03.35a.9.9 0 0 0 .54.37c0 .16.04.31.12.45.08.15.2.28.36.35zM3.53 20.3l-.07.03-.04-.11-.27.1c-.05.01-.15-.02-.15 0-.06.04-.05.23-.02.31.1.04.18.04.29.02l.06-.02.05.1.2-.08.07-.03c.1-.04.2 0 .27.05 0-.11-.03-.23-.06-.34a.5.5 0 0 0-.33-.03z"/><path fill="#D9D1B4" d="m4.54 20.95-.02.03.11.08.12.03s.02-.04.1-.08l-.12-.27c-.17.04-.29-.1-.34-.24-.06-.13-.08-.29.03-.4h.03v-.02l-.1-.28c-.28.1-.52-.27-.6-.47h-.01c0 .12-.03.23-.07.34.12.2.28.37.5.43-.02.16 0 .32.05.47.07.16.17.3.32.38zM3.08 18.78l-.07.02-.03-.11-.28.07c-.05 0-.14-.04-.15-.03-.06.03-.07.23-.05.31.1.05.17.07.28.06l.07-.02c0 .05.02.07.03.12l.2-.06.08-.03c.1-.02.2.03.26.09 0-.12 0-.23-.02-.35a.5.5 0 0 0-.32-.07z"/><path fill="#D9D1B4" d="M3.73 19.14c.04.15.13.3.26.41l-.02.02.1.1.12.05s.02-.04.1-.07l-.08-.29c-.17.03-.27-.13-.31-.27-.04-.13-.04-.3.08-.39H4v-.02l-.06-.3-.01.01c-.28.06-.47-.33-.53-.54H3.4c-.02.12-.05.23-.1.33.07.2.22.4.43.49a.95.95 0 0 0 0 .47zM2.8 17.28a.9.9 0 0 1-.07.01l-.01-.11-.29.04c-.04 0-.13-.06-.14-.05-.07.03-.1.21-.09.3.08.06.18.1.28.09l.07-.01.01.12.21-.04.08-.01c.1-.02.19.05.25.11.02-.11.02-.23.01-.35a.5.5 0 0 0-.3-.1z"/><path fill="#D9D1B4" d="M3.42 17.7c.03.18.1.32.2.45l-.01.01s.04.07.09.11.1.06.1.06.03-.03.12-.05l-.06-.3c-.17 0-.25-.16-.27-.3-.02-.13-.01-.3.12-.37h.03v-.02a9.66 9.66 0 0 1-.04-.3c-.28.04-.43-.36-.47-.58h-.01a1 1 0 0 1-.14.31c.06.21.19.42.38.53a.88.88 0 0 0-.04.46zM2.62 15.79v-.11h-.3c-.04 0-.12-.07-.13-.06-.06.02-.12.2-.12.28.07.07.17.1.27.12h.07v.11h.21l.09-.01c.09 0 .17.07.23.14.03-.1.04-.22.05-.34a.5.5 0 0 0-.3-.13h-.07z"/><path fill="#D9D1B4" d="m3.42 16.73-.03.01s.04.08.09.12l.1.07s.03-.03.12-.04l-.03-.3c-.17-.01-.23-.18-.24-.33-.01-.13.02-.29.15-.35h.04v-.3H3.6c-.28 0-.39-.4-.4-.62 0-.01 0-.02-.01 0-.04.1-.1.2-.17.28.03.22.14.43.32.56-.08.13-.1.29-.1.44.02.17.07.32.17.46zM2.77 14.26h-.08l.02-.12-.29-.03c-.04-.01-.12-.08-.13-.08-.06.02-.14.18-.15.27.06.07.15.13.24.14l.07.01v.12l.2.01h.08c.1.02.17.1.22.17.04-.1.07-.21.09-.32a.49.49 0 0 0-.27-.17z"/><path fill="#D9D1B4" d="M3.34 15.28s.02.07.06.12l.1.08s.03-.03.11-.03l.02-.28c-.17-.04-.21-.21-.2-.36 0-.13.06-.28.2-.32h.03v-.01h.01l.03-.29c-.28-.03-.33-.44-.31-.66 0-.02-.01-.02-.02 0-.05.1-.12.19-.2.26 0 .21.08.44.24.58a.83.83 0 0 0-.05.9h-.02zM3.03 12.8l-.07-.01.02-.11-.27-.06c-.04-.02-.1-.1-.12-.1-.07.01-.16.17-.19.25.06.08.14.15.23.18h.07l-.03.12.2.04.09.02c.09.02.15.1.18.19.07-.1.1-.21.14-.32a.48.48 0 0 0-.25-.2z"/><path fill="#D9D1B4" d="M3.46 13.88s.02.08.05.13c.03.05.08.09.08.09s.04-.03.13-.02l.04-.28c-.15-.06-.17-.23-.15-.38.03-.12.1-.27.24-.3l.03.02v-.02h.01l.07-.27v-.01c-.28-.06-.28-.47-.23-.7H3.7a.88.88 0 0 1-.23.24c-.01.22.02.44.17.61a.88.88 0 0 0-.2.4.77.77 0 0 0 .04.48h-.03zM3.46 11.39l-.07-.03.04-.1-.26-.1c-.04-.02-.1-.1-.1-.1-.08 0-.18.15-.22.23.04.09.11.16.2.2.03 0 .04 0 .06.02l-.03.1.2.07.07.02c.09.03.14.12.16.21.07-.09.13-.2.17-.3a.46.46 0 0 0-.22-.22z"/><path fill="#D9D1B4" d="m3.76 12.5.03.14.07.1s.04-.02.12 0l.08-.28c-.14-.07-.14-.25-.1-.39.04-.12.12-.26.27-.27l.03.01v-.01h.01l.1-.27h-.01c-.26-.1-.2-.5-.14-.72H4.2a.9.9 0 0 1-.26.21.91.91 0 0 0 .1.62c-.12.1-.2.24-.25.39a.78.78 0 0 0-.01.47h-.03zM4.06 9.98 4 9.95l.05-.1-.25-.12c-.04-.03-.08-.11-.1-.11-.06-.01-.18.12-.23.2a.4.4 0 0 0 .24.24l-.05.1a34.19 34.19 0 0 0 .26.12c.08.04.12.14.14.23.08-.08.14-.18.2-.28a.48.48 0 0 0-.2-.25z"/><path fill="#D9D1B4" d="M4.25 11.26c.01.06.05.11.05.11s.04-.01.12.01l.1-.26c-.13-.1-.1-.27-.05-.4.06-.12.15-.25.3-.24l.03.02v-.01l.13-.26c-.25-.13-.15-.54-.06-.73 0-.01 0-.02-.01-.01a.85.85 0 0 1-.28.18.9.9 0 0 0 .03.63.9.9 0 0 0-.29.36c-.07.14-.1.3-.07.47h-.02l.01.13zM4.78 8.7l-.06-.04.06-.1-.23-.14c-.04-.03-.07-.13-.08-.13-.07-.01-.2.1-.25.17.02.1.07.18.15.24l.05.04-.06.1a10.04 10.04 0 0 0 .25.14c.07.05.1.15.1.24.1-.08.16-.16.23-.26a.48.48 0 0 0-.16-.26z"/><path fill="#D9D1B4" d="M4.85 9.85h-.03V10c.01.06.05.11.05.11s.04 0 .11.03l.14-.25c-.13-.1-.08-.28-.01-.4.06-.12.17-.23.31-.21l.03.02v-.01h.01l.15-.24v-.01c-.23-.15-.09-.54.02-.73 0-.01 0-.02-.01 0a.88.88 0 0 1-.3.14.91.91 0 0 0-.04.63.89.89 0 0 0-.43.78zM5.57 7.45l.07-.09-.21-.17-.07-.14c-.06-.02-.2.09-.26.15 0 .1.05.18.12.25l.05.04a5.7 5.7 0 0 0-.07.1l.16.12s.02 0 .07.05c.07.05.09.16.08.25.1-.07.17-.15.25-.23a.47.47 0 0 0-.13-.29l-.06-.04z"/><path fill="#D9D1B4" d="M5.54 8.65s-.02.08 0 .13l.02.12s.04 0 .11.04l.16-.23c-.1-.12-.05-.3.04-.4.07-.11.2-.21.33-.18l.03.02h.01l.18-.23c-.22-.18-.02-.56.1-.73v-.01c-.1.05-.2.1-.32.12-.1.2-.16.4-.12.62a.88.88 0 0 0-.51.73h-.03z"/><path fill="#D9D1B4" d="M6.42 7.5s-.03.07-.03.13l.02.12s.04 0 .1.05l.2-.21c-.1-.14-.02-.3.08-.4.1-.11.2-.17.35-.14l.02.03.01-.01h.01l.2-.2v-.01c-.2-.2.06-.57.2-.72v-.01c-.11.04-.22.07-.33.08a.96.96 0 0 0-.2.62.88.88 0 0 0-.38.24.88.88 0 0 0-.22.43h-.03zM21.37 18.69v3.03l1.16.16v-2.83c-.33-.2-.74-.41-1.16-.36z"/><path fill="#151515" d="M21.5 18.68c.37 0 .73.19 1.03.37v2.83l-1.16-.15v-3.04h.13m0-.2h-.16l-.17.03v3.38l.17.02 1.07.14.1.01.22.03v-3.16l-.1-.06c-.3-.18-.7-.4-1.13-.4z"/><path fill="#D9D1B4" d="m19.63 21.84 1.18.16v-3.51c-.47.07-.88.29-1.18.56v2.8z"/><path fill="#151515" d="M20.81 18.49v3.5l-1.18-.15v-2.8c.3-.26.7-.48 1.18-.55m.2-.23-.23.03c-.6.1-1.03.38-1.28.61l-.06.06v3.05l.17.02.73.1.45.06.22.03v-3.96z"/></svg>