<?xml version="1.0" encoding="UTF-8"?>
<svg xmlns="http://www.w3.org/2000/svg" xmlns:xlink="http://www.w3.org/1999/xlink" width="100%" height="100%" viewBox="0 0 1024 1024" version="1.1">
<defs>
<linearGradient id="linear0" gradientUnits="userSpaceOnUse" x1="21.97" y1="27.88" x2="13.85" y2="2.58" gradientTransform="matrix(32,0,0,32,0,0)">
<stop offset="0" style="stop-color:rgb(74.509804%,12.941176%,14.901961%);stop-opacity:1;"/>
<stop offset="0.2" style="stop-color:rgb(74.509804%,12.941176%,14.901961%);stop-opacity:1;"/>
<stop offset="0.22" style="stop-color:rgb(74.509804%,12.941176%,14.901961%);stop-opacity:1;"/>
<stop offset="0.42" style="stop-color:rgb(72.941176%,12.54902%,14.509804%);stop-opacity:1;"/>
<stop offset="0.57" style="stop-color:rgb(69.411765%,11.764706%,13.72549%);stop-opacity:1;"/>
<stop offset="0.71" style="stop-color:rgb(62.745098%,10.980392%,12.54902%);stop-opacity:1;"/>
<stop offset="0.83" style="stop-color:rgb(53.333333%,9.411765%,10.980392%);stop-opacity:1;"/>
<stop offset="0.96" style="stop-color:rgb(41.960784%,7.45098%,8.627451%);stop-opacity:1;"/>
<stop offset="1" style="stop-color:rgb(36.862745%,6.666667%,7.843137%);stop-opacity:1;"/>
</linearGradient>
<radialGradient id="radial0" gradientUnits="userSpaceOnUse" cx="0" cy="0" fx="0" fy="0" r="1" gradientTransform="matrix(1077.3504,0,0,1077.3504,-112.2528,-688.8128)">
<stop offset="0" style="stop-color:rgb(100%,100%,100%);stop-opacity:1;"/>
<stop offset="1" style="stop-color:rgb(100%,100%,100%);stop-opacity:0;"/>
</radialGradient>
<linearGradient id="linear1" gradientUnits="userSpaceOnUse" x1="14.58" y1="6.98999" x2="16.8" y2="21.46" gradientTransform="matrix(32,0,0,32,0,0)">
<stop offset="0" style="stop-color:rgb(74.901961%,35.686275%,22.352941%);stop-opacity:1;"/>
<stop offset="1" style="stop-color:rgb(73.72549%,12.941176%,15.294118%);stop-opacity:1;"/>
</linearGradient>
<linearGradient id="linear2" gradientUnits="userSpaceOnUse" x1="5.56" y1="-6.39" x2="28.24" y2="28.81" gradientTransform="matrix(32,0,0,32,0,0)">
<stop offset="0" style="stop-color:rgb(100%,100%,100%);stop-opacity:1;"/>
<stop offset="1" style="stop-color:rgb(54.117647%,54.901961%,56.078431%);stop-opacity:1;"/>
</linearGradient>
<clipPath id="clip1">
  <path d="M 1.921875 0 L 1024 0 L 1024 1022.078125 L 1.921875 1022.078125 Z M 1.921875 0 "/>
</clipPath>
<filter id="alpha" filterUnits="objectBoundingBox" x="0%" y="0%" width="100%" height="100%">
  <feColorMatrix type="matrix" in="SourceGraphic" values="0 0 0 0 1 0 0 0 0 1 0 0 0 0 1 0 0 0 1 0"/>
</filter>
<mask id="mask0">
  <g filter="url(#alpha)">
<rect x="0" y="0" width="1024" height="1024" style="fill:rgb(0%,0%,0%);fill-opacity:0.290196;stroke:none;"/>
  </g>
</mask>
<linearGradient id="linear3" gradientUnits="userSpaceOnUse" x1="14.16" y1="7.80999" x2="13.06" y2="2.41999" gradientTransform="matrix(32,0,0,32,0,0)">
<stop offset="0" style="stop-color:rgb(100%,100%,100%);stop-opacity:1;"/>
<stop offset="0.06" style="stop-color:rgb(100%,100%,100%);stop-opacity:0.94902;"/>
<stop offset="0.16" style="stop-color:rgb(100%,100%,100%);stop-opacity:0.819608;"/>
<stop offset="0.31" style="stop-color:rgb(100%,100%,100%);stop-opacity:0.611765;"/>
<stop offset="0.48" style="stop-color:rgb(100%,100%,100%);stop-opacity:0.321569;"/>
<stop offset="0.65" style="stop-color:rgb(100%,100%,100%);stop-opacity:0;"/>
</linearGradient>
<clipPath id="clip2">
  <rect x="0" y="0" width="1024" height="1024"/>
</clipPath>
<g id="surface5" clip-path="url(#clip2)">
<path style=" stroke:none;fill-rule:evenodd;fill:url(#linear3);" d="M 154.238281 365.761719 C 155.199219 368.640625 159.679688 368.640625 160.960938 365.761719 C 188.480469 298.878906 289.601562 220.480469 426.238281 169.917969 C 623.679688 96.960938 742.398438 83.519531 740.160156 80 C 739.839844 79.359375 741.121094 76.480469 740.480469 76.480469 C 658.878906 72.960938 615.679688 76.480469 457.601562 77.441406 C 455.359375 77.441406 453.121094 77.441406 451.199219 77.441406 C 448.960938 77.441406 446.71875 77.441406 444.800781 77.441406 C 305.601562 79.359375 222.078125 79.679688 174.078125 80.640625 C 164.160156 80.640625 157.761719 91.839844 157.441406 100.800781 C 155.839844 137.28125 154.558594 365.441406 154.558594 365.441406 Z M 154.238281 365.761719 "/>
</g>
<linearGradient id="linear4" gradientUnits="userSpaceOnUse" x1="15.78" y1="3.22001" x2="17.63" y2="15.68" gradientTransform="matrix(32,0,0,32,0,0)">
<stop offset="0" style="stop-color:rgb(100%,100%,100%);stop-opacity:1;"/>
<stop offset="1" style="stop-color:rgb(13.72549%,12.156863%,12.54902%);stop-opacity:1;"/>
</linearGradient>
<linearGradient id="linear5" gradientUnits="userSpaceOnUse" x1="12.09" y1="-0.00999901" x2="23.43" y2="26.87" gradientTransform="matrix(32,0,0,32,0,0)">
<stop offset="0" style="stop-color:rgb(100%,100%,100%);stop-opacity:1;"/>
<stop offset="0.36" style="stop-color:rgb(56.470588%,70.588235%,58.823529%);stop-opacity:1;"/>
<stop offset="0.46" style="stop-color:rgb(36.078431%,36.078431%,37.254902%);stop-opacity:1;"/>
<stop offset="0.84" style="stop-color:rgb(100%,100%,100%);stop-opacity:1;"/>
</linearGradient>
</defs>
<g id="surface1">
<path style=" stroke:none;fill-rule:nonzero;fill:url(#linear0);" d="M 911.359375 505.601562 L 911.359375 59.519531 C 911.359375 50.238281 904.640625 42.558594 896.640625 42.558594 L 132.160156 42.558594 C 124.160156 42.558594 117.441406 50.238281 117.441406 59.519531 L 117.441406 505.601562 C 117.441406 776.640625 510.078125 983.679688 510.078125 983.679688 C 512.640625 985.28125 515.839844 985.28125 518.398438 983.679688 C 518.398438 983.679688 911.359375 772.800781 911.359375 505.601562 Z M 911.359375 505.601562 "/>
<path style=" stroke:none;fill-rule:nonzero;fill:rgb(36.862745%,6.27451%,7.843137%);fill-opacity:1;" d="M 194.558594 113.28125 L 220.480469 113.28125 L 220.480469 225.28125 L 194.558594 225.28125 Z M 241.28125 110.71875 L 242.878906 110.71875 L 301.761719 156.480469 L 301.761719 113.28125 L 327.679688 113.28125 L 327.679688 225.28125 L 301.761719 225.28125 L 301.761719 186.878906 L 267.199219 159.039062 L 267.199219 225.28125 L 241.28125 225.28125 Z M 348.480469 113.28125 L 413.761719 113.28125 L 413.761719 137.28125 L 374.398438 137.28125 L 374.398438 166.398438 L 419.519531 166.398438 L 419.519531 189.757812 L 374.398438 189.757812 L 374.398438 225.601562 L 348.480469 225.601562 Z M 435.839844 113.28125 L 499.519531 113.28125 L 499.519531 137.28125 L 461.441406 137.28125 L 461.441406 164.480469 L 505.28125 164.480469 L 505.28125 186.558594 L 461.441406 186.558594 L 461.441406 201.601562 L 513.921875 201.601562 L 513.921875 225.601562 L 435.839844 225.601562 Z M 528.960938 113.28125 L 567.679688 113.28125 C 582.078125 113.28125 593.28125 116.480469 601.28125 123.199219 C 609.28125 129.917969 613.121094 139.519531 613.121094 151.679688 C 613.121094 158.398438 611.839844 164.160156 608.960938 169.28125 C 606.398438 174.398438 602.558594 178.558594 597.441406 182.078125 L 616.960938 224.960938 L 589.441406 224.960938 L 574.71875 189.441406 C 572.160156 189.441406 569.601562 189.757812 567.039062 189.757812 L 554.878906 189.757812 L 554.878906 224.960938 L 528.960938 224.960938 L 528.960938 112.960938 Z M 565.441406 168.320312 C 579.199219 168.320312 586.238281 162.878906 586.238281 152 C 586.238281 141.121094 579.199219 136 565.441406 136 L 554.878906 136 L 554.878906 168.320312 Z M 629.761719 110.71875 L 631.359375 110.71875 L 690.238281 156.480469 L 690.238281 113.28125 L 716.160156 113.28125 L 716.160156 225.28125 L 690.238281 225.28125 L 690.238281 186.878906 L 655.679688 159.039062 L 655.679688 225.28125 L 629.761719 225.28125 Z M 740.480469 199.679688 C 735.359375 190.71875 732.800781 180.480469 732.800781 168.960938 C 732.800781 157.441406 735.359375 147.199219 740.480469 138.238281 C 745.601562 129.28125 752.640625 122.558594 761.601562 117.441406 C 770.558594 112.320312 781.121094 109.757812 792.960938 109.757812 C 804.800781 109.757812 815.359375 112.320312 824.320312 117.441406 C 833.28125 122.558594 840.320312 129.28125 845.441406 138.238281 C 850.558594 147.199219 853.121094 157.441406 853.121094 168.960938 C 853.121094 180.480469 850.558594 190.71875 845.441406 199.679688 C 840.320312 208.640625 833.28125 215.679688 824.320312 220.480469 C 815.359375 225.601562 804.800781 228.160156 792.960938 228.160156 C 781.121094 228.160156 770.878906 225.601562 761.601562 220.480469 C 752.640625 215.359375 745.601562 208.320312 740.480469 199.679688 Z M 822.078125 186.558594 C 824.960938 181.441406 826.238281 175.679688 826.238281 168.960938 C 826.238281 162.238281 824.960938 156.480469 822.078125 151.359375 C 819.199219 146.238281 815.359375 142.398438 810.238281 139.519531 C 805.121094 136.640625 799.359375 135.359375 792.960938 135.359375 C 786.558594 135.359375 780.800781 136.640625 775.679688 139.519531 C 770.558594 142.398438 766.71875 146.238281 763.839844 151.359375 C 760.960938 156.480469 759.679688 162.238281 759.679688 168.960938 C 759.679688 175.679688 760.960938 181.441406 763.839844 186.558594 C 766.71875 191.679688 770.558594 195.519531 775.679688 198.398438 C 780.800781 201.28125 786.238281 202.558594 792.960938 202.558594 C 799.679688 202.558594 805.441406 201.28125 810.238281 198.398438 C 815.359375 195.519531 819.199219 191.679688 822.078125 186.558594 Z M 822.078125 186.558594 "/>
<path style=" stroke:none;fill-rule:nonzero;fill:rgb(51.372549%,9.803922%,13.333333%);fill-opacity:1;" d="M 512.640625 975.679688 C 511.679688 975.039062 412.800781 922.558594 315.199219 837.761719 C 258.238281 788.160156 212.800781 736.960938 180.160156 686.398438 C 139.839844 623.359375 119.359375 560.640625 119.359375 499.839844 L 119.359375 48.960938 C 119.359375 44.160156 122.558594 40 126.078125 40 L 900.160156 40 C 903.679688 40 906.878906 44.160156 906.878906 48.960938 L 906.878906 499.839844 C 906.878906 559.679688 886.398438 622.078125 846.078125 684.800781 C 813.441406 735.359375 768 786.558594 711.039062 836.480469 C 613.441406 921.921875 514.238281 975.359375 513.28125 976 Z M 503.039062 955.199219 C 505.921875 956.800781 509.121094 957.761719 512.320312 957.761719 C 515.519531 957.761719 518.71875 956.800781 521.601562 955.199219 C 525.441406 952.960938 616.960938 902.398438 707.519531 822.71875 C 830.078125 714.878906 894.71875 603.199219 894.71875 499.839844 L 894.71875 63.679688 C 894.71875 59.199219 891.199219 55.679688 886.71875 55.679688 L 139.199219 55.679688 C 134.71875 55.679688 131.199219 59.199219 131.199219 63.679688 L 131.199219 499.839844 C 131.199219 599.039062 195.839844 709.441406 317.761719 818.878906 C 408 899.839844 499.199219 952.960938 503.039062 955.199219 Z M 503.039062 955.199219 "/>
<path style=" stroke:none;fill-rule:nonzero;fill:url(#radial0);" d="M 451.839844 305.28125 C 589.761719 230.398438 741.121094 218.238281 859.839844 261.121094 L 859.839844 91.199219 C 859.839844 82.878906 854.078125 76.160156 846.71875 76.160156 L 169.921875 76.160156 C 162.878906 76.160156 156.800781 82.878906 156.800781 91.199219 L 156.800781 486.398438 C 156.800781 534.71875 170.878906 580.800781 193.601562 623.679688 C 222.398438 500.800781 314.558594 380.480469 452.160156 305.28125 Z M 451.839844 305.28125 "/>
<path style=" stroke:none;fill-rule:nonzero;fill:url(#linear1);" d="M 573.441406 382.71875 L 527.039062 360 L 513.28125 365.761719 L 511.039062 355.199219 L 492.480469 348.800781 L 492.480469 360 L 479.679688 358.71875 L 471.039062 350.71875 L 431.679688 376 C 431.679688 376 415.359375 402.238281 416.960938 412.480469 C 418.558594 422.71875 435.839844 409.921875 435.839844 409.921875 L 431.039062 448.320312 L 444.800781 441.28125 C 444.800781 441.28125 432 464.960938 440.320312 478.71875 C 448.640625 492.480469 455.039062 465.921875 465.921875 476.480469 C 476.800781 487.039062 472.320312 510.398438 472.320312 510.398438 L 451.199219 532.160156 L 475.839844 538.878906 L 450.558594 554.558594 L 432.320312 568.960938 L 420.160156 569.601562 L 404.480469 560.960938 L 402.238281 546.558594 L 409.601562 528.640625 L 428.160156 504.320312 L 404.800781 519.039062 L 390.398438 536.960938 L 386.878906 555.199219 L 398.078125 573.441406 L 409.921875 583.359375 L 413.441406 589.761719 C 413.441406 589.761719 422.71875 600.320312 432 618.558594 C 441.28125 636.800781 448.960938 651.519531 448.960938 651.519531 C 448.960938 651.519531 431.039062 662.078125 419.519531 668.800781 C 408 675.519531 403.839844 680 403.839844 680 C 403.839844 680 412.480469 689.28125 411.839844 698.238281 C 411.199219 707.199219 393.28125 741.441406 393.28125 741.441406 L 478.398438 762.558594 L 473.601562 744 L 445.441406 729.921875 C 440 727.359375 436.480469 722.238281 435.519531 716.480469 L 433.921875 707.519531 C 433.28125 703.359375 434.558594 698.878906 437.441406 695.679688 L 448.960938 680.960938 L 477.761719 671.359375 L 500.480469 620.480469 L 535.679688 616.960938 C 535.679688 616.960938 543.359375 619.199219 532.160156 636.160156 C 520.960938 653.121094 512.960938 656.640625 512.960938 656.640625 C 512.960938 656.640625 527.679688 658.238281 542.398438 671.679688 C 557.121094 685.121094 562.878906 696 562.878906 696 L 562.878906 711.359375 L 644.480469 697.601562 L 633.921875 685.441406 L 608.960938 681.921875 C 601.921875 680.960938 588.480469 679.039062 583.039062 674.238281 L 562.238281 641.921875 L 596.480469 592.640625 L 560 575.679688 L 525.441406 574.398438 L 561.921875 551.039062 L 597.761719 560.960938 L 617.601562 552.960938 L 638.71875 552.960938 L 664.320312 531.839844 L 661.761719 518.398438 L 641.28125 510.398438 L 620.160156 524.800781 L 587.839844 534.078125 L 584 531.839844 C 581.761719 530.558594 580.800781 530.238281 581.441406 527.679688 L 587.839844 495.039062 L 616.320312 501.761719 L 618.558594 486.71875 L 645.761719 424.320312 L 635.199219 427.519531 L 627.519531 413.441406 L 635.519531 392.640625 L 645.121094 389.121094 L 632.320312 383.039062 C 627.839844 382.398438 616.320312 387.519531 613.121094 390.71875 L 604.160156 399.679688 L 608.640625 431.359375 L 590.078125 461.121094 L 551.359375 444.160156 L 534.398438 429.761719 L 563.839844 430.398438 L 564.800781 414.71875 L 536.320312 414.71875 L 535.679688 404.160156 C 535.359375 399.039062 539.199219 394.558594 544.320312 394.238281 L 557.441406 393.28125 L 567.039062 403.199219 L 578.558594 396.800781 L 575.039062 390.078125 L 580.160156 384.320312 L 573.761719 382.71875 Z M 573.441406 382.71875 "/>
<path style=" stroke:none;fill-rule:nonzero;fill:rgb(13.72549%,12.156863%,12.54902%);fill-opacity:1;" d="M 667.199219 528.960938 C 665.921875 525.761719 665.28125 522.238281 663.359375 519.359375 C 662.71875 518.398438 661.761719 517.441406 660.160156 516.160156 C 656 512.960938 651.199219 510.71875 646.078125 509.441406 C 641.28125 508.160156 637.441406 507.839844 632 507.519531 C 631.039062 507.519531 629.441406 507.519531 628.480469 508.480469 C 623.679688 512.960938 617.921875 517.121094 613.121094 521.601562 C 611.519531 522.878906 609.921875 524.480469 608 525.121094 C 601.28125 528 594.238281 527.679688 587.199219 527.359375 C 586.558594 527.359375 585.921875 527.039062 584.960938 526.398438 C 590.398438 518.078125 593.28125 509.121094 591.679688 499.199219 C 592.960938 499.519531 593.601562 499.839844 594.238281 499.839844 C 599.359375 501.121094 604.160156 502.71875 609.28125 504 C 610.878906 504.320312 612.480469 505.28125 613.761719 505.921875 C 614.398438 506.238281 615.039062 506.878906 616 507.519531 C 616.640625 506.878906 616.960938 505.921875 617.601562 505.28125 L 626.238281 505.28125 C 626.238281 505.28125 624 503.039062 623.359375 501.761719 C 622.398438 499.519531 621.441406 497.28125 620.800781 495.039062 C 620.480469 493.441406 620.800781 491.839844 621.121094 490.238281 C 621.761719 487.679688 622.078125 485.121094 623.039062 482.558594 C 624.320312 479.039062 625.921875 475.519531 627.519531 472 C 628.800781 469.121094 629.761719 466.238281 630.71875 463.359375 C 633.28125 464.320312 634.238281 467.519531 637.441406 466.878906 C 637.121094 465.921875 636.480469 464.960938 636.480469 463.679688 C 635.519531 455.039062 637.121094 447.359375 640.960938 439.359375 C 643.839844 432.960938 646.078125 426.558594 648.640625 419.839844 C 648.960938 418.878906 649.28125 418.238281 649.601562 417.28125 C 649.601562 417.28125 648.960938 416.640625 648.640625 416.640625 C 646.078125 417.601562 643.839844 418.238281 641.601562 419.199219 C 639.679688 419.839844 637.761719 420.480469 636.160156 421.121094 C 634.558594 418.878906 633.921875 416.640625 633.921875 414.078125 C 637.121094 413.441406 639.679688 412.800781 642.878906 412.160156 C 640.960938 409.28125 639.039062 407.039062 637.441406 404.800781 C 641.28125 403.199219 645.121094 401.28125 649.28125 399.679688 C 646.078125 397.121094 643.199219 394.878906 640.320312 392.320312 C 643.519531 391.039062 646.398438 390.078125 649.601562 388.800781 C 648 387.519531 647.039062 386.878906 646.078125 385.921875 C 641.28125 382.078125 636.480469 378.558594 629.761719 379.519531 C 628.160156 379.519531 626.558594 379.519531 624.960938 379.519531 C 622.078125 379.519531 619.519531 379.839844 617.28125 381.761719 C 611.519531 387.199219 605.441406 392.640625 599.679688 398.078125 C 599.359375 398.398438 599.039062 399.359375 599.359375 400 C 600.960938 406.71875 602.558594 413.441406 604.800781 420.160156 C 605.761719 424 606.078125 427.199219 604.800781 431.039062 C 601.921875 439.039062 598.078125 446.398438 592.320312 453.121094 C 591.359375 454.398438 589.761719 455.039062 588.160156 454.398438 C 586.238281 453.761719 584 453.441406 581.761719 452.800781 C 574.71875 450.878906 567.679688 448.960938 561.28125 444.800781 C 554.558594 440.320312 547.839844 435.519531 541.121094 431.039062 C 550.398438 429.761719 559.359375 432 568 436.160156 C 569.601562 426.558594 571.199219 417.601562 572.800781 408 C 572.160156 408 571.839844 408 571.839844 408 C 571.519531 408 571.199219 408 570.878906 408 C 563.519531 410.238281 555.839844 411.839844 547.839844 411.519531 C 545.921875 411.519531 543.679688 410.878906 542.078125 409.921875 C 540.160156 409.28125 539.519531 407.679688 540.800781 405.761719 C 543.679688 400.960938 547.519531 396.800781 553.28125 395.519531 C 558.398438 394.238281 562.878906 396.800781 564.160156 401.601562 C 564.160156 402.558594 564.160156 403.519531 564.480469 404.480469 C 566.078125 403.839844 567.359375 403.519531 568.960938 402.878906 C 572.800781 401.28125 576.960938 399.679688 579.839844 396.480469 C 580.800781 395.199219 583.039062 394.238281 581.761719 392 C 581.121094 390.71875 581.441406 389.761719 582.71875 388.800781 C 587.519531 385.921875 586.558594 379.199219 581.761719 377.28125 C 574.71875 374.398438 568 371.199219 561.28125 368 C 550.71875 363.199219 540.160156 358.398438 529.601562 353.601562 C 528.640625 353.28125 527.359375 353.601562 526.398438 353.601562 C 524.160156 354.558594 521.921875 355.519531 519.679688 356.480469 C 519.039062 354.558594 518.71875 352.640625 517.761719 350.71875 C 517.441406 349.761719 516.480469 349.121094 515.839844 348.800781 C 511.039062 346.878906 505.921875 344.960938 501.121094 343.359375 C 496.640625 341.761719 491.839844 339.839844 487.039062 338.238281 C 487.679688 342.398438 488.320312 346.238281 488.960938 350.078125 C 488.960938 351.039062 489.601562 352.320312 488.320312 352.320312 C 487.039062 352.320312 485.121094 353.601562 484.800781 351.039062 C 484.480469 349.121094 483.839844 346.878906 482.878906 344.960938 C 482.878906 344.320312 481.601562 343.679688 481.28125 343.679688 C 478.398438 344.320312 475.519531 344.960938 472.960938 345.921875 C 457.28125 350.71875 443.519531 358.71875 432.960938 371.519531 C 426.878906 378.878906 421.441406 386.558594 418.238281 395.519531 C 415.039062 404.160156 414.078125 412.800781 417.28125 421.761719 C 423.039062 418.878906 428.800781 416.320312 435.199219 413.121094 C 434.878906 429.121094 428.480469 442.878906 424 457.601562 C 429.441406 454.078125 434.558594 450.558594 439.679688 447.359375 C 433.921875 459.519531 432 471.039062 440.960938 482.238281 C 446.398438 479.359375 452.160156 477.121094 458.238281 476.480469 C 464.320312 475.519531 469.441406 477.761719 471.359375 483.839844 C 473.601562 491.519531 472.320312 498.878906 469.441406 505.921875 C 465.601562 514.558594 458.878906 520.640625 451.199219 526.078125 C 448 528.320312 444.480469 529.921875 441.28125 532.160156 C 441.28125 532.160156 441.28125 532.800781 441.28125 533.121094 C 448.320312 534.71875 455.039062 536.640625 462.078125 538.238281 C 461.441406 539.199219 460.480469 540.160156 459.839844 541.121094 C 455.679688 545.601562 450.878906 548.800781 445.441406 551.039062 C 438.398438 553.921875 431.679688 557.121094 428.480469 565.441406 C 424.960938 564.480469 421.441406 563.839844 417.921875 562.558594 C 413.441406 560.640625 409.28125 557.761719 408 552.640625 C 406.71875 548.480469 407.039062 544.640625 408 540.480469 C 409.28125 535.359375 412.800781 531.839844 416.320312 528.320312 C 423.359375 521.28125 431.039062 514.878906 436.160156 506.238281 C 439.039062 501.121094 440.640625 495.679688 438.71875 489.921875 C 435.199219 480 428.480469 473.28125 418.558594 470.078125 C 408.640625 466.558594 398.078125 464 388.160156 461.121094 C 381.121094 459.199219 374.078125 456.960938 366.71875 455.039062 C 360.320312 453.121094 353.921875 451.199219 348.480469 447.359375 C 343.359375 443.519531 339.839844 438.71875 339.839844 432.320312 C 339.839844 423.039062 344.320312 416.320312 352.320312 412.160156 C 354.878906 410.878906 358.078125 409.601562 360.640625 409.921875 C 370.238281 410.558594 374.078125 420.480469 368.960938 427.839844 C 367.039062 430.398438 364.480469 432 360.960938 431.359375 C 358.078125 430.71875 356.480469 428.480469 355.839844 425.601562 C 355.839844 424.320312 355.839844 423.039062 355.839844 421.761719 C 353.28125 424 351.359375 427.519531 351.679688 429.761719 C 352.320312 435.199219 357.761719 439.359375 362.558594 439.679688 C 366.71875 440 370.238281 438.078125 373.441406 435.519531 C 377.28125 443.199219 387.199219 439.359375 390.71875 434.558594 C 389.761719 434.558594 388.480469 434.558594 387.519531 434.558594 C 382.71875 434.558594 379.199219 430.398438 379.839844 425.921875 C 379.839844 424 380.160156 422.078125 380.160156 420.160156 C 380.160156 410.558594 373.761719 403.199219 364.800781 400.960938 C 362.878906 400.320312 362.558594 399.679688 362.878906 398.398438 C 363.199219 393.921875 361.921875 389.761719 358.398438 386.238281 C 358.398438 387.519531 358.398438 388.160156 358.398438 389.121094 C 357.761719 394.878906 355.519531 399.679688 350.078125 402.558594 C 344.960938 405.121094 340.480469 408 336.960938 412.480469 C 329.921875 421.441406 328 431.679688 331.839844 442.238281 C 335.039062 450.878906 341.441406 456.960938 350.078125 460.160156 C 359.039062 463.359375 368 466.238281 376.960938 469.441406 C 387.519531 472.960938 398.078125 476.480469 408.640625 479.679688 C 413.441406 481.28125 418.238281 482.878906 421.441406 487.359375 C 424.320312 491.199219 424.960938 497.921875 422.078125 501.121094 C 418.878906 504.640625 415.039062 507.839844 411.199219 511.359375 C 409.28125 506.558594 405.121094 503.359375 400.640625 502.71875 C 400.640625 502.71875 400 502.71875 399.679688 502.398438 C 399.679688 502.398438 399.679688 502.71875 400 503.039062 C 400.320312 503.679688 400.640625 504.320312 400.960938 504.960938 C 402.558594 508.160156 403.839844 511.679688 401.921875 515.199219 C 400.320312 517.761719 398.71875 520.320312 396.800781 522.558594 C 393.601562 526.71875 389.441406 529.921875 387.839844 535.039062 C 385.601562 541.441406 384 547.839844 385.601562 554.878906 C 387.839844 563.839844 391.039062 571.839844 398.71875 577.921875 C 390.71875 581.121094 387.519531 584.320312 388.480469 588.160156 C 390.71875 587.519531 392.960938 586.878906 395.519531 586.558594 C 403.519531 585.601562 408.960938 589.121094 413.441406 595.519531 C 420.480469 606.078125 427.839844 616.320312 434.558594 626.878906 C 438.398438 632.960938 441.28125 639.679688 444.480469 646.078125 C 425.921875 654.078125 411.199219 666.238281 396.480469 679.679688 C 397.761719 680.320312 399.039062 681.28125 400.320312 681.601562 C 402.878906 682.558594 404.160156 684.160156 404.800781 686.398438 C 405.441406 689.28125 406.078125 692.160156 406.398438 694.71875 C 406.71875 702.71875 402.558594 708.480469 399.679688 715.839844 C 397.761719 720.640625 395.839844 725.761719 394.238281 730.558594 C 392.960938 734.398438 392.640625 731.839844 391.359375 735.679688 C 402.238281 737.921875 411.839844 746.878906 422.71875 749.441406 C 424 749.441406 424.960938 749.441406 426.238281 749.441406 C 443.199219 752.960938 459.839844 756.800781 476.800781 760.320312 C 477.761719 760.320312 478.398438 760.640625 479.359375 760.960938 C 479.039062 755.839844 478.398438 750.71875 478.078125 745.601562 C 478.078125 744.320312 477.121094 743.039062 476.480469 741.761719 C 473.921875 737.28125 470.078125 735.359375 465.601562 733.441406 C 456.960938 729.921875 448.320312 725.761719 440.960938 720 C 438.398438 718.078125 439.679688 711.039062 439.039062 707.199219 C 438.71875 704.640625 438.398438 702.078125 439.039062 699.839844 C 440.320312 693.441406 444.160156 688.320312 449.921875 684.480469 C 457.601562 679.359375 465.921875 676.160156 474.878906 674.238281 C 476.800781 673.921875 479.359375 673.28125 480.320312 672 C 483.519531 667.839844 486.078125 663.359375 488.640625 658.878906 C 494.398438 648.640625 499.519531 638.078125 503.359375 627.199219 C 503.679688 626.238281 504.960938 624.960938 505.921875 624.640625 C 514.878906 622.078125 524.160156 621.121094 533.761719 622.078125 C 531.199219 629.121094 528 635.519531 523.199219 641.28125 C 518.398438 647.039062 512.640625 651.839844 505.921875 656.320312 C 506.878906 656.320312 507.199219 656.320312 507.519531 656.320312 C 516.800781 660.160156 526.078125 664.320312 534.398438 669.761719 C 541.761719 674.558594 549.121094 681.28125 555.519531 687.679688 C 557.441406 689.601562 560 691.199219 560 694.078125 C 560 699.839844 559.679688 705.28125 559.359375 711.039062 C 560.320312 711.039062 561.601562 711.039062 562.558594 711.039062 C 571.199219 710.078125 579.839844 708.800781 588.160156 707.519531 C 596.160156 706.558594 604.160156 705.28125 612.160156 704.320312 C 620.800781 703.039062 629.441406 702.078125 638.398438 700.800781 C 639.679688 700.800781 640.640625 700.480469 641.921875 700.160156 C 644.800781 700.160156 647.679688 699.839844 650.558594 699.519531 C 648.640625 695.359375 647.039062 691.199219 645.441406 687.359375 C 642.878906 682.238281 638.71875 678.71875 632.960938 678.078125 C 620.160156 677.121094 608 674.238281 596.160156 669.761719 C 588.160156 666.558594 583.359375 665.601562 578.238281 658.878906 C 574.078125 653.121094 570.878906 647.039062 568.320312 640.320312 C 568.960938 639.679688 569.28125 638.71875 569.921875 638.078125 C 581.441406 623.039062 592.640625 607.679688 604.160156 592.640625 C 604.800781 591.679688 605.121094 591.039062 604.160156 590.078125 C 601.601562 587.839844 599.679688 585.28125 597.121094 583.359375 C 585.601562 574.71875 572.160156 571.199219 557.761719 569.921875 C 552 569.28125 546.238281 569.601562 540.480469 569.28125 C 538.878906 569.28125 537.28125 569.28125 535.679688 569.921875 C 535.679688 569.921875 535.679688 569.921875 535.679688 569.601562 C 545.28125 564.480469 554.878906 559.359375 564.480469 554.238281 C 569.601562 555.839844 575.359375 557.441406 580.800781 559.039062 C 586.878906 560.640625 593.28125 562.238281 599.359375 564.160156 C 600.640625 564.480469 600.960938 564.160156 601.28125 562.878906 C 601.601562 561.601562 602.238281 560.320312 603.199219 559.679688 C 609.601562 556.160156 616.320312 553.28125 624 553.601562 C 627.839844 553.601562 631.039062 553.921875 632.960938 557.761719 C 634.878906 557.121094 636.375 555.945312 637.441406 554.238281 C 639.679688 551.039062 640.640625 551.039062 643.519531 553.601562 C 643.839844 553.601562 644.160156 554.238281 644.480469 554.558594 C 645.441406 554.558594 646.398438 555.199219 647.039062 554.878906 C 647.359375 554.878906 647.679688 553.601562 647.679688 552.960938 C 647.679688 550.71875 647.679688 548.800781 648.320312 546.558594 C 648.320312 545.601562 649.28125 544.640625 649.921875 544.320312 C 650.238281 544.320312 651.519531 544.320312 652.160156 545.28125 C 653.441406 546.558594 654.398438 548.160156 656 549.761719 C 659.199219 546.558594 658.238281 542.398438 658.878906 537.601562 C 661.121094 540.160156 663.039062 542.078125 664.960938 544 C 664.960938 544 665.28125 544 665.601562 543.679688 C 665.601562 540.160156 665.601562 536.960938 665.601562 533.441406 C 665.601562 532.480469 666.238281 531.199219 667.199219 530.558594 C 668.800781 529.28125 670.078125 527.679688 669.441406 526.078125 Z M 636.800781 389.441406 C 632 391.679688 632 391.679688 627.839844 386.878906 C 631.359375 386.878906 634.558594 385.921875 636.800781 389.441406 Z M 584.320312 464.320312 C 586.878906 464.960938 589.761719 465.921875 592.320312 466.558594 C 592.960938 466.558594 594.238281 466.238281 594.558594 465.601562 C 599.679688 460.160156 604.480469 454.078125 607.679688 447.359375 C 610.238281 441.921875 612.800781 436.480469 615.359375 431.039062 C 615.359375 430.71875 615.359375 430.078125 615.359375 429.441406 C 614.078125 423.679688 612.800781 417.601562 611.199219 411.839844 C 610.558594 408.960938 609.921875 406.398438 608.960938 403.519531 C 608.320312 401.921875 608.320312 400.960938 609.921875 400 C 613.761719 397.121094 616.960938 393.601562 620.480469 390.71875 C 620.480469 390.71875 621.761719 390.71875 622.078125 390.71875 C 624 392.640625 625.921875 394.558594 627.839844 396.800781 C 627.839844 397.121094 627.839844 398.078125 627.839844 398.71875 C 626.238281 402.238281 624.640625 405.761719 623.359375 409.601562 C 623.039062 410.558594 623.039062 411.519531 623.359375 412.480469 C 625.28125 417.601562 627.839844 422.398438 629.761719 427.199219 C 631.679688 431.679688 631.359375 431.679688 636.480469 430.078125 C 636.800781 430.078125 637.441406 430.078125 637.761719 430.078125 C 637.761719 430.078125 638.078125 430.398438 638.398438 430.71875 C 635.519531 435.519531 632.640625 440 630.398438 444.800781 C 628.160156 449.28125 626.558594 454.078125 624.640625 458.878906 C 621.761719 465.921875 618.878906 473.28125 615.679688 480 C 614.71875 481.921875 613.121094 483.199219 611.839844 484.800781 C 609.921875 486.71875 609.601562 491.839844 610.878906 494.078125 C 611.519531 495.039062 611.519531 496 611.839844 497.601562 C 607.359375 496.320312 603.519531 495.039062 599.359375 493.761719 C 596.800781 492.800781 594.558594 491.839844 592.320312 491.199219 C 590.71875 490.878906 590.398438 489.921875 590.71875 488.640625 C 591.359375 487.039062 590.078125 486.078125 589.441406 484.800781 C 585.28125 477.761719 580.800781 471.039062 577.601562 463.039062 C 579.839844 463.679688 581.761719 464.320312 584 464.640625 Z M 563.519531 513.28125 C 569.921875 504.640625 572.800781 495.039062 571.199219 484.480469 C 570.238281 477.761719 567.679688 471.359375 565.761719 464.640625 C 565.761719 464 565.441406 463.359375 565.121094 462.398438 C 583.679688 477.761719 586.238281 504.960938 578.238281 524.160156 C 576 523.519531 574.078125 523.199219 571.839844 522.558594 C 567.679688 521.28125 565.121094 518.078125 562.558594 514.878906 C 562.558594 514.878906 562.558594 513.601562 563.199219 512.960938 Z M 507.839844 358.71875 C 507.839844 358.71875 508.800781 359.679688 508.800781 360.320312 C 510.078125 364.160156 511.359375 368 512.640625 371.839844 C 516.800781 369.921875 520.640625 368.640625 524.160156 366.398438 C 526.078125 365.441406 527.359375 365.441406 528.960938 366.398438 C 541.441406 371.839844 553.921875 377.601562 566.078125 383.039062 C 568.320312 384 570.558594 384.960938 573.121094 386.238281 C 571.519531 387.519531 570.238281 388.480469 568.960938 389.441406 C 569.601562 391.039062 570.238281 392.640625 571.199219 394.558594 C 570.238281 395.199219 569.28125 396.160156 568.320312 396.800781 C 567.039062 395.199219 565.761719 393.601562 564.160156 392.320312 C 559.359375 388.160156 553.601562 388.160156 548.160156 390.078125 C 539.199219 392.960938 533.441406 399.359375 530.558594 408.320312 C 529.601562 411.519531 531.839844 416.320312 535.359375 418.558594 C 538.558594 420.800781 542.398438 422.078125 546.558594 421.761719 C 551.359375 421.761719 556.160156 421.441406 560.960938 421.121094 C 560.960938 422.71875 560.320312 424.320312 560 425.921875 C 557.121094 425.921875 554.238281 424.960938 551.359375 424.960938 C 545.601562 424.960938 539.839844 425.921875 534.078125 427.839844 C 532.800781 428.160156 532.160156 428.160156 531.199219 427.199219 C 522.878906 419.199219 516.800781 409.921875 512 399.359375 C 505.921875 386.238281 501.441406 372.480469 498.238281 358.71875 C 498.238281 357.441406 497.601562 356.480469 497.28125 354.878906 C 500.800781 356.160156 504 357.441406 507.199219 358.71875 Z M 470.71875 520.320312 C 475.839844 515.839844 478.078125 509.761719 479.039062 503.679688 C 480 498.238281 480 492.800781 480 487.359375 C 480 484.800781 478.398438 482.238281 477.121094 479.679688 C 472.640625 469.441406 463.039062 467.839844 454.398438 469.441406 C 450.878906 470.078125 447.359375 471.039062 443.519531 472 C 442.238281 467.519531 442.878906 463.039062 445.441406 458.558594 C 449.28125 451.839844 453.121094 445.441406 456.640625 438.71875 C 459.199219 433.921875 459.839844 428.480469 460.480469 423.359375 C 460.800781 419.839844 461.441406 416 461.761719 412.480469 C 453.441406 430.078125 445.761719 435.839844 440.320312 437.121094 C 441.28125 432.960938 442.238281 428.800781 442.878906 424.640625 C 443.839844 417.28125 442.878906 410.238281 439.359375 403.839844 C 439.359375 403.519531 437.761719 403.199219 437.121094 403.519531 C 432.640625 405.441406 428.480469 407.679688 424 409.921875 C 424 405.441406 425.601562 401.28125 427.519531 397.441406 C 432 387.839844 438.398438 379.199219 446.71875 372.480469 C 454.398438 365.761719 463.679688 361.28125 473.601562 357.761719 C 473.921875 357.761719 474.558594 357.761719 475.199219 357.761719 C 475.839844 360 476.160156 362.878906 477.441406 363.839844 C 479.039062 364.800781 481.921875 364.160156 484.160156 364.480469 C 487.039062 364.480469 489.921875 364.800781 492.480469 365.121094 C 495.359375 374.71875 497.601562 384.320312 500.800781 393.921875 C 504.640625 405.761719 509.761719 416.960938 517.761719 426.238281 C 521.601562 431.039062 526.398438 434.878906 530.878906 439.039062 C 536.960938 444.160156 544 448.640625 549.121094 455.039062 C 554.558594 461.441406 558.398438 469.121094 560.320312 477.121094 C 561.601562 481.921875 562.558594 486.71875 562.558594 491.519531 C 562.558594 498.878906 559.679688 505.28125 553.921875 510.398438 C 548.800781 515.199219 543.359375 519.359375 536.960938 522.238281 C 533.761719 523.839844 530.558594 524.800781 527.039062 525.761719 C 529.921875 520.960938 531.839844 516.160156 532.800781 511.039062 C 534.078125 503.679688 533.441406 496.640625 531.519531 489.601562 C 529.601562 482.878906 526.71875 476.480469 523.199219 470.71875 C 522.878906 470.078125 522.558594 469.761719 521.921875 469.121094 C 522.558594 475.519531 523.519531 481.601562 523.519531 487.679688 C 523.519531 495.039062 520.640625 501.761719 515.519531 507.519531 C 511.359375 512.320312 506.238281 516.480469 500.480469 519.359375 C 494.398438 522.238281 488.320312 524.160156 481.601562 524.800781 C 476.800781 525.121094 471.679688 525.761719 466.878906 526.078125 C 466.878906 526.078125 466.878906 525.761719 466.878906 525.441406 C 468.480469 523.839844 469.761719 522.238281 471.359375 520.960938 Z M 408 573.761719 C 402.558594 570.878906 398.71875 567.359375 395.519531 561.921875 C 393.28125 557.761719 392 553.601562 392 549.121094 C 392 543.039062 394.238281 537.28125 397.441406 531.839844 C 401.28125 525.761719 406.71875 521.601562 412.160156 517.441406 C 413.761719 516.480469 415.039062 515.199219 416.640625 514.238281 C 417.28125 513.921875 418.238281 513.601562 418.878906 513.28125 C 418.878906 513.28125 418.878906 513.601562 419.199219 513.921875 C 418.558594 514.558594 418.238281 514.878906 417.601562 515.519531 C 413.121094 520 408.640625 524.480469 404.480469 528.960938 C 399.039062 535.359375 397.121094 543.039062 398.078125 551.359375 C 398.71875 557.121094 400.960938 561.921875 405.441406 565.761719 C 409.921875 569.601562 415.679688 571.519531 421.441406 572.800781 C 422.398438 572.800781 423.359375 573.121094 424.320312 573.441406 L 424.320312 576.320312 C 418.558594 575.679688 412.800781 576.320312 407.359375 573.441406 Z M 463.679688 744.640625 C 466.558594 745.601562 467.519531 747.519531 468.160156 750.398438 C 463.359375 749.441406 458.878906 748.480469 454.398438 747.519531 C 454.078125 747.519531 453.441406 746.558594 453.441406 745.921875 C 453.121094 744 452.800781 742.078125 452.480469 739.839844 C 456.320312 741.441406 459.839844 743.359375 463.679688 744.640625 Z M 630.398438 689.921875 C 632 689.921875 633.601562 691.839844 635.199219 692.800781 C 635.199219 693.121094 635.199219 693.441406 634.878906 693.761719 C 633.28125 693.761719 631.359375 693.761719 629.761719 693.761719 C 627.199219 694.078125 624.320312 694.398438 621.761719 695.039062 C 620.480469 695.039062 619.839844 695.039062 619.519531 693.761719 C 618.558594 691.839844 617.601562 689.601562 616.640625 687.679688 C 621.121094 688.320312 625.921875 688.640625 630.71875 689.28125 Z M 535.039062 581.761719 C 542.078125 580.800781 548.800781 581.121094 555.839844 581.761719 C 562.238281 582.398438 568.320312 583.359375 574.398438 585.601562 C 580.160156 587.519531 585.921875 590.398438 590.71875 594.238281 C 587.839844 598.078125 585.28125 601.601562 582.398438 605.441406 C 573.761719 616.960938 565.121094 628.160156 556.800781 639.679688 C 556.480469 640.320312 556.160156 641.28125 556.480469 642.238281 C 559.039062 651.519531 560 659.839844 567.039062 666.558594 C 572.480469 671.679688 578.878906 675.839844 585.921875 679.039062 C 587.199219 679.679688 588.800781 680.960938 589.761719 682.238281 C 592 686.078125 596.160156 687.359375 600 688.960938 C 601.921875 689.921875 604.160156 690.878906 606.078125 691.519531 C 608.640625 692.480469 610.238281 694.71875 611.199219 697.28125 L 567.359375 704 C 567.359375 700.800781 567.359375 697.921875 567.679688 695.039062 C 568 692.800781 567.679688 691.199219 566.398438 689.601562 C 562.238281 683.519531 556.800781 679.039062 550.71875 675.199219 C 541.121094 669.121094 533.761719 660.800781 523.519531 655.679688 C 523.519531 655.679688 523.519531 655.679688 523.199219 655.039062 C 535.359375 642.558594 543.039062 628.160156 543.039062 610.238281 C 530.878906 608.320312 518.71875 608.960938 506.238281 612.480469 C 506.238281 610.878906 506.238281 609.601562 506.878906 608.320312 C 507.839844 603.199219 508.160156 598.078125 507.199219 592.960938 C 506.878906 590.71875 510.078125 586.878906 512.640625 586.238281 C 520 584.640625 527.359375 582.71875 534.71875 581.761719 Z M 541.121094 557.441406 C 531.839844 562.238281 522.238281 566.71875 513.601562 572.800781 C 511.679688 574.078125 510.078125 575.679688 508.160156 576.960938 C 506.878906 577.601562 505.601562 578.238281 504.640625 578.558594 C 498.878906 568.320312 491.519531 560.640625 480.640625 556.800781 C 479.679688 556.800781 478.71875 556.800781 477.761719 556.800781 C 478.078125 557.761719 478.078125 558.71875 478.71875 559.359375 C 485.121094 565.761719 490.558594 572.480469 494.71875 580.480469 C 498.238281 587.199219 498.558594 594.238281 497.601562 601.601562 C 496.640625 608 495.679688 614.398438 494.078125 620.800781 C 490.878906 632.640625 484.800781 643.519531 477.761719 653.441406 C 476.480469 655.359375 475.519531 657.28125 473.921875 658.878906 C 472.960938 659.839844 471.679688 660.800781 470.078125 661.441406 C 460.480469 664.320312 451.199219 667.519531 443.199219 673.601562 C 435.519531 679.039062 429.761719 685.761719 428.800781 695.039062 C 428.160156 701.121094 423.679688 710.078125 425.28125 716.480469 C 425.921875 719.039062 427.199219 721.28125 428.800781 723.199219 C 432.960938 728.640625 437.441406 733.441406 441.601562 738.878906 C 442.878906 740.480469 443.199219 742.398438 444.160156 744 C 444.160156 744 443.839844 744 443.519531 744.320312 L 401.921875 735.359375 C 404.160156 729.28125 406.398438 723.519531 408.320312 717.441406 C 410.558594 711.359375 415.359375 704.960938 415.359375 698.558594 C 415.359375 691.839844 415.359375 684.800781 410.878906 679.039062 C 424.640625 668.480469 437.761719 657.28125 455.039062 653.121094 C 447.359375 627.199219 434.238281 604.800781 416 585.28125 C 422.398438 582.078125 428.800781 582.71875 434.878906 584.960938 C 434.878906 582.078125 434.878906 579.519531 434.878906 576.640625 C 434.878906 568.640625 438.398438 563.199219 445.441406 559.679688 C 451.519531 556.800781 457.921875 554.558594 464 552 C 469.441406 549.761719 474.238281 546.878906 477.441406 541.761719 C 477.761719 541.121094 478.71875 540.480469 479.359375 540.480469 C 488 540.480469 496 537.921875 504 536 C 507.199219 535.359375 510.71875 534.398438 514.238281 533.761719 C 513.601562 537.601562 512.640625 541.121094 512 544.960938 C 515.519531 543.679688 518.398438 543.039062 521.28125 541.761719 C 525.761719 539.839844 525.761719 539.839844 528.320312 544 C 529.601562 545.921875 530.238281 548.480469 531.839844 549.761719 C 533.441406 551.039062 536.320312 550.71875 538.558594 551.039062 C 540.160156 551.039062 541.761719 551.679688 543.359375 552 C 544.960938 552.320312 546.558594 552.640625 548.800781 553.28125 C 546.238281 554.878906 544 556.160156 541.441406 557.121094 Z M 659.519531 529.921875 C 657.921875 530.878906 657.28125 530.238281 656 528.640625 C 654.398438 526.398438 652.160156 524.480469 649.921875 522.558594 C 649.28125 521.921875 648.320312 522.238281 647.039062 521.921875 C 649.28125 525.441406 650.878906 528.320312 652.480469 530.558594 C 649.921875 532.480469 648 533.761719 646.078125 535.359375 C 644.480469 536.640625 643.519531 537.28125 641.601562 535.679688 C 640 534.398438 638.398438 533.121094 636.800781 531.839844 C 636.160156 531.199219 635.199219 530.878906 633.921875 529.921875 C 633.921875 531.199219 633.921875 531.839844 633.921875 532.160156 C 635.199219 534.71875 636.480469 537.28125 637.441406 540.160156 C 637.441406 540.800781 637.441406 541.761719 636.800781 542.078125 C 633.921875 544.640625 631.039062 547.199219 628.160156 549.441406 C 625.28125 547.519531 622.398438 545.601562 619.199219 543.679688 C 618.878906 543.679688 618.238281 543.039062 617.921875 543.039062 C 616.960938 543.039062 616 543.039062 615.039062 543.039062 C 615.039062 544 615.039062 545.28125 615.679688 546.238281 C 616 547.519531 616.960938 548.480469 617.28125 549.121094 C 611.519531 550.078125 605.761719 550.71875 600.320312 551.679688 C 598.398438 551.679688 596.800781 552.640625 594.878906 552.960938 C 594.878906 552.960938 594.238281 552.960938 594.238281 553.28125 C 593.921875 557.441406 591.039062 555.199219 589.761719 554.558594 C 581.121094 552.320312 572.800781 549.441406 564.480469 547.199219 C 561.921875 546.558594 559.039062 546.238281 556.480469 545.601562 C 554.238281 544.960938 552.320312 543.359375 550.078125 542.71875 C 546.238281 541.761719 542.078125 540.800781 538.238281 539.839844 C 537.601562 539.839844 536.960938 539.199219 536.640625 538.878906 C 535.679688 537.601562 534.71875 536 534.078125 534.71875 C 541.121094 530.558594 548.160156 527.359375 553.921875 520.960938 C 562.558594 528.640625 572.480469 534.078125 584.320312 535.039062 C 584.640625 535.039062 585.28125 535.039062 585.601562 535.039062 C 585.601562 535.039062 586.238281 535.039062 586.558594 535.039062 C 589.761719 535.039062 592.960938 535.039062 596.160156 535.039062 C 596.480469 535.039062 597.121094 535.039062 597.441406 535.039062 C 597.441406 535.039062 597.761719 535.039062 598.078125 535.039062 C 601.921875 534.398438 605.441406 533.761719 609.28125 533.761719 C 613.121094 533.761719 614.71875 531.519531 616.960938 529.28125 C 621.761719 524.800781 626.878906 520.640625 631.359375 516.160156 C 633.601562 513.601562 636.160156 512 639.359375 512.640625 C 644.800781 513.28125 650.558594 514.558594 655.039062 517.761719 C 657.28125 519.359375 658.238281 522.238281 659.839844 524.800781 C 660.480469 525.761719 660.480469 526.71875 660.800781 527.679688 C 660.160156 527.679688 659.839844 527.679688 659.199219 528.320312 Z M 659.519531 529.921875 "/>
<path style=" stroke:none;fill-rule:nonzero;fill:rgb(13.72549%,12.156863%,12.54902%);fill-opacity:1;" d="M 538.558594 382.71875 C 538.238281 378.558594 536.320312 375.359375 532.480469 374.078125 C 530.878906 373.441406 528.960938 374.078125 527.039062 373.761719 C 527.359375 375.679688 527.679688 377.601562 528.640625 379.199219 C 530.878906 383.039062 534.398438 383.359375 538.558594 382.71875 Z M 538.558594 382.71875 "/>
<path style=" stroke:none;fill-rule:nonzero;fill:rgb(13.72549%,12.156863%,12.54902%);fill-opacity:1;" d="M 513.601562 970.558594 C 512.640625 969.921875 416 918.398438 320.320312 834.558594 C 264.640625 785.601562 220.160156 735.359375 188.160156 685.441406 C 148.800781 623.359375 128.640625 561.601562 128.640625 501.761719 L 128.640625 57.601562 C 128.640625 52.800781 131.519531 48.640625 135.359375 48.640625 L 892.800781 48.640625 C 896.320312 48.640625 899.519531 52.800781 899.519531 57.601562 L 899.519531 501.441406 C 899.519531 560.640625 879.359375 621.761719 840 683.519531 C 808 733.441406 763.519531 783.679688 707.839844 832.960938 C 612.160156 917.121094 515.519531 969.921875 514.558594 970.238281 Z M 504 950.398438 C 506.878906 952 510.078125 952.960938 513.28125 952.960938 C 516.480469 952.960938 519.359375 952 522.238281 950.398438 C 526.078125 948.160156 615.679688 898.238281 704 819.839844 C 823.679688 713.601562 887.039062 603.519531 887.039062 501.761719 L 887.039062 72.320312 C 887.039062 67.839844 883.519531 64.320312 879.039062 64.320312 L 148.160156 64.320312 C 143.679688 64.320312 140.160156 67.839844 140.160156 72.320312 L 140.160156 502.078125 C 140.160156 600 203.199219 708.480469 322.878906 816.320312 C 411.199219 896 500.480469 948.480469 504 950.398438 Z M 504 950.398438 "/>
<path style=" stroke:none;fill-rule:nonzero;fill:rgb(13.72549%,12.156863%,12.54902%);fill-opacity:1;" d="M 496 967.039062 L 509.761719 976 L 542.398438 959.039062 C 481.28125 894.398438 424.640625 859.199219 370.558594 833.921875 C 336.640625 817.921875 301.441406 805.121094 265.601562 795.199219 L 314.558594 837.761719 C 328.640625 843.519531 339.199219 857.28125 352.960938 864 C 392.320312 883.519531 454.71875 917.441406 496 966.71875 Z M 496 967.039062 "/>
<path style=" stroke:none;fill-rule:nonzero;fill:rgb(13.72549%,12.156863%,12.54902%);fill-opacity:1;" d="M 216.960938 739.199219 L 231.679688 762.878906 C 284.160156 772.480469 336 787.839844 385.601562 809.601562 C 452.800781 838.71875 523.839844 889.921875 580.480469 939.519531 L 609.921875 924.160156 L 615.039062 919.679688 C 551.679688 864 479.039062 818.558594 399.679688 786.558594 C 340.480469 762.878906 279.039062 746.878906 216.960938 739.199219 Z M 216.960938 739.199219 "/>
<path style=" stroke:none;fill-rule:nonzero;fill:rgb(13.72549%,12.156863%,12.54902%);fill-opacity:1;" d="M 204.160156 718.71875 C 275.199219 724.480469 345.28125 739.839844 412.800781 765.121094 C 496.320312 796.480469 572.480469 842.238281 639.679688 898.878906 L 687.359375 858.558594 C 672.320312 857.921875 657.28125 857.601562 642.238281 857.921875 C 634.238281 851.839844 626.238281 846.078125 617.921875 840.320312 C 648.640625 838.078125 679.679688 837.761719 710.398438 839.039062 L 749.441406 805.761719 C 757.441406 794.878906 766.078125 784.960938 775.679688 776 L 811.199219 731.839844 C 766.71875 748.480469 727.679688 775.359375 696.640625 816.640625 C 683.519531 816.640625 670.078125 816.640625 656.960938 817.601562 C 702.078125 763.519531 758.078125 733.761719 821.441406 719.359375 L 834.238281 703.359375 C 797.441406 696 760.320312 691.839844 722.878906 691.199219 C 626.558594 689.921875 536 712.640625 459.519531 754.558594 C 448.640625 750.078125 437.761719 745.921875 426.558594 742.078125 C 350.078125 715.199219 270.71875 700.480469 191.039062 697.921875 L 203.839844 718.71875 Z M 818.238281 712.320312 C 741.121094 723.839844 670.078125 755.839844 614.078125 821.121094 C 607.039062 821.761719 600 822.71875 592.960938 823.679688 C 589.761719 821.761719 586.558594 819.519531 583.359375 817.601562 C 644.480469 753.601562 716.480469 720.640625 793.28125 709.121094 C 801.601562 710.078125 809.921875 711.039062 818.238281 712.320312 Z M 728 705.601562 C 738.558594 705.601562 748.800781 705.601562 759.359375 706.238281 C 690.238281 718.398438 622.71875 748.800781 561.28125 804.480469 C 554.558594 800.640625 544.960938 793.601562 537.921875 789.761719 C 594.558594 744 659.199219 719.679688 716.160156 705.601562 C 721.601562 705.601562 722.238281 705.601562 727.679688 705.601562 Z M 585.601562 725.761719 C 608.320312 719.359375 632 714.238281 656 711.039062 C 612.800781 725.761719 563.839844 744 517.441406 778.238281 C 511.359375 775.039062 500.480469 770.878906 494.398438 768 C 523.199219 747.839844 544.320312 739.199219 585.601562 725.761719 Z M 585.601562 725.761719 "/>
<path style=" stroke:none;fill-rule:nonzero;fill:url(#linear2);" d="M 513.601562 994.238281 C 513.601562 994.238281 511.359375 993.921875 510.71875 993.601562 C 509.761719 992.960938 408.640625 939.519531 307.839844 851.519531 C 249.28125 800.320312 202.558594 747.839844 168.960938 695.359375 C 127.359375 630.078125 105.921875 564.800781 105.921875 501.441406 L 105.921875 40.320312 C 105.921875 32.320312 111.359375 25.601562 118.398438 25.601562 L 909.121094 25.601562 C 915.839844 25.601562 921.601562 32.320312 921.601562 40.320312 L 921.601562 501.761719 C 921.601562 564.160156 900.480469 628.800781 858.558594 694.078125 C 824.960938 746.238281 778.238281 799.039062 719.679688 850.558594 C 619.519531 938.558594 517.761719 993.28125 516.800781 993.921875 C 515.839844 994.558594 514.878906 994.878906 513.921875 994.878906 Z M 132.160156 52.800781 C 132.160156 52.800781 129.28125 54.078125 129.28125 55.679688 L 129.28125 502.078125 C 129.28125 602.238281 194.558594 713.601562 318.078125 824.640625 C 409.601562 906.878906 502.398438 960.960938 506.238281 963.519531 C 508.480469 964.800781 510.71875 965.441406 513.28125 965.441406 C 515.839844 965.441406 517.761719 964.800781 520 963.519531 C 524.160156 961.28125 616.960938 909.441406 708.800781 828.480469 C 832.640625 719.039062 898.238281 606.398438 898.238281 502.078125 L 898.238281 55.679688 C 898.238281 55.679688 896.960938 52.800781 895.359375 52.800781 Z M 132.160156 52.800781 "/>
<path style=" stroke:none;fill-rule:nonzero;fill:rgb(13.72549%,12.156863%,12.54902%);fill-opacity:1;" d="M 280.960938 635.519531 C 280.960938 667.839844 272.320312 694.078125 261.761719 694.078125 C 251.199219 694.078125 242.558594 667.839844 242.558594 635.519531 C 242.558594 603.199219 261.761719 550.71875 261.761719 550.71875 C 261.761719 550.71875 280.960938 603.199219 280.960938 635.519531 Z M 280.960938 635.519531 "/>
<path style=" stroke:none;fill-rule:nonzero;fill:rgb(13.72549%,12.156863%,12.54902%);fill-opacity:1;" d="M 306.878906 659.519531 C 306.878906 680.960938 299.519531 698.238281 290.558594 698.238281 C 281.601562 698.238281 274.238281 680.960938 274.238281 659.519531 C 274.238281 638.078125 290.558594 594.558594 290.558594 594.558594 C 290.558594 594.558594 306.878906 638.078125 306.878906 659.519531 Z M 306.878906 659.519531 "/>
<path style=" stroke:none;fill-rule:nonzero;fill:rgb(13.72549%,12.156863%,12.54902%);fill-opacity:1;" d="M 355.199219 679.359375 C 355.199219 695.039062 349.761719 707.839844 343.039062 707.839844 C 336.320312 707.839844 330.878906 695.039062 330.878906 679.359375 C 330.878906 663.679688 343.039062 624.640625 343.039062 624.640625 C 343.039062 624.640625 355.199219 663.679688 355.199219 679.359375 Z M 355.199219 679.359375 "/>
<path style=" stroke:none;fill-rule:nonzero;fill:rgb(13.72549%,12.156863%,12.54902%);fill-opacity:1;" d="M 235.839844 649.601562 C 235.839844 673.601562 227.519531 693.121094 217.28125 693.121094 C 207.039062 693.121094 198.71875 673.601562 198.71875 649.601562 C 198.71875 625.601562 217.28125 579.519531 217.28125 579.519531 C 217.28125 579.519531 235.839844 625.28125 235.839844 649.601562 Z M 235.839844 649.601562 "/>
<path style=" stroke:none;fill-rule:nonzero;fill:rgb(74.509804%,12.941176%,14.901961%);fill-opacity:1;" d="M 292.800781 698.878906 C 292.480469 683.519531 290.558594 671.679688 290.558594 671.679688 C 290.558594 671.679688 288.640625 683.199219 288.320312 698.558594 C 289.921875 698.558594 291.519531 698.878906 292.800781 699.199219 Z M 292.800781 698.878906 "/>
<path style=" stroke:none;fill-rule:nonzero;fill:rgb(74.509804%,12.941176%,14.901961%);fill-opacity:1;" d="M 344.640625 709.441406 C 344.640625 709.441406 344.640625 708.800781 344.640625 708.160156 C 344.640625 696 343.039062 686.078125 343.039062 686.078125 C 343.039062 686.078125 341.441406 696 341.441406 708.160156 C 342.398438 708.480469 343.679688 708.800781 344.640625 709.121094 Z M 344.640625 709.441406 "/>
<path style=" stroke:none;fill-rule:nonzero;fill:rgb(74.509804%,12.941176%,14.901961%);fill-opacity:1;" d="M 259.199219 696.320312 C 259.199219 696.320312 261.441406 696.320312 262.398438 696.320312 C 262.398438 692.480469 262.398438 688.320312 262.398438 683.839844 C 262.398438 660.480469 259.839844 641.28125 259.839844 641.28125 C 259.839844 641.28125 257.28125 660.160156 257.28125 683.839844 C 257.28125 688 257.28125 692.160156 257.28125 696 C 257.601562 696 257.921875 696 258.558594 696 Z M 259.199219 696.320312 "/>
<path style=" stroke:none;fill-rule:nonzero;fill:rgb(74.509804%,12.941176%,14.901961%);fill-opacity:1;" d="M 220.160156 696.960938 C 220.160156 695.039062 220.160156 693.121094 220.160156 690.878906 C 220.160156 672.640625 217.601562 657.601562 217.601562 657.601562 C 217.601562 657.601562 215.039062 672.320312 215.039062 690.878906 C 215.039062 693.121094 215.039062 695.359375 215.039062 697.28125 C 216.640625 697.28125 218.238281 697.28125 219.519531 696.960938 Z M 220.160156 696.960938 "/>
<path style=" stroke:none;fill-rule:nonzero;fill:rgb(13.72549%,12.156863%,12.54902%);fill-opacity:1;" d="M 818.238281 700.800781 L 732.480469 690.558594 L 732.480469 648.640625 L 818.238281 648.640625 Z M 818.238281 700.800781 "/>
<path style=" stroke:none;fill-rule:nonzero;fill:rgb(13.72549%,12.156863%,12.54902%);fill-opacity:1;" d="M 831.679688 653.121094 L 724.480469 653.121094 L 737.601562 632.640625 L 818.878906 632.640625 Z M 831.679688 653.121094 "/>
<path style=" stroke:none;fill-rule:nonzero;fill:rgb(13.72549%,12.156863%,12.54902%);fill-opacity:1;" d="M 757.441406 692.160156 L 699.519531 692.800781 L 699.519531 670.398438 L 757.441406 670.398438 Z M 757.441406 692.160156 "/>
<path style=" stroke:none;fill-rule:nonzero;fill:rgb(13.72549%,12.156863%,12.54902%);fill-opacity:1;" d="M 766.398438 673.28125 L 694.078125 673.28125 L 703.039062 659.519531 L 757.761719 659.519531 Z M 766.398438 673.28125 "/>
<path style=" stroke:none;fill-rule:nonzero;fill:rgb(74.509804%,12.941176%,14.901961%);fill-opacity:1;" d="M 776 679.679688 L 776.320312 679.679688 C 779.199219 679.679688 781.761719 682.238281 781.761719 685.121094 L 781.761719 694.71875 L 770.558594 694.71875 L 770.558594 685.121094 C 770.558594 682.238281 773.121094 679.679688 776 679.679688 Z M 776 679.679688 "/>
<path style=" stroke:none;fill-rule:nonzero;fill:rgb(74.509804%,12.941176%,14.901961%);fill-opacity:1;" d="M 721.601562 682.878906 L 721.921875 682.878906 C 724.800781 682.878906 727.359375 685.441406 727.359375 688.320312 L 727.359375 692.160156 L 716.160156 692.160156 L 716.160156 688.320312 C 716.160156 685.441406 718.71875 682.878906 721.601562 682.878906 Z M 721.601562 682.878906 "/>
<g clip-path="url(#clip1)" clip-rule="nonzero">
<use xlink:href="#surface5" mask="url(#mask0)"/>
</g>
<path style=" stroke:none;fill-rule:nonzero;fill:url(#linear4);" d="M 187.199219 99.199219 L 213.121094 99.199219 L 213.121094 211.199219 L 187.199219 211.199219 Z M 233.921875 96.640625 L 235.519531 96.640625 L 294.398438 142.398438 L 294.398438 99.199219 L 320.320312 99.199219 L 320.320312 211.199219 L 294.398438 211.199219 L 294.398438 172.800781 L 259.839844 144.960938 L 259.839844 211.199219 L 233.921875 211.199219 Z M 341.121094 99.199219 L 406.398438 99.199219 L 406.398438 123.199219 L 367.039062 123.199219 L 367.039062 152.320312 L 412.160156 152.320312 L 412.160156 175.679688 L 367.039062 175.679688 L 367.039062 211.519531 L 341.121094 211.519531 Z M 428.480469 99.199219 L 492.160156 99.199219 L 492.160156 123.199219 L 454.078125 123.199219 L 454.078125 150.398438 L 497.921875 150.398438 L 497.921875 172.480469 L 454.078125 172.480469 L 454.078125 187.519531 L 506.558594 187.519531 L 506.558594 211.519531 L 428.480469 211.519531 Z M 521.601562 99.199219 L 560.320312 99.199219 C 574.71875 99.199219 585.921875 102.398438 593.921875 109.121094 C 601.921875 115.839844 605.761719 125.441406 605.761719 137.601562 C 605.761719 144.320312 604.480469 150.082031 601.601562 155.199219 C 599.039062 160.320312 595.199219 164.480469 590.078125 168 L 609.601562 210.878906 L 582.078125 210.878906 L 567.359375 175.359375 C 564.800781 175.359375 562.238281 175.679688 559.679688 175.679688 L 547.519531 175.679688 L 547.519531 210.878906 L 521.601562 210.878906 L 521.601562 98.878906 Z M 558.078125 154.242188 C 571.839844 154.242188 578.878906 148.800781 578.878906 137.921875 C 578.878906 127.039062 571.839844 121.921875 558.078125 121.921875 L 547.519531 121.921875 L 547.519531 154.242188 Z M 622.398438 96.640625 L 624 96.640625 L 682.878906 142.398438 L 682.878906 99.199219 L 708.800781 99.199219 L 708.800781 211.199219 L 682.878906 211.199219 L 682.878906 172.800781 L 648.320312 144.960938 L 648.320312 211.199219 L 622.398438 211.199219 Z M 733.121094 185.601562 C 728 176.640625 725.441406 166.398438 725.441406 154.878906 C 725.441406 143.359375 728 133.121094 733.121094 124.160156 C 738.238281 115.199219 745.28125 108.480469 754.238281 103.359375 C 763.199219 98.242188 773.761719 95.679688 785.601562 95.679688 C 797.441406 95.679688 808 98.242188 816.960938 103.359375 C 825.921875 108.480469 832.960938 115.199219 838.078125 124.160156 C 843.199219 133.121094 845.761719 143.359375 845.761719 154.878906 C 845.761719 166.398438 843.199219 176.640625 838.078125 185.601562 C 832.960938 194.558594 825.921875 201.601562 816.960938 206.398438 C 808 211.519531 797.441406 214.082031 785.601562 214.082031 C 773.761719 214.082031 763.519531 211.519531 754.238281 206.398438 C 745.28125 201.28125 738.238281 194.242188 733.121094 185.601562 Z M 814.71875 172.480469 C 817.601562 167.359375 818.878906 161.601562 818.878906 154.878906 C 818.878906 148.160156 817.601562 142.398438 814.71875 137.28125 C 811.839844 132.160156 808 128.320312 802.878906 125.441406 C 797.761719 122.558594 792 121.28125 785.601562 121.28125 C 779.199219 121.28125 773.441406 122.558594 768.320312 125.441406 C 763.199219 128.320312 759.359375 132.160156 756.480469 137.28125 C 753.601562 142.398438 752.320312 148.160156 752.320312 154.878906 C 752.320312 161.601562 753.601562 167.359375 756.480469 172.480469 C 759.359375 177.601562 763.199219 181.441406 768.320312 184.320312 C 773.441406 187.199219 778.878906 188.480469 785.601562 188.480469 C 792.320312 188.480469 798.078125 187.199219 802.878906 184.320312 C 808 181.441406 811.839844 177.601562 814.71875 172.480469 Z M 814.71875 172.480469 "/>
<path style=" stroke:none;fill-rule:nonzero;fill:rgb(13.72549%,12.156863%,12.54902%);fill-opacity:1;" d="M 440 319.039062 C 441.28125 321.601562 442.878906 321.601562 444.800781 321.601562 C 448.640625 320.960938 452.480469 320.320312 456.320312 319.679688 C 466.238281 318.71875 476.480469 317.761719 486.398438 317.121094 C 495.359375 316.800781 504 317.121094 512.960938 317.121094 C 524.160156 317.121094 535.359375 317.761719 546.558594 318.398438 C 551.679688 318.398438 556.800781 319.679688 561.921875 320.320312 C 566.71875 320.960938 571.519531 321.28125 576 321.601562 C 578.878906 316.480469 581.441406 311.359375 584 306.238281 C 586.558594 301.121094 589.121094 296 592 290.558594 C 586.238281 292.160156 580.800781 293.441406 575.359375 295.039062 C 578.878906 302.71875 577.28125 308.800781 570.558594 311.039062 C 563.839844 313.28125 556.160156 311.679688 553.921875 304.320312 C 552.960938 301.441406 553.28125 298.238281 553.921875 295.359375 C 555.519531 290.558594 560.320312 288.960938 564.800781 288.320312 C 563.839844 280.960938 562.878906 273.601562 561.601562 265.921875 C 555.199219 271.039062 549.441406 275.519531 543.679688 280 C 544 280.640625 544.320312 280.960938 544.320312 281.28125 C 544.320312 281.601562 544.640625 281.921875 544.960938 282.238281 C 547.839844 286.71875 548.160156 291.199219 544.960938 295.679688 C 541.121094 301.121094 536 303.679688 528.960938 302.398438 C 522.238281 301.441406 518.71875 297.921875 517.121094 292.800781 C 515.519531 287.679688 518.078125 280.960938 521.921875 278.71875 C 523.519531 277.761719 523.839844 276.800781 522.878906 274.878906 C 520.640625 270.078125 518.398438 264.960938 516.160156 259.839844 C 513.601562 253.761719 511.039062 247.679688 508.160156 241.601562 C 508.160156 241.601562 507.839844 241.601562 507.519531 241.601562 C 502.398438 253.441406 496.960938 264.960938 491.839844 276.480469 C 499.839844 284.800781 500.800781 291.519531 495.359375 297.921875 C 491.199219 302.71875 482.238281 304.320312 476.480469 300.480469 C 473.601562 298.558594 471.039062 295.679688 469.441406 292.480469 C 466.878906 287.679688 470.078125 283.519531 472.320312 279.359375 C 466.238281 274.558594 460.480469 270.078125 454.398438 265.28125 C 453.441406 273.28125 452.480469 280.640625 451.519531 287.679688 C 462.398438 289.28125 464.640625 296.960938 463.359375 302.398438 C 461.761719 309.121094 454.078125 312.960938 447.359375 310.398438 C 439.039062 307.519531 437.121094 301.761719 440.960938 294.078125 C 435.839844 292.800781 430.398438 291.199219 424.640625 289.601562 C 425.28125 290.558594 425.28125 291.199219 425.601562 291.519531 C 430.078125 300.480469 434.878906 309.121094 439.039062 318.078125 Z M 440 319.039062 "/>
<path style=" stroke:none;fill-rule:nonzero;fill:url(#linear5);" d="M 513.601562 988.800781 C 512.640625 988.160156 411.519531 934.398438 312 847.679688 C 253.761719 796.800781 207.359375 744.640625 174.078125 692.800781 C 132.800781 628.480469 112 564.160156 112 502.078125 L 112 40.320312 C 112 35.199219 115.199219 31.039062 119.039062 31.039062 L 909.761719 31.039062 C 913.601562 31.039062 916.800781 35.199219 916.800781 40.320312 L 916.800781 501.761719 C 916.800781 563.199219 896 626.878906 854.71875 690.878906 C 821.441406 742.71875 775.039062 794.878906 716.800781 846.078125 C 616.960938 933.441406 515.839844 988.160156 514.878906 988.800781 Z M 503.679688 968 C 506.558594 969.921875 510.078125 970.558594 513.28125 970.558594 C 516.480469 970.558594 519.679688 969.601562 522.558594 968 C 526.398438 965.761719 620.160156 913.921875 712.320312 832.320312 C 837.441406 721.921875 903.359375 607.679688 903.359375 501.761719 L 903.359375 55.679688 C 903.359375 51.199219 899.519531 47.359375 895.039062 47.359375 L 132.160156 47.359375 C 127.679688 47.359375 123.839844 51.199219 123.839844 55.679688 L 123.839844 502.078125 C 123.839844 603.839844 189.761719 716.800781 314.558594 828.800781 C 406.71875 911.679688 500.160156 966.078125 503.679688 968.320312 Z M 503.679688 968 "/>
<path style=" stroke:none;fill-rule:nonzero;fill:rgb(37.647059%,38.039216%,38.039216%);fill-opacity:1;" d="M 513.601562 995.839844 C 513.601562 995.839844 511.039062 995.519531 510.078125 994.878906 C 505.921875 992.640625 406.398438 939.519531 307.199219 852.800781 C 248.320312 801.601562 201.601562 748.800781 168 696.320312 C 126.078125 630.71875 104.960938 565.441406 104.960938 501.761719 L 104.960938 40.320312 C 104.960938 31.359375 111.039062 24.320312 118.71875 24.320312 L 909.441406 24.320312 C 917.121094 24.320312 923.199219 31.679688 923.199219 40.320312 L 923.199219 501.761719 C 923.199219 564.480469 902.078125 629.441406 860.160156 694.71875 C 826.558594 747.199219 779.839844 799.679688 720.960938 851.199219 C 620.480469 939.199219 518.71875 994.238281 517.761719 994.878906 C 516.800781 995.519531 515.519531 995.839844 514.238281 995.839844 Z M 118.398438 26.878906 C 112.320312 26.878906 107.519531 32.960938 107.519531 40.320312 L 107.519531 501.761719 C 107.519531 564.800781 128.640625 629.761719 170.238281 694.71875 C 203.519531 746.878906 250.238281 799.359375 308.800781 850.558594 C 408 937.28125 507.199219 990.078125 511.359375 992.320312 C 512 992.640625 512.960938 992.960938 513.601562 992.960938 C 514.238281 992.960938 515.199219 992.960938 515.839844 992.320312 C 516.800781 991.679688 618.238281 936.960938 718.398438 848.960938 C 776.960938 797.441406 823.679688 744.960938 857.28125 692.800781 C 898.878906 627.839844 920 563.519531 920 501.441406 L 920 40.320312 C 920 32.960938 915.199219 26.878906 909.121094 26.878906 Z M 513.28125 966.71875 C 510.71875 966.71875 508.160156 966.078125 505.601562 964.480469 C 501.761719 962.238281 408.960938 907.839844 317.121094 825.601562 C 193.28125 714.238281 128 602.558594 128 502.078125 L 128 55.679688 C 128 53.441406 129.921875 51.519531 132.160156 51.519531 L 895.359375 51.519531 C 897.601562 51.519531 899.519531 53.441406 899.519531 55.679688 L 899.519531 502.078125 C 899.519531 606.71875 833.921875 720 709.761719 829.441406 C 617.921875 910.398438 524.480469 962.558594 520.640625 964.480469 C 518.398438 965.761719 515.839844 966.398438 513.28125 966.398438 Z M 132.160156 54.078125 C 132.160156 54.078125 130.558594 54.71875 130.558594 55.679688 L 130.558594 502.078125 C 130.558594 601.601562 195.839844 712.960938 319.039062 823.679688 C 410.558594 905.921875 503.039062 960 507.199219 962.238281 C 511.039062 964.480469 515.519531 964.480469 519.359375 962.238281 C 523.199219 960 616.320312 908.160156 708.160156 827.519531 C 831.679688 718.398438 896.960938 605.761719 896.960938 502.078125 L 896.960938 55.679688 C 896.960938 55.679688 896.320312 54.078125 895.359375 54.078125 Z M 132.160156 54.078125 "/>
</g>
</svg>
