<?xml version="1.0" encoding="UTF-8"?>
<svg xmlns="http://www.w3.org/2000/svg" xmlns:xlink="http://www.w3.org/1999/xlink" width="100%" height="100%" viewBox="0 0 1024 1024" version="1.1">
<g id="surface1">
<path style=" stroke:none;fill-rule:evenodd;fill:rgb(8.235294%,34.117647%,43.529412%);fill-opacity:1;" d="M 512.894531 29.472656 L 9.535156 395.167969 L 201.824219 986.910156 L 824 986.910156 L 1016.257812 395.167969 Z M 512.894531 29.472656 "/>
<path style=" stroke:none;fill-rule:evenodd;fill:rgb(2.745098%,64.705882%,76.078431%);fill-opacity:1;" d="M 512.894531 35.839844 L 16.257812 396.671875 L 205.984375 980.542969 L 819.839844 980.542969 L 1009.503906 396.671875 Z M 512.894531 35.839844 "/>
<path style=" stroke:none;fill-rule:evenodd;fill:rgb(8.235294%,34.117647%,43.529412%);fill-opacity:1;" d="M 259.457031 981.535156 L 312.734375 981.535156 L 312.734375 964.097656 L 259.457031 964.097656 Z M 370.015625 981.566406 L 423.296875 981.566406 L 423.296875 964.097656 L 370.015625 964.097656 Z M 490.847656 981.566406 L 544.128906 981.566406 L 544.128906 964.097656 L 490.847656 964.097656 Z M 601.441406 981.566406 L 654.71875 981.566406 L 654.71875 964.097656 L 601.441406 964.097656 Z M 721.246094 981.566406 L 774.527344 981.566406 L 774.527344 964.097656 L 721.246094 964.097656 Z M 820.320312 925.375 L 836.929688 930.71875 L 853.34375 880.03125 L 836.703125 874.6875 Z M 854.367188 820.160156 L 871.007812 825.535156 L 887.390625 774.847656 L 870.753906 769.472656 Z M 891.585938 705.183594 L 908.222656 710.558594 L 924.609375 659.871094 L 908 654.464844 Z M 925.632812 600 L 942.238281 605.34375 L 958.65625 554.65625 L 942.046875 549.3125 Z M 978.910156 435.328125 L 962.527344 486.015625 L 979.167969 491.425781 L 995.585938 440.703125 Z M 173.535156 883.617188 L 189.984375 934.304688 L 206.59375 928.894531 L 190.175781 878.207031 Z M 139.425781 778.398438 L 155.871094 829.089844 L 172.511719 823.679688 L 156.097656 773.023438 Z M 102.207031 663.488281 L 118.625 714.144531 L 135.265625 708.769531 L 118.816406 658.078125 Z M 68.128906 558.273438 L 84.542969 608.929688 L 101.152344 603.550781 L 84.734375 552.894531 Z M 31.199219 444.289062 L 47.617188 495.007812 L 64.257812 489.601562 L 47.839844 438.910156 Z M 104.511719 353.28125 L 94.273438 339.136719 L 51.136719 370.367188 L 61.375 384.542969 Z M 194.082031 288.449219 L 183.839844 274.335938 L 140.671875 305.566406 L 150.914062 319.679688 Z M 281.726562 203.457031 L 238.59375 234.6875 L 248.832031 248.863281 L 292 217.601562 Z M 371.328125 138.65625 L 328.160156 169.886719 L 338.433594 184.03125 L 381.601562 152.769531 Z M 425.246094 99.648438 L 435.488281 113.792969 L 478.65625 82.558594 L 468.382812 68.382812 Z M 926.207031 335.425781 L 915.96875 349.535156 L 959.070312 380.863281 L 969.34375 366.71875 Z M 879.839844 301.792969 L 836.734375 270.464844 L 826.464844 284.609375 L 869.601562 315.871094 Z M 728.671875 213.632812 L 771.777344 244.960938 L 782.015625 230.816406 L 738.910156 199.519531 Z M 639.199219 148.671875 L 682.335938 180 L 692.574219 165.855469 L 649.441406 134.527344 Z M 542.238281 78.238281 L 585.34375 109.566406 L 595.617188 95.457031 L 552.511719 64.160156 Z M 542.238281 78.238281 "/>
<path style=" stroke:none;fill-rule:evenodd;fill:rgb(2.745098%,64.705882%,76.078431%);fill-opacity:1;" d="M 511.742188 58.398438 L 34.433594 405.214844 L 216.734375 966.335938 L 806.753906 966.335938 L 989.089844 405.214844 Z M 511.742188 58.398438 "/>
<path style=" stroke:none;fill-rule:evenodd;fill:rgb(77.647059%,77.254902%,77.254902%);fill-opacity:1;" d="M 511.742188 86.015625 L 63.457031 411.742188 L 234.6875 938.753906 L 788.800781 938.753906 L 960.03125 411.742188 Z M 511.742188 86.015625 "/>
<path style=" stroke:none;fill-rule:evenodd;fill:rgb(68.235294%,13.72549%,14.117647%);fill-opacity:1;" d="M 511.742188 101.632812 L 77.792969 416.863281 L 243.550781 927.070312 L 779.96875 927.070312 L 945.695312 416.863281 Z M 511.742188 101.632812 "/>
<path style=" stroke:none;fill-rule:evenodd;fill:rgb(41.960784%,6.27451%,5.882353%);fill-opacity:1;" d="M 511.742188 101.632812 L 515.808594 927.070312 L 779.96875 927.070312 L 945.695312 416.863281 Z M 511.742188 101.632812 "/>
<path style=" stroke:none;fill-rule:nonzero;fill:rgb(87.058824%,87.058824%,86.666667%);fill-opacity:1;" d="M 322.207031 841.664062 L 339.585938 818.910156 L 351.328125 818.910156 L 351.328125 880.257812 L 337.855469 880.257812 L 337.855469 841.953125 L 323.230469 861.214844 L 321.214844 861.214844 L 306.625 841.953125 L 306.625 880.257812 L 293.152344 880.257812 L 293.152344 818.910156 L 304.832031 818.910156 Z M 322.207031 841.664062 "/>
<path style=" stroke:none;fill-rule:nonzero;fill:rgb(87.058824%,87.058824%,86.666667%);fill-opacity:1;" d="M 379.199219 818.910156 L 379.199219 880.257812 L 365.726562 880.257812 L 365.726562 818.910156 Z M 379.199219 818.910156 "/>
<path style=" stroke:none;fill-rule:nonzero;fill:rgb(87.058824%,87.058824%,86.666667%);fill-opacity:1;" d="M 393.632812 818.910156 L 417.824219 818.910156 C 423.070312 818.910156 427.328125 820.640625 430.59375 824.03125 C 433.855469 827.488281 435.519531 831.648438 435.519531 836.574219 C 435.519531 843.328125 432.414062 848.320312 426.207031 851.585938 C 428.894531 852.960938 431.519531 856.734375 433.984375 862.878906 C 436.382812 869.023438 438.753906 874.847656 441.054688 880.289062 L 426.273438 880.289062 C 425.375 878.273438 423.839844 874.398438 421.664062 868.769531 C 419.457031 863.070312 417.566406 859.425781 416.03125 857.792969 C 414.464844 856.191406 412.800781 855.390625 411.007812 855.390625 L 407.136719 855.390625 L 407.136719 880.289062 L 393.664062 880.289062 L 393.664062 818.910156 Z M 407.136719 830.113281 L 407.136719 844.097656 L 414.273438 844.097656 C 416.542969 844.097656 418.335938 843.488281 419.679688 842.273438 C 421.023438 841.089844 421.664062 839.328125 421.664062 837.089844 C 421.664062 832.414062 419.105469 830.113281 413.953125 830.113281 Z M 407.136719 830.113281 "/>
<path style=" stroke:none;fill-rule:nonzero;fill:rgb(87.058824%,87.058824%,86.666667%);fill-opacity:1;" d="M 482.945312 818.910156 L 506.976562 880.257812 L 492.480469 880.257812 L 488 868.128906 L 463.777344 868.128906 L 459.742188 880.257812 L 445.472656 880.257812 L 467.328125 818.910156 Z M 484.0625 857.40625 L 475.296875 833.566406 L 467.359375 857.40625 Z M 484.0625 857.40625 "/>
<path style=" stroke:none;fill-rule:nonzero;fill:rgb(87.058824%,87.058824%,86.666667%);fill-opacity:1;" d="M 560.863281 823.136719 L 560.863281 836.574219 C 553.953125 832.800781 547.230469 830.878906 540.640625 830.878906 C 534.304688 830.878906 529.375 832.734375 525.984375 836.320312 C 522.558594 839.96875 520.832031 844.609375 520.832031 850.207031 C 520.832031 855.617188 522.527344 860 525.984375 863.296875 C 529.40625 866.625 533.953125 868.289062 539.519531 868.289062 C 542.496094 868.289062 545.472656 867.617188 548.480469 866.144531 L 548.480469 858.945312 L 540.640625 858.945312 L 540.640625 847.710938 L 561.984375 847.710938 L 561.984375 872.769531 C 559.871094 875.199219 556.609375 877.183594 552.222656 878.753906 C 547.839844 880.289062 543.519531 881.054688 539.199219 881.054688 C 529.792969 881.054688 522.046875 878.078125 516 872.222656 C 509.953125 866.304688 506.910156 858.816406 506.910156 849.695312 C 506.910156 840.351562 509.921875 832.800781 516 826.878906 C 522.046875 821.023438 529.886719 818.144531 539.519531 818.144531 C 547.457031 818.113281 554.59375 819.777344 560.863281 823.136719 Z M 560.863281 823.136719 "/>
<path style=" stroke:none;fill-rule:nonzero;fill:rgb(87.058824%,87.058824%,86.666667%);fill-opacity:1;" d="M 615.742188 868.992188 L 615.742188 880.257812 L 575.839844 880.257812 L 575.839844 818.910156 L 615.167969 818.910156 L 615.167969 830.144531 L 589.3125 830.144531 L 589.3125 843.007812 L 613.984375 843.007812 L 613.984375 854.273438 L 589.3125 854.273438 L 589.3125 869.023438 Z M 615.742188 868.992188 "/>
<path style=" stroke:none;fill-rule:evenodd;fill:rgb(18.823529%,69.411765%,29.019608%);fill-opacity:1;" d="M 723.039062 838.433594 L 697.152344 836.191406 L 687.648438 812.703125 L 678.144531 836.191406 L 652.257812 838.433594 L 672.289062 854.273438 L 665.792969 880.03125 L 687.648438 865.441406 L 709.503906 880.03125 L 703.039062 854.273438 Z M 723.039062 838.433594 "/>
<path style=" stroke:none;fill-rule:evenodd;fill:rgb(35.294118%,5.882353%,5.882353%);fill-opacity:1;" d="M 776.542969 534.015625 L 770.046875 369.121094 L 778.078125 369.121094 L 778.078125 356.863281 L 769.566406 356.863281 L 768.894531 338.945312 L 672.128906 338.945312 L 671.390625 356.863281 L 658.785156 356.863281 L 658.785156 369.121094 L 670.910156 369.121094 L 664.449219 534.015625 L 593.28125 533.503906 L 587.167969 334.335938 L 597.34375 334.335938 L 597.34375 322.015625 L 586.816406 322.015625 L 586.113281 299.039062 L 470.910156 299.039062 L 470.144531 322.015625 L 457.089844 322.015625 L 457.089844 334.335938 L 469.726562 334.335938 L 463.230469 533.503906 L 406.433594 533.503906 L 400.382812 369.121094 L 409.472656 369.121094 L 409.472656 356.863281 L 399.902344 356.863281 L 399.230469 338.433594 L 301.441406 338.433594 L 300.832031 356.863281 L 290.175781 356.863281 L 290.175781 369.121094 L 300.417969 369.121094 L 294.785156 533.503906 L 271.777344 533.503906 L 271.777344 546.273438 L 792.960938 545.792969 L 792.960938 534.015625 Z M 776.542969 534.015625 "/>
<path style=" stroke:none;fill-rule:evenodd;fill:rgb(33.72549%,64.705882%,70.196078%);fill-opacity:1;" d="M 763.230469 520.671875 L 756.769531 355.839844 L 764.800781 355.839844 L 764.800781 343.519531 L 756.289062 343.519531 L 755.550781 325.632812 L 658.785156 325.632812 L 658.113281 343.519531 L 645.503906 343.519531 L 645.503906 355.839844 L 657.601562 355.839844 L 651.136719 520.671875 L 579.96875 520.191406 L 573.886719 321.023438 L 584.03125 321.023438 L 584.03125 308.703125 L 573.503906 308.703125 L 572.769531 285.695312 L 457.601562 285.695312 L 456.863281 308.703125 L 443.777344 308.703125 L 443.777344 321.023438 L 456.449219 321.023438 L 449.953125 520.191406 L 393.089844 520.191406 L 387.039062 355.839844 L 396.160156 355.839844 L 396.160156 343.519531 L 386.625 343.519531 L 385.921875 325.089844 L 288.160156 325.089844 L 287.519531 343.519531 L 276.894531 343.519531 L 276.894531 355.839844 L 287.105469 355.839844 L 281.472656 520.191406 L 258.433594 520.191406 L 258.433594 532.992188 L 779.648438 532.480469 L 779.648438 520.671875 Z M 763.230469 520.671875 "/>
<path style=" stroke:none;fill-rule:evenodd;fill:rgb(24.705882%,24.705882%,24.705882%);fill-opacity:1;" d="M 310.65625 396.289062 L 318.847656 396.289062 L 318.847656 376.320312 L 310.65625 376.320312 Z M 357.761719 396.289062 L 365.953125 396.289062 L 365.953125 376.320312 L 357.761719 376.320312 Z M 334.207031 396.289062 L 342.398438 396.289062 L 342.398438 376.320312 L 334.207031 376.320312 Z M 485.761719 358.367188 L 493.953125 358.367188 L 493.953125 338.433594 L 485.761719 338.433594 Z M 532.863281 358.367188 L 541.054688 358.367188 L 541.054688 338.433594 L 532.863281 338.433594 Z M 509.3125 358.367188 L 517.503906 358.367188 L 517.503906 338.433594 L 509.3125 338.433594 Z M 681.34375 396.289062 L 689.535156 396.289062 L 689.535156 376.320312 L 681.34375 376.320312 Z M 728.449219 376.320312 L 728.449219 396.289062 L 736.640625 396.289062 L 736.640625 376.320312 Z M 704.894531 396.289062 L 713.089844 396.289062 L 713.089844 376.320312 L 704.894531 376.320312 Z M 704.894531 396.289062 "/>
<path style=" stroke:none;fill-rule:evenodd;fill:rgb(74.901961%,76.078431%,35.294118%);fill-opacity:1;" d="M 454.65625 675.296875 C 451.902344 668.769531 440.03125 654.398438 429.792969 641.566406 C 419.136719 628.734375 410.113281 617.3125 403.9375 615.167969 C 401.441406 621.152344 406.816406 635.328125 416.542969 649.40625 C 425.855469 663.425781 439.550781 677.40625 444.832031 680.960938 C 448.671875 683.648438 453.3125 686.273438 456.480469 687.96875 C 448.480469 687.617188 440.449219 687.105469 432.449219 686.367188 C 431.519531 683.390625 429.695312 677.535156 428.449219 673.953125 C 426.175781 667.550781 415.871094 653.214844 407.039062 640.351562 C 397.824219 627.425781 390.015625 615.96875 384.320312 613.601562 C 381.664062 619.328125 385.921875 633.28125 394.273438 647.296875 C 402.273438 661.246094 414.304688 675.199219 419.070312 678.910156 C 422.464844 681.601562 426.65625 684.320312 429.566406 686.113281 C 421.921875 685.34375 414.273438 684.414062 406.6875 683.328125 C 405.953125 680.480469 404.574219 674.785156 403.550781 671.328125 C 401.726562 665.121094 392.929688 650.910156 385.34375 638.113281 C 377.441406 625.246094 370.71875 613.761719 365.503906 611.230469 C 362.753906 616.703125 365.984375 630.398438 373.054688 644.222656 C 379.742188 657.984375 390.335938 671.839844 394.59375 675.617188 C 397.632812 678.335938 401.34375 681.121094 403.96875 682.910156 C 396.671875 681.855469 389.441406 680.609375 382.238281 679.167969 C 381.695312 676.382812 380.671875 670.910156 379.96875 667.617188 C 375.265625 655.039062 355.199219 612.929688 347.488281 608.128906 C 339.871094 617.984375 361.855469 663.199219 371.390625 671.390625 C 374.046875 674.078125 377.375 676.863281 379.710938 678.71875 C 373.375 677.472656 367.039062 676 360.769531 674.496094 C 360.382812 671.808594 359.679688 666.558594 359.167969 663.296875 C 355.328125 651.167969 338.625 609.632812 331.457031 604.640625 C 323.839844 614.078125 342.335938 658.398438 350.910156 666.59375 C 353.3125 669.28125 356.289062 672.03125 358.367188 673.921875 C 352.320312 672.382812 346.304688 670.71875 340.320312 669.023438 C 340.0625 666.398438 339.648438 661.375 339.328125 658.238281 C 336.351562 646.527344 322.65625 605.761719 316.0625 600.640625 C 308.511719 609.601562 323.679688 652.863281 331.425781 661.089844 C 333.535156 663.742188 336.160156 666.464844 338.078125 668.320312 C 332.128906 666.558594 326.238281 664.703125 320.414062 662.6875 C 320.320312 660.222656 320.191406 655.359375 320 652.449219 C 317.824219 641.121094 306.976562 601.246094 300.894531 596.03125 C 293.40625 604.609375 305.566406 646.71875 312.449219 654.847656 C 314.273438 657.441406 316.609375 660.097656 318.273438 661.984375 C 313.089844 660.191406 307.9375 658.273438 302.816406 656.320312 C 302.816406 653.886719 302.945312 649.28125 302.910156 646.433594 C 301.441406 635.425781 292.992188 596.542969 287.390625 591.359375 C 280 599.519531 289.503906 640.511719 295.648438 648.480469 C 297.246094 651.007812 299.296875 653.664062 300.832031 655.488281 C 295.585938 653.472656 290.398438 651.296875 285.246094 649.023438 C 285.375 646.71875 285.726562 642.367188 285.855469 639.585938 C 285.023438 629.089844 278.976562 591.328125 273.824219 586.078125 C 266.496094 593.792969 273.472656 633.601562 278.878906 641.40625 C 280.257812 643.839844 282.078125 646.433594 283.390625 648.222656 C 278.304688 646.015625 273.28125 643.679688 268.257812 641.214844 C 266.945312 640.0625 265.375 638.71875 263.808594 637.441406 C 256.511719 633.566406 201.535156 597.28125 181.792969 587.617188 C 188.289062 603.070312 247.839844 640.574219 260.289062 641.792969 C 261.632812 642.175781 263.296875 642.527344 264.929688 642.847656 C 270.433594 645.601562 276.03125 648.222656 281.632812 650.753906 C 279.007812 650.785156 275.230469 650.847656 271.742188 651.105469 C 262.367188 652.960938 205.695312 659.710938 194.433594 664.960938 C 207.425781 671.808594 263.390625 663.519531 273.535156 656.960938 C 276.542969 655.457031 281.121094 652.894531 283.488281 651.585938 C 288.703125 653.886719 293.921875 656.097656 299.167969 658.175781 C 296.449219 658.335938 292.480469 658.59375 288.863281 658.910156 C 279.136719 661.246094 221.183594 670.816406 210.113281 676.992188 C 223.902344 683.679688 281.121094 672.351562 291.199219 665.089844 C 294.238281 663.359375 298.816406 660.414062 301.183594 658.945312 C 306.367188 660.992188 311.550781 662.945312 316.769531 664.800781 C 313.921875 665.089844 309.792969 665.472656 306.015625 666.015625 C 296 668.800781 236.734375 681.246094 225.886719 688.351562 C 240.542969 694.945312 299.039062 680.351562 308.960938 672.382812 C 312 670.398438 316.609375 667.167969 318.910156 665.503906 C 324.832031 667.550781 330.753906 669.503906 336.734375 671.328125 C 333.761719 671.742188 329.40625 672.351562 325.503906 673.089844 C 315.105469 676.414062 254.464844 692.191406 243.839844 700.414062 C 259.390625 706.6875 319.265625 688.511719 329.089844 679.679688 C 332.128906 677.535156 336.671875 673.855469 338.976562 672 C 345.023438 673.824219 351.105469 675.488281 357.183594 677.023438 C 354.078125 677.632812 349.535156 678.433594 345.441406 679.359375 C 334.878906 683.296875 272.703125 702.527344 262.304688 711.871094 C 278.847656 717.886719 340.0625 695.871094 349.761719 686.207031 C 352.800781 683.742188 357.3125 679.679688 359.585938 677.632812 C 365.953125 679.230469 372.289062 680.703125 378.6875 682.015625 C 375.457031 682.753906 370.71875 683.871094 366.433594 685.023438 C 355.550781 689.566406 291.902344 712.511719 281.792969 723.039062 C 299.328125 728.640625 361.984375 702.558594 371.519531 691.9375 C 374.558594 689.214844 379.007812 684.734375 381.246094 682.527344 C 388.511719 684 395.808594 685.28125 403.105469 686.433594 C 399.742188 687.359375 394.753906 688.703125 390.304688 690.175781 C 379.007812 695.488281 313.761719 722.785156 304.0625 734.65625 C 322.785156 739.742188 387.007812 708.894531 396.320312 697.28125 C 399.328125 694.273438 403.710938 689.28125 405.886719 686.847656 C 413.535156 687.96875 421.214844 688.960938 428.929688 689.726562 C 425.40625 690.847656 420.160156 692.640625 415.488281 694.398438 C 403.839844 700.511719 336.960938 732.511719 327.617188 745.726562 C 347.617188 750.273438 413.441406 714.238281 422.464844 701.566406 C 425.40625 698.207031 429.726562 692.734375 431.808594 690.046875 C 439.871094 690.785156 447.96875 691.390625 456.03125 691.777344 C 452.351562 693.152344 446.847656 695.265625 441.984375 697.375 C 429.984375 704.449219 361.441406 741.566406 352.574219 756.160156 C 373.984375 759.96875 441.375 718.304688 450.078125 704.574219 C 452.960938 700.863281 457.152344 694.816406 459.167969 691.902344 C 468.992188 692.320312 478.816406 692.480469 488.640625 692.289062 C 488.769531 691.328125 488.960938 689.984375 488.992188 688.320312 C 479.199219 688.511719 469.472656 688.449219 459.742188 688.097656 C 458.496094 685.054688 456.222656 678.976562 454.65625 675.296875 Z M 770.65625 641.792969 C 783.105469 640.574219 842.65625 603.070312 849.152344 587.617188 C 829.40625 597.28125 774.398438 633.566406 767.105469 637.441406 C 765.535156 638.71875 763.96875 640.0625 762.6875 641.214844 C 757.695312 643.679688 752.640625 645.984375 747.550781 648.222656 C 748.863281 646.433594 750.6875 643.839844 752.0625 641.40625 C 757.441406 633.632812 764.449219 593.824219 757.121094 586.078125 C 751.96875 591.328125 745.886719 629.089844 745.054688 639.617188 C 745.214844 642.367188 745.535156 646.71875 745.695312 649.023438 C 740.542969 651.296875 735.359375 653.472656 730.144531 655.488281 C 731.617188 653.664062 733.695312 651.007812 735.328125 648.480469 C 741.441406 640.511719 750.976562 599.519531 743.585938 591.359375 C 737.984375 596.542969 729.566406 635.425781 728.03125 646.433594 C 728.03125 649.28125 728.128906 653.855469 728.191406 656.320312 C 723.039062 658.273438 717.886719 660.191406 712.703125 661.984375 C 714.398438 660.097656 716.703125 657.441406 718.558594 654.847656 C 725.441406 646.71875 737.566406 604.609375 730.113281 596.03125 C 724.03125 601.246094 713.183594 641.121094 710.976562 652.449219 C 710.847656 655.390625 710.71875 660.222656 710.59375 662.6875 C 704.734375 664.703125 698.847656 666.558594 692.894531 668.320312 C 694.785156 666.464844 697.441406 663.742188 699.550781 661.089844 C 707.296875 652.863281 722.464844 609.632812 714.945312 600.640625 C 708.351562 605.761719 694.65625 646.527344 691.648438 658.238281 C 691.328125 661.375 690.945312 666.398438 690.6875 669.023438 C 684.671875 670.753906 678.65625 672.382812 672.609375 673.921875 C 674.71875 672 677.664062 669.246094 680.0625 666.59375 C 688.640625 658.398438 707.136719 614.078125 699.550781 604.640625 C 692.382812 609.632812 675.648438 651.167969 671.839844 663.296875 C 671.296875 666.558594 670.625 671.808594 670.207031 674.496094 C 663.9375 676.03125 657.601562 677.472656 651.265625 678.71875 C 653.601562 676.863281 656.894531 674.078125 659.617188 671.390625 C 669.152344 663.199219 691.136719 617.984375 683.519531 608.128906 C 675.808594 612.929688 655.742188 655.070312 651.070312 667.617188 C 650.335938 670.945312 649.3125 676.382812 648.769531 679.167969 C 641.535156 680.609375 634.304688 681.855469 627.039062 682.910156 C 629.632812 681.121094 633.375 678.335938 636.382812 675.617188 C 640.640625 671.839844 651.199219 657.953125 657.953125 644.222656 C 664.992188 630.367188 668.222656 616.703125 665.472656 611.230469 C 660.222656 613.761719 653.535156 625.246094 645.601562 638.113281 C 638.015625 650.910156 629.214844 665.121094 627.390625 671.328125 C 626.433594 674.785156 624.992188 680.480469 624.257812 683.328125 C 616.640625 684.414062 609.023438 685.34375 601.375 686.113281 C 604.257812 684.320312 608.414062 681.601562 611.839844 678.910156 C 616.609375 675.199219 628.671875 661.214844 636.640625 647.296875 C 644.960938 633.28125 649.246094 619.328125 646.59375 613.601562 C 640.894531 615.96875 633.089844 627.425781 623.871094 640.351562 C 615.007812 653.183594 604.734375 667.550781 602.464844 673.953125 C 601.214844 677.503906 599.425781 683.390625 598.464844 686.367188 C 590.464844 687.070312 582.433594 687.617188 574.398438 687.96875 C 577.601562 686.273438 582.238281 683.648438 586.078125 680.960938 C 591.390625 677.40625 605.054688 663.457031 614.398438 649.40625 C 624.128906 635.328125 629.472656 621.121094 627.039062 615.167969 C 620.863281 617.3125 611.808594 628.734375 601.152344 641.566406 C 590.910156 654.367188 579.070312 668.769531 576.289062 675.296875 C 574.753906 678.976562 572.480469 685.089844 571.328125 688.0625 C 561.566406 688.414062 551.839844 688.480469 542.078125 688.289062 C 542.113281 689.953125 542.273438 691.296875 542.433594 692.257812 C 552.257812 692.449219 562.046875 692.289062 571.871094 691.871094 C 573.886719 694.785156 578.046875 700.800781 580.960938 704.542969 C 589.664062 718.304688 657.054688 759.9375 678.464844 756.128906 C 669.601562 741.535156 601.054688 704.414062 589.023438 697.34375 C 584.160156 695.265625 578.65625 693.121094 574.976562 691.742188 C 583.070312 691.359375 591.167969 690.785156 599.199219 690.015625 C 601.3125 692.703125 605.601562 698.175781 608.542969 701.535156 C 617.601562 714.207031 683.359375 750.207031 703.390625 745.695312 C 694.046875 732.480469 627.230469 700.480469 615.519531 694.367188 C 610.847656 692.609375 605.632812 690.847656 602.113281 689.695312 C 609.792969 688.960938 617.472656 687.9375 625.152344 686.816406 C 627.296875 689.246094 631.742188 694.238281 634.71875 697.246094 C 644.0625 708.863281 708.257812 739.710938 726.945312 734.625 C 717.214844 722.753906 652 695.457031 640.703125 690.144531 C 636.257812 688.671875 631.265625 687.328125 627.871094 686.398438 C 635.199219 685.246094 642.496094 683.96875 649.761719 682.496094 C 651.96875 684.703125 656.480469 689.183594 659.488281 691.902344 C 669.054688 702.527344 731.679688 728.574219 749.214844 723.007812 C 739.136719 712.480469 675.519531 689.503906 664.574219 684.992188 C 660.320312 683.839844 655.585938 682.753906 652.351562 681.984375 C 658.753906 680.671875 665.089844 679.199219 671.425781 677.601562 C 673.695312 679.617188 678.207031 683.679688 681.28125 686.175781 C 690.976562 695.839844 752.222656 717.824219 768.703125 711.839844 C 758.304688 702.496094 696.128906 683.265625 685.566406 679.328125 C 681.472656 678.398438 676.929688 677.566406 673.855469 676.992188 C 679.9375 675.457031 685.984375 673.761719 692.0625 671.96875 C 694.335938 673.855469 698.910156 677.503906 701.953125 679.648438 C 711.777344 688.480469 771.617188 706.6875 787.199219 700.382812 C 776.574219 692.128906 715.9375 676.382812 705.566406 673.054688 C 701.601562 672.351562 697.3125 671.710938 694.335938 671.296875 C 700.320312 669.472656 706.238281 667.550781 712.128906 665.472656 C 714.464844 667.136719 719.039062 670.367188 722.113281 672.351562 C 732 680.320312 790.496094 694.910156 805.152344 688.320312 C 794.273438 681.183594 735.039062 668.769531 724.992188 665.984375 C 721.214844 665.40625 717.089844 665.054688 714.273438 664.769531 C 719.488281 662.910156 724.703125 660.992188 729.855469 658.910156 C 732.191406 660.414062 736.800781 663.359375 739.839844 665.054688 C 749.921875 672.351562 807.167969 683.648438 820.929688 676.960938 C 809.855469 670.785156 751.871094 661.214844 742.175781 658.878906 C 738.527344 658.527344 734.59375 658.273438 731.839844 658.144531 C 737.121094 656.0625 742.335938 653.855469 747.519531 651.550781 C 749.855469 652.863281 754.464844 655.425781 757.503906 656.929688 C 767.617188 663.488281 823.585938 671.777344 836.609375 664.929688 C 825.34375 659.710938 768.671875 652.929688 759.296875 651.070312 C 755.808594 650.847656 752.03125 650.753906 749.40625 650.71875 C 755.007812 648.191406 760.574219 645.566406 766.113281 642.816406 C 767.617188 642.527344 769.3125 642.144531 770.65625 641.792969 Z M 770.65625 641.792969 "/>
</g>
</svg>
