<?xml version="1.0" encoding="UTF-8"?>
<svg xmlns="http://www.w3.org/2000/svg" xmlns:xlink="http://www.w3.org/1999/xlink" width="100%" height="100%" viewBox="0 0 1024 1024" version="1.1">
<defs>
<radialGradient id="radial0" gradientUnits="userSpaceOnUse" cx="0" cy="0" fx="0" fy="0" r="1" gradientTransform="matrix(487.008,0,0,487.008,512.0128,512.0128)">
<stop offset="0" style="stop-color:rgb(87.843137%,94.509804%,89.803922%);stop-opacity:1;"/>
<stop offset="0.46" style="stop-color:rgb(87.058824%,93.72549%,89.019608%);stop-opacity:1;"/>
<stop offset="0.62" style="stop-color:rgb(84.313725%,91.764706%,87.058824%);stop-opacity:1;"/>
<stop offset="0.74" style="stop-color:rgb(79.607843%,88.627451%,83.529412%);stop-opacity:1;"/>
<stop offset="0.83" style="stop-color:rgb(72.941176%,83.921569%,78.823529%);stop-opacity:1;"/>
<stop offset="0.9" style="stop-color:rgb(66.27451%,79.215686%,73.72549%);stop-opacity:1;"/>
<stop offset="0.92" style="stop-color:rgb(56.470588%,74.117647%,67.843137%);stop-opacity:1;"/>
<stop offset="0.95" style="stop-color:rgb(44.705882%,67.843137%,60.392157%);stop-opacity:1;"/>
<stop offset="0.98" style="stop-color:rgb(37.254902%,63.921569%,56.078431%);stop-opacity:1;"/>
<stop offset="1" style="stop-color:rgb(34.901961%,62.745098%,54.509804%);stop-opacity:1;"/>
</radialGradient>
<radialGradient id="radial1" gradientUnits="userSpaceOnUse" cx="0" cy="0" fx="0" fy="0" r="1" gradientTransform="matrix(483.448016,-223.691597,208.032674,449.605551,471.9744,489.4528)">
<stop offset="0" style="stop-color:rgb(87.843137%,94.509804%,89.803922%);stop-opacity:0;"/>
<stop offset="0.67" style="stop-color:rgb(81.960784%,90.196078%,85.098039%);stop-opacity:0;"/>
<stop offset="0.79" style="stop-color:rgb(76.078431%,85.490196%,80.392157%);stop-opacity:0;"/>
<stop offset="0.8" style="stop-color:rgb(75.686275%,85.098039%,80%);stop-opacity:0.0392157;"/>
<stop offset="0.81" style="stop-color:rgb(74.509804%,84.313725%,79.215686%);stop-opacity:0.14902;"/>
<stop offset="0.83" style="stop-color:rgb(72.941176%,83.137255%,78.039216%);stop-opacity:0.321569;"/>
<stop offset="0.85" style="stop-color:rgb(70.196078%,81.960784%,76.470588%);stop-opacity:0.560784;"/>
<stop offset="0.88" style="stop-color:rgb(67.45098%,80%,74.509804%);stop-opacity:0.870588;"/>
<stop offset="0.89" style="stop-color:rgb(66.27451%,79.215686%,73.72549%);stop-opacity:1;"/>
<stop offset="0.91" style="stop-color:rgb(56.470588%,74.117647%,67.843137%);stop-opacity:1;"/>
<stop offset="0.95" style="stop-color:rgb(44.705882%,67.843137%,60.392157%);stop-opacity:1;"/>
<stop offset="0.98" style="stop-color:rgb(37.254902%,63.921569%,56.078431%);stop-opacity:1;"/>
<stop offset="1" style="stop-color:rgb(34.901961%,62.745098%,54.509804%);stop-opacity:1;"/>
</radialGradient>
<radialGradient id="radial2" gradientUnits="userSpaceOnUse" cx="0" cy="0" fx="0" fy="0" r="1" gradientTransform="matrix(409.8496,0,0,409.8496,508.8832,502.6272)">
<stop offset="0" style="stop-color:rgb(87.843137%,94.509804%,89.803922%);stop-opacity:0;"/>
<stop offset="0.67" style="stop-color:rgb(81.960784%,90.196078%,85.098039%);stop-opacity:0;"/>
<stop offset="0.79" style="stop-color:rgb(76.078431%,85.490196%,80.392157%);stop-opacity:0;"/>
<stop offset="0.8" style="stop-color:rgb(75.686275%,85.098039%,80%);stop-opacity:0.0392157;"/>
<stop offset="0.81" style="stop-color:rgb(74.509804%,84.313725%,79.215686%);stop-opacity:0.14902;"/>
<stop offset="0.83" style="stop-color:rgb(72.941176%,83.137255%,78.039216%);stop-opacity:0.321569;"/>
<stop offset="0.85" style="stop-color:rgb(70.196078%,81.960784%,76.470588%);stop-opacity:0.560784;"/>
<stop offset="0.88" style="stop-color:rgb(67.45098%,80%,74.509804%);stop-opacity:0.870588;"/>
<stop offset="0.89" style="stop-color:rgb(66.27451%,79.215686%,73.72549%);stop-opacity:1;"/>
<stop offset="0.91" style="stop-color:rgb(56.470588%,74.117647%,67.843137%);stop-opacity:1;"/>
<stop offset="0.95" style="stop-color:rgb(44.705882%,67.843137%,60.392157%);stop-opacity:1;"/>
<stop offset="0.98" style="stop-color:rgb(37.254902%,63.921569%,56.078431%);stop-opacity:1;"/>
<stop offset="1" style="stop-color:rgb(34.901961%,62.745098%,54.509804%);stop-opacity:1;"/>
</radialGradient>
<filter id="alpha" filterUnits="objectBoundingBox" x="0%" y="0%" width="100%" height="100%">
  <feColorMatrix type="matrix" in="SourceGraphic" values="0 0 0 0 1 0 0 0 0 1 0 0 0 0 1 0 0 0 1 0"/>
</filter>
<mask id="mask0">
  <g filter="url(#alpha)">
<rect x="0" y="0" width="1024" height="1024" style="fill:rgb(0%,0%,0%);fill-opacity:0.670588;stroke:none;"/>
  </g>
</mask>
<radialGradient id="radial3" gradientUnits="userSpaceOnUse" cx="0" cy="0" fx="0" fy="0" r="1" gradientTransform="matrix(172.084688,-131.378416,89.337268,117.017516,317.29248,291.17408)">
<stop offset="0" style="stop-color:rgb(100%,100%,100%);stop-opacity:1;"/>
<stop offset="0.1" style="stop-color:rgb(100%,100%,100%);stop-opacity:0.980392;"/>
<stop offset="0.22" style="stop-color:rgb(100%,100%,100%);stop-opacity:0.921569;"/>
<stop offset="0.36" style="stop-color:rgb(100%,100%,100%);stop-opacity:0.819608;"/>
<stop offset="0.5" style="stop-color:rgb(100%,100%,100%);stop-opacity:0.690196;"/>
<stop offset="0.65" style="stop-color:rgb(100%,100%,100%);stop-opacity:0.509804;"/>
<stop offset="0.81" style="stop-color:rgb(100%,100%,100%);stop-opacity:0.301961;"/>
<stop offset="0.97" style="stop-color:rgb(100%,100%,100%);stop-opacity:0.0509804;"/>
<stop offset="1" style="stop-color:rgb(100%,100%,100%);stop-opacity:0;"/>
</radialGradient>
<clipPath id="clip1">
  <rect x="0" y="0" width="1024" height="1024"/>
</clipPath>
<g id="surface5" clip-path="url(#clip1)">
<path style=" stroke:none;fill-rule:nonzero;fill:url(#radial3);" d="M 206.75 522.652344 C 206.75 351.363281 359.785156 212.511719 548.542969 212.511719 C 575.898438 212.511719 602.523438 215.460938 628.023438 220.960938 C 551.230469 138.773438 412.167969 127.378906 299.472656 199.578125 C 174.625 279.550781 129.386719 431.777344 198.457031 539.601562 C 201.613281 544.527344 204.949219 549.246094 208.445312 553.8125 C 207.324219 543.566406 206.722656 533.160156 206.722656 522.625 Z M 206.75 522.652344 "/>
</g>
</defs>
<g id="surface1">
<path style=" stroke:none;fill-rule:nonzero;fill:url(#radial0);" d="M 512.011719 999.019531 C 780.980469 999.019531 999.019531 780.980469 999.019531 512.011719 C 999.019531 243.046875 780.980469 25.007812 512.011719 25.007812 C 243.046875 25.007812 25.007812 243.046875 25.007812 512.011719 C 25.007812 780.980469 243.046875 999.019531 512.011719 999.019531 Z M 512.011719 999.019531 "/>
<path style=" stroke:none;fill-rule:nonzero;fill:rgb(66.666667%,85.882353%,80.392157%);fill-opacity:1;" d="M 928.539062 506.796875 L 527.707031 510.554688 L 922.488281 440.984375 L 920.585938 430.761719 L 525.832031 507.972656 L 900.296875 361.117188 L 896.414062 351.46875 L 524.503906 505.417969 L 861.917969 285.941406 L 856.152344 277.285156 L 523.175781 502.859375 L 810.238281 221.144531 L 802.859375 213.789062 L 522.078125 499.863281 L 752.035156 171.523438 L 743.457031 165.628906 L 518.949219 499.367188 L 679.886719 130.742188 L 670.292969 126.671875 L 516.1875 498.503906 L 599.574219 104.71875 L 589.378906 102.660156 L 513.445312 497.644531 L 517.203125 95.460938 L 506.796875 95.460938 L 510.554688 496.292969 L 440.984375 101.511719 L 430.761719 103.414062 L 507.972656 498.140625 L 361.117188 123.699219 L 351.46875 127.585938 L 505.417969 499.496094 L 285.941406 162.082031 L 277.285156 167.847656 L 502.859375 500.824219 L 221.144531 213.789062 L 213.789062 221.144531 L 499.863281 501.921875 L 171.523438 271.964844 L 165.628906 280.542969 L 499.367188 505.050781 L 130.742188 344.140625 L 126.671875 353.707031 L 498.480469 507.8125 L 104.71875 424.425781 L 102.660156 434.621094 L 497.644531 510.578125 L 95.460938 506.796875 L 95.460938 517.203125 L 496.292969 513.445312 L 101.511719 583.015625 L 103.414062 593.238281 L 498.140625 516.027344 L 123.699219 662.882812 L 127.585938 672.53125 L 499.496094 518.585938 L 162.082031 738.058594 L 167.847656 746.71875 L 500.824219 521.140625 L 213.789062 802.859375 L 221.144531 810.238281 L 501.921875 524.136719 L 271.964844 852.476562 L 280.542969 858.371094 L 505.050781 524.660156 L 344.140625 893.257812 L 353.707031 897.328125 L 507.8125 525.519531 L 424.425781 919.28125 L 434.621094 921.339844 L 510.578125 526.355469 L 506.796875 928.539062 L 517.203125 928.539062 L 513.445312 527.707031 L 583.015625 922.488281 L 593.238281 920.585938 L 516.027344 525.832031 L 662.882812 900.296875 L 672.53125 896.414062 L 518.585938 524.503906 L 738.058594 861.917969 L 746.71875 856.152344 L 521.140625 523.175781 L 802.859375 810.238281 L 810.238281 802.859375 L 524.136719 522.078125 L 852.476562 752.035156 L 858.371094 743.457031 L 524.632812 518.949219 L 893.257812 679.886719 L 897.328125 670.292969 L 525.496094 516.1875 L 919.28125 599.574219 L 921.339844 589.378906 L 526.355469 513.445312 L 928.539062 517.203125 Z M 928.539062 506.796875 "/>
<path style=" stroke:none;fill-rule:evenodd;fill:url(#radial1);" d="M 933.464844 237 C 936.308594 257.050781 937.796875 277.519531 937.796875 298.273438 C 937.796875 564.085938 696.730469 779.570312 399.339844 779.570312 C 274.808594 779.570312 160.179688 741.761719 68.941406 678.320312 C 141.769531 855.476562 316.03125 980.246094 519.441406 980.246094 C 788.359375 980.246094 1006.34375 762.257812 1006.34375 493.34375 C 1006.34375 399.289062 979.644531 311.46875 933.464844 237.023438 Z M 933.464844 237 "/>
<path style=" stroke:none;fill-rule:nonzero;fill:rgb(44.705882%,60.784314%,56.078431%);fill-opacity:1;" d="M 511.414062 263.335938 L 473.34375 263.335938 L 412.351562 414.414062 L 500.878906 414.414062 Z M 511.414062 263.335938 "/>
<path style=" stroke:none;fill-rule:nonzero;fill:rgb(44.705882%,60.784314%,56.078431%);fill-opacity:1;" d="M 272.042969 790.339844 L 475.507812 790.339844 L 487.136719 591.335938 L 347.113281 591.335938 Z M 272.042969 790.339844 "/>
<path style=" stroke:none;fill-rule:nonzero;fill:rgb(44.705882%,60.784314%,56.078431%);fill-opacity:1;" d="M 628.570312 414.414062 L 567.605469 263.335938 L 529.585938 263.335938 L 540.488281 414.414062 Z M 628.570312 414.414062 "/>
<path style=" stroke:none;fill-rule:nonzero;fill:rgb(44.705882%,60.784314%,56.078431%);fill-opacity:1;" d="M 553.917969 591.335938 L 566.40625 790.339844 L 768.722656 790.339844 L 693.835938 591.335938 Z M 553.917969 591.335938 "/>
<path style=" stroke:none;fill-rule:nonzero;fill:rgb(44.705882%,60.784314%,56.078431%);fill-opacity:1;" d="M 195.277344 437.441406 L 195.277344 541.453125 L 238.925781 541.453125 L 238.925781 579.992188 L 272.824219 579.992188 L 272.824219 541.453125 L 339.707031 537.046875 C 373.554688 534.828125 407.53125 534.855469 441.375 537.125 L 505.601562 541.453125 L 505.601562 579.992188 L 539.496094 579.992188 L 539.496094 541.453125 L 625.621094 536.550781 C 658.867188 534.671875 692.191406 534.933594 725.410156 537.386719 L 780.640625 541.453125 L 780.640625 579.992188 L 814.539062 579.992188 L 814.539062 541.453125 L 853.703125 541.453125 L 853.703125 437.441406 Z M 195.277344 437.441406 "/>
<path style=" stroke:none;fill-rule:evenodd;fill:rgb(17.647059%,17.647059%,17.647059%);fill-opacity:1;" d="M 543.328125 578.035156 L 555.847656 777.039062 L 758.164062 777.039062 L 683.273438 578.035156 Z M 261.480469 777.039062 L 464.921875 777.039062 L 476.574219 578.035156 L 336.554688 578.035156 Z M 184.71875 424.140625 L 184.71875 528.152344 L 228.367188 528.152344 L 228.367188 566.691406 L 262.265625 566.691406 L 262.265625 528.152344 L 329.148438 523.746094 C 362.992188 521.53125 396.96875 521.554688 430.816406 523.824219 L 495.035156 528.152344 L 495.035156 566.691406 L 528.933594 566.691406 L 528.933594 528.152344 L 615.0625 523.25 C 648.308594 521.371094 681.632812 521.636719 714.851562 524.085938 L 770.078125 528.152344 L 770.078125 566.691406 L 803.976562 566.691406 L 803.976562 528.152344 L 843.140625 528.152344 L 843.140625 424.140625 Z M 618.007812 401.113281 L 557.046875 250.035156 L 519 250.035156 L 529.902344 401.113281 Z M 500.824219 250.035156 L 462.757812 250.035156 L 401.765625 401.113281 L 490.316406 401.113281 Z M 500.824219 250.035156 "/>
<path style=" stroke:none;fill-rule:evenodd;fill:rgb(17.647059%,17.647059%,17.647059%);fill-opacity:1;" d="M 512.011719 0 C 229.226562 0 0 229.226562 0 512.011719 C 0 794.800781 229.226562 1024.027344 512.011719 1024.027344 C 794.800781 1024.027344 1024.027344 794.800781 1024.027344 512.011719 C 1024.027344 229.226562 794.769531 0 512.011719 0 Z M 512.011719 1007.703125 C 238.25 1007.703125 16.324219 785.777344 16.324219 512.011719 C 16.324219 238.25 238.222656 16.296875 512.011719 16.296875 C 785.800781 16.296875 1007.703125 238.222656 1007.703125 511.988281 C 1007.703125 785.75 785.777344 1007.675781 512.011719 1007.675781 Z M 512.011719 1007.703125 "/>
<path style=" stroke:none;fill-rule:evenodd;fill:url(#radial2);" d="M 516.5 105.136719 C 284.324219 105.136719 96.113281 293.347656 96.113281 525.519531 C 96.113281 757.691406 284.324219 945.902344 516.5 945.902344 C 748.671875 945.902344 936.882812 757.691406 936.882812 525.519531 C 936.882812 293.347656 748.671875 105.136719 516.5 105.136719 Z M 516.5 932.503906 C 291.730469 932.503906 109.515625 750.289062 109.515625 525.519531 C 109.515625 300.75 291.730469 118.511719 516.5 118.511719 C 741.265625 118.511719 923.476562 300.726562 923.476562 525.496094 C 923.476562 750.261719 741.265625 932.476562 516.5 932.476562 Z M 516.5 932.503906 "/>
<path style=" stroke:none;fill-rule:evenodd;fill:rgb(100%,100%,100%);fill-opacity:1;" d="M 512.011719 89.386719 C 278.613281 89.386719 89.386719 278.613281 89.386719 512.011719 C 89.386719 745.410156 278.613281 934.640625 512.011719 934.640625 C 745.410156 934.640625 934.640625 745.410156 934.640625 512.011719 C 934.640625 278.613281 745.410156 89.386719 512.011719 89.386719 Z M 512.011719 921.183594 C 286.046875 921.183594 102.839844 738.007812 102.839844 512.011719 C 102.839844 286.019531 286.019531 102.839844 512.011719 102.839844 C 738.007812 102.839844 921.183594 286.019531 921.183594 512.011719 C 921.183594 738.007812 738.007812 921.183594 512.011719 921.183594 Z M 512.011719 921.183594 "/>
<path style=" stroke:none;fill-rule:evenodd;fill:rgb(100%,80.784314%,3.529412%);fill-opacity:1;" d="M 512.011719 29.933594 C 245.757812 29.933594 29.933594 245.757812 29.933594 512.011719 C 29.933594 778.269531 245.757812 994.066406 511.988281 994.066406 C 778.214844 994.066406 994.039062 778.238281 994.039062 512.011719 C 994.039062 245.785156 778.238281 29.933594 512.011719 29.933594 Z M 512.011719 978.679688 C 254.257812 978.679688 45.320312 769.742188 45.320312 511.988281 C 45.320312 254.234375 254.257812 45.292969 512.011719 45.292969 C 769.765625 45.292969 978.707031 254.234375 978.707031 511.988281 C 978.707031 769.742188 769.765625 978.679688 512.011719 978.679688 Z M 512.011719 978.679688 "/>
<path style=" stroke:none;fill-rule:evenodd;fill:rgb(75.294118%,13.72549%,15.686275%);fill-opacity:1;" d="M 512.011719 15.542969 C 237.804688 15.542969 15.539062 237.804688 15.539062 512.011719 C 15.539062 786.222656 237.804688 1008.488281 512.011719 1008.488281 C 786.222656 1008.488281 1008.488281 786.222656 1008.488281 512.011719 C 1008.488281 237.804688 786.195312 15.542969 512.011719 15.542969 Z M 512.011719 992.660156 C 246.566406 992.660156 31.367188 777.460938 31.367188 512.011719 C 31.367188 246.566406 246.542969 31.34375 512.011719 31.34375 C 777.484375 31.34375 992.65625 246.542969 992.65625 511.988281 C 992.65625 777.433594 777.460938 992.628906 512.011719 992.628906 Z M 512.011719 992.660156 "/>
<path style=" stroke:none;fill-rule:nonzero;fill:rgb(100%,80.784314%,3.529412%);fill-opacity:1;" d="M 237.753906 444.007812 C 228.367188 444.007812 221.144531 446.875 216.058594 452.613281 C 211 458.347656 208.417969 465.519531 208.417969 474.125 C 208.417969 482.730469 210.921875 489.769531 215.929688 495.691406 C 220.960938 501.636719 228.105469 504.609375 237.230469 504.609375 C 246.800781 504.609375 254.078125 501.6875 259.082031 495.847656 C 264.039062 490.007812 266.539062 482.785156 266.539062 474.28125 C 266.539062 466.378906 264.089844 459.339844 259.292969 453.238281 C 254.441406 447.109375 247.296875 444.0625 237.78125 444.0625 Z M 237.675781 493.371094 C 229.28125 493.371094 225.160156 487.007812 225.160156 474.28125 C 225.160156 461.558594 229.28125 455.246094 237.675781 455.246094 C 246.070312 455.246094 249.773438 461.609375 249.773438 474.308594 C 249.773438 487.007812 245.707031 493.371094 237.675781 493.371094 Z M 237.675781 493.371094 "/>
<path style=" stroke:none;fill-rule:nonzero;fill:rgb(100%,80.784314%,3.529412%);fill-opacity:1;" d="M 318.351562 486.953125 L 304.742188 444.894531 L 287.765625 444.894531 L 308.207031 503.695312 L 325.367188 503.695312 L 345.914062 444.894531 L 332.539062 444.894531 Z M 318.351562 486.953125 "/>
<path style=" stroke:none;fill-rule:nonzero;fill:rgb(100%,80.784314%,3.529412%);fill-opacity:1;" d="M 370.453125 503.695312 L 419.027344 503.695312 L 419.027344 492.066406 L 386.566406 492.066406 L 386.566406 479.234375 L 412.042969 479.234375 L 412.042969 468.152344 L 386.566406 468.152344 L 386.566406 456.109375 L 419.027344 456.109375 L 419.027344 444.894531 L 370.453125 444.894531 Z M 370.453125 503.695312 "/>
<path style=" stroke:none;fill-rule:nonzero;fill:rgb(100%,80.784314%,3.529412%);fill-opacity:1;" d="M 501.765625 462.523438 C 501.765625 458.898438 500.667969 455.613281 498.453125 452.640625 C 496.292969 449.691406 493.472656 447.660156 490.164062 446.539062 C 486.796875 445.441406 482.339844 444.894531 476.839844 444.894531 L 446.929688 444.894531 L 446.929688 503.640625 L 462.992188 503.640625 L 462.992188 480.359375 L 474.386719 480.359375 L 484.867188 503.640625 L 502.496094 503.640625 L 489.925781 477.671875 C 497.800781 474.644531 501.742188 469.5625 501.742188 462.496094 Z M 483.640625 467.191406 C 482.496094 468.519531 481.246094 469.378906 479.78125 469.773438 C 478.324219 470.164062 476.003906 470.34375 472.796875 470.34375 L 463.019531 470.34375 L 463.019531 455.351562 L 472.402344 455.351562 C 476.054688 455.351562 478.558594 455.480469 479.914062 455.796875 C 481.21875 456.109375 482.46875 456.890625 483.589844 458.195312 C 484.738281 459.472656 485.3125 460.957031 485.3125 462.574219 C 485.3125 464.292969 484.765625 465.832031 483.617188 467.191406 Z M 483.640625 467.191406 "/>
<path style=" stroke:none;fill-rule:nonzero;fill:rgb(100%,80.784314%,3.529412%);fill-opacity:1;" d="M 572.976562 446.589844 C 569.820312 445.441406 565.230469 444.945312 559.261719 444.945312 L 532.457031 444.945312 L 532.457031 503.695312 L 548.625 503.695312 L 548.625 481.84375 L 559.832031 481.84375 C 564.710938 481.84375 568.257812 481.609375 570.578125 481.089844 C 572.820312 480.566406 575.195312 479.546875 577.59375 477.957031 C 580.042969 476.367188 581.894531 474.203125 583.226562 471.464844 C 584.554688 468.699219 585.257812 465.886719 585.257812 462.964844 C 585.257812 458.84375 584.007812 455.351562 581.503906 452.507812 C 579 449.667969 576.15625 447.65625 572.976562 446.589844 Z M 566.796875 468.804688 C 565.179688 470.398438 562.46875 471.175781 558.503906 471.175781 L 548.128906 471.175781 L 548.128906 455.558594 L 558.480469 455.558594 C 562.050781 455.558594 564.816406 456.292969 566.5625 457.699219 C 568.308594 459.105469 569.171875 461.011719 569.171875 463.40625 C 569.171875 465.441406 568.386719 467.214844 566.796875 468.804688 Z M 566.796875 468.804688 "/>
<path style=" stroke:none;fill-rule:nonzero;fill:rgb(100%,80.784314%,3.529412%);fill-opacity:1;" d="M 627.394531 444.894531 L 605.597656 503.640625 L 619.574219 503.640625 L 623.847656 491.546875 L 645.855469 491.546875 L 650.027344 503.640625 L 667.160156 503.640625 L 645.855469 444.894531 Z M 627.683594 480.699219 L 634.90625 460.042969 L 642.101562 480.699219 Z M 627.683594 480.699219 "/>
<path style=" stroke:none;fill-rule:nonzero;fill:rgb(100%,80.784314%,3.529412%);fill-opacity:1;" d="M 730.261719 469.847656 C 727.03125 468.625 721.972656 467.371094 715.058594 466.171875 C 710.863281 465.441406 708.257812 464.632812 707.082031 463.617188 C 705.90625 462.628906 705.28125 461.453125 705.28125 460.042969 C 705.28125 456.5 708.4375 454.753906 714.722656 454.753906 C 720.640625 454.753906 724.449219 457.046875 726.328125 461.742188 L 739.910156 457.828125 C 736.101562 448.597656 727.523438 444.035156 714.148438 444.035156 C 706.609375 444.035156 700.640625 445.832031 696.257812 449.40625 C 691.851562 452.980469 689.664062 457.386719 689.664062 462.628906 C 689.664062 467.867188 691.511719 471.699219 695.191406 474.4375 C 698.839844 477.125 705.019531 479.210938 713.707031 480.773438 C 718.34375 481.609375 721.476562 482.496094 723.089844 483.460938 C 724.707031 484.398438 725.492188 485.726562 725.492188 487.476562 C 725.492188 489.222656 724.628906 490.605469 722.804688 491.804688 C 721.003906 493.003906 718.320312 493.65625 714.695312 493.65625 C 707.132812 493.65625 702.519531 490.894531 700.875 485.441406 L 686.117188 488.335938 C 687.707031 493.734375 690.890625 497.800781 695.792969 500.539062 C 700.71875 503.300781 706.640625 504.632812 713.601562 504.632812 C 722.933594 504.632812 729.949219 502.703125 734.617188 498.820312 C 739.363281 494.933594 741.734375 490.34375 741.734375 485.050781 C 741.734375 481.636719 740.640625 478.582031 738.398438 475.871094 C 736.207031 473.105469 733.523438 471.125 730.289062 469.875 Z M 730.261719 469.847656 "/>
<path style=" stroke:none;fill-rule:nonzero;fill:rgb(100%,80.784314%,3.529412%);fill-opacity:1;" d="M 816.050781 475.816406 C 813.859375 473.054688 811.125 471.070312 807.96875 469.875 C 804.707031 468.648438 799.648438 467.398438 792.738281 466.199219 C 788.566406 465.46875 785.933594 464.660156 784.757812 463.640625 C 783.5625 462.648438 783.015625 461.476562 783.015625 460.070312 C 783.015625 456.523438 786.140625 454.777344 792.398438 454.777344 C 798.660156 454.777344 802.179688 457.070312 804.027344 461.761719 L 817.535156 457.851562 C 813.78125 448.625 805.175781 444.0625 791.800781 444.0625 C 784.292969 444.0625 778.292969 445.859375 773.914062 449.429688 C 769.507812 453.003906 767.316406 457.410156 767.316406 462.648438 C 767.316406 467.890625 769.167969 471.726562 772.84375 474.464844 C 776.492188 477.148438 782.675781 479.234375 791.355469 480.800781 C 796.027344 481.636719 799.152344 482.523438 800.742188 483.484375 C 802.386719 484.425781 803.140625 485.753906 803.140625 487.5 C 803.140625 489.246094 802.28125 490.628906 800.457031 491.832031 C 798.660156 493.03125 795.972656 493.679688 792.347656 493.679688 C 784.789062 493.679688 780.167969 490.914062 778.527344 485.464844 L 763.769531 488.363281 C 765.308594 493.761719 768.539062 497.828125 773.441406 500.5625 C 778.371094 503.328125 784.292969 504.660156 791.25 504.660156 C 800.589844 504.660156 807.601562 502.730469 812.269531 498.84375 C 817.039062 494.957031 819.390625 490.367188 819.390625 485.074219 C 819.363281 481.636719 818.238281 478.582031 816.050781 475.847656 Z M 816.050781 475.816406 "/>
<path style=" stroke:none;fill-rule:nonzero;fill:rgb(75.294118%,13.72549%,15.686275%);fill-opacity:1;" d="M 237.675781 455.246094 C 229.28125 455.246094 225.160156 461.609375 225.160156 474.28125 C 225.160156 486.953125 229.28125 493.371094 237.675781 493.371094 C 246.070312 493.371094 249.773438 487.007812 249.773438 474.308594 C 249.773438 461.609375 245.757812 455.246094 237.675781 455.246094 Z M 237.675781 490.605469 C 234.964844 490.605469 227.871094 490.605469 227.871094 474.230469 C 227.871094 457.855469 234.964844 457.933594 237.675781 457.933594 C 240.179688 457.933594 247.035156 457.933594 247.035156 474.28125 C 247.0625 490.628906 240.179688 490.628906 237.675781 490.628906 Z M 237.675781 490.605469 "/>
<path style=" stroke:none;fill-rule:nonzero;fill:rgb(75.294118%,13.72549%,15.686275%);fill-opacity:1;" d="M 237.753906 441.246094 C 227.609375 441.246094 219.578125 444.453125 214.023438 450.761719 C 208.523438 456.996094 205.734375 464.839844 205.734375 474.046875 C 205.734375 483.25 208.445312 490.96875 213.894531 497.386719 C 219.421875 503.957031 227.324219 507.292969 237.257812 507.292969 C 247.191406 507.292969 255.667969 503.980469 261.144531 497.566406 C 266.539062 491.230469 269.226562 483.382812 269.226562 474.230469 C 269.226562 465.730469 266.644531 458.089844 261.402344 451.492188 C 256.03125 444.6875 248.078125 441.246094 237.78125 441.246094 Z M 259.058594 495.796875 C 254.078125 501.636719 246.800781 504.558594 237.207031 504.558594 C 227.609375 504.558594 220.933594 501.609375 215.902344 495.636719 C 210.921875 489.691406 208.394531 482.496094 208.394531 474.074219 C 208.394531 465.652344 210.949219 458.324219 216.03125 452.5625 C 221.117188 446.824219 228.339844 443.957031 237.726562 443.957031 C 247.113281 443.957031 254.390625 447.007812 259.238281 453.136719 C 264.0625 459.265625 266.488281 466.277344 266.488281 474.179688 C 266.488281 482.703125 263.984375 489.902344 259.03125 495.742188 Z M 259.058594 495.796875 "/>
<path style=" stroke:none;fill-rule:nonzero;fill:rgb(75.294118%,13.72549%,15.686275%);fill-opacity:1;" d="M 332.539062 442.183594 L 330.582031 442.183594 L 329.957031 444.035156 L 318.40625 478.222656 L 307.324219 444.0625 L 306.695312 442.15625 L 283.933594 442.15625 L 285.238281 445.78125 L 305.679688 504.53125 L 306.304688 506.378906 L 327.347656 506.378906 L 328 504.558594 L 348.546875 445.757812 L 349.773438 442.132812 L 332.539062 442.132812 Z M 325.390625 503.671875 L 308.234375 503.671875 L 287.792969 444.921875 L 304.742188 444.921875 L 318.351562 486.953125 L 332.539062 444.921875 L 345.914062 444.921875 L 325.367188 503.671875 Z M 325.390625 503.671875 "/>
<path style=" stroke:none;fill-rule:nonzero;fill:rgb(75.294118%,13.72549%,15.686275%);fill-opacity:1;" d="M 389.328125 489.328125 L 389.328125 481.972656 L 414.777344 481.972656 L 414.777344 465.417969 L 389.328125 465.417969 L 389.328125 458.820312 L 421.714844 458.820312 L 421.714844 442.210938 L 367.710938 442.210938 L 367.710938 506.488281 L 421.765625 506.488281 L 421.765625 489.355469 L 389.355469 489.355469 Z M 418.976562 503.695312 L 370.398438 503.695312 L 370.398438 444.894531 L 419 444.894531 L 419 456.082031 L 386.566406 456.082031 L 386.566406 468.152344 L 412.015625 468.152344 L 412.015625 479.234375 L 386.566406 479.234375 L 386.566406 492.066406 L 418.976562 492.066406 Z M 418.976562 503.695312 "/>
<path style=" stroke:none;fill-rule:nonzero;fill:rgb(75.294118%,13.72549%,15.686275%);fill-opacity:1;" d="M 479.914062 455.847656 C 478.585938 455.535156 476.109375 455.40625 472.402344 455.40625 L 463.019531 455.40625 L 463.019531 470.371094 L 472.796875 470.371094 C 476.003906 470.371094 478.296875 470.164062 479.730469 469.796875 C 481.164062 469.433594 482.445312 468.574219 483.589844 467.214844 C 484.738281 465.886719 485.3125 464.347656 485.3125 462.652344 C 485.3125 460.957031 484.738281 459.546875 483.589844 458.273438 C 482.445312 456.96875 481.21875 456.1875 479.914062 455.875 Z M 481.503906 465.441406 C 480.75 466.328125 479.914062 466.929688 479.027344 467.164062 C 478.191406 467.398438 476.445312 467.6875 472.769531 467.6875 L 465.726562 467.6875 L 465.726562 458.113281 L 472.433594 458.113281 C 476.707031 458.113281 478.558594 458.324219 479.316406 458.507812 C 480.042969 458.636719 480.824219 459.183594 481.558594 460.019531 C 482.234375 460.804688 482.546875 461.660156 482.546875 462.628906 C 482.546875 463.722656 482.207031 464.632812 481.503906 465.441406 Z M 481.503906 465.441406 "/>
<path style=" stroke:none;fill-rule:nonzero;fill:rgb(75.294118%,13.72549%,15.686275%);fill-opacity:1;" d="M 493.578125 479.027344 C 502.496094 474.542969 504.453125 467.6875 504.453125 462.523438 C 504.453125 458.324219 503.148438 454.4375 500.644531 451.023438 C 498.140625 447.605469 494.910156 445.234375 491.050781 443.929688 C 487.398438 442.757812 482.753906 442.183594 476.863281 442.183594 L 444.242188 442.183594 L 444.242188 506.457031 L 465.757812 506.457031 L 465.757812 483.125 L 472.664062 483.125 L 482.363281 504.789062 L 483.09375 506.40625 L 506.875 506.40625 L 504.945312 502.496094 L 493.601562 479.027344 Z M 484.867188 503.671875 L 474.386719 480.382812 L 462.992188 480.382812 L 462.992188 503.671875 L 446.929688 503.671875 L 446.929688 444.921875 L 476.863281 444.921875 C 482.363281 444.921875 486.796875 445.46875 490.1875 446.5625 C 493.527344 447.660156 496.316406 449.691406 498.480469 452.664062 C 500.644531 455.585938 501.792969 458.898438 501.792969 462.546875 C 501.792969 469.585938 497.882812 474.699219 489.953125 477.726562 L 502.523438 503.695312 L 484.894531 503.695312 Z M 484.867188 503.671875 "/>
<path style=" stroke:none;fill-rule:nonzero;fill:rgb(75.294118%,13.72549%,15.686275%);fill-opacity:1;" d="M 573.835938 443.984375 C 570.398438 442.785156 565.570312 442.183594 559.261719 442.183594 L 529.71875 442.183594 L 529.71875 506.457031 L 551.359375 506.457031 L 551.359375 484.609375 L 559.863281 484.609375 C 564.945312 484.609375 568.699219 484.320312 571.152344 483.773438 C 573.761719 483.199219 576.417969 481.972656 579.105469 480.226562 C 581.921875 478.375 584.136719 475.820312 585.703125 472.613281 C 587.1875 469.484375 587.941406 466.222656 587.941406 462.910156 C 587.941406 458.089844 586.433594 453.996094 583.535156 450.660156 C 580.71875 447.449219 577.4375 445.234375 573.863281 443.957031 Z M 583.195312 471.414062 C 581.867188 474.179688 579.992188 476.34375 577.566406 477.90625 C 575.167969 479.496094 572.792969 480.566406 570.550781 481.035156 C 568.285156 481.558594 564.710938 481.792969 559.808594 481.792969 L 548.625 481.792969 L 548.625 503.640625 L 532.429688 503.640625 L 532.429688 444.921875 L 559.261719 444.921875 C 565.28125 444.921875 569.847656 445.46875 572.976562 446.5625 C 576.1875 447.660156 579 449.617188 581.476562 452.457031 C 583.980469 455.324219 585.230469 458.820312 585.230469 462.910156 C 585.230469 465.832031 584.554688 468.648438 583.195312 471.414062 Z M 583.195312 471.414062 "/>
<path style=" stroke:none;fill-rule:nonzero;fill:rgb(75.294118%,13.72549%,15.686275%);fill-opacity:1;" d="M 558.453125 455.5625 L 548.101562 455.5625 L 548.101562 471.179688 L 558.480469 471.179688 C 562.441406 471.179688 565.15625 470.421875 566.769531 468.804688 C 568.386719 467.214844 569.140625 465.441406 569.140625 463.40625 C 569.140625 461.035156 568.285156 459.105469 566.539062 457.699219 C 564.734375 456.292969 562.027344 455.5625 558.453125 455.5625 Z M 564.917969 466.875 C 564.1875 467.605469 562.523438 468.46875 558.480469 468.46875 L 550.8125 468.46875 L 550.8125 458.324219 L 558.453125 458.324219 C 561.371094 458.324219 563.589844 458.84375 564.839844 459.835938 C 565.988281 460.722656 566.484375 461.84375 566.484375 463.40625 C 566.484375 464.714844 565.960938 465.808594 564.894531 466.875 Z M 564.917969 466.875 "/>
<path style=" stroke:none;fill-rule:nonzero;fill:rgb(75.294118%,13.72549%,15.686275%);fill-opacity:1;" d="M 648.386719 443.984375 L 647.761719 442.183594 L 625.492188 442.183594 L 624.8125 443.929688 L 603.015625 502.730469 L 601.6875 506.40625 L 621.476562 506.40625 L 622.128906 504.582031 L 625.753906 494.308594 L 643.875 494.308594 L 647.445312 504.558594 L 648.097656 506.40625 L 671.046875 506.40625 L 669.742188 502.753906 L 648.414062 443.957031 Z M 650.003906 503.671875 L 645.832031 491.570312 L 623.824219 491.570312 L 619.546875 503.671875 L 605.570312 503.671875 L 627.371094 444.921875 L 645.804688 444.921875 L 667.105469 503.671875 L 649.976562 503.671875 Z M 650.003906 503.671875 "/>
<path style=" stroke:none;fill-rule:nonzero;fill:rgb(75.294118%,13.72549%,15.686275%);fill-opacity:1;" d="M 627.65625 480.722656 L 642.078125 480.722656 L 634.878906 460.070312 Z M 631.460938 478.039062 L 634.878906 468.414062 L 638.21875 478.039062 Z M 631.460938 478.039062 "/>
<path style=" stroke:none;fill-rule:nonzero;fill:rgb(75.294118%,13.72549%,15.686275%);fill-opacity:1;" d="M 731.175781 467.292969 C 727.734375 465.964844 722.59375 464.738281 715.453125 463.488281 C 710.1875 462.601562 708.90625 461.6875 708.753906 461.53125 C 708.074219 460.957031 707.96875 460.488281 707.96875 460.097656 C 707.96875 458.375 710.210938 457.515625 714.667969 457.515625 C 720.929688 457.515625 722.859375 460.515625 723.742188 462.785156 L 724.628906 465.078125 L 727.003906 464.34375 L 740.5625 460.460938 L 743.511719 459.601562 L 742.335938 456.785156 C 738.113281 446.511719 728.621094 441.269531 714.097656 441.269531 C 705.988281 441.269531 699.335938 443.304688 694.511719 447.265625 C 689.457031 451.390625 686.875 456.550781 686.875 462.601562 C 686.875 468.648438 689.117188 473.371094 693.523438 476.601562 C 697.589844 479.546875 703.976562 481.792969 713.160156 483.460938 C 718.765625 484.453125 720.902344 485.363281 721.683594 485.808594 C 722.542969 486.328125 722.726562 486.796875 722.726562 487.449219 C 722.726562 487.738281 722.726562 488.542969 721.242188 489.535156 C 720.300781 490.160156 718.453125 490.917969 714.644531 490.917969 C 706.246094 490.917969 704.214844 487.34375 703.40625 484.632812 L 702.675781 482.257812 L 700.273438 482.730469 L 685.515625 485.625 L 682.597656 486.199219 L 683.429688 489.066406 C 685.175781 495.167969 688.855469 499.835938 694.382812 502.886719 C 699.675781 505.832031 706.117188 507.371094 713.546875 507.371094 C 723.457031 507.371094 731.125 505.207031 736.3125 500.929688 C 741.683594 496.523438 744.398438 491.152344 744.398438 485.023438 C 744.398438 481.007812 743.066406 477.304688 740.507812 474.125 C 738.007812 471.019531 734.875 468.726562 731.175781 467.320312 Z M 734.59375 498.738281 C 729.871094 502.625 722.859375 504.554688 713.574219 504.554688 C 706.609375 504.554688 700.667969 503.175781 695.765625 500.460938 C 690.839844 497.695312 687.683594 493.65625 686.09375 488.257812 L 700.851562 485.363281 C 702.542969 490.839844 707.132812 493.578125 714.667969 493.578125 C 718.320312 493.578125 721.035156 492.925781 722.777344 491.726562 C 724.605469 490.527344 725.464844 489.039062 725.464844 487.398438 C 725.464844 485.753906 724.679688 484.34375 723.066406 483.382812 C 721.425781 482.414062 718.292969 481.53125 713.679688 480.699219 C 705.019531 479.160156 698.816406 477.046875 695.164062 474.359375 C 691.488281 471.648438 689.636719 467.710938 689.636719 462.546875 C 689.636719 457.386719 691.828125 452.925781 696.234375 449.328125 C 700.613281 445.78125 706.585938 444.007812 714.121094 444.007812 C 727.496094 444.007812 736.078125 448.625 739.886719 457.800781 L 726.300781 461.710938 C 724.449219 457.070312 720.613281 454.726562 714.695312 454.726562 C 708.414062 454.726562 705.257812 456.472656 705.257812 460.019531 C 705.257812 461.425781 705.882812 462.601562 707.054688 463.589844 C 708.230469 464.558594 710.835938 465.417969 715.035156 466.148438 C 721.945312 467.347656 727.03125 468.597656 730.238281 469.824219 C 733.46875 471.050781 736.15625 473.03125 738.34375 475.769531 C 740.539062 478.480469 741.683594 481.554688 741.683594 484.945312 C 741.683594 490.238281 739.3125 494.855469 734.566406 498.714844 Z M 734.59375 498.738281 "/>
<path style=" stroke:none;fill-rule:nonzero;fill:rgb(75.294118%,13.72549%,15.686275%);fill-opacity:1;" d="M 818.1875 474.097656 C 815.6875 470.996094 812.558594 468.699219 808.855469 467.292969 C 805.410156 465.964844 800.273438 464.738281 793.128906 463.488281 C 787.863281 462.601562 786.636719 461.6875 786.429688 461.53125 C 785.75 460.957031 785.644531 460.488281 785.644531 460.097656 C 785.644531 458.375 787.886719 457.515625 792.347656 457.515625 C 798.628906 457.515625 800.535156 460.515625 801.394531 462.785156 L 802.335938 465.078125 L 804.707031 464.34375 L 818.292969 460.460938 L 821.1875 459.601562 L 820.039062 456.785156 C 815.761719 446.511719 806.246094 441.269531 791.746094 441.269531 C 783.664062 441.269531 777.015625 443.304688 772.140625 447.265625 C 767.105469 451.390625 764.523438 456.550781 764.523438 462.601562 C 764.523438 468.648438 766.769531 473.371094 771.175781 476.601562 C 775.242188 479.546875 781.65625 481.792969 790.785156 483.460938 C 796.414062 484.453125 798.605469 485.363281 799.28125 485.808594 C 800.222656 486.328125 800.378906 486.796875 800.378906 487.449219 C 800.378906 487.738281 800.378906 488.542969 798.894531 489.535156 C 798.007812 490.160156 796.101562 490.917969 792.292969 490.917969 C 783.925781 490.917969 781.917969 487.34375 781.085938 484.632812 L 780.351562 482.257812 L 777.980469 482.730469 L 763.222656 485.625 L 760.300781 486.199219 L 761.085938 489.066406 C 762.832031 495.167969 766.503906 499.835938 772.035156 502.886719 C 777.328125 505.832031 783.796875 507.371094 791.199219 507.371094 C 801.109375 507.371094 808.773438 505.207031 813.964844 500.929688 C 819.335938 496.523438 822.046875 491.152344 822.046875 485.023438 C 822.046875 481.007812 820.71875 477.304688 818.164062 474.125 Z M 812.242188 498.738281 C 807.523438 502.625 800.535156 504.554688 791.226562 504.554688 C 784.265625 504.554688 778.320312 503.175781 773.417969 500.460938 C 768.488281 497.695312 765.308594 493.65625 763.742188 488.257812 L 778.503906 485.363281 C 780.195312 490.839844 784.789062 493.578125 792.324219 493.578125 C 795.972656 493.578125 798.683594 492.925781 800.433594 491.726562 C 802.257812 490.527344 803.117188 489.039062 803.117188 487.398438 C 803.117188 485.753906 802.363281 484.34375 800.71875 483.382812 C 799.101562 482.414062 795.972656 481.53125 791.332031 480.699219 C 782.675781 479.160156 776.46875 477.046875 772.816406 474.359375 C 769.140625 471.648438 767.289062 467.710938 767.289062 462.546875 C 767.289062 457.386719 769.476562 452.925781 773.886719 449.328125 C 778.265625 445.78125 784.265625 444.007812 791.773438 444.007812 C 805.152344 444.007812 813.757812 448.625 817.511719 457.800781 L 803.976562 461.710938 C 802.125 457.070312 798.292969 454.726562 792.347656 454.726562 C 786.0625 454.726562 782.960938 456.472656 782.960938 460.019531 C 782.960938 461.425781 783.507812 462.601562 784.707031 463.589844 C 785.882812 464.558594 788.515625 465.417969 792.6875 466.148438 C 799.597656 467.347656 804.679688 468.597656 807.914062 469.824219 C 811.125 471.050781 813.808594 473.03125 815.996094 475.769531 C 818.1875 478.480469 819.335938 481.554688 819.335938 484.945312 C 819.335938 490.238281 816.988281 494.855469 812.21875 498.714844 Z M 812.242188 498.738281 "/>
<use xlink:href="#surface5" mask="url(#mask0)"/>
</g>
</svg>
