<?xml version="1.0" encoding="UTF-8"?>
<svg xmlns="http://www.w3.org/2000/svg" xmlns:xlink="http://www.w3.org/1999/xlink" width="100%" height="100%" viewBox="0 0 1024 1024" version="1.1">
<defs>
<clipPath id="clip1">
  <path d="M 41 359 L 983 359 L 983 983 L 41 983 Z M 41 359 "/>
</clipPath>
<clipPath id="clip2">
  <path d="M 66.910156 359.007812 C 50.433594 406.976562 41.441406 458.433594 41.441406 512 C 41.441406 771.871094 252.097656 982.527344 511.96875 982.527344 C 771.839844 982.527344 982.496094 771.871094 982.496094 512 C 982.496094 458.433594 973.535156 406.976562 957.023438 359.007812 Z M 66.910156 359.007812 "/>
</clipPath>
<linearGradient id="linear0" gradientUnits="userSpaceOnUse" x1="-579.1855" y1="1.0928" x2="-579.1227" y2="1.0928" gradientTransform="matrix(0,-10071.44,10071.44,0,-10493.2512,-5832338)">
<stop offset="0" style="stop-color:rgb(19.215686%,25.882353%,48.235294%);stop-opacity:1;"/>
<stop offset="0.1696" style="stop-color:rgb(18.431373%,25.490196%,48.627451%);stop-opacity:1;"/>
<stop offset="1" style="stop-color:rgb(15.294118%,23.529412%,50.196078%);stop-opacity:1;"/>
</linearGradient>
<clipPath id="clip3">
  <path d="M 66 41 L 958 41 L 958 360 L 66 360 Z M 66 41 "/>
</clipPath>
<clipPath id="clip4">
  <path d="M 66.910156 359.007812 L 957.023438 359.007812 C 893.535156 174.238281 718.304688 41.472656 511.96875 41.472656 C 305.695312 41.472656 130.398438 174.238281 66.910156 359.007812 "/>
</clipPath>
<linearGradient id="linear1" gradientUnits="userSpaceOnUse" x1="-579.1865" y1="1.0928" x2="-579.1223" y2="1.0928" gradientTransform="matrix(0,-10071.44,10071.44,0,-10493.2512,-5832338)">
<stop offset="0" style="stop-color:rgb(19.215686%,25.882353%,48.235294%);stop-opacity:1;"/>
<stop offset="0.1696" style="stop-color:rgb(18.431373%,25.490196%,48.627451%);stop-opacity:1;"/>
<stop offset="1" style="stop-color:rgb(15.294118%,23.529412%,50.196078%);stop-opacity:1;"/>
</linearGradient>
<linearGradient id="linear2" gradientUnits="userSpaceOnUse" x1="-576.7046" y1="-1.501" x2="-576.6429" y2="-1.501" gradientTransform="matrix(0,7326.5312,-7326.5312,0,-10485.7504,4225135.0016)">
<stop offset="0" style="stop-color:rgb(65.882353%,65.882353%,65.882353%);stop-opacity:1;"/>
<stop offset="1" style="stop-color:rgb(88.627451%,87.843137%,100%);stop-opacity:1;"/>
</linearGradient>
<clipPath id="clip5">
  <path d="M 209.121094 159.265625 L 814.847656 159.265625 L 814.847656 164.609375 L 209.121094 164.609375 Z M 209.121094 159.265625 "/>
</clipPath>
<linearGradient id="linear3" gradientUnits="userSpaceOnUse" x1="-577.3911" y1="1.3398" x2="-577.3291" y2="1.3398" gradientTransform="matrix(9647.3536,0,0,9647.3536,5570509.0016,-12765.2512)">
<stop offset="0" style="stop-color:rgb(19.215686%,25.882353%,48.235294%);stop-opacity:1;"/>
<stop offset="1" style="stop-color:rgb(20.392157%,25.098039%,49.019608%);stop-opacity:1;"/>
</linearGradient>
<clipPath id="clip6">
  <path d="M 77.472656 331.167969 L 946.496094 331.167969 L 946.496094 336.511719 L 77.472656 336.511719 Z M 77.472656 331.167969 "/>
</clipPath>
<linearGradient id="linear4" gradientUnits="userSpaceOnUse" x1="-577.4048" y1="1.3574" x2="-577.3156" y2="1.3574" gradientTransform="matrix(9647.3536,0,0,9647.3536,5570509.0016,-12765.2512)">
<stop offset="0" style="stop-color:rgb(19.215686%,25.882353%,48.235294%);stop-opacity:1;"/>
<stop offset="1" style="stop-color:rgb(20.392157%,25.098039%,49.019608%);stop-opacity:1;"/>
</linearGradient>
<clipPath id="clip7">
  <path d="M 7 7 L 1017 7 L 1017 1017 L 7 1017 Z M 7 7 "/>
</clipPath>
<clipPath id="clip8">
  <path d="M 54.464844 512 C 54.464844 259.710938 259.710938 54.464844 511.96875 54.464844 C 764.257812 54.464844 969.503906 259.710938 969.503906 512 C 969.503906 764.289062 764.257812 969.535156 511.96875 969.535156 C 259.710938 969.535156 54.464844 764.289062 54.464844 512 M 185.632812 185.632812 C 98.464844 272.800781 50.433594 388.703125 50.433594 512 C 50.433594 635.328125 98.433594 751.199219 185.632812 838.335938 C 272.800781 925.535156 388.703125 973.535156 511.96875 973.535156 C 635.296875 973.535156 751.199219 925.535156 838.335938 838.335938 C 925.535156 751.167969 973.535156 635.230469 973.535156 512 C 973.535156 388.734375 925.535156 272.800781 838.335938 185.632812 C 751.105469 98.464844 635.230469 50.433594 511.96875 50.433594 C 388.703125 50.464844 272.800781 98.464844 185.632812 185.632812 M 11.167969 512 C 11.167969 235.839844 235.839844 11.199219 511.96875 11.199219 C 788.128906 11.199219 1012.734375 235.871094 1012.734375 512 C 1012.734375 788.128906 788.0625 1012.800781 511.96875 1012.800781 C 235.871094 1012.800781 11.167969 788.128906 11.167969 512 M 511.96875 7.167969 C 377.121094 7.167969 250.367188 59.679688 155.007812 155.039062 C 59.679688 250.398438 7.167969 377.152344 7.167969 512 C 7.167969 646.847656 59.679688 773.632812 155.007812 868.929688 C 250.367188 964.257812 377.121094 1016.800781 511.96875 1016.800781 C 646.847656 1016.800781 773.601562 964.222656 868.929688 868.929688 C 964.257812 773.601562 1016.800781 646.847656 1016.800781 512 C 1016.800781 377.152344 964.222656 250.398438 868.929688 155.039062 C 773.601562 59.679688 646.847656 7.167969 511.96875 7.167969 Z M 511.96875 7.167969 "/>
</clipPath>
<linearGradient id="linear5" gradientUnits="userSpaceOnUse" x1="-578.73" y1="0.8037" x2="-578.6672" y2="0.8037" gradientTransform="matrix(5592.9632,-15085.6096,15085.6096,5592.9632,3225037.0016,-8734006)">
<stop offset="0" style="stop-color:rgb(65.882353%,65.882353%,65.882353%);stop-opacity:1;"/>
<stop offset="1" style="stop-color:rgb(88.627451%,87.843137%,100%);stop-opacity:1;"/>
</linearGradient>
<clipPath id="clip9">
  <path d="M 194 179 L 853 179 L 853 321 L 194 321 Z M 194 179 "/>
</clipPath>
<clipPath id="clip10">
  <path d="M 353.503906 264.320312 L 396.160156 264.320312 L 396.160156 279.105469 L 353.503906 279.105469 Z M 349.503906 283.136719 L 400.222656 283.136719 L 400.222656 260.289062 L 349.503906 260.289062 Z M 353.503906 219.9375 L 396.160156 219.9375 L 396.160156 226.144531 L 353.503906 226.144531 Z M 349.503906 230.175781 L 400.222656 230.175781 L 400.222656 215.902344 L 349.503906 215.902344 Z M 434.625 229.089844 L 434.625 219.9375 L 439.871094 219.9375 C 448.128906 219.9375 450.59375 220.832031 450.625 220.863281 C 451.105469 221.054688 451.488281 221.3125 451.96875 222.015625 C 452.414062 222.6875 452.609375 223.359375 452.609375 224.257812 C 452.609375 225.34375 452.414062 226.078125 451.902344 226.878906 C 451.585938 227.359375 451.230469 227.742188 450.335938 228.097656 C 450.046875 228.222656 447.390625 229.183594 439.488281 229.183594 Z M 430.59375 215.902344 L 430.59375 233.089844 L 439.425781 233.152344 C 447.457031 233.152344 450.753906 232.222656 451.742188 231.808594 C 453.3125 231.136719 454.398438 230.335938 455.199219 229.054688 C 456.128906 227.648438 456.542969 226.113281 456.542969 224.257812 C 456.542969 222.558594 456.128906 221.152344 455.230469 219.777344 C 454.398438 218.496094 453.375 217.632812 452.03125 217.121094 C 451.328125 216.832031 448.351562 215.902344 439.808594 215.902344 Z M 759.167969 272.671875 C 752.992188 266.496094 749.921875 259.070312 749.921875 249.984375 C 749.921875 243.679688 751.296875 238.207031 754.175781 233.246094 C 756.929688 228.257812 760.800781 224.449219 765.855469 221.503906 C 770.847656 218.558594 776.03125 217.152344 781.601562 217.152344 C 787.359375 217.152344 792.671875 218.59375 797.792969 221.566406 C 802.945312 224.511719 806.785156 228.289062 809.566406 233.121094 C 812.351562 237.953125 813.726562 243.296875 813.726562 249.472656 C 813.726562 255.710938 812.351562 261.183594 809.535156 266.144531 C 806.753906 271.007812 802.976562 274.785156 798.046875 277.632812 C 793.023438 280.511719 787.617188 281.921875 781.601562 281.921875 C 772.769531 281.921875 765.40625 278.878906 759.167969 272.671875 M 763.808594 218.046875 C 758.078125 221.375 753.792969 225.664062 750.625 231.265625 C 747.390625 236.863281 745.921875 242.976562 745.921875 249.984375 C 745.921875 260.160156 749.3125 268.542969 756.351562 275.519531 C 763.425781 282.527344 771.679688 285.921875 781.601562 285.921875 C 788.351562 285.921875 794.335938 284.351562 800 281.121094 C 805.632812 277.921875 809.921875 273.664062 812.992188 268.128906 C 816.191406 262.527344 817.695312 256.414062 817.695312 249.472656 C 817.695312 242.59375 816.128906 236.574219 813.023438 231.105469 C 809.886719 225.664062 805.601562 221.375 799.808594 218.078125 C 793.953125 214.753906 788.03125 213.121094 781.601562 213.121094 C 775.296875 213.121094 769.503906 214.71875 763.808594 218.046875 M 465.375 263.230469 C 465.984375 263.007812 466.558594 262.753906 467.136719 262.496094 C 474.847656 259.105469 480.894531 253.886719 485.152344 247.039062 C 489.28125 240.382812 491.359375 232.734375 491.359375 224.257812 C 491.359375 222.816406 491.296875 221.375 491.167969 219.902344 L 500.222656 219.902344 L 500.222656 308.191406 Z M 718.71875 217.601562 C 715.457031 224.03125 713.28125 230.847656 712.128906 237.953125 L 697.214844 237.953125 Z M 636.609375 277.535156 C 631.105469 274.527344 626.910156 270.558594 623.839844 265.34375 C 620.734375 260.160156 619.230469 254.910156 619.230469 249.28125 C 619.230469 243.808594 620.671875 238.71875 623.617188 233.761719 C 626.558594 228.800781 630.65625 224.894531 636.128906 221.921875 C 641.824219 218.847656 647.550781 217.375 653.761719 217.375 C 658.625 217.375 663.839844 218.527344 669.28125 220.832031 C 674.785156 223.199219 680.03125 226.785156 684.734375 231.457031 L 691.359375 237.953125 L 648.800781 237.953125 L 648.800781 276 L 674.527344 276 C 669.375 280.128906 663.136719 282.113281 655.230469 282.113281 C 648.351562 282.144531 642.207031 280.609375 636.609375 277.535156 M 652.769531 241.953125 L 715.585938 241.953125 L 715.839844 240.222656 C 716.992188 231.777344 719.742188 223.710938 723.902344 216.320312 C 729.855469 205.953125 737.921875 197.726562 748.0625 191.871094 C 758.144531 185.984375 769.3125 183.039062 781.121094 183.039062 C 800.03125 183.039062 816.191406 189.503906 829.054688 202.238281 C 841.953125 215.007812 848.449219 230.910156 848.449219 249.503906 C 848.449219 267.902344 841.953125 283.777344 829.121094 296.640625 C 816.289062 309.503906 800.414062 316.03125 781.953125 316.03125 C 763.328125 316.03125 747.390625 309.535156 734.558594 296.734375 C 727.777344 290.015625 722.71875 282.367188 719.457031 274.046875 L 717.40625 268.671875 L 715.710938 274.175781 C 712.769531 283.550781 707.9375 291.710938 701.183594 298.433594 C 689.566406 310.113281 673.953125 316.03125 654.910156 316.03125 C 632.0625 316.03125 613.632812 308 600.0625 292.191406 C 594.367188 285.566406 590.207031 278.238281 587.585938 270.398438 L 583.710938 258.6875 L 583.710938 313.28125 L 553.3125 313.28125 L 553.3125 215.902344 L 534.816406 215.902344 L 534.816406 313.28125 L 504.191406 313.28125 L 504.191406 215.902344 L 486.558594 215.902344 L 486.878906 218.175781 C 487.167969 220.289062 487.296875 222.273438 487.296875 224.257812 C 487.296875 231.96875 485.40625 238.910156 481.695312 244.929688 C 477.886719 251.070312 472.449219 255.742188 465.503906 258.847656 C 464.222656 259.425781 462.878906 259.9375 461.472656 260.351562 L 458.753906 261.214844 L 499.070312 313.246094 L 460.960938 313.246094 L 430.625 274.078125 L 430.625 313.246094 L 319.136719 313.246094 L 319.136719 200.769531 L 270.175781 313.28125 L 254.945312 313.28125 L 200.222656 185.761719 L 233.28125 185.761719 L 262.65625 254.273438 L 292.542969 185.761719 L 431.488281 185.761719 C 448.609375 185.761719 454.847656 186.71875 458.046875 187.457031 C 465.375 189.121094 471.648438 192.574219 476.703125 197.632812 L 480.128906 201.089844 L 480.128906 185.761719 L 583.710938 185.761719 L 583.710938 240.542969 L 587.585938 228.703125 C 589.054688 224.289062 590.910156 220 593.3125 216.03125 C 599.328125 205.726562 607.679688 197.535156 618.144531 191.742188 C 628.511719 185.984375 640.320312 183.070312 653.3125 183.070312 C 663.710938 183.070312 673.632812 184.992188 682.878906 188.769531 C 692 192.511719 700.992188 198.527344 709.503906 206.625 L 716.992188 213.726562 L 694.273438 235.265625 L 687.519531 228.640625 C 682.398438 223.617188 676.769531 219.777344 670.753906 217.214844 C 664.832031 214.6875 659.167969 213.40625 653.664062 213.40625 C 646.816406 213.40625 640.480469 215.070312 634.175781 218.433594 C 628.128906 221.761719 623.488281 226.113281 620.160156 231.742188 C 616.832031 237.375 615.230469 243.136719 615.230469 249.34375 C 615.230469 255.710938 616.929688 261.664062 620.351562 267.488281 C 623.839844 273.3125 628.542969 277.761719 634.65625 281.152344 C 640.894531 284.574219 647.679688 286.238281 655.296875 286.238281 C 664.128906 286.238281 671.296875 283.871094 677.28125 279.039062 C 678.71875 277.921875 679.9375 276.671875 681.054688 275.390625 L 683.902344 272.0625 L 652.863281 272.0625 L 652.863281 241.953125 Z M 746.015625 188.382812 C 735.9375 194.273438 727.679688 202.367188 721.503906 212.449219 L 712.222656 203.648438 C 703.390625 195.199219 693.953125 188.929688 684.320312 184.992188 C 674.59375 181.023438 664.128906 179.007812 653.246094 179.007812 C 639.617188 179.007812 627.136719 182.113281 616.160156 188.191406 C 605.023438 194.367188 596.191406 203.039062 589.824219 213.984375 C 589.089844 215.296875 588.320312 216.609375 587.679688 217.953125 L 587.679688 181.726562 L 476.097656 181.726562 L 476.097656 191.742188 C 471.199219 187.808594 465.441406 185.089844 458.945312 183.550781 C 455.550781 182.785156 448.992188 181.726562 431.488281 181.726562 L 289.921875 181.726562 L 262.71875 244.160156 L 235.9375 181.726562 L 194.113281 181.726562 L 252.289062 317.3125 L 272.800781 317.3125 L 315.105469 220.0625 L 315.105469 317.3125 L 434.59375 317.3125 L 434.59375 285.886719 L 458.945312 317.3125 L 502.144531 317.3125 L 504.191406 319.96875 L 504.191406 317.3125 L 538.816406 317.3125 L 538.816406 219.9375 L 549.28125 219.9375 L 549.28125 317.3125 L 587.679688 317.3125 L 587.679688 280.960938 C 590.207031 285.824219 593.28125 290.464844 597.023438 294.785156 C 611.328125 311.519531 630.816406 320.03125 654.910156 320.03125 C 675.105469 320.03125 691.585938 313.726562 704.03125 301.28125 C 710.046875 295.296875 714.65625 288.257812 717.855469 280.257812 C 721.214844 287.265625 725.921875 293.726562 731.777344 299.585938 C 745.441406 313.152344 762.335938 320.0625 782.046875 320.0625 C 801.503906 320.0625 818.398438 313.121094 832.03125 299.488281 C 845.664062 285.855469 852.574219 269.023438 852.574219 249.503906 C 852.574219 229.824219 845.601562 212.929688 831.96875 199.390625 C 818.304688 185.886719 801.214844 179.007812 781.183594 179.007812 C 768.609375 179.007812 756.832031 182.175781 746.015625 188.382812 "/>
</clipPath>
<linearGradient id="linear6" gradientUnits="userSpaceOnUse" x1="-577.4985" y1="1.0854" x2="-577.435" y2="1.0854" gradientTransform="matrix(10485.7184,0,0,10485.7184,6055679.5008,-11127.0016)">
<stop offset="0" style="stop-color:rgb(65.882353%,65.882353%,65.882353%);stop-opacity:1;"/>
<stop offset="1" style="stop-color:rgb(88.627451%,87.843137%,100%);stop-opacity:1;"/>
</linearGradient>
</defs>
<g id="surface1">
<g clip-path="url(#clip1)" clip-rule="nonzero">
<g clip-path="url(#clip2)" clip-rule="nonzero">
<path style=" stroke:none;fill-rule:nonzero;fill:url(#linear0);" d="M 41.441406 359.007812 L 982.496094 359.007812 L 982.496094 982.527344 L 41.441406 982.527344 Z M 41.441406 359.007812 "/>
</g>
</g>
<g clip-path="url(#clip3)" clip-rule="nonzero">
<g clip-path="url(#clip4)" clip-rule="nonzero">
<path style=" stroke:none;fill-rule:nonzero;fill:url(#linear1);" d="M 66.910156 41.472656 L 957.023438 41.472656 L 957.023438 359.007812 L 66.910156 359.007812 Z M 66.910156 41.472656 "/>
<path style=" stroke:none;fill-rule:nonzero;fill:url(#linear2);" d="M 66.910156 41.472656 L 957.023438 41.472656 L 957.023438 359.007812 L 66.910156 359.007812 Z M 66.910156 41.472656 "/>
</g>
</g>
<g clip-path="url(#clip5)" clip-rule="nonzero">
<path style=" stroke:none;fill-rule:nonzero;fill:url(#linear3);" d="M 209.121094 159.265625 L 814.847656 159.265625 L 814.847656 164.609375 L 209.121094 164.609375 Z M 209.121094 159.265625 "/>
</g>
<g clip-path="url(#clip6)" clip-rule="nonzero">
<path style=" stroke:none;fill-rule:nonzero;fill:url(#linear4);" d="M 77.472656 331.167969 L 946.496094 331.167969 L 946.496094 336.511719 L 77.472656 336.511719 Z M 77.472656 331.167969 "/>
</g>
<path style=" stroke:none;fill-rule:nonzero;fill:rgb(15.686275%,17.254902%,38.823529%);fill-opacity:1;" d="M 372.542969 584.03125 C 357.855469 584.03125 324.769531 592.929688 301.34375 601.566406 L 296.382812 603.457031 L 297.34375 598.273438 C 303.617188 564.097656 312.703125 508.992188 316.320312 486.910156 L 316.734375 484.382812 L 458.046875 484.382812 L 473.824219 444.289062 L 470.816406 445.121094 L 304.769531 445.121094 C 297.761719 495.839844 284.800781 578.078125 276.097656 623.871094 C 290.878906 618.910156 310.753906 613.535156 335.839844 613.535156 C 400.574219 613.535156 439.230469 649.214844 439.230469 708.992188 C 439.230469 755.265625 414.816406 801.953125 360.289062 801.953125 C 319.550781 801.953125 296.449219 781.28125 281.152344 767.519531 C 276.929688 764.191406 273.152344 764.191406 267.777344 767.777344 C 260.609375 773.3125 256.191406 781.601562 256.191406 786.078125 L 256.160156 786.558594 C 255.105469 793.375 257.023438 797.246094 265.023438 804.671875 C 270.496094 810.113281 290.878906 827.777344 326.65625 827.777344 C 359.296875 827.777344 401.089844 811.167969 433.121094 785.601562 C 467.265625 757.566406 484.609375 723.742188 484.609375 685.089844 C 484.609375 634.847656 446.113281 584.03125 372.542969 584.03125 "/>
<path style=" stroke:none;fill-rule:nonzero;fill:rgb(15.686275%,17.254902%,38.823529%);fill-opacity:1;" d="M 705.566406 797.953125 C 694.464844 789.824219 693.953125 775.585938 693.953125 753.054688 L 693.953125 439.296875 C 666.625 450.496094 630.207031 460.128906 587.9375 467.296875 L 587.9375 477.34375 L 615.265625 480.097656 C 644.03125 482.753906 649.214844 485.761719 649.214844 518.015625 L 649.214844 753.054688 C 649.214844 800.097656 643.808594 804.832031 577.601562 809.152344 L 577.601562 820.480469 L 766.238281 820.480469 L 766.238281 809.152344 C 731.617188 806.878906 715.328125 805.023438 705.566406 797.953125 "/>
<path style=" stroke:none;fill-rule:nonzero;fill:rgb(39.215686%,41.176471%,60.784314%);fill-opacity:1;" d="M 327.585938 833.632812 C 301.886719 833.632812 277.28125 824.382812 261.792969 808.894531 C 253.792969 801.503906 249.695312 795.519531 251.136719 785.761719 C 251.265625 778.65625 257.246094 768.894531 265.152344 762.753906 L 265.3125 762.625 C 272.832031 757.601562 279.617188 757.664062 286.015625 762.753906 C 305.441406 780.191406 325.761719 795.742188 361.246094 795.742188 C 411.617188 795.742188 434.144531 752.0625 434.144531 708.734375 C 434.144531 651.96875 398.65625 619.359375 336.769531 619.359375 C 311.167969 619.359375 291.136719 625.183594 276.542969 630.238281 L 274.496094 630.910156 L 270.527344 625.632812 L 270.753906 624.289062 C 279.617188 578.238281 293.089844 492.511719 300.097656 441.441406 L 300.449219 438.847656 L 474.753906 438.847656 L 481.601562 443.105469 L 463.070312 490.144531 L 322.785156 490.144531 C 319.136719 512.511719 311.136719 560.894531 305.183594 593.984375 C 328.640625 585.792969 359.167969 577.855469 373.503906 577.855469 C 418.625 577.855469 446.207031 596.222656 461.441406 611.710938 C 480.609375 631.167969 491.617188 657.855469 491.617188 684.863281 C 491.617188 725.503906 473.535156 760.863281 437.855469 790.046875 C 404.800781 816.574219 361.503906 833.632812 327.585938 833.632812 M 268.734375 767.550781 C 261.566406 773.121094 257.152344 781.40625 257.152344 785.921875 L 257.121094 786.367188 C 256.0625 793.183594 257.984375 797.089844 265.984375 804.480469 C 271.457031 809.984375 291.871094 827.550781 327.617188 827.550781 C 360.257812 827.550781 402.046875 810.976562 434.078125 785.441406 C 468.257812 757.375 485.601562 723.550781 485.601562 684.863281 C 485.601562 634.71875 447.105469 583.871094 373.535156 583.871094 C 358.847656 583.871094 325.792969 592.800781 302.335938 601.441406 L 297.375 603.328125 L 298.335938 598.078125 C 304.609375 564 313.695312 508.832031 317.3125 486.753906 L 317.726562 484.222656 L 459.039062 484.222656 L 474.847656 444.128906 L 471.839844 444.960938 L 305.726562 444.960938 C 298.6875 495.710938 285.761719 577.921875 277.023438 623.742188 C 291.839844 618.753906 311.679688 613.375 336.769531 613.375 C 401.503906 613.375 440.160156 649.054688 440.160156 708.769531 C 440.160156 755.070312 415.742188 801.761719 361.214844 801.761719 C 320.511719 801.761719 297.375 781.089844 282.078125 767.390625 C 277.921875 763.96875 274.113281 764 268.734375 767.550781 "/>
<path style=" stroke:none;fill-rule:nonzero;fill:rgb(39.215686%,41.176471%,60.784314%);fill-opacity:1;" d="M 773.152344 826.238281 L 572.480469 826.238281 L 572.480469 803.230469 L 575.230469 803.105469 C 606.398438 801.089844 625.921875 799.488281 634.945312 792.671875 C 643.167969 786.558594 644.0625 775.296875 644.0625 752.800781 L 644.0625 517.792969 C 644.0625 488.480469 641.375 488.222656 615.585938 485.921875 L 582.816406 482.558594 L 582.816406 461.984375 L 585.34375 461.566406 C 630.367188 454.046875 668.894531 443.742188 696.671875 431.742188 L 700.863281 429.921875 L 700.863281 752.800781 C 700.863281 797.441406 702.847656 798.816406 770.304688 803.039062 L 773.152344 803.230469 Z M 578.464844 820.257812 L 767.136719 820.257812 L 767.136719 808.960938 C 732.640625 806.753906 716.257812 804.863281 706.496094 797.726562 C 695.425781 789.566406 694.878906 775.359375 694.878906 752.800781 L 694.878906 439.070312 C 667.550781 450.273438 631.136719 459.902344 588.863281 467.070312 L 588.863281 477.121094 L 616.191406 479.871094 C 644.992188 482.527344 650.144531 485.566406 650.144531 517.792969 L 650.144531 752.800781 C 650.144531 799.9375 644.769531 804.609375 578.527344 808.929688 Z M 578.464844 820.257812 "/>
<path style=" stroke:none;fill-rule:nonzero;fill:rgb(39.215686%,41.176471%,60.784314%);fill-opacity:1;" d="M 303.488281 416.574219 C 302.335938 424.734375 301.054688 433.726562 299.679688 443.199219 C 292.320312 493.246094 298.558594 492.414062 305.792969 442.976562 C 307.167969 433.566406 308.449219 424.703125 309.566406 416.574219 C 309.566406 416.574219 303.679688 415.105469 303.488281 416.574219 "/>
<path style=" stroke:none;fill-rule:nonzero;fill:rgb(39.215686%,41.176471%,60.784314%);fill-opacity:1;" d="M 327.425781 417.054688 C 320.289062 468.449219 307.230469 551.425781 298.558594 596.542969 L 304.832031 595.871094 C 313.535156 550.015625 326.496094 467.839844 333.503906 417.089844 C 333.503906 417.152344 327.585938 415.9375 327.425781 417.054688 "/>
<path style=" stroke:none;fill-rule:nonzero;fill:rgb(39.215686%,41.176471%,60.784314%);fill-opacity:1;" d="M 356.863281 484.382812 L 498.175781 484.382812 L 498.398438 490.398438 L 362.015625 490.398438 Z M 356.863281 484.382812 "/>
<path style=" stroke:none;fill-rule:nonzero;fill:rgb(39.215686%,41.176471%,60.784314%);fill-opacity:1;" d="M 339.679688 439.105469 L 511.039062 439.105469 L 510.976562 445.121094 L 344.929688 445.121094 Z M 339.679688 439.105469 "/>
<path style=" stroke:none;fill-rule:nonzero;fill:rgb(39.215686%,41.176471%,60.784314%);fill-opacity:1;" d="M 644.097656 649.152344 L 644.097656 414.078125 L 650.113281 414.078125 L 650.113281 649.152344 "/>
<path style=" stroke:none;fill-rule:nonzero;fill:rgb(39.215686%,41.176471%,60.784314%);fill-opacity:1;" d="M 694.238281 652.351562 L 694.238281 417.3125 L 700.289062 417.3125 L 700.289062 652.351562 "/>
<path style=" stroke:none;fill-rule:nonzero;fill:rgb(39.215686%,41.176471%,60.784314%);fill-opacity:1;" d="M 976.671875 635.328125 L 978.6875 635.328125 C 978.976562 634.144531 979.328125 632.894531 979.550781 631.710938 L 976.671875 631.710938 Z M 976.671875 635.328125 "/>
<path style=" stroke:none;fill-rule:nonzero;fill:rgb(39.215686%,41.176471%,60.784314%);fill-opacity:1;" d="M 526.304688 939.839844 L 557.695312 939.839844 L 557.695312 943.488281 L 526.304688 943.488281 Z M 526.304688 939.839844 "/>
<path style=" stroke:none;fill-rule:nonzero;fill:rgb(39.215686%,41.176471%,60.784314%);fill-opacity:1;" d="M 400.640625 939.839844 L 432.0625 939.839844 L 432.0625 943.488281 L 400.640625 943.488281 Z M 400.640625 939.839844 "/>
<path style=" stroke:none;fill-rule:nonzero;fill:rgb(39.215686%,41.176471%,60.784314%);fill-opacity:1;" d="M 283.871094 943.488281 L 306.367188 943.488281 L 306.367188 939.839844 L 277.28125 939.839844 C 279.457031 941.054688 281.664062 942.238281 283.871094 943.488281 "/>
<path style=" stroke:none;fill-rule:nonzero;fill:rgb(39.215686%,41.176471%,60.784314%);fill-opacity:1;" d="M 589.152344 939.839844 L 620.542969 939.839844 L 620.542969 943.488281 L 589.152344 943.488281 Z M 589.152344 939.839844 "/>
<path style=" stroke:none;fill-rule:nonzero;fill:rgb(39.215686%,41.176471%,60.784314%);fill-opacity:1;" d="M 976.671875 600.289062 L 985.855469 600.289062 C 986.046875 599.039062 986.238281 597.824219 986.496094 596.640625 L 976.671875 596.640625 Z M 976.671875 600.289062 "/>
<path style=" stroke:none;fill-rule:nonzero;fill:rgb(39.215686%,41.176471%,60.784314%);fill-opacity:1;" d="M 947.902344 431.519531 L 984.257812 431.519531 C 984.03125 430.304688 983.808594 429.089844 983.585938 427.871094 L 856.480469 427.871094 L 856.480469 431.519531 Z M 947.902344 431.519531 "/>
<path style=" stroke:none;fill-rule:nonzero;fill:rgb(39.215686%,41.176471%,60.784314%);fill-opacity:1;" d="M 852.574219 414.078125 L 856.382812 414.078125 L 856.382812 427.902344 L 852.574219 427.902344 Z M 852.574219 414.078125 "/>
<path style=" stroke:none;fill-rule:nonzero;fill:rgb(39.215686%,41.176471%,60.784314%);fill-opacity:1;" d="M 713.695312 956.671875 C 715.007812 956.0625 716.289062 955.488281 717.566406 954.847656 L 717.566406 943.679688 L 713.695312 943.679688 Z M 713.695312 956.671875 "/>
<path style=" stroke:none;fill-rule:nonzero;fill:rgb(39.215686%,41.176471%,60.784314%);fill-opacity:1;" d="M 901.441406 734.71875 L 932.0625 734.71875 L 932.0625 738.367188 L 901.441406 738.367188 Z M 901.441406 734.71875 "/>
<path style=" stroke:none;fill-rule:nonzero;fill:rgb(39.215686%,41.176471%,60.784314%);fill-opacity:1;" d="M 713.761719 900.734375 L 717.566406 900.734375 L 717.566406 922.238281 L 713.761719 922.238281 Z M 713.761719 900.734375 "/>
<path style=" stroke:none;fill-rule:nonzero;fill:rgb(39.215686%,41.176471%,60.784314%);fill-opacity:1;" d="M 228.160156 734.71875 L 258.785156 734.71875 L 258.785156 738.367188 L 228.160156 738.367188 Z M 228.160156 734.71875 "/>
<path style=" stroke:none;fill-rule:nonzero;fill:rgb(39.215686%,41.176471%,60.784314%);fill-opacity:1;" d="M 534.175781 734.71875 L 564.734375 734.71875 L 564.734375 738.367188 L 534.175781 738.367188 Z M 534.175781 734.71875 "/>
<path style=" stroke:none;fill-rule:nonzero;fill:rgb(39.215686%,41.176471%,60.784314%);fill-opacity:1;" d="M 540.671875 631.648438 L 571.839844 631.648438 L 571.839844 635.296875 L 540.671875 635.296875 Z M 540.671875 631.648438 "/>
<path style=" stroke:none;fill-rule:nonzero;fill:rgb(39.215686%,41.176471%,60.784314%);fill-opacity:1;" d="M 289.375 734.71875 L 320 734.71875 L 320 738.367188 L 289.375 738.367188 Z M 289.375 734.71875 "/>
<path style=" stroke:none;fill-rule:nonzero;fill:rgb(39.215686%,41.176471%,60.784314%);fill-opacity:1;" d="M 411.808594 738.367188 L 433.601562 738.367188 C 433.921875 737.183594 434.207031 735.96875 434.464844 734.71875 L 411.808594 734.71875 Z M 411.808594 738.367188 "/>
<path style=" stroke:none;fill-rule:nonzero;fill:rgb(39.215686%,41.176471%,60.784314%);fill-opacity:1;" d="M 540.671875 596.640625 L 571.839844 596.640625 L 571.839844 600.289062 L 540.671875 600.289062 Z M 540.671875 596.640625 "/>
<path style=" stroke:none;fill-rule:nonzero;fill:rgb(39.215686%,41.176471%,60.784314%);fill-opacity:1;" d="M 350.59375 734.71875 L 381.214844 734.71875 L 381.214844 738.367188 L 350.59375 738.367188 Z M 350.59375 734.71875 "/>
<path style=" stroke:none;fill-rule:nonzero;fill:rgb(39.215686%,41.176471%,60.784314%);fill-opacity:1;" d="M 605.121094 803.808594 C 606.464844 803.617188 607.710938 803.488281 608.992188 803.296875 L 608.992188 798.847656 L 629.566406 798.847656 C 632.257812 797.855469 634.59375 796.671875 636.574219 795.230469 L 605.121094 795.230469 Z M 605.121094 803.808594 "/>
<path style=" stroke:none;fill-rule:nonzero;fill:rgb(39.215686%,41.176471%,60.784314%);fill-opacity:1;" d="M 717.824219 734.71875 L 748.449219 734.71875 L 748.449219 738.367188 L 717.824219 738.367188 Z M 717.824219 734.71875 "/>
<path style=" stroke:none;fill-rule:nonzero;fill:rgb(39.215686%,41.176471%,60.784314%);fill-opacity:1;" d="M 503.585938 734.71875 L 478.078125 734.71875 C 477.535156 735.96875 476.960938 737.183594 476.382812 738.367188 L 503.585938 738.367188 Z M 503.585938 734.71875 "/>
<path style=" stroke:none;fill-rule:nonzero;fill:rgb(39.215686%,41.176471%,60.784314%);fill-opacity:1;" d="M 779.070312 734.71875 L 809.664062 734.71875 L 809.664062 738.367188 L 779.070312 738.367188 Z M 779.070312 734.71875 "/>
<path style=" stroke:none;fill-rule:nonzero;fill:rgb(39.215686%,41.176471%,60.784314%);fill-opacity:1;" d="M 602.976562 631.648438 L 634.144531 631.648438 L 634.144531 635.296875 L 602.976562 635.296875 Z M 602.976562 631.648438 "/>
<path style=" stroke:none;fill-rule:nonzero;fill:rgb(39.215686%,41.176471%,60.784314%);fill-opacity:1;" d="M 713.761719 823.328125 L 717.566406 823.328125 L 717.566406 836.320312 L 713.761719 836.320312 Z M 713.761719 823.328125 "/>
<path style=" stroke:none;fill-rule:nonzero;fill:rgb(39.215686%,41.176471%,60.784314%);fill-opacity:1;" d="M 602.976562 596.640625 L 634.144531 596.640625 L 634.144531 600.289062 L 602.976562 600.289062 Z M 602.976562 596.640625 "/>
<path style=" stroke:none;fill-rule:nonzero;fill:rgb(39.215686%,41.176471%,60.784314%);fill-opacity:1;" d="M 612.734375 724.222656 L 612.734375 734.71875 L 595.359375 734.71875 L 595.359375 738.367188 L 612.734375 738.367188 L 612.734375 760.257812 L 646.976562 760.257812 C 646.976562 759.070312 647.039062 757.886719 647.039062 756.640625 L 616.640625 756.640625 L 616.640625 738.433594 L 626.078125 738.433594 L 626.078125 734.71875 L 616.640625 734.71875 L 616.640625 727.871094 L 647.136719 727.871094 L 647.136719 724.222656 Z M 612.734375 724.222656 "/>
<path style=" stroke:none;fill-rule:nonzero;fill:rgb(39.215686%,41.176471%,60.784314%);fill-opacity:1;" d="M 789.824219 596.640625 L 820.960938 596.640625 L 820.960938 600.289062 L 789.824219 600.289062 Z M 789.824219 596.640625 "/>
<path style=" stroke:none;fill-rule:nonzero;fill:rgb(39.215686%,41.176471%,60.784314%);fill-opacity:1;" d="M 914.367188 596.640625 L 945.503906 596.640625 L 945.503906 600.289062 L 914.367188 600.289062 Z M 914.367188 596.640625 "/>
<path style=" stroke:none;fill-rule:nonzero;fill:rgb(39.215686%,41.176471%,60.784314%);fill-opacity:1;" d="M 992.511719 520.449219 C 992.511719 506.753906 991.902344 493.246094 990.785156 479.871094 L 990.785156 513.441406 L 856.382812 513.441406 L 856.382812 454.015625 L 893.183594 454.015625 L 893.183594 450.335938 L 856.382812 450.335938 L 856.382812 431.519531 L 852.574219 431.519531 L 852.574219 450.335938 L 717.824219 450.335938 L 717.824219 454.015625 L 852.574219 454.015625 L 852.574219 513.441406 L 717.054688 513.441406 L 717.054688 466.59375 L 717.824219 466.59375 L 717.824219 454.015625 L 717.054688 454.015625 L 717.054688 450.335938 L 717.824219 450.335938 L 717.824219 431.519531 L 852.574219 431.519531 L 852.574219 427.871094 L 717.824219 427.871094 L 717.824219 407.9375 L 713.152344 407.9375 L 713.152344 427.871094 L 680.800781 427.871094 L 680.800781 431.519531 L 713.152344 431.519531 L 713.152344 450.335938 L 697.855469 450.335938 L 697.855469 454.015625 L 713.152344 454.015625 L 713.152344 513.441406 L 697.855469 513.441406 L 697.855469 517.089844 L 713.152344 517.089844 L 713.152344 534.816406 L 697.855469 534.816406 L 697.855469 538.464844 L 713.152344 538.464844 L 713.152344 554.785156 L 697.855469 554.785156 L 697.855469 558.433594 L 713.152344 558.433594 L 713.152344 573.855469 L 697.855469 573.855469 L 697.855469 577.503906 L 713.152344 577.503906 L 713.152344 663.9375 L 852.542969 663.9375 L 852.542969 689.855469 L 697.855469 689.855469 L 697.855469 693.472656 L 852.542969 693.472656 L 852.542969 703.648438 L 697.855469 703.648438 L 697.855469 707.328125 L 852.542969 707.328125 L 852.542969 724.097656 L 697.855469 724.097656 L 697.855469 727.742188 L 852.542969 727.742188 L 852.542969 734.59375 L 840.222656 734.59375 L 840.222656 738.238281 L 852.542969 738.238281 L 852.542969 756.414062 L 697.855469 756.414062 C 697.921875 757.664062 697.921875 758.878906 697.921875 760.0625 L 852.542969 760.0625 L 852.542969 772.257812 L 698.527344 772.257812 C 698.59375 773.535156 698.71875 774.753906 698.910156 775.902344 L 852.574219 775.902344 L 852.574219 776.703125 L 699.007812 776.703125 C 699.457031 779.390625 699.9375 781.761719 700.640625 783.96875 L 713.761719 783.96875 L 713.761719 793.152344 L 717.601562 793.152344 L 717.601562 783.96875 L 820.449219 783.96875 L 820.449219 795.105469 L 724.097656 795.105469 L 724.097656 801.28125 C 725.3125 801.535156 726.59375 801.792969 727.9375 801.953125 L 727.9375 798.65625 L 820.449219 798.65625 L 820.449219 841.089844 L 727.9375 841.089844 L 727.9375 823.070312 L 724.097656 823.070312 L 724.097656 841.089844 L 711.488281 841.089844 L 711.488281 823.070312 L 707.617188 823.070312 L 707.617188 841.089844 L 685.441406 841.089844 L 685.441406 823.070312 L 681.601562 823.070312 L 681.601562 841.089844 L 678.625 841.089844 L 678.625 823.070312 L 674.753906 823.070312 L 674.753906 841.089844 L 662.113281 841.089844 L 662.113281 823.070312 L 575.425781 823.070312 L 575.425781 805.886719 C 577.855469 805.761719 580.097656 805.566406 582.304688 805.441406 L 582.304688 780.320312 L 645.3125 780.320312 C 645.566406 779.199219 645.824219 778.015625 645.984375 776.703125 L 581.921875 776.703125 L 581.921875 776 L 646.113281 776 C 646.238281 774.847656 646.398438 773.632812 646.527344 772.351562 L 581.921875 772.351562 L 581.921875 723.96875 L 578.71875 723.96875 L 578.71875 707.296875 L 647.105469 707.296875 L 647.105469 703.617188 L 578.71875 703.617188 L 578.71875 693.441406 L 647.105469 693.441406 L 647.105469 689.824219 L 578.71875 689.824219 L 578.71875 577.472656 L 647.105469 577.472656 L 647.105469 573.824219 L 578.71875 573.824219 L 578.71875 558.398438 L 647.105469 558.398438 L 647.105469 554.753906 L 578.71875 554.753906 L 578.71875 538.433594 L 647.105469 538.433594 L 647.105469 534.785156 L 578.71875 534.785156 L 578.71875 517.054688 L 647.105469 517.054688 C 647.105469 515.777344 647.039062 514.558594 647.039062 513.40625 L 578.71875 513.40625 L 578.71875 453.953125 L 637.726562 453.953125 C 642.464844 452.769531 647.167969 451.550781 651.742188 450.273438 L 578.6875 450.273438 L 578.6875 405.953125 L 574.816406 405.953125 L 574.816406 450.273438 L 545.632812 450.273438 L 545.632812 453.953125 L 574.816406 453.953125 L 574.816406 513.375 L 315.9375 513.375 C 315.742188 514.59375 315.550781 515.808594 315.328125 517.023438 L 574.878906 517.023438 L 574.878906 534.753906 L 312.351562 534.753906 C 312.160156 536 311.9375 537.183594 311.742188 538.398438 L 574.878906 538.398438 L 574.878906 554.71875 L 308.992188 554.71875 C 308.800781 555.9375 308.574219 557.121094 308.351562 558.367188 L 574.878906 558.367188 L 574.878906 573.792969 L 305.695312 573.792969 C 305.472656 575.039062 305.246094 576.191406 305.054688 577.441406 L 574.878906 577.441406 L 574.878906 689.792969 L 488.480469 689.792969 C 488.449219 690.945312 488.382812 692.191406 488.289062 693.40625 L 574.878906 693.40625 L 574.878906 703.585938 L 487.167969 703.585938 C 487.007812 704.769531 486.785156 706.015625 486.558594 707.265625 L 574.847656 707.265625 L 574.847656 723.9375 L 482.238281 723.9375 C 481.824219 725.152344 481.40625 726.335938 480.929688 727.519531 L 574.847656 727.519531 L 574.847656 772.257812 L 545.664062 772.257812 L 545.664062 746.625 L 471.808594 746.625 C 471.105469 747.839844 470.335938 749.089844 469.601562 750.273438 L 541.824219 750.273438 L 541.824219 772.257812 L 452.449219 772.257812 C 451.296875 773.472656 450.113281 774.71875 448.894531 775.902344 L 541.855469 775.902344 L 541.855469 821.761719 L 514.945312 821.761719 L 514.945312 780.382812 L 469.953125 780.382812 L 469.953125 821.761719 L 444.289062 821.761719 L 444.289062 780.449219 C 443.039062 781.566406 441.761719 782.71875 440.414062 783.871094 L 440.414062 821.886719 L 374.078125 821.886719 C 369.726562 823.390625 365.40625 824.703125 361.152344 825.824219 L 361.152344 830.878906 L 246.910156 830.878906 L 246.910156 825.601562 L 295.9375 825.601562 C 292.640625 824.511719 289.503906 823.328125 286.527344 821.953125 L 246.910156 821.953125 L 246.910156 776.097656 L 257.375 776.097656 C 258.078125 774.910156 258.878906 773.664062 259.777344 772.449219 L 243.070312 772.449219 L 243.070312 821.953125 L 227.296875 821.953125 L 227.296875 763.136719 L 209.441406 763.136719 L 209.441406 750.207031 L 361.152344 750.207031 L 361.152344 772.449219 L 292.574219 772.449219 C 294.046875 773.664062 295.550781 774.910156 297.089844 776.097656 L 361.152344 776.097656 L 361.152344 798.785156 C 361.183594 798.785156 361.214844 798.785156 361.246094 798.785156 C 362.527344 798.785156 363.742188 798.753906 364.992188 798.65625 L 364.992188 776.097656 L 414.273438 776.097656 C 415.328125 774.945312 416.351562 773.695312 417.375 772.449219 L 364.992188 772.449219 L 364.992188 746.527344 L 209.441406 746.527344 L 209.441406 727.679688 L 435.710938 727.679688 C 435.902344 726.464844 436.0625 725.28125 436.222656 724.0625 L 209.441406 724.0625 L 209.441406 707.390625 L 437.121094 707.390625 C 437.121094 706.144531 437.089844 704.960938 437.054688 703.742188 L 209.441406 703.742188 L 209.441406 693.566406 L 436.222656 693.566406 C 436.0625 692.351562 435.902344 691.105469 435.679688 689.921875 L 209.441406 689.921875 L 209.441406 577.601562 L 282.175781 577.601562 C 282.367188 576.351562 282.59375 575.167969 282.816406 573.984375 L 205.601562 573.984375 L 205.601562 689.921875 L 185.632812 689.921875 L 185.632812 538.558594 L 205.601562 538.558594 L 205.601562 558.527344 L 285.375 558.527344 C 285.566406 557.28125 285.761719 556.097656 285.984375 554.878906 L 209.441406 554.878906 L 209.441406 538.558594 L 288.609375 538.558594 C 288.800781 537.34375 288.992188 536.160156 289.183594 534.910156 L 209.441406 534.910156 L 209.441406 517.121094 L 291.96875 517.121094 C 292.160156 515.871094 292.351562 514.65625 292.574219 513.472656 L 185.632812 513.472656 L 185.632812 477.535156 L 181.792969 477.535156 L 181.792969 513.472656 L 136.382812 513.472656 L 136.382812 406.046875 L 164.480469 406.046875 L 164.480469 402.367188 L 136.382812 402.367188 L 136.382812 352.382812 L 132.542969 352.382812 L 132.542969 402.367188 L 46.046875 402.367188 C 45.726562 403.585938 45.441406 404.832031 45.152344 406.046875 L 132.511719 406.046875 L 132.511719 513.472656 L 31.519531 513.472656 C 31.519531 514.71875 31.488281 515.902344 31.488281 517.121094 L 132.542969 517.121094 L 132.542969 534.847656 L 31.648438 534.847656 C 31.679688 536.097656 31.742188 537.28125 31.777344 538.496094 L 132.511719 538.496094 L 132.511719 689.855469 L 62.175781 689.855469 C 62.625 691.039062 63.105469 692.289062 63.585938 693.503906 L 132.542969 693.503906 L 132.542969 703.679688 L 67.648438 703.679688 C 68.160156 704.894531 68.640625 706.078125 69.121094 707.328125 L 132.511719 707.328125 L 132.511719 724 L 76.609375 724 C 77.183594 725.183594 77.726562 726.398438 78.304688 727.617188 L 132.542969 727.617188 L 132.542969 734.65625 L 105.726562 734.65625 L 105.726562 738.304688 L 132.511719 738.304688 L 132.511719 746.464844 L 87.839844 746.464844 C 88.511719 747.648438 89.152344 748.894531 89.792969 750.113281 L 132.511719 750.113281 L 132.511719 763.039062 L 97.183594 763.039062 C 97.886719 764.222656 98.59375 765.472656 99.328125 766.65625 L 132.542969 766.65625 L 132.542969 815.230469 C 133.824219 816.863281 135.105469 818.527344 136.382812 820.0625 L 136.382812 766.65625 L 181.792969 766.65625 L 181.792969 821.855469 L 137.792969 821.855469 C 138.753906 823.039062 139.742188 824.289062 140.734375 825.472656 L 181.792969 825.472656 L 181.792969 830.816406 L 145.214844 830.816406 C 146.238281 832 147.230469 833.246094 148.289062 834.433594 L 181.761719 834.433594 L 181.761719 840.929688 L 154.046875 840.929688 C 155.136719 842.144531 156.222656 843.328125 157.34375 844.574219 L 181.792969 844.574219 L 181.792969 857.535156 L 169.726562 857.535156 C 170.945312 858.785156 172.128906 860 173.34375 861.183594 L 181.792969 861.183594 L 181.792969 869.375 C 183.070312 870.558594 184.351562 871.777344 185.664062 872.960938 L 185.664062 861.183594 L 205.632812 861.183594 L 205.632812 890.464844 C 206.910156 891.519531 208.191406 892.542969 209.472656 893.632812 L 209.472656 861.183594 L 223.425781 861.183594 L 223.425781 904.511719 C 224.734375 905.472656 226.015625 906.496094 227.296875 907.390625 L 227.296875 861.214844 L 243.070312 861.214844 L 243.070312 918.59375 C 244.351562 919.457031 245.664062 920.289062 246.945312 921.121094 L 246.945312 861.214844 L 361.183594 861.214844 L 361.183594 879.167969 L 348.929688 879.167969 L 348.929688 939.742188 L 337.792969 939.742188 L 337.792969 943.359375 L 348.929688 943.359375 L 348.929688 972.414062 C 350.207031 972.960938 351.488281 973.34375 352.769531 973.792969 L 352.769531 943.359375 L 361.183594 943.359375 L 361.183594 976.671875 C 362.464844 977.121094 363.742188 977.472656 365.023438 977.921875 L 365.023438 943.359375 L 369.246094 943.359375 L 369.246094 939.839844 L 365.023438 939.839844 L 365.023438 882.976562 L 440.609375 882.976562 L 440.609375 995.710938 C 441.886719 995.902344 443.167969 996.03125 444.480469 996.257812 L 444.480469 882.976562 L 469.984375 882.976562 L 469.984375 939.839844 L 463.488281 939.839844 L 463.488281 943.488281 L 469.984375 943.488281 L 469.984375 999.105469 C 471.265625 999.230469 472.542969 999.359375 473.855469 999.425781 L 473.855469 943.488281 L 494.945312 943.488281 L 494.945312 939.839844 L 473.855469 939.839844 L 473.855469 882.976562 L 511.136719 882.976562 L 511.136719 1000.992188 C 511.425781 1000.992188 511.710938 1000.992188 512 1000.992188 C 512.992188 1000.992188 513.984375 1000.960938 514.976562 1000.960938 L 514.976562 882.945312 L 575.679688 882.945312 L 575.679688 996.734375 C 577.921875 996.480469 580.160156 996.160156 582.335938 995.871094 L 582.335938 883.007812 L 681.601562 883.007812 L 681.601562 939.871094 L 652 939.871094 L 652 943.488281 L 681.601562 943.488281 L 681.601562 970.175781 C 682.878906 969.632812 684.128906 969.214844 685.441406 968.734375 L 685.441406 882.945312 L 707.617188 882.945312 L 707.617188 959.425781 C 708.929688 958.847656 710.175781 958.304688 711.488281 957.726562 L 711.488281 882.945312 L 724.0625 882.945312 L 724.0625 939.808594 L 714.816406 939.808594 L 714.816406 943.457031 L 724.0625 943.457031 L 724.0625 951.710938 C 725.3125 951.039062 726.625 950.433594 727.902344 949.761719 L 727.902344 943.457031 L 740.0625 943.457031 C 742.113281 942.335938 744.191406 941.152344 746.238281 940.03125 L 746.238281 939.839844 L 727.902344 939.839844 L 727.902344 882.976562 L 820.449219 882.976562 L 820.449219 888.992188 C 821.664062 887.902344 822.976562 886.847656 824.222656 885.695312 L 824.222656 882.976562 L 827.390625 882.976562 C 828.832031 881.824219 830.144531 880.574219 831.519531 879.328125 L 824.222656 879.328125 L 824.222656 861.375 L 850.558594 861.375 C 851.808594 860.191406 852.992188 858.976562 854.175781 857.761719 L 824.160156 857.761719 L 824.160156 845.054688 L 856.351562 845.054688 L 856.351562 798.976562 L 893.121094 798.976562 L 893.121094 813.023438 C 894.398438 811.328125 895.742188 809.695312 896.960938 808 L 896.960938 798.976562 L 903.519531 798.976562 C 904.382812 797.792969 905.246094 796.542969 906.078125 795.359375 L 896.960938 795.359375 L 896.960938 784.222656 L 913.632812 784.222656 C 915.199219 781.855469 916.769531 779.488281 918.304688 776.960938 L 856.320312 776.960938 L 856.320312 776.160156 L 918.847656 776.160156 C 919.550781 774.976562 920.382812 773.726562 921.121094 772.542969 L 856.320312 772.542969 L 856.320312 760.320312 L 928.449219 760.320312 C 929.121094 759.105469 929.824219 757.855469 930.464844 756.671875 L 856.320312 756.671875 L 856.320312 738.496094 L 870.816406 738.496094 L 870.816406 734.71875 L 856.320312 734.71875 L 856.320312 727.871094 L 945.503906 727.871094 C 946.078125 726.6875 946.625 725.40625 947.199219 724.222656 L 856.320312 724.222656 L 856.320312 707.457031 L 954.71875 707.457031 C 955.265625 706.207031 955.710938 704.992188 956.222656 703.777344 L 856.320312 703.777344 L 856.320312 693.601562 L 960.320312 693.601562 C 960.832031 692.382812 961.214844 691.167969 961.695312 689.984375 L 856.320312 689.984375 L 856.320312 664 L 970.625 664 C 971.007812 662.816406 971.296875 661.601562 971.710938 660.351562 L 856.320312 660.351562 L 856.320312 635.328125 L 883.199219 635.328125 L 883.199219 631.679688 L 856.320312 631.679688 L 856.320312 600.320312 L 883.199219 600.320312 L 883.199219 596.640625 L 856.320312 596.640625 L 856.320312 577.601562 L 989.023438 577.601562 C 989.214844 576.351562 989.34375 575.136719 989.441406 573.953125 L 856.320312 573.953125 L 856.320312 558.527344 L 990.71875 558.527344 L 990.71875 561.121094 C 991.902344 547.648438 992.511719 534.113281 992.511719 520.449219 M 185.632812 522.6875 L 185.632812 517.089844 L 205.601562 517.089844 L 205.601562 534.816406 L 185.632812 534.816406 Z M 181.792969 763.136719 L 136.382812 763.136719 L 136.382812 750.207031 L 181.792969 750.207031 Z M 181.792969 734.71875 L 166.945312 734.71875 L 166.945312 738.367188 L 181.761719 738.367188 L 181.761719 746.527344 L 136.382812 746.527344 L 136.382812 727.679688 L 181.792969 727.679688 Z M 181.792969 724.0625 L 136.382812 724.0625 L 136.382812 707.390625 L 181.792969 707.390625 Z M 181.792969 703.710938 L 136.382812 703.710938 L 136.382812 693.535156 L 181.792969 693.535156 Z M 181.792969 689.886719 L 136.382812 689.886719 L 136.382812 538.527344 L 181.792969 538.527344 Z M 181.792969 522.6875 L 181.792969 534.785156 L 136.382812 534.785156 L 136.382812 517.054688 L 181.792969 517.054688 Z M 205.601562 857.761719 L 185.632812 857.761719 L 185.632812 844.769531 L 205.601562 844.769531 Z M 205.601562 841.054688 L 185.632812 841.054688 L 185.632812 834.558594 L 205.601562 834.558594 Z M 205.601562 830.945312 L 185.632812 830.945312 L 185.632812 825.601562 L 205.601562 825.601562 Z M 205.601562 821.953125 L 185.632812 821.953125 L 185.632812 766.785156 L 205.601562 766.785156 Z M 205.601562 763.136719 L 185.632812 763.136719 L 185.632812 750.207031 L 205.601562 750.207031 Z M 205.601562 746.527344 L 185.632812 746.527344 L 185.632812 738.367188 L 197.566406 738.367188 L 197.566406 734.71875 L 185.632812 734.71875 L 185.632812 727.679688 L 205.601562 727.679688 Z M 205.601562 724.0625 L 185.632812 724.0625 L 185.632812 707.390625 L 205.601562 707.390625 Z M 205.601562 703.710938 L 185.632812 703.710938 L 185.632812 693.535156 L 205.601562 693.535156 Z M 223.390625 857.761719 L 209.441406 857.761719 L 209.441406 844.769531 L 223.390625 844.769531 Z M 223.390625 841.054688 L 209.441406 841.054688 L 209.441406 834.558594 L 223.390625 834.558594 Z M 223.390625 830.945312 L 209.441406 830.945312 L 209.441406 825.601562 L 223.390625 825.601562 Z M 223.390625 821.953125 L 209.441406 821.953125 L 209.441406 766.785156 L 223.390625 766.785156 Z M 243.070312 857.761719 L 227.296875 857.761719 L 227.296875 844.769531 L 243.070312 844.769531 Z M 243.070312 841.054688 L 227.296875 841.054688 L 227.296875 834.558594 L 243.070312 834.558594 Z M 243.070312 830.945312 L 227.296875 830.945312 L 227.296875 825.601562 L 243.070312 825.601562 Z M 361.152344 939.839844 L 352.734375 939.839844 L 352.734375 882.976562 L 361.152344 882.976562 Z M 361.152344 857.761719 L 246.910156 857.761719 L 246.910156 844.769531 L 361.152344 844.769531 Z M 361.152344 841.054688 L 246.910156 841.054688 L 246.910156 834.558594 L 361.152344 834.558594 Z M 364.992188 825.601562 L 440.414062 825.601562 L 440.414062 830.945312 L 364.992188 830.945312 Z M 364.992188 834.558594 L 440.414062 834.558594 L 440.414062 841.054688 L 364.992188 841.054688 Z M 440.609375 879.328125 L 365.023438 879.328125 L 365.023438 861.375 L 440.609375 861.375 Z M 440.609375 857.761719 L 365.023438 857.761719 L 365.023438 844.769531 L 440.449219 844.769531 L 440.449219 846.65625 L 440.609375 846.65625 Z M 469.953125 879.328125 L 444.449219 879.328125 L 444.449219 861.375 L 469.953125 861.375 Z M 469.953125 857.761719 L 444.449219 857.761719 L 444.449219 846.59375 L 469.953125 846.59375 Z M 469.953125 841.054688 L 444.449219 841.054688 L 444.449219 830.945312 L 444.289062 830.945312 L 444.289062 825.601562 L 469.953125 825.601562 Z M 511.105469 879.328125 L 473.824219 879.328125 L 473.824219 861.375 L 511.105469 861.375 Z M 511.105469 857.761719 L 473.824219 857.761719 L 473.824219 846.59375 L 511.105469 846.59375 Z M 511.105469 841.054688 L 473.824219 841.054688 L 473.824219 825.601562 L 511.105469 825.601562 Z M 511.105469 821.953125 L 473.824219 821.953125 L 473.824219 784.160156 L 511.105469 784.160156 Z M 545.695312 776.097656 L 574.878906 776.097656 L 574.878906 821.953125 L 545.695312 821.953125 Z M 545.695312 825.601562 L 574.878906 825.601562 L 574.878906 841.054688 L 545.695312 841.054688 Z M 514.945312 825.601562 L 541.824219 825.601562 L 541.824219 841.054688 L 514.945312 841.054688 Z M 575.617188 879.328125 L 514.945312 879.328125 L 514.945312 861.375 L 575.617188 861.375 Z M 575.617188 857.761719 L 514.945312 857.761719 L 514.945312 846.59375 L 545.695312 846.59375 L 545.695312 844.671875 L 574.878906 844.671875 L 574.878906 844.992188 L 575.617188 844.992188 Z M 608.992188 825.601562 L 658.238281 825.601562 L 658.238281 841.054688 L 608.992188 841.054688 Z M 608.992188 844.992188 L 674.753906 844.992188 L 674.753906 857.664062 L 608.992188 857.664062 Z M 582.304688 825.601562 L 605.121094 825.601562 L 605.121094 841.054688 L 582.304688 841.054688 Z M 582.304688 844.992188 L 605.121094 844.992188 L 605.121094 857.664062 L 582.304688 857.664062 Z M 681.601562 879.328125 L 582.304688 879.328125 L 582.304688 861.375 L 605.121094 861.375 L 605.121094 864.929688 L 678.625 864.929688 L 678.625 861.375 L 681.601562 861.375 Z M 681.601562 857.761719 L 678.625 857.761719 L 678.625 845.054688 L 681.601562 845.054688 Z M 707.617188 879.328125 L 685.441406 879.328125 L 685.441406 861.375 L 707.617188 861.375 Z M 707.617188 857.761719 L 685.441406 857.761719 L 685.441406 845.054688 L 707.617188 845.054688 Z M 724.0625 879.328125 L 711.488281 879.328125 L 711.488281 861.375 L 713.632812 861.375 L 713.632812 879.328125 L 717.503906 879.328125 L 717.503906 861.375 L 724 861.375 Z M 724.0625 857.761719 L 711.488281 857.761719 L 711.488281 845.054688 L 724.0625 845.054688 Z M 820.449219 879.328125 L 727.902344 879.328125 L 727.902344 861.375 L 820.449219 861.375 Z M 820.449219 857.761719 L 727.902344 857.761719 L 727.902344 845.054688 L 820.449219 845.054688 Z M 852.574219 841.34375 L 824.222656 841.34375 L 824.222656 798.910156 L 852.574219 798.910156 Z M 852.574219 795.265625 L 824.222656 795.265625 L 824.222656 784.160156 L 852.542969 784.160156 L 852.542969 795.265625 Z M 852.574219 596.640625 L 852.0625 596.640625 L 852.0625 600.289062 L 852.574219 600.289062 L 852.574219 631.648438 L 852.0625 631.648438 L 852.0625 635.296875 L 852.574219 635.296875 L 852.574219 660.289062 L 717.054688 660.289062 L 717.054688 577.503906 L 852.574219 577.503906 Z M 852.574219 573.953125 L 717.054688 573.953125 L 717.054688 558.496094 L 852.574219 558.496094 Z M 852.574219 554.785156 L 717.054688 554.785156 L 717.054688 538.464844 L 852.574219 538.464844 Z M 852.574219 534.816406 L 717.054688 534.816406 L 717.054688 517.089844 L 852.574219 517.089844 Z M 870.398438 784.160156 L 893.183594 784.160156 L 893.183594 795.265625 L 856.382812 795.265625 L 856.382812 784.160156 Z M 856.382812 517.089844 L 990.785156 517.089844 L 990.785156 534.816406 L 856.382812 534.816406 Z M 856.382812 538.464844 L 990.785156 538.464844 L 990.785156 554.785156 L 856.382812 554.785156 Z M 856.382812 538.464844 "/>
<path style=" stroke:none;fill-rule:nonzero;fill:rgb(39.215686%,41.176471%,60.784314%);fill-opacity:1;" d="M 478.398438 631.648438 L 509.535156 631.648438 L 509.535156 635.296875 L 478.398438 635.296875 Z M 478.398438 631.648438 "/>
<path style=" stroke:none;fill-rule:nonzero;fill:rgb(39.215686%,41.176471%,60.784314%);fill-opacity:1;" d="M 914.367188 631.648438 L 945.503906 631.648438 L 945.503906 635.296875 L 914.367188 635.296875 Z M 914.367188 631.648438 "/>
<path style=" stroke:none;fill-rule:nonzero;fill:rgb(39.215686%,41.176471%,60.784314%);fill-opacity:1;" d="M 789.824219 631.648438 L 820.960938 631.648438 L 820.960938 635.296875 L 789.824219 635.296875 Z M 789.824219 631.648438 "/>
<path style=" stroke:none;fill-rule:nonzero;fill:rgb(39.215686%,41.176471%,60.784314%);fill-opacity:1;" d="M 727.488281 631.648438 L 758.6875 631.648438 L 758.6875 635.296875 L 727.488281 635.296875 Z M 727.488281 631.648438 "/>
<path style=" stroke:none;fill-rule:nonzero;fill:rgb(39.215686%,41.176471%,60.784314%);fill-opacity:1;" d="M 727.488281 596.640625 L 758.6875 596.640625 L 758.6875 600.289062 L 727.488281 600.289062 Z M 727.488281 596.640625 "/>
<path style=" stroke:none;fill-rule:nonzero;fill:rgb(39.215686%,41.176471%,60.784314%);fill-opacity:1;" d="M 291.550781 631.648438 L 322.71875 631.648438 L 322.71875 635.296875 L 291.550781 635.296875 Z M 291.550781 631.648438 "/>
<path style=" stroke:none;fill-rule:nonzero;fill:rgb(39.215686%,41.176471%,60.784314%);fill-opacity:1;" d="M 301.28125 598.59375 C 303.105469 597.921875 304.992188 597.28125 306.910156 596.574219 L 301.632812 596.574219 C 301.503906 597.246094 301.375 598.015625 301.28125 598.59375 "/>
<path style=" stroke:none;fill-rule:nonzero;fill:rgb(39.215686%,41.176471%,60.784314%);fill-opacity:1;" d="M 478.398438 596.640625 L 509.535156 596.640625 L 509.535156 600.289062 L 478.398438 600.289062 Z M 478.398438 596.640625 "/>
<path style=" stroke:none;fill-rule:nonzero;fill:rgb(39.215686%,41.176471%,60.784314%);fill-opacity:1;" d="M 442.816406 600.289062 L 447.265625 600.289062 L 447.265625 596.640625 L 436.832031 596.640625 C 438.878906 597.824219 440.863281 598.976562 442.816406 600.289062 "/>
<path style=" stroke:none;fill-rule:nonzero;fill:rgb(39.215686%,41.176471%,60.784314%);fill-opacity:1;" d="M 243.070312 618.847656 L 243.070312 635.328125 L 260.414062 635.328125 L 260.414062 631.648438 L 246.910156 631.648438 L 246.910156 618.847656 Z M 243.070312 618.847656 "/>
<path style=" stroke:none;fill-rule:nonzero;fill:rgb(39.215686%,41.176471%,60.784314%);fill-opacity:1;" d="M 260.414062 596.640625 L 243.039062 596.640625 L 243.039062 613.054688 L 246.910156 613.054688 L 246.910156 600.289062 L 260.414062 600.289062 Z M 260.414062 596.640625 "/>
<path style=" stroke:none;fill-rule:nonzero;fill:rgb(39.215686%,41.176471%,60.784314%);fill-opacity:1;" d="M 353.824219 631.648438 L 384.992188 631.648438 L 384.992188 635.296875 L 353.824219 635.296875 Z M 353.824219 631.648438 "/>
<path style=" stroke:none;fill-rule:nonzero;fill:rgb(15.686275%,17.254902%,38.823529%);fill-opacity:1;" d="M 511.96875 9.183594 C 234.304688 9.183594 9.183594 234.304688 9.183594 512 C 9.183594 789.761719 234.304688 1014.785156 511.96875 1014.785156 C 789.695312 1014.785156 1014.785156 789.761719 1014.785156 512 C 1014.785156 234.304688 789.695312 9.183594 511.96875 9.183594 M 511.96875 971.488281 C 258.175781 971.488281 52.449219 765.726562 52.449219 512 C 52.449219 258.207031 258.175781 52.449219 511.96875 52.449219 C 765.824219 52.449219 971.488281 258.207031 971.488281 512 C 971.488281 765.824219 765.824219 971.488281 511.96875 971.488281 "/>
<g clip-path="url(#clip7)" clip-rule="nonzero">
<g clip-path="url(#clip8)" clip-rule="nonzero">
<path style=" stroke:none;fill-rule:nonzero;fill:url(#linear5);" d="M -321.921875 894.816406 L 129.183594 -321.921875 L 1345.886719 129.183594 L 894.816406 1345.953125 Z M -321.921875 894.816406 "/>
</g>
</g>
<path style=" stroke:none;fill-rule:nonzero;fill:rgb(15.686275%,17.254902%,38.823529%);fill-opacity:1;" d="M 830.464844 200.800781 C 817.214844 187.679688 800.574219 181.023438 781.121094 181.023438 C 768.960938 181.023438 757.535156 184.097656 747.105469 190.144531 C 736.671875 196.191406 728.222656 204.671875 722.238281 215.359375 C 717.855469 223.039062 715.105469 231.296875 713.855469 239.96875 L 650.878906 239.96875 L 650.878906 273.984375 L 679.425781 273.984375 C 678.398438 275.199219 677.246094 276.320312 675.9375 277.40625 C 670.367188 281.921875 663.519531 284.128906 655.230469 284.128906 C 648 284.128906 641.601562 282.527344 635.679688 279.296875 C 629.792969 276.128906 625.375 271.902344 622.046875 266.398438 C 618.753906 260.894531 617.246094 255.265625 617.246094 249.28125 C 617.246094 243.425781 618.785156 238.015625 621.921875 232.703125 C 625.023438 227.390625 629.3125 223.296875 635.105469 220.128906 C 641.121094 216.894531 647.167969 215.328125 653.664062 215.328125 C 658.847656 215.328125 664.351562 216.542969 670.046875 218.976562 C 675.808594 221.441406 681.246094 225.152344 686.175781 229.984375 L 694.304688 237.984375 L 702.558594 230.144531 L 710.945312 222.207031 L 719.96875 213.632812 L 710.945312 205.089844 C 702.273438 196.800781 693.054688 190.65625 683.679688 186.847656 C 674.175781 182.976562 664 180.992188 653.375 180.992188 C 640.097656 180.992188 627.9375 184 617.246094 189.921875 C 606.464844 195.902344 597.886719 204.320312 591.617188 214.945312 C 589.183594 219.136719 587.230469 223.519531 585.726562 228 L 585.726562 183.742188 L 478.113281 183.742188 L 478.113281 196.222656 C 472.800781 190.878906 466.238281 187.296875 458.527344 185.503906 C 455.199219 184.769531 448.832031 183.742188 431.519531 183.742188 L 291.265625 183.742188 L 288.160156 190.847656 L 262.6875 249.214844 L 237.695312 190.878906 L 234.625 183.742188 L 197.183594 183.742188 L 204.257812 200.191406 L 250.558594 308.128906 L 253.632812 315.296875 L 271.519531 315.296875 L 274.59375 308.191406 L 317.152344 210.398438 L 317.152344 315.265625 L 432.640625 315.265625 L 432.640625 280.03125 L 456.449219 310.71875 L 460 315.296875 L 536.832031 315.296875 L 536.832031 217.921875 L 551.328125 217.921875 L 551.328125 315.296875 L 585.695312 315.296875 L 585.695312 271.039062 C 588.382812 279.105469 592.703125 286.625 598.558594 293.503906 C 612.449219 309.792969 631.425781 318.046875 654.910156 318.046875 C 674.496094 318.046875 690.59375 311.9375 702.625 299.871094 C 709.632812 292.863281 714.625 284.480469 717.632812 274.785156 C 720.960938 283.359375 726.144531 291.199219 733.121094 298.144531 C 746.398438 311.359375 762.816406 318.046875 781.984375 318.046875 C 800.960938 318.046875 817.3125 311.328125 830.558594 298.046875 C 843.777344 284.800781 850.496094 268.480469 850.496094 249.503906 C 850.496094 230.335938 843.777344 213.984375 830.464844 200.800781 M 398.207031 281.121094 L 351.519531 281.121094 L 351.519531 262.304688 L 398.207031 262.304688 Z M 398.207031 228.160156 L 351.519531 228.160156 L 351.519531 217.921875 L 398.207031 217.921875 Z M 432.609375 217.921875 L 439.871094 217.921875 C 448.449219 217.921875 451.105469 218.878906 451.359375 218.976562 C 452.289062 219.359375 452.960938 219.9375 453.601562 220.894531 C 454.273438 221.921875 454.59375 222.945312 454.59375 224.257812 C 454.59375 225.695312 454.273438 226.847656 453.566406 227.96875 C 452.960938 228.894531 452.222656 229.503906 451.039062 229.953125 C 450.335938 230.238281 447.359375 231.199219 439.457031 231.199219 L 432.609375 231.105469 Z M 502.207031 303.488281 L 502.207031 314.078125 L 488.382812 296.257812 L 462.046875 262.273438 C 463.550781 261.792969 464.960938 261.246094 466.304688 260.671875 C 473.632812 257.40625 479.390625 252.511719 483.425781 246.015625 C 487.359375 239.679688 489.34375 232.382812 489.34375 224.289062 C 489.34375 222.113281 489.183594 219.96875 488.863281 217.921875 L 502.175781 217.921875 Z M 752.414062 232.222656 C 755.425781 226.976562 759.488281 222.910156 764.863281 219.777344 C 770.175781 216.640625 775.679688 215.105469 781.601562 215.105469 C 787.679688 215.105469 793.3125 216.640625 798.816406 219.777344 C 804.257812 222.910156 808.351562 226.945312 811.359375 232.0625 C 814.335938 237.246094 815.777344 242.878906 815.777344 249.441406 C 815.777344 256.03125 814.335938 261.824219 811.296875 267.136719 C 808.351562 272.351562 804.289062 276.351562 799.039062 279.359375 C 793.664062 282.433594 787.9375 283.902344 781.601562 283.902344 C 772.191406 283.902344 764.414062 280.671875 757.792969 274.046875 C 751.167969 267.457031 747.902344 259.585938 747.902344 249.953125 C 747.902344 243.328125 749.34375 237.503906 752.414062 232.222656 "/>
<g clip-path="url(#clip9)" clip-rule="nonzero">
<g clip-path="url(#clip10)" clip-rule="nonzero">
<path style=" stroke:none;fill-rule:nonzero;fill:url(#linear6);" d="M 194.113281 179.007812 L 852.480469 179.007812 L 852.480469 320.03125 L 194.113281 320.03125 Z M 194.113281 179.007812 "/>
</g>
</g>
</g>
</svg>
