<?xml version="1.0" encoding="UTF-8"?>
<svg enable-background="new 0 0 91.3 35.3" version="1.1" viewBox="0 0 91.3 35.3" xml:space="preserve" xmlns="http://www.w3.org/2000/svg" xmlns:xlink="http://www.w3.org/1999/xlink" width="100%" height="100%">
<polygon points="11.3 0 91.3 0 84.6 35.3 5.5 35.3" fill="#540E57"/>
<polygon points="38.4 0.5 56.4 0.5 50.7 34.8 32.5 34.8" fill="#5C1062"/>
<polygon points="27.8 0.5 36.6 0.5 30.8 34.8 21.9 34.8" fill="#5C1062"/>
<polygon points="21.9 0.5 26.7 0.5 21 34.8 15.9 34.8" fill="#5C1062"/>
<polygon points="16 0.5 20.8 0.5 15.1 34.8 10.1 34.8" fill="#5C1062"/>

	<defs>
		<polygon id="a" points="13.6 0 91.6 0 84.9 35.3 7.6 35.3"/>
	</defs>
	<clipPath id="e">
		<use overflow="visible" xlink:href="#a"/>
	</clipPath>
	
		<radialGradient id="c" cx="8.2327" cy="20.073" r="12.696" gradientTransform="matrix(1.5751 0 0 1.3342 -1.5071 -9.5561)" gradientUnits="userSpaceOnUse">
		<stop stop-color="#A622B2" offset="0"/>
		<stop stop-color="#991DA5" stop-opacity=".4871" offset=".5129"/>
		<stop stop-color="#921A9E" stop-opacity="0" offset="1"/>
	</radialGradient>
	
		<ellipse cx="11.5" cy="17.2" rx="19.6" ry="17.3" clip-path="url(#e)" fill="url(#c)"/>


	<defs>
		<polygon id="f" points="13.7 0 91.5 0 84.9 35.3 7.6 35.3"/>
	</defs>
	<clipPath id="b">
		<use overflow="visible" xlink:href="#f"/>
	</clipPath>
	
		<radialGradient id="d" cx="9.344" cy="14.501" r="12.696" gradientTransform="matrix(1.5751 0 0 1.3342 -1.5071 -9.5561)" gradientUnits="userSpaceOnUse">
		<stop stop-color="#A622B2" offset="0"/>
		<stop stop-color="#991DA5" stop-opacity=".4871" offset=".5129"/>
		<stop stop-color="#921A9E" stop-opacity="0" offset="1"/>
	</radialGradient>
	
		<ellipse cx="13.2" cy="9.8" rx="19.6" ry="17.3" clip-path="url(#b)" fill="url(#d)"/>

<polygon points="5.5 35.3 0 35.3 6.1 0 11.3 0" fill="#FE5AFE"/>
<polygon points="13 35.3 7.5 35.3 13.6 0 18.9 0" fill="#FE5AFE"/>
</svg>
