<svg xmlns="http://www.w3.org/2000/svg" width="525.034" height="521.658" viewBox="0 0 525.034 521.658"><defs><style>.a{fill:#949494;stroke:#949494;}.a,.b,.c{stroke-width:24px;}.b{fill:#1c62e6;stroke:#1c62e6;}.c{fill:#e38618;stroke:#e38618;}</style></defs><g transform="translate(-1036.043 -160.321)"><g transform="translate(1071.488 189.16)"><path class="a" d="M93.832-206.05q15.216-6.34,26.945-11.412t22.824-9.827q11.1-4.755,22.824-9.51t26.945-11.729a33.131,33.131,0,0,0,10.778-7.291q3.8-4.121,3.8-11.1l22.314-91.952c0-4.649-97.79-35.28-102.2,3.192a17.015,17.015,0,0,0-12.046,4.755,15.44,15.44,0,0,0-5.072,11.729l.089,15.452-97.138-.6-1.318-31.8c0-9.3,27.147-17.494,30.528-25.525A64.818,64.818,0,0,1,57.06-402.59c5.917-5.917,150.73,26.3,160.029,26.3,7.226,2.125,44.645,60.208,35.817,120.7s-24.443,64.094-39.236,71.279-6.562,3.31-24.737,11.552-39.1,17.858-62.766,28.847c-4.649,2.113-19.028,9.733-21.564,12.058S85.379-202.246,93.832-206.05Z" transform="translate(288.958 485.302) rotate(-45)"/><path class="a" d="M207.952-266.914V-339.19a15.44,15.44,0,0,0-5.072-11.729,17.015,17.015,0,0,0-12.046-4.755H128.068c-1.176,0-81.868.752-89.481-3.53.774-26.7,15.088-40.177,18.757-43.623a80.1,80.1,0,0,1,20.638-14.028c8.031-3.593,69.92-9.977,79.219-9.977l33.155-20.4c9.3,0-1.168.358,7.074,3.951s16.085,10.077,22,15.994A69.272,69.272,0,0,1,233.7-406.367a62.919,62.919,0,0,1,5.389,25.994L226.1-262.46c0,14.371.855,14.877-5.908,22.485-.28.314-6.318,7.926-7.07,7.07-1.245-1.395,9.665,8.5,8.289,8.289-6.359-.956-18.007-2.5-55.542,13.546C161.347-215.7,207.952-265.835,207.952-266.914Z" transform="translate(288.958 485.302) rotate(-45)"/><path class="a" d="M201.695-205.812s2.821-77.719,4.67-81.329,1.587-52.049,1.587-52.049a15.44,15.44,0,0,0-5.072-11.729c-3.381-3.17-6.584,20.555-11.234,20.555l-132.139.582c0-16.639.53-70.614.917-91.9l175.809.756a65.126,65.126,0,0,1,26.311,5.389,68.22,68.22,0,0,1,21.239,14.265,69.271,69.271,0,0,1,14.265,20.922c3.593,8.031,8.106,35.64,8.106,44.939l-26.141,68.279c-4.1,29.751-30.661,39.536-31.941,40.627S228.2-216.453,201.695-205.812Z" transform="translate(216.427 -38.844) rotate(135)"/></g><path class="a" d="M93.832-206.05q15.216-6.34,26.945-11.412t22.824-9.827q11.1-4.755,22.824-9.51t26.945-11.729a33.131,33.131,0,0,0,10.778-7.291q3.8-4.121,3.8-11.1l22.314-91.952c0-4.649-97.79-35.28-102.2,3.192a17.015,17.015,0,0,0-12.046,4.755,15.44,15.44,0,0,0-5.072,11.729v40.576H38.04v-57.06a66.3,66.3,0,0,1,5.072-25.994A64.818,64.818,0,0,1,57.06-402.59c5.917-5.917,150.73,26.3,160.029,26.3,7.226,2.125,60.392,150.59,53.629,158.2s-17.541,15-32.334,22.19-31.277,14.9-49.452,23.141-39.1,17.858-62.766,28.847c-4.649,2.113-19.028,9.733-21.564,12.058S85.379-202.246,93.832-206.05Z" transform="translate(1324.445 674.462) rotate(-45)"/><path class="b" d="M207.952-266.914V-339.19a15.44,15.44,0,0,0-5.072-11.729,17.015,17.015,0,0,0-12.046-4.755H128.068c-1.176,0-81.868.752-89.481-3.53.774-26.7,15.088-40.177,18.757-43.623a80.1,80.1,0,0,1,20.638-14.028,62.92,62.92,0,0,1,25.994-5.389H213.658a65.127,65.127,0,0,1,26.311,5.389,68.22,68.22,0,0,1,21.239,14.265,69.271,69.271,0,0,1,14.265,20.922,62.919,62.919,0,0,1,5.389,25.994v104.61q0,21.556-10.144,32.968c-5.194,5.843-12.926,15.025-59.553,34.953C206.64-187.771,207.952-265.835,207.952-266.914Z" transform="translate(1324.445 674.462) rotate(-45)"/><path class="c" d="M201.695-205.812s2.821-77.719,4.67-81.329,1.587-52.049,1.587-52.049a15.44,15.44,0,0,0-5.072-11.729,17.015,17.015,0,0,0-12.046-4.755l-156.372.238c0-16.639.193-45.466.58-66.748l178.616-.06a65.127,65.127,0,0,1,26.311,5.389,68.22,68.22,0,0,1,21.239,14.265,69.271,69.271,0,0,1,14.265,20.922,62.919,62.919,0,0,1,5.389,25.994l-.849,88.545c-4.1,29.751-30.661,39.536-31.941,40.627S228.2-216.453,201.695-205.812Z" transform="translate(1251.915 150.316) rotate(135)"/></g></svg>