<?xml version="1.0" encoding="UTF-8"?><svg id="a" xmlns="http://www.w3.org/2000/svg" viewBox="0 0 2568.26 930.32"><defs><style>.b{fill:#d36512;}.c{fill:rgba(221,120,10,.9);}.d{fill:#dadada;}.e{fill:#e38618;}.f{fill:#aaa;}.g{fill:#efefef;}.h{fill:rgba(191,191,191,.9);}</style></defs><rect class="d" x="-.39" y=".02" width="2568.77" height="930.58"/><polygon class="d" points="398.32 .79 2.16 929.82 881.42 929.82 1281.68 .02 398.32 .79"/><polygon class="e" points="1278.29 .02 881.68 930.53 2161.81 930.6 2562.4 -.01 1278.29 .02"/><polygon class="b" points="2518.29 -.02 2121.82 930.55 2161.81 930.6 2562.4 -.01 2518.29 -.02"/><polygon class="f" points="402.42 -.02 5.95 930.55 45.94 930.6 446.53 -.01 402.42 -.02"/><polygon class="d" points="2445.76 .02 2049.29 930.65 2061.16 930.6 2461.76 -.01 2445.76 .02"/><polygon class="d" points="1949.75 0 1553.28 930.64 1565.15 930.59 1965.75 -.02 1949.75 0"/><polygon class="d" points="1865.2 0 1468.73 930.64 1480.6 930.59 1881.2 -.02 1865.2 0"/><polygon class="c" points="1456.74 485.84 1267.2 930.03 1436.32 930.03 1626.97 486.21 1456.74 485.84"/><polygon class="h" points="859.94 -.26 670.4 443.93 839.52 443.93 1030.16 .11 859.94 -.26"/><polygon class="h" points="729.76 746.58 651.35 930.34 815.07 930.07 893.94 746.47 729.76 746.58"/><polygon class="h" points="103.31 0 24.89 183.76 188.61 183.49 267.48 -.11 103.31 0"/><polygon class="c" points="1261.68 821.69 1612 .01 1338.89 -.18 987.97 821.63 1261.68 821.69"/><polygon class="h" points="381.42 930.86 731.74 109.17 458.63 108.98 107.71 930.79 381.42 930.86"/><polygon class="c" points="2010.86 929.92 2361.18 108.24 2088.07 108.05 1737.15 929.86 2010.86 929.92"/><polygon class="g" points="483.81 108.92 133.75 930.56 146.32 930.6 500.02 108.92 483.81 108.92"/><polygon class="g" points="515.94 108.92 165.88 930.56 178.45 930.6 532.15 108.92 515.94 108.92"/><polygon class="g" points="876.84 746.37 798.47 930.33 805.19 930.34 884.39 746.37 876.84 746.37"/><polygon class="g" points="120.8 -.24 42.43 183.73 49.15 183.74 128.35 -.23 120.8 -.24"/><polygon class="h" points="2274.27 746.58 2195.86 930.34 2359.58 930.07 2438.45 746.47 2274.27 746.58"/><polygon class="g" points="2421.36 746.37 2342.98 930.33 2349.71 930.34 2428.9 746.37 2421.36 746.37"/><polygon class="g" points="886.97 -.18 697.73 443.91 701.83 443.93 893.03 -.18 886.97 -.18"/></svg>