<svg xmlns="http://www.w3.org/2000/svg" width="100%" height="100%" viewBox="0 0 20.589 20.682"><defs><style>.a{fill:#e38618;}</style></defs><path class="a" d="M1458.176,66.333c.2,1.4-3.556,5.769-10.088,5.181-2.57-.448-7.629-1.446-9.2-9.137A10.284,10.284,0,0,1,1449.442,50.9c4.768.308,6.676,2.676,6.676,2.676l1.938-1.723s1.107-.4,1.292.523,0,6.522,0,6.522a1.045,1.045,0,0,1-1.077,1.015c-1.077.062-6.737-1.015-6.737-1.015a.936.936,0,0,1,0-1.415c.769-.677,2.092-1.784,2.092-1.784s-5.137-4.215-10.152,1.261c-2.348,2.741-1.415,7.568.554,9.106a6.66,6.66,0,0,0,6.153,2.215c3.384-.338,3.771-1.963,4.9-2.889A1.859,1.859,0,0,1,1458.176,66.333Z" transform="translate(-1438.841 -50.886)"/></svg>